<?xml version="1.0" encoding="UTF-8"?>
<svg xmlns="http://www.w3.org/2000/svg" xmlns:xlink="http://www.w3.org/1999/xlink" width="128px" height="128px" viewBox="0 0 128 128" version="1.1">
<g id="surface1">
<path style=" stroke:none;fill-rule:nonzero;fill:rgb(0.392157%,34.117648%,60.784316%);fill-opacity:1;" d="M 118.03125 102.320312 L 72.289062 123 C 69.46875 124.328125 66.53125 124.199219 63.828125 122.640625 L 6.089844 93.320312 C 4.441406 92.261719 3.949219 90.710938 4.050781 89.628906 C 4.148438 88.550781 4.398438 87.378906 7.300781 86.539062 L 11.578125 84.960938 L 69.5 116.53125 L 110.660156 99.710938 Z M 118.03125 102.320312 "/>
<path style=" stroke:none;fill-rule:nonzero;fill:rgb(96.078432%,96.078432%,96.078432%);fill-opacity:1;" d="M 71.738281 119.691406 C 69.421875 120.78125 66.710938 120.679688 64.480469 119.429688 L 8.109375 91.03125 C 7.308594 90.589844 7.070312 89.578125 7.550781 88.800781 C 8.789062 86.75 11.070312 80.269531 7.308594 74.890625 L 70.96875 105.539062 Z M 71.738281 119.691406 "/>
<path style=" stroke:none;fill-rule:nonzero;fill:rgb(58.039218%,77.64706%,83.92157%);fill-opacity:1;" d="M 115.589844 99.980469 C 115.589844 99.980469 71.761719 119.679688 71.738281 119.691406 C 70.289062 120.320312 67.398438 121.441406 64.070312 119.199219 C 66.699219 119.390625 68.550781 118.300781 69.5 116.53125 C 70.429688 114.808594 70.148438 111.988281 69.019531 110.398438 C 68.328125 109.441406 66.480469 107.910156 65.671875 107.050781 L 113.101562 88.5 C 117.300781 86.769531 121.238281 89.359375 121.871094 92.511719 C 122.570312 96.070312 118.03125 98.980469 115.589844 99.980469 Z M 115.589844 99.980469 "/>
<path style=" stroke:none;fill-rule:nonzero;fill:rgb(0.392157%,34.117648%,60.784316%);fill-opacity:1;" d="M 117.78125 86.960938 L 72.511719 107.160156 C 69.660156 108.289062 66.46875 108.140625 63.738281 106.761719 L 5.898438 77.378906 C 5.339844 77.101562 4.511719 76.328125 4.179688 75.28125 C 3.640625 73.53125 4.320312 71.328125 6.371094 70.628906 L 69.050781 102.578125 L 111.96875 84.210938 Z M 117.78125 86.960938 "/>
<path style=" stroke:none;fill-rule:nonzero;fill:rgb(0%,56.862748%,91.764706%);fill-opacity:1;" d="M 121.191406 89.890625 L 116.261719 88.101562 L 106.101562 88.691406 L 72.519531 103.679688 C 69.671875 104.808594 66.480469 104.660156 63.75 103.28125 L 5.898438 73.910156 C 4.410156 73.148438 4.730469 70.941406 6.371094 70.628906 L 48.058594 51.980469 C 49.25 51.761719 50.46875 51.890625 51.578125 52.359375 L 111.070312 80.71875 C 111.070312 80.71875 120.519531 87.191406 121.191406 89.890625 Z M 121.191406 89.890625 "/>
<path style=" stroke:none;fill-rule:nonzero;fill:rgb(38.039216%,38.039216%,38.039216%);fill-opacity:1;" d="M 105.53125 88.980469 C 105.53125 88.980469 111.789062 86.53125 116.710938 86.75 C 121.628906 86.96875 123.339844 90.421875 123.339844 90.421875 C 122.410156 86.191406 118.039062 84.03125 118.039062 84.03125 L 53.039062 51.300781 C 52.589844 51.109375 50.929688 50.71875 48.378906 51.769531 C 46.320312 52.621094 39.589844 55.769531 39.589844 55.769531 Z M 105.53125 88.980469 "/>
<path style=" stroke:none;fill-rule:nonzero;fill:rgb(25.882354%,25.882354%,25.882354%);fill-opacity:1;" d="M 123.621094 91.21875 C 123.148438 89.351562 121.988281 87.351562 119.851562 86.378906 C 117.03125 85.109375 113.011719 85.441406 110.441406 86.78125 L 105.53125 88.960938 L 105.53125 92.421875 L 111.738281 89.660156 C 117.78125 86.96875 120.460938 91 120.691406 91.949219 C 121.648438 95.820312 119.789062 98.058594 114.300781 100.578125 L 105.378906 104.601562 L 105.378906 108.078125 L 115.640625 103.511719 C 120.179688 101.691406 125.359375 98.269531 123.621094 91.21875 Z M 123.621094 91.21875 "/>
<path style=" stroke:none;fill-rule:nonzero;fill:rgb(0.392157%,34.117648%,60.784316%);fill-opacity:1;" d="M 33.011719 90.308594 L 15.738281 66.441406 L 18.449219 65.230469 L 37.878906 91.929688 Z M 33.011719 90.308594 "/>
<path style=" stroke:none;fill-rule:nonzero;fill:rgb(0.392157%,34.117648%,60.784316%);fill-opacity:1;" d="M 55.160156 101.308594 L 52.078125 98.871094 L 105.53125 87.960938 L 105.53125 89.710938 L 98.039062 92.550781 Z M 55.160156 101.308594 "/>
<path style=" stroke:none;fill-rule:nonzero;fill:rgb(61.176473%,80.000001%,39.607844%);fill-opacity:1;" d="M 14.800781 46.179688 L 82.308594 34.898438 L 111.800781 67.371094 C 113.289062 68.941406 112.480469 71.539062 110.359375 71.96875 L 40.660156 86.269531 Z M 14.800781 46.179688 "/>
<path style=" stroke:none;fill-rule:nonzero;fill:rgb(40.784314%,62.352943%,21.960784%);fill-opacity:1;" d="M 110.359375 69.171875 L 41.140625 83.191406 L 40.921875 86.488281 L 110.359375 72.25 C 112.320312 71.839844 113.140625 69.601562 112.070312 68.019531 C 111.691406 68.578125 111.109375 69.019531 110.359375 69.171875 Z M 110.359375 69.171875 "/>
<path style=" stroke:none;fill-rule:nonzero;fill:rgb(40.784314%,62.352943%,21.960784%);fill-opacity:1;" d="M 114.089844 84.300781 C 114.820312 85.460938 114.160156 86.988281 112.820312 87.261719 L 49.101562 100.179688 C 45.269531 100.96875 41.511719 98.460938 41.171875 94.558594 C 40.878906 91.261719 43.109375 88.269531 46.359375 87.589844 L 107.640625 73.828125 Z M 114.089844 84.300781 "/>
<path style=" stroke:none;fill-rule:nonzero;fill:rgb(38.039216%,38.039216%,38.039216%);fill-opacity:1;" d="M 55.589844 80.101562 L 30.210938 43.78125 L 15.730469 47.609375 C 12.378906 50.941406 13.628906 56.410156 13.628906 56.410156 C 13.628906 56.410156 35.800781 91.988281 39.300781 96.539062 C 42.800781 101.089844 47.910156 100.378906 47.910156 100.378906 L 56.539062 98.640625 L 55.640625 82.539062 Z M 55.589844 80.101562 "/>
<path style=" stroke:none;fill-rule:nonzero;fill:rgb(25.882354%,25.882354%,25.882354%);fill-opacity:1;" d="M 55.589844 80.339844 L 43.398438 82.859375 C 40.070312 83.609375 39.46875 86.738281 39.46875 86.738281 L 10.039062 44.570312 C 10.039062 44.570312 5.851562 49.640625 8.628906 53.949219 L 39.300781 96.539062 C 42.648438 101.308594 47.910156 100.421875 47.910156 100.421875 L 56.539062 98.679688 L 55.648438 82.898438 Z M 55.589844 80.339844 "/>
<path style=" stroke:none;fill-rule:nonzero;fill:rgb(72.549021%,89.411765%,91.764706%);fill-opacity:1;" d="M 110.25 83 C 110.558594 83.679688 110.160156 84.46875 109.429688 84.621094 L 48.5 97.121094 C 44.671875 97.910156 41.960938 95.371094 42.101562 91.910156 C 42.28125 87.539062 44.730469 85.691406 47.96875 85.019531 L 109.199219 72.511719 C 109.199219 72.511719 107.121094 74.851562 108.710938 79.230469 C 109.25 80.738281 109.828125 82.078125 110.25 83 Z M 110.25 83 "/>
<path style="fill:none;stroke-width:2.071;stroke-linecap:butt;stroke-linejoin:miter;stroke:rgb(25.882354%,25.882354%,25.882354%);stroke-opacity:1;stroke-miterlimit:10;" d="M 45.210938 83.699219 L 19.101562 46.761719 "/>
<path style=" stroke:none;fill-rule:nonzero;fill:rgb(25.882354%,25.882354%,25.882354%);fill-opacity:1;" d="M 47.261719 67.949219 L 13.679688 51.03125 L 12.320312 53.710938 L 51.121094 73.480469 Z M 47.261719 67.949219 "/>
<path style=" stroke:none;fill-rule:nonzero;fill:rgb(40.784314%,62.352943%,21.960784%);fill-opacity:1;" d="M 108.789062 64.03125 L 106.328125 61.328125 L 68.5 78.691406 L 47.261719 68.179688 L 50.878906 73.359375 L 64.949219 80.550781 L 75.429688 78.941406 Z M 108.789062 64.03125 "/>
<path style=" stroke:none;fill-rule:nonzero;fill:rgb(77.64706%,15.686275%,15.686275%);fill-opacity:1;" d="M 118.019531 57.351562 L 72.289062 78.03125 C 69.46875 79.359375 66.53125 79.230469 63.828125 77.671875 L 6.089844 48.351562 C 4.441406 47.289062 3.949219 45.738281 4.050781 44.660156 C 4.148438 43.578125 4.398438 42.410156 7.300781 41.570312 L 10.011719 40.570312 L 69.328125 69.679688 L 117.5 49.75 Z M 118.019531 57.351562 "/>
<path style=" stroke:none;fill-rule:nonzero;fill:rgb(96.078432%,96.078432%,96.078432%);fill-opacity:1;" d="M 71.730469 74.71875 C 69.410156 75.808594 66.699219 75.710938 64.46875 74.460938 L 8.101562 46.058594 C 7.300781 45.621094 7.058594 44.609375 7.539062 43.828125 C 8.78125 41.78125 11.058594 35.300781 7.300781 29.921875 L 69.539062 61.578125 Z M 71.730469 74.71875 "/>
<path style=" stroke:none;fill-rule:nonzero;fill:rgb(58.039218%,77.64706%,83.92157%);fill-opacity:1;" d="M 115.578125 55.011719 C 115.578125 55.011719 71.75 74.710938 71.730469 74.71875 C 70.28125 75.351562 67.390625 76.46875 64.058594 74.230469 C 66.691406 74.421875 68.539062 73.328125 69.488281 71.558594 C 70.421875 69.839844 70.140625 67.019531 69.011719 65.429688 C 68.320312 64.46875 66.46875 62.941406 65.660156 62.078125 L 113.089844 43.53125 C 117.289062 41.800781 121.230469 44.390625 121.859375 47.539062 C 122.558594 51.101562 118.019531 54.011719 115.578125 55.011719 Z M 115.578125 55.011719 "/>
<path style=" stroke:none;fill-rule:nonzero;fill:rgb(77.64706%,15.686275%,15.686275%);fill-opacity:1;" d="M 117.78125 41.988281 L 72.511719 62.191406 C 69.660156 63.320312 66.46875 63.171875 63.738281 61.789062 L 5.890625 32.410156 C 5.289062 32.109375 4.390625 31.339844 4.101562 30.25 C 3.671875 28.628906 4.230469 26.5 6.359375 25.660156 L 59.371094 14.429688 Z M 117.78125 41.988281 "/>
<path style=" stroke:none;fill-rule:nonzero;fill:rgb(95.686275%,26.274511%,21.176471%);fill-opacity:1;" d="M 121.179688 44.921875 L 116.25 43.128906 L 106.089844 43.71875 L 72.511719 58.710938 C 69.660156 59.839844 66.46875 59.691406 63.738281 58.308594 L 5.890625 28.929688 C 4.398438 28.171875 4.929688 26.160156 6.359375 25.648438 L 48.058594 7.011719 C 49.25 6.789062 50.46875 6.921875 51.578125 7.390625 L 111.070312 35.75 C 111.070312 35.75 120.511719 42.210938 121.179688 44.921875 Z M 121.179688 44.921875 "/>
<path style=" stroke:none;fill-rule:nonzero;fill:rgb(38.039216%,38.039216%,38.039216%);fill-opacity:1;" d="M 105.53125 44 C 105.53125 44 110.738281 42.171875 115.660156 42.390625 C 120.578125 42.609375 123.351562 45.441406 123.351562 45.441406 C 122.339844 40.921875 118.050781 39.050781 118.050781 39.050781 L 53.050781 6.320312 C 52.601562 6.128906 50.941406 5.738281 48.390625 6.789062 C 46.328125 7.640625 39.601562 10.789062 39.601562 10.789062 Z M 105.53125 44 "/>
<path style=" stroke:none;fill-rule:nonzero;fill:rgb(25.882354%,25.882354%,25.882354%);fill-opacity:1;" d="M 111.480469 41.859375 L 44.96875 8.308594 L 47.171875 7.320312 L 114.808594 41.21875 Z M 111.480469 41.859375 "/>
<path style=" stroke:none;fill-rule:nonzero;fill:rgb(25.882354%,25.882354%,25.882354%);fill-opacity:1;" d="M 123.609375 46.25 C 123.140625 44.378906 122.351562 42.570312 120.121094 41.628906 C 117.269531 40.429688 114.671875 40.179688 110.429688 41.808594 L 105.519531 43.988281 L 105.519531 47.449219 L 111.730469 44.691406 C 114.878906 43.210938 119.519531 43.53125 120.679688 46.980469 C 121.949219 50.761719 119.78125 53.089844 114.289062 55.609375 L 105.371094 59.628906 L 105.371094 63.109375 L 115.628906 58.539062 C 120.179688 56.71875 125.359375 53.300781 123.609375 46.25 Z M 123.609375 46.25 "/>
</g>
</svg>
