<?xml version="1.0" encoding="UTF-8"?>
<svg xmlns="http://www.w3.org/2000/svg" xmlns:xlink="http://www.w3.org/1999/xlink" width="128px" height="128px" viewBox="0 0 128 128" version="1.1">
<g id="surface1">
<path style=" stroke:none;fill-rule:nonzero;fill:rgb(31.37255%,64.705884%,90.196079%);fill-opacity:1;" d="M 85.332031 103.109375 C 85.332031 91.328125 75.78125 81.777344 64 81.777344 C 52.21875 81.777344 42.667969 91.328125 42.667969 103.109375 C 42.667969 114.894531 52.21875 124.445312 64 124.445312 C 75.78125 124.445312 85.332031 114.894531 85.332031 103.109375 Z M 85.332031 103.109375 "/>
<path style=" stroke:none;fill-rule:nonzero;fill:rgb(31.37255%,64.705884%,90.196079%);fill-opacity:1;" d="M 128 64 C 128 50.253906 116.855469 39.109375 103.109375 39.109375 C 89.367188 39.109375 78.222656 50.253906 78.222656 64 C 78.222656 77.746094 89.367188 88.890625 103.109375 88.890625 C 116.855469 88.890625 128 77.746094 128 64 Z M 128 64 "/>
<path style=" stroke:none;fill-rule:nonzero;fill:rgb(31.37255%,64.705884%,90.196079%);fill-opacity:1;" d="M 74.667969 40.890625 C 74.667969 20.269531 57.953125 3.554688 37.332031 3.554688 C 16.714844 3.554688 0 20.269531 0 40.890625 C 0 61.507812 16.714844 78.222656 37.332031 78.222656 C 57.953125 78.222656 74.667969 61.507812 74.667969 40.890625 Z M 74.667969 40.890625 "/>
<path style=" stroke:none;fill-rule:nonzero;fill:rgb(65.882355%,87.843138%,97.647059%);fill-opacity:0.501961;" d="M 71.109375 40.890625 C 71.109375 22.234375 55.988281 7.109375 37.332031 7.109375 C 18.679688 7.109375 3.554688 22.234375 3.554688 40.890625 C 3.554688 59.542969 18.679688 74.667969 37.332031 74.667969 C 55.988281 74.667969 71.109375 59.542969 71.109375 40.890625 Z M 71.109375 40.890625 "/>
<path style=" stroke:none;fill-rule:nonzero;fill:rgb(65.882355%,87.843138%,97.647059%);fill-opacity:0.501961;" d="M 81.777344 103.109375 C 81.777344 93.292969 73.820312 85.332031 64 85.332031 C 54.179688 85.332031 46.222656 93.292969 46.222656 103.109375 C 46.222656 112.929688 54.179688 120.890625 64 120.890625 C 73.820312 120.890625 81.777344 112.929688 81.777344 103.109375 Z M 81.777344 103.109375 "/>
<path style=" stroke:none;fill-rule:nonzero;fill:rgb(65.882355%,87.843138%,97.647059%);fill-opacity:0.501961;" d="M 124.445312 64 C 124.445312 52.21875 114.894531 42.667969 103.109375 42.667969 C 91.328125 42.667969 81.777344 52.21875 81.777344 64 C 81.777344 75.78125 91.328125 85.332031 103.109375 85.332031 C 114.894531 85.332031 124.445312 75.78125 124.445312 64 Z M 124.445312 64 "/>
<path style=" stroke:none;fill-rule:nonzero;fill:rgb(94.901961%,97.647059%,100%);fill-opacity:1;" d="M 37.332031 69.332031 C 35.371094 69.332031 33.777344 67.742188 33.777344 65.777344 C 33.777344 63.8125 35.371094 62.222656 37.332031 62.222656 C 49.097656 62.222656 58.667969 52.652344 58.667969 40.890625 C 58.667969 38.925781 60.257812 37.332031 62.222656 37.332031 C 64.1875 37.332031 65.777344 38.925781 65.777344 40.890625 C 65.777344 56.574219 53.015625 69.332031 37.332031 69.332031 Z M 120.890625 65.777344 C 120.890625 63.8125 119.296875 62.222656 117.332031 62.222656 C 115.371094 62.222656 113.777344 63.8125 113.777344 65.777344 C 113.777344 70.675781 109.789062 74.667969 104.890625 74.667969 C 102.925781 74.667969 101.332031 76.257812 101.332031 78.222656 C 101.332031 80.1875 102.925781 81.777344 104.890625 81.777344 C 113.710938 81.777344 120.890625 74.597656 120.890625 65.777344 Z M 78.222656 104.890625 C 78.222656 102.925781 76.628906 101.332031 74.667969 101.332031 C 72.703125 101.332031 71.109375 102.925781 71.109375 104.890625 C 71.109375 107.828125 68.71875 110.222656 65.777344 110.222656 C 63.8125 110.222656 62.222656 111.8125 62.222656 113.777344 C 62.222656 115.742188 63.8125 117.332031 65.777344 117.332031 C 72.640625 117.332031 78.222656 111.75 78.222656 104.890625 Z M 78.222656 104.890625 "/>
<path style=" stroke:none;fill-rule:nonzero;fill:rgb(100%,100%,100%);fill-opacity:1;" d="M 12.445312 46.222656 C 9.5 46.222656 7.109375 43.835938 7.109375 40.890625 C 7.109375 24.222656 20.667969 10.667969 37.332031 10.667969 C 40.277344 10.667969 42.667969 13.054688 42.667969 16 C 42.667969 18.945312 40.277344 21.332031 37.332031 21.332031 C 26.539062 21.34375 17.789062 30.09375 17.777344 40.890625 C 17.777344 43.835938 15.390625 46.222656 12.445312 46.222656 Z M 96 64 C 96 60.078125 99.1875 56.890625 103.109375 56.890625 C 106.054688 56.890625 108.445312 54.5 108.445312 51.554688 C 108.445312 48.609375 106.054688 46.222656 103.109375 46.222656 C 93.308594 46.222656 85.332031 54.199219 85.332031 64 C 85.332031 66.945312 87.722656 69.332031 90.667969 69.332031 C 93.613281 69.332031 96 66.945312 96 64 Z M 60.445312 103.109375 C 60.445312 101.152344 62.039062 99.554688 64 99.554688 C 66.945312 99.554688 69.332031 97.167969 69.332031 94.222656 C 69.332031 91.277344 66.945312 88.890625 64 88.890625 C 56.15625 88.890625 49.777344 95.265625 49.777344 103.109375 C 49.777344 106.054688 52.164062 108.445312 55.109375 108.445312 C 58.054688 108.445312 60.445312 106.054688 60.445312 103.109375 Z M 60.445312 103.109375 "/>
<path style=" stroke:none;fill-rule:nonzero;fill:rgb(100%,100%,100%);fill-opacity:0.501961;" d="M 37.332031 3.554688 C 39.75 3.554688 42.113281 3.804688 44.402344 4.25 C 45.597656 6.816406 46.21875 9.613281 46.222656 12.445312 C 46.210938 22.15625 39.074219 30.386719 29.464844 31.773438 C 19.851562 33.164062 10.679688 27.289062 7.917969 17.980469 C 14.753906 9.21875 25.386719 3.554688 37.332031 3.554688 Z M 82.058594 50.785156 C 83.484375 58.957031 90.929688 64.679688 99.195312 63.953125 C 107.460938 63.226562 113.796875 56.296875 113.777344 48 C 113.761719 45.480469 113.144531 43.003906 111.980469 40.773438 C 109.148438 39.679688 106.144531 39.117188 103.109375 39.109375 C 94.550781 39.121094 86.601562 43.53125 82.058594 50.785156 Z M 46.4375 91.027344 C 47.476562 97.960938 53.429688 103.097656 60.445312 103.109375 C 68.300781 103.109375 74.667969 96.742188 74.667969 88.890625 C 74.667969 87.230469 74.328125 85.664062 73.804688 84.183594 C 70.78125 82.601562 67.414062 81.777344 64 81.777344 C 56.980469 81.78125 50.414062 85.238281 46.4375 91.027344 Z M 46.4375 91.027344 "/>
</g>
</svg>
