<?xml version="1.0" encoding="UTF-8"?>
<svg xmlns="http://www.w3.org/2000/svg" xmlns:xlink="http://www.w3.org/1999/xlink" width="128px" height="128px" viewBox="0 0 128 128" version="1.1">
<g id="surface1">
<path style=" stroke:none;fill-rule:nonzero;fill:rgb(100%,86.274511%,36.470589%);fill-opacity:1;" d="M 73.007812 106.832031 C 69.644531 101.992188 70.355469 95.683594 74.582031 92.738281 C 78.808594 89.800781 84.96875 91.335938 88.332031 96.179688 C 91.695312 101.011719 90.988281 107.320312 86.753906 110.261719 C 82.523438 113.203125 76.367188 111.664062 73.007812 106.832031 Z M 73.007812 106.832031 "/>
<path style=" stroke:none;fill-rule:nonzero;fill:rgb(100%,86.274511%,36.470589%);fill-opacity:1;" d="M 75.558594 87.265625 L 82.210938 99.675781 C 83.148438 101.40625 82.503906 103.683594 80.789062 104.597656 C 79.070312 105.535156 76.914062 104.941406 75.976562 103.214844 L 69.753906 91.765625 L 61.644531 97.40625 L 60.097656 89.816406 C 59.589844 89.035156 79.203125 80.179688 80.523438 78.710938 C 80.523438 78.710938 82.269531 83.425781 75.558594 87.265625 Z M 75.558594 87.265625 "/>
<path style=" stroke:none;fill-rule:nonzero;fill:rgb(100%,86.274511%,36.470589%);fill-opacity:1;" d="M 95.492188 76.199219 L 80.058594 76.316406 C 78.222656 76.332031 76.734375 77.839844 76.746094 79.667969 C 76.761719 81.5 78.277344 82.992188 80.105469 82.976562 L 95.542969 82.867188 C 97.378906 82.851562 98.867188 81.339844 98.855469 79.507812 C 98.835938 77.679688 97.328125 76.1875 95.492188 76.199219 Z M 95.492188 76.199219 "/>
<path style=" stroke:none;fill-rule:nonzero;fill:rgb(100%,86.274511%,36.470589%);fill-opacity:1;" d="M 109.695312 81.683594 C 107.054688 81.15625 98.394531 76.511719 96.285156 76.40625 C 94.171875 76.296875 93.445312 77.078125 92.851562 78.820312 C 92.261719 80.546875 93.644531 81.476562 96.496094 83.484375 C 99.347656 85.488281 106.847656 85.28125 108.535156 85.703125 C 109.015625 85.824219 109.953125 87.070312 110.859375 87.5 C 112.652344 88.34375 113.820312 87.246094 114.871094 87.289062 C 116.445312 87.351562 117.574219 88.03125 117.832031 87.289062 L 118.359375 86.339844 C 118.785156 84.859375 116.6875 83.664062 114.558594 82.324219 C 113.476562 81.644531 110.585938 81.863281 109.695312 81.683594 Z M 109.695312 81.683594 "/>
<path style=" stroke:none;fill-rule:nonzero;fill:rgb(100%,67.450982%,20%);fill-opacity:1;" d="M 88.332031 96.179688 C 88.332031 96.179688 90.117188 98.238281 92.023438 99.75 C 94.199219 101.484375 96.230469 106.511719 93.277344 109.25 C 92.71875 112.71875 87.429688 116.171875 82.660156 116.753906 C 77.269531 117.410156 73.625 114.269531 71.542969 109.871094 C 69.632812 105.828125 70.882812 100.335938 70.882812 100.335938 C 72.371094 105.027344 78.316406 108.324219 80.671875 106.914062 C 79.351562 106.722656 78.289062 105.820312 77.882812 105.039062 C 81.632812 106.507812 84.949219 102.628906 89.386719 105.417969 C 89.386719 105.417969 89.289062 104.648438 89.902344 102.324219 C 90.457031 100.222656 89.410156 98.066406 88.332031 96.179688 Z M 88.332031 96.179688 "/>
<path style=" stroke:none;fill-rule:nonzero;fill:rgb(100%,86.274511%,36.470589%);fill-opacity:1;" d="M 74.945312 31.457031 C 74.347656 33.246094 72.351562 34.890625 71.707031 35.519531 C 68.785156 38.375 63.121094 43.964844 60.351562 45.964844 L 69.675781 53.609375 C 71.703125 51.664062 75.023438 47.5 77.882812 43.917969 C 79.589844 41.785156 81.355469 40.691406 82.414062 37.460938 C 82.414062 37.460938 84.789062 25.226562 88.351562 16.050781 C 89.488281 13.117188 83.714844 11.054688 82.414062 13.496094 C 81.125 15.917969 79.484375 19.378906 78.632812 21.65625 C 78.058594 23.21875 75.214844 30.644531 74.945312 31.457031 Z M 74.945312 31.457031 "/>
<path style=" stroke:none;fill-rule:nonzero;fill:rgb(86.666667%,33.333334%,12.156863%);fill-opacity:1;" d="M 81.816406 8.695312 C 81.621094 9.28125 81.097656 11.390625 81.09375 12.195312 L 80.242188 16.984375 C 80.191406 17.222656 80.355469 17.453125 80.59375 17.488281 C 81.292969 17.601562 83.558594 17.191406 84.953125 18.457031 C 85.882812 19.304688 85.992188 20.8125 86.527344 21.046875 C 86.699219 21.117188 86.894531 21.027344 86.953125 20.851562 C 86.953125 20.851562 87.121094 19.980469 87.347656 19.230469 C 87.808594 18.640625 88.351562 17.453125 89.191406 16.976562 C 89.6875 16.890625 90.226562 16.441406 91.539062 16.359375 C 92.316406 16.308594 95.890625 16.058594 95.890625 16.058594 C 96.796875 16.011719 97.082031 15.726562 97.566406 15.695312 C 98.570312 15.625 101.195312 15.703125 102.046875 15.632812 C 102.898438 15.570312 103.382812 15.046875 103.550781 14.59375 C 103.722656 14.148438 103.675781 13.855469 103.675781 13.855469 C 103.675781 13.855469 102.847656 12.421875 98 10.457031 C 95.15625 9.304688 83.109375 6.636719 83.109375 6.636719 L 82.65625 6.992188 C 82.207031 7.347656 82.023438 8.085938 81.816406 8.695312 Z M 81.816406 8.695312 "/>
<path style=" stroke:none;fill-rule:nonzero;fill:rgb(80.000001%,83.92157%,86.666667%);fill-opacity:1;" d="M 88.949219 17.679688 C 88.925781 17.777344 88.875 17.875 88.804688 17.957031 C 88.574219 18.210938 88.175781 18.234375 87.917969 18 L 87.105469 17.257812 C 86.84375 17.023438 86.832031 16.621094 87.0625 16.375 C 87.296875 16.117188 87.691406 16.097656 87.945312 16.332031 L 88.761719 17.070312 C 88.933594 17.226562 89 17.460938 88.949219 17.679688 Z M 88.949219 17.679688 "/>
<path style=" stroke:none;fill-rule:nonzero;fill:rgb(98.039216%,45.490196%,24.313726%);fill-opacity:1;" d="M 89.238281 9.199219 C 88.765625 9.867188 87.261719 11.300781 85.949219 11.496094 C 84.769531 11.671875 81.773438 11.285156 81.207031 11.210938 C 81.332031 10.285156 81.71875 8.902344 81.863281 8.464844 C 82.058594 7.890625 82.328125 7.132812 82.769531 6.804688 C 82.816406 6.773438 87.625 8.652344 89.238281 9.199219 Z M 89.238281 9.199219 "/>
<path style=" stroke:none;fill-rule:nonzero;fill:rgb(80.000001%,83.92157%,86.666667%);fill-opacity:1;" d="M 82.703125 6.800781 C 82.703125 6.800781 83.199219 6.925781 83.488281 7.238281 C 83.777344 7.554688 84.582031 7.914062 85.199219 8.121094 C 85.8125 8.328125 88.113281 9.144531 89.789062 9.46875 C 91.464844 9.792969 94.585938 9.972656 95.59375 10.183594 C 96.605469 10.394531 98.15625 10.777344 99.261719 11.257812 C 100.363281 11.738281 101.339844 12.203125 101.929688 12.527344 C 102.695312 12.9375 103.289062 13.398438 103.675781 13.855469 C 103.675781 13.855469 103.894531 12.523438 102.1875 11.070312 C 100.835938 9.921875 99.464844 9.132812 98.070312 8.636719 C 97.960938 8.597656 94.210938 7.367188 92.335938 6.757812 C 90.960938 6.316406 88.773438 5.597656 88.773438 5.597656 C 86.183594 4.726562 84.851562 4.351562 84.316406 4.347656 C 84.21875 4.347656 83.84375 4.277344 83.386719 4.472656 C 83.089844 4.597656 82.371094 6.691406 82.703125 6.800781 Z M 90.953125 16.707031 C 90.902344 16.933594 90.722656 17.121094 90.476562 17.175781 C 90.140625 17.25 89.804688 17.039062 89.730469 16.699219 L 89.492188 15.625 C 89.421875 15.28125 89.632812 14.953125 89.96875 14.875 C 90.308594 14.800781 90.640625 15.015625 90.714844 15.351562 L 90.953125 16.425781 C 90.980469 16.523438 90.976562 16.617188 90.953125 16.707031 Z M 93.152344 16.359375 C 93.089844 16.617188 92.867188 16.820312 92.585938 16.84375 C 92.242188 16.863281 91.941406 16.605469 91.917969 16.257812 L 91.835938 15.101562 C 91.8125 14.742188 92.070312 14.453125 92.417969 14.429688 C 92.765625 14.40625 93.066406 14.667969 93.089844 15.011719 L 93.167969 16.171875 C 93.167969 16.238281 93.167969 16.296875 93.152344 16.359375 Z M 95.386719 16.140625 C 95.316406 16.429688 95.050781 16.640625 94.746094 16.621094 C 94.398438 16.609375 94.132812 16.3125 94.152344 15.964844 L 94.203125 14.902344 C 94.230469 14.53125 94.515625 14.289062 94.863281 14.308594 C 95.207031 14.320312 95.472656 14.617188 95.457031 14.964844 L 95.402344 16.027344 C 95.398438 16.070312 95.394531 16.105469 95.386719 16.140625 Z M 95.386719 16.140625 "/>
<path style=" stroke:none;fill-rule:nonzero;fill:rgb(100%,86.274511%,36.470589%);fill-opacity:1;" d="M 35.410156 35.246094 C 37.289062 37.476562 42.949219 41.453125 43.574219 42.105469 C 46.625 45.257812 50.023438 47.179688 52.328125 50.195312 L 43.933594 58.847656 C 41.691406 57.148438 39.441406 54.394531 36.1875 51.164062 C 34.25 49.242188 30.511719 42.035156 28.222656 39.65625 C 28.222656 39.65625 22.886719 33.035156 18.300781 24.324219 C 16.835938 21.535156 21.828125 19.289062 23.910156 21.109375 C 26.140625 23.058594 28.867188 26.230469 30.945312 28.585938 C 32.039062 29.832031 34.859375 34.59375 35.410156 35.246094 Z M 35.410156 35.246094 "/>
<path style=" stroke:none;fill-rule:nonzero;fill:rgb(80.000001%,83.92157%,86.666667%);fill-opacity:1;" d="M 11.113281 6.195312 C 13.675781 2.832031 19.394531 4.351562 20.933594 8.664062 C 21.96875 11.566406 22.019531 16.117188 23.457031 17.550781 C 24.890625 18.988281 25.4375 21.226562 25.460938 21.972656 C 25.484375 22.71875 24.65625 23.238281 23.886719 22.515625 C 23.886719 22.515625 25.972656 24.769531 23.605469 25.039062 C 21.242188 25.304688 22.847656 26.835938 21.296875 26.453125 C 19.746094 26.066406 19.980469 24.925781 19.980469 24.925781 C 19.980469 24.925781 19.988281 27.6875 18.847656 26.5 C 17.707031 25.308594 12.097656 17.113281 10.859375 13.289062 C 10.046875 10.777344 9.246094 8.644531 11.113281 6.195312 Z M 11.113281 6.195312 "/>
<path style=" stroke:none;fill-rule:nonzero;fill:rgb(86.666667%,33.333334%,12.156863%);fill-opacity:1;" d="M 11.980469 7.007812 C 14.398438 3.542969 19.824219 6.234375 20.664062 9.195312 C 21.503906 12.15625 21.714844 16.007812 23.148438 17.441406 C 24.582031 18.871094 26.511719 21.640625 26.53125 22.386719 C 26.554688 23.132812 25.4375 23.644531 24.664062 22.921875 C 24.664062 22.921875 27.160156 25.328125 24.792969 25.59375 C 22.425781 25.859375 23.042969 27.945312 21.492188 27.5625 C 19.941406 27.179688 19.671875 24.8125 19.671875 24.8125 C 19.671875 24.8125 19.683594 27.574219 18.542969 26.386719 C 17.402344 25.195312 12.710938 17.660156 11.542969 13.8125 C 10.378906 9.964844 10.84375 8.636719 11.980469 7.007812 Z M 11.980469 7.007812 "/>
<path style=" stroke:none;fill-rule:nonzero;fill:rgb(80.000001%,83.92157%,86.666667%);fill-opacity:1;" d="M 18.703125 22.5 C 18.546875 22.671875 18.496094 22.925781 18.589844 23.15625 C 18.71875 23.476562 19.085938 23.628906 19.40625 23.5 L 23.53125 21.382812 C 23.855469 21.246094 24.003906 20.886719 23.871094 20.5625 C 23.742188 20.242188 23.375 20.089844 23.054688 20.21875 L 18.929688 22.335938 C 18.839844 22.378906 18.765625 22.433594 18.703125 22.5 Z M 17.296875 19.730469 C 17.140625 19.902344 17.089844 20.15625 17.183594 20.386719 C 17.316406 20.707031 17.683594 20.859375 18 20.730469 L 21.878906 19.023438 C 22.199219 18.882812 22.351562 18.523438 22.21875 18.199219 C 22.085938 17.882812 21.722656 17.726562 21.402344 17.859375 L 17.523438 19.566406 C 17.4375 19.609375 17.359375 19.664062 17.296875 19.730469 Z M 16.167969 17.109375 C 15.957031 17.277344 15.871094 17.5625 15.972656 17.828125 C 16.097656 18.152344 16.460938 18.3125 16.78125 18.183594 L 20.246094 16.707031 C 20.578125 16.574219 20.730469 16.21875 20.605469 15.894531 C 20.480469 15.574219 20.117188 15.414062 19.792969 15.542969 L 16.332031 17.015625 C 16.265625 17.039062 16.214844 17.070312 16.167969 17.109375 Z M 15.300781 14.632812 C 15.039062 14.777344 14.917969 15.09375 15.019531 15.382812 C 15.132812 15.707031 15.492188 15.878906 15.816406 15.765625 L 19.136719 14.523438 C 19.484375 14.394531 19.632812 14.050781 19.519531 13.722656 C 19.40625 13.398438 19.046875 13.226562 18.722656 13.339844 L 15.402344 14.585938 C 15.363281 14.59375 15.332031 14.613281 15.300781 14.632812 Z M 15.300781 14.632812 "/>
<path style=" stroke:none;fill-rule:nonzero;fill:rgb(86.666667%,33.333334%,12.156863%);fill-opacity:1;" d="M 51.730469 67.980469 C 51.730469 67.980469 45.621094 64.203125 43.128906 62.285156 C 40.644531 60.371094 34.890625 51.832031 34.890625 51.832031 C 34.890625 51.832031 41.949219 44.539062 45.820312 42.011719 L 55.007812 48.824219 L 63.507812 40.925781 C 63.507812 40.925781 72.363281 44.449219 74.808594 48.53125 C 74.808594 48.53125 70.792969 55.078125 69.527344 57.191406 C 69.46875 58.820312 69.558594 60.886719 70.375 60.992188 Z M 51.730469 67.980469 "/>
<path style=" stroke:none;fill-rule:nonzero;fill:rgb(100%,86.274511%,36.470589%);fill-opacity:1;" d="M 51.886719 103.960938 L 58.375 89.953125 C 59.140625 88.289062 61.128906 87.558594 62.792969 88.324219 C 64.453125 89.09375 65.1875 91.089844 64.414062 92.75 L 57.9375 106.761719 C 57.167969 108.425781 55.179688 109.160156 53.511719 108.386719 C 51.851562 107.621094 51.121094 105.628906 51.886719 103.960938 Z M 51.886719 103.960938 "/>
<path style=" stroke:none;fill-rule:nonzero;fill:rgb(100%,86.274511%,36.470589%);fill-opacity:1;" d="M 50.027344 121.605469 C 50.027344 121.605469 51.082031 109.109375 51.398438 106.714844 C 51.714844 104.324219 53.527344 102.460938 55.359375 102.640625 C 57.175781 102.816406 58.027344 104.175781 58.265625 107.242188 C 58.5 110.3125 54.855469 118.640625 55.183594 121.894531 C 55.289062 122.949219 58.503906 123.855469 57.609375 124.535156 C 57.214844 124.839844 54.578125 125.117188 54.019531 125.0625 L 52.015625 125.167969 C 51.117188 125.082031 48.855469 125.28125 48.316406 124.640625 C 47.753906 123.976562 49.929688 122.535156 50.027344 121.605469 Z M 50.027344 121.605469 "/>
<path style=" stroke:none;fill-rule:nonzero;fill:rgb(98.039216%,45.490196%,24.313726%);fill-opacity:1;" d="M 65.511719 95.417969 C 65.511719 95.417969 67.53125 93.832031 68.992188 92.65625 C 68.992188 92.65625 67.539062 90.09375 71.179688 87.402344 C 74.824219 84.707031 77.179688 85.992188 77.179688 85.992188 C 77.179688 85.992188 78 86.3125 80.871094 85.445312 C 82.234375 85.039062 84.949219 84.355469 84.949219 84.355469 C 84.949219 84.355469 84.804688 78.605469 84 75.109375 L 77.0625 74.832031 C 77.0625 74.832031 74.820312 69.957031 72.828125 67.800781 C 69.863281 64.585938 70.308594 59.148438 70.0625 57.851562 C 70.0625 57.851562 61.5 61.25 55.308594 62.992188 C 50.515625 64.34375 43.609375 63.078125 43.609375 63.078125 C 45.320312 65.40625 49.894531 70 51.949219 73.230469 C 54.394531 77.074219 59.816406 88.324219 58.261719 90.050781 C 56.703125 91.78125 54.488281 95.507812 54.488281 95.507812 C 54.488281 95.507812 56.675781 97.105469 58.160156 98.359375 C 60.234375 100.113281 61.96875 100.539062 61.96875 100.539062 C 61.96875 100.539062 64.257812 96.621094 65.511719 95.417969 Z M 65.511719 95.417969 "/>
</g>
</svg>
