<?xml version="1.0" encoding="UTF-8"?>
<svg xmlns="http://www.w3.org/2000/svg" xmlns:xlink="http://www.w3.org/1999/xlink" width="128px" height="128px" viewBox="0 0 128 128" version="1.1">
<g id="surface1">
<path style=" stroke:none;fill-rule:nonzero;fill:rgb(98.823529%,76.078433%,10.588235%);fill-opacity:1;" d="M 98.5 57.550781 C 97.628906 57.550781 96.929688 56.851562 96.929688 55.980469 L 96.929688 35.449219 C 96.929688 34.578125 97.628906 33.878906 98.5 33.878906 C 99.371094 33.878906 100.070312 34.578125 100.070312 35.449219 L 100.070312 55.980469 C 100.070312 56.839844 99.359375 57.550781 98.5 57.550781 Z M 98.5 57.550781 "/>
<path style=" stroke:none;fill-rule:nonzero;fill:rgb(98.823529%,76.078433%,10.588235%);fill-opacity:1;" d="M 98.5 44.738281 L 98.5 35.449219 L 109.980469 40.089844 Z M 98.5 44.738281 "/>
<path style=" stroke:none;fill-rule:nonzero;fill:rgb(98.823529%,76.078433%,10.588235%);fill-opacity:1;" d="M 98.5 46.308594 C 98.191406 46.308594 97.878906 46.21875 97.621094 46.039062 C 97.191406 45.75 96.929688 45.261719 96.929688 44.738281 L 96.929688 35.441406 C 96.929688 34.921875 97.191406 34.429688 97.621094 34.140625 C 98.050781 33.851562 98.601562 33.789062 99.089844 33.988281 L 110.570312 38.640625 C 111.160156 38.878906 111.550781 39.449219 111.550781 40.089844 C 111.550781 40.730469 111.160156 41.300781 110.570312 41.539062 L 99.078125 46.199219 C 98.898438 46.269531 98.699219 46.308594 98.5 46.308594 Z M 100.070312 37.769531 L 100.070312 42.410156 L 105.800781 40.089844 Z M 100.070312 37.769531 "/>
<path style=" stroke:none;fill-rule:nonzero;fill:rgb(100%,100%,100%);fill-opacity:1;" d="M 89.550781 72.929688 L 107.421875 72.929688 L 107.421875 103.601562 L 89.550781 103.601562 Z M 89.550781 72.929688 "/>
<path style=" stroke:none;fill-rule:nonzero;fill:rgb(47.058824%,63.921571%,67.843139%);fill-opacity:1;" d="M 106.738281 105.121094 L 90.21875 105.121094 C 89.378906 105.121094 88.699219 104.441406 88.699219 103.601562 L 88.699219 72.929688 C 88.699219 72.089844 89.378906 71.410156 90.21875 71.410156 L 106.75 71.410156 C 107.589844 71.410156 108.269531 72.089844 108.269531 72.929688 L 108.269531 103.601562 C 108.261719 104.441406 107.578125 105.121094 106.738281 105.121094 Z M 91.738281 102.078125 L 105.230469 102.078125 L 105.230469 74.449219 L 91.738281 74.449219 Z M 91.738281 102.078125 "/>
<path style=" stroke:none;fill-rule:nonzero;fill:rgb(47.058824%,63.921571%,67.843139%);fill-opacity:1;" d="M 96.441406 79.179688 L 100.550781 79.179688 L 100.550781 84.71875 L 96.441406 84.71875 Z M 96.441406 79.179688 "/>
<path style=" stroke:none;fill-rule:nonzero;fill:rgb(25.098041%,75.294119%,90.588236%);fill-opacity:1;" d="M 96.851562 55.5 L 87.28125 71.621094 L 88.558594 74.601562 L 108.441406 74.601562 L 109.71875 71.621094 L 100.148438 55.5 Z M 96.851562 55.5 "/>
<path style=" stroke:none;fill-rule:nonzero;fill:rgb(98.823529%,76.078433%,10.588235%);fill-opacity:1;" d="M 28.871094 57.550781 C 28 57.550781 27.300781 56.851562 27.300781 55.980469 L 27.300781 35.449219 C 27.300781 34.578125 28 33.878906 28.871094 33.878906 C 29.738281 33.878906 30.429688 34.578125 30.429688 35.449219 L 30.429688 55.980469 C 30.441406 56.839844 29.738281 57.550781 28.871094 57.550781 Z M 28.871094 57.550781 "/>
<path style=" stroke:none;fill-rule:nonzero;fill:rgb(98.823529%,76.078433%,10.588235%);fill-opacity:1;" d="M 28.871094 44.738281 L 28.871094 35.449219 L 40.351562 40.089844 Z M 28.871094 44.738281 "/>
<path style=" stroke:none;fill-rule:nonzero;fill:rgb(98.823529%,76.078433%,10.588235%);fill-opacity:1;" d="M 28.871094 46.308594 C 28.558594 46.308594 28.25 46.21875 27.988281 46.039062 C 27.558594 45.75 27.300781 45.261719 27.300781 44.738281 L 27.300781 35.441406 C 27.300781 34.921875 27.558594 34.429688 27.988281 34.140625 C 28.421875 33.851562 28.96875 33.789062 29.460938 33.988281 L 40.941406 38.640625 C 41.53125 38.878906 41.921875 39.449219 41.921875 40.089844 C 41.921875 40.730469 41.53125 41.300781 40.941406 41.539062 L 29.460938 46.199219 C 29.269531 46.269531 29.070312 46.308594 28.871094 46.308594 Z M 30.441406 37.769531 L 30.441406 42.410156 L 36.179688 40.089844 Z M 30.441406 37.769531 "/>
<path style=" stroke:none;fill-rule:nonzero;fill:rgb(100%,100%,100%);fill-opacity:1;" d="M 19.921875 72.929688 L 37.789062 72.929688 L 37.789062 103.601562 L 19.921875 103.601562 Z M 19.921875 72.929688 "/>
<path style=" stroke:none;fill-rule:nonzero;fill:rgb(47.058824%,63.921571%,67.843139%);fill-opacity:1;" d="M 37.121094 105.121094 L 20.589844 105.121094 C 19.75 105.121094 19.070312 104.441406 19.070312 103.601562 L 19.070312 72.929688 C 19.070312 72.089844 19.75 71.410156 20.589844 71.410156 L 37.121094 71.410156 C 37.960938 71.410156 38.640625 72.089844 38.640625 72.929688 L 38.640625 103.601562 C 38.628906 104.441406 37.949219 105.121094 37.121094 105.121094 Z M 22.109375 102.078125 L 35.589844 102.078125 L 35.589844 74.449219 L 22.109375 74.449219 Z M 22.109375 102.078125 "/>
<path style=" stroke:none;fill-rule:nonzero;fill:rgb(47.058824%,63.921571%,67.843139%);fill-opacity:1;" d="M 26.820312 79.179688 L 30.921875 79.179688 L 30.921875 84.71875 L 26.820312 84.71875 Z M 26.820312 79.179688 "/>
<path style=" stroke:none;fill-rule:nonzero;fill:rgb(25.098041%,75.294119%,90.588236%);fill-opacity:1;" d="M 27.21875 55.5 L 17.648438 71.621094 L 18.929688 74.601562 L 38.808594 74.601562 L 40.089844 71.621094 L 30.519531 55.5 Z M 27.21875 55.5 "/>
<path style=" stroke:none;fill-rule:nonzero;fill:rgb(98.823529%,76.078433%,10.588235%);fill-opacity:1;" d="M 63.640625 26.140625 C 62.769531 26.140625 62.070312 25.441406 62.070312 24.570312 L 62.070312 4.039062 C 62.070312 3.171875 62.769531 2.46875 63.640625 2.46875 C 64.511719 2.46875 65.210938 3.171875 65.210938 4.039062 L 65.210938 24.570312 C 65.210938 25.429688 64.511719 26.140625 63.640625 26.140625 Z M 63.640625 26.140625 "/>
<path style=" stroke:none;fill-rule:nonzero;fill:rgb(98.823529%,76.078433%,10.588235%);fill-opacity:1;" d="M 63.640625 13.328125 L 63.640625 4.039062 L 75.128906 8.691406 Z M 63.640625 13.328125 "/>
<path style=" stroke:none;fill-rule:nonzero;fill:rgb(98.823529%,76.078433%,10.588235%);fill-opacity:1;" d="M 63.640625 14.898438 C 63.328125 14.898438 63.019531 14.808594 62.761719 14.628906 C 62.328125 14.339844 62.070312 13.851562 62.070312 13.328125 L 62.070312 4.03125 C 62.070312 3.511719 62.328125 3.019531 62.761719 2.730469 C 63.191406 2.441406 63.738281 2.378906 64.230469 2.578125 L 75.710938 7.230469 C 76.300781 7.46875 76.691406 8.039062 76.691406 8.679688 C 76.691406 9.320312 76.300781 9.898438 75.710938 10.128906 L 64.230469 14.78125 C 64.039062 14.859375 63.839844 14.898438 63.640625 14.898438 Z M 65.210938 6.359375 L 65.210938 11 L 70.941406 8.679688 Z M 65.210938 6.359375 "/>
<path style=" stroke:none;fill-rule:nonzero;fill:rgb(100%,100%,100%);fill-opacity:1;" d="M 54.691406 41.519531 L 72.558594 41.519531 L 72.558594 72.191406 L 54.691406 72.191406 Z M 54.691406 41.519531 "/>
<path style=" stroke:none;fill-rule:nonzero;fill:rgb(47.058824%,63.921571%,67.843139%);fill-opacity:1;" d="M 71.890625 73.710938 L 55.371094 73.710938 C 54.53125 73.710938 53.851562 73.03125 53.851562 72.191406 L 53.851562 41.519531 C 53.851562 40.679688 54.53125 40 55.371094 40 L 71.890625 40 C 72.730469 40 73.410156 40.679688 73.410156 41.519531 L 73.410156 72.191406 C 73.410156 73.03125 72.730469 73.710938 71.890625 73.710938 Z M 56.890625 70.671875 L 70.371094 70.671875 L 70.371094 43.039062 L 56.890625 43.039062 Z M 56.890625 70.671875 "/>
<path style=" stroke:none;fill-rule:nonzero;fill:rgb(47.058824%,63.921571%,67.843139%);fill-opacity:1;" d="M 61.589844 47.769531 L 65.691406 47.769531 L 65.691406 53.308594 L 61.589844 53.308594 Z M 61.589844 47.769531 "/>
<path style=" stroke:none;fill-rule:nonzero;fill:rgb(25.098041%,75.294119%,90.588236%);fill-opacity:1;" d="M 62 24.089844 L 52.429688 40.210938 L 53.699219 43.191406 L 73.589844 43.191406 L 74.871094 40.210938 L 65.289062 24.089844 Z M 62 24.089844 "/>
<path style=" stroke:none;fill-rule:nonzero;fill:rgb(47.058824%,63.921571%,67.843139%);fill-opacity:1;" d="M 42.578125 68.511719 L 42.578125 80.691406 L 49.441406 87.429688 L 49.441406 97.941406 L 77.558594 97.941406 L 77.558594 87.429688 L 84.429688 80.691406 L 84.429688 68.511719 Z M 42.578125 68.511719 "/>
<path style=" stroke:none;fill-rule:nonzero;fill:rgb(47.058824%,63.921571%,67.843139%);fill-opacity:1;" d="M 42.578125 65.058594 L 47.621094 65.058594 L 47.621094 69.820312 L 42.578125 69.820312 Z M 42.578125 65.058594 "/>
<path style=" stroke:none;fill-rule:nonzero;fill:rgb(47.058824%,63.921571%,67.843139%);fill-opacity:1;" d="M 79.390625 65.058594 L 84.429688 65.058594 L 84.429688 69.820312 L 79.390625 69.820312 Z M 79.390625 65.058594 "/>
<path style=" stroke:none;fill-rule:nonzero;fill:rgb(47.058824%,63.921571%,67.843139%);fill-opacity:1;" d="M 61.089844 65.058594 L 66.128906 65.058594 L 66.128906 69.820312 L 61.089844 69.820312 Z M 61.089844 65.058594 "/>
<path style=" stroke:none;fill-rule:nonzero;fill:rgb(47.058824%,63.921571%,67.843139%);fill-opacity:1;" d="M 51.820312 65.058594 L 56.859375 65.058594 L 56.859375 69.820312 L 51.820312 69.820312 Z M 51.820312 65.058594 "/>
<path style=" stroke:none;fill-rule:nonzero;fill:rgb(47.058824%,63.921571%,67.843139%);fill-opacity:1;" d="M 70.21875 65.058594 L 75.261719 65.058594 L 75.261719 69.820312 L 70.21875 69.820312 Z M 70.21875 65.058594 "/>
<path style=" stroke:none;fill-rule:nonzero;fill:rgb(47.058824%,63.921571%,67.843139%);fill-opacity:1;" d="M 111.550781 96.300781 L 111.550781 94.558594 L 16.449219 94.558594 L 16.449219 96.300781 L 11.121094 128 L 56.871094 128 L 56.871094 114.410156 C 56.871094 113.101562 57.941406 112.039062 59.238281 112.039062 L 68.761719 112.039062 C 70.070312 112.039062 71.140625 113.109375 71.140625 114.410156 L 71.140625 128 L 116.890625 128 Z M 111.550781 96.300781 "/>
<path style=" stroke:none;fill-rule:nonzero;fill:rgb(47.058824%,63.921571%,67.843139%);fill-opacity:1;" d="M 16.449219 91.539062 L 21.488281 91.539062 L 21.488281 96.300781 L 16.449219 96.300781 Z M 16.449219 91.539062 "/>
<path style=" stroke:none;fill-rule:nonzero;fill:rgb(47.058824%,63.921571%,67.843139%);fill-opacity:1;" d="M 40.738281 91.539062 L 45.78125 91.539062 L 45.78125 96.300781 L 40.738281 96.300781 Z M 40.738281 91.539062 "/>
<path style=" stroke:none;fill-rule:nonzero;fill:rgb(47.058824%,63.921571%,67.843139%);fill-opacity:1;" d="M 28.191406 91.539062 L 33.230469 91.539062 L 33.230469 96.300781 L 28.191406 96.300781 Z M 28.191406 91.539062 "/>
<path style=" stroke:none;fill-rule:nonzero;fill:rgb(47.058824%,63.921571%,67.843139%);fill-opacity:1;" d="M 81.910156 91.539062 L 86.949219 91.539062 L 86.949219 96.300781 L 81.910156 96.300781 Z M 81.910156 91.539062 "/>
<path style=" stroke:none;fill-rule:nonzero;fill:rgb(47.058824%,63.921571%,67.843139%);fill-opacity:1;" d="M 53.511719 91.539062 L 58.550781 91.539062 L 58.550781 96.300781 L 53.511719 96.300781 Z M 53.511719 91.539062 "/>
<path style=" stroke:none;fill-rule:nonzero;fill:rgb(47.058824%,63.921571%,67.843139%);fill-opacity:1;" d="M 68.410156 91.539062 L 73.449219 91.539062 L 73.449219 96.300781 L 68.410156 96.300781 Z M 68.410156 91.539062 "/>
<path style=" stroke:none;fill-rule:nonzero;fill:rgb(47.058824%,63.921571%,67.843139%);fill-opacity:1;" d="M 106.511719 91.539062 L 111.550781 91.539062 L 111.550781 96.300781 L 106.511719 96.300781 Z M 106.511719 91.539062 "/>
<path style=" stroke:none;fill-rule:nonzero;fill:rgb(47.058824%,63.921571%,67.843139%);fill-opacity:1;" d="M 93.960938 91.539062 L 99 91.539062 L 99 96.300781 L 93.960938 96.300781 Z M 93.960938 91.539062 "/>
</g>
</svg>
