<?xml version="1.0" encoding="UTF-8"?>
<svg xmlns="http://www.w3.org/2000/svg" xmlns:xlink="http://www.w3.org/1999/xlink" width="128px" height="128px" viewBox="0 0 128 128" version="1.1">
<g id="surface1">
<path style=" stroke:none;fill-rule:nonzero;fill:rgb(58.039218%,81.960785%,87.843138%);fill-opacity:1;" d="M 6.148438 99.421875 C 6.148438 89.769531 32.050781 84.488281 64 84.488281 C 95.949219 84.488281 121.851562 89.769531 121.851562 99.421875 C 121.851562 113 95.949219 124 64 124 C 32.050781 124 6.148438 113 6.148438 99.421875 Z M 6.148438 99.421875 "/>
<path style=" stroke:none;fill-rule:nonzero;fill:rgb(90.196079%,24.705882%,20%);fill-opacity:1;" d="M 11.148438 50.679688 L 11.148438 96.230469 L 11.179688 96.230469 C 11.851562 108.078125 35.101562 117.601562 63.699219 117.601562 C 92.300781 117.601562 115.550781 108.078125 116.21875 96.230469 L 116.25 96.230469 L 116.25 50.679688 Z M 11.148438 50.679688 "/>
<path style=" stroke:none;fill-rule:nonzero;fill:rgb(74.117649%,74.117649%,74.117649%);fill-opacity:1;" d="M 23.429688 75.640625 C 34.320312 80.179688 48.621094 82.679688 63.699219 82.679688 C 78.78125 82.679688 93.121094 80.269531 103.96875 75.640625 C 113.71875 71.480469 114.710938 68.71875 116.25 67.128906 L 116.25 61.078125 C 113.398438 64.859375 108.589844 68.25 102.019531 70.980469 C 91.730469 75.269531 78.121094 77.628906 63.691406 77.628906 C 49.261719 77.628906 35.648438 75.269531 25.359375 70.980469 C 18.800781 68.238281 13.988281 64.859375 11.128906 61.078125 L 11.128906 68.449219 L 16.179688 72.011719 C 18.359375 73.320312 20.769531 74.53125 23.429688 75.640625 Z M 23.429688 75.640625 "/>
<path style="fill:none;stroke-width:4.0928;stroke-linecap:round;stroke-linejoin:miter;stroke:rgb(58.039218%,81.960785%,87.843138%);stroke-opacity:1;stroke-miterlimit:10;" d="M 43.148438 76.800781 L 43.148438 117.289062 "/>
<path style="fill:none;stroke-width:4.0928;stroke-linecap:round;stroke-linejoin:miter;stroke:rgb(58.039218%,81.960785%,87.843138%);stroke-opacity:1;stroke-miterlimit:10;" d="M 84.25 76.800781 L 84.25 117.289062 "/>
<path style=" stroke:none;fill-rule:nonzero;fill:rgb(58.039218%,81.960785%,87.843138%);fill-opacity:1;" d="M 42.011719 106.050781 C 41.078125 105.710938 40.25 105 39.769531 104.140625 C 38.921875 102.609375 38.988281 100.648438 38.960938 98.691406 C 38.898438 94.421875 40.078125 93.359375 41.46875 93.359375 L 44.820312 93.359375 C 47.328125 94.390625 47.328125 96.460938 47.328125 97.851562 C 47.328125 99.300781 47.328125 98.78125 47.328125 100.230469 C 47.328125 102.328125 47.441406 104.429688 45.429688 105.761719 C 45.238281 105.890625 43.679688 106.660156 42.011719 106.050781 Z M 42.011719 106.050781 "/>
<path style=" stroke:none;fill-rule:nonzero;fill:rgb(58.039218%,81.960785%,87.843138%);fill-opacity:1;" d="M 85.359375 106.050781 C 86.261719 105.640625 87.050781 104.949219 87.601562 104.140625 C 88.789062 102.390625 88.378906 100.648438 88.410156 98.691406 C 88.46875 94.648438 87.289062 93.359375 85.898438 93.359375 L 82.550781 93.359375 C 80.039062 94.390625 80.039062 96.460938 80.039062 97.851562 C 80.039062 99.300781 80.039062 98.78125 80.039062 100.230469 C 80.039062 102.328125 80.078125 104.21875 81.941406 105.761719 C 82.800781 106.46875 84.449219 106.46875 85.359375 106.050781 Z M 85.359375 106.050781 "/>
<path style=" stroke:none;fill-rule:nonzero;fill:rgb(58.039218%,81.960785%,87.843138%);fill-opacity:1;" d="M 120.328125 83.089844 C 120.230469 78.378906 119.371094 77.570312 117.128906 77.761719 C 117.128906 69.121094 117.128906 61.328125 117.128906 61.328125 L 113.828125 63.371094 L 114.070312 102.609375 C 114.070312 102.609375 117.121094 103.550781 117.121094 100.261719 C 117.121094 99.289062 117.121094 95.511719 117.121094 90.660156 C 120.378906 89.519531 120.550781 86.050781 120.328125 83.089844 Z M 120.328125 83.089844 "/>
<path style=" stroke:none;fill-rule:nonzero;fill:rgb(58.039218%,81.960785%,87.843138%);fill-opacity:1;" d="M 13.488281 62.859375 L 10.191406 60.820312 C 10.191406 60.820312 10.191406 68.921875 10.191406 77.761719 C 7.949219 77.570312 7.089844 78.378906 6.988281 83.089844 C 6.988281 85.050781 6.660156 86.789062 7.691406 88.539062 C 8.28125 89.519531 9.128906 90.351562 10.191406 90.660156 C 10.191406 95.320312 10.191406 98.929688 10.191406 99.871094 C 10.191406 103.160156 13.238281 102.21875 13.238281 102.21875 Z M 13.488281 62.859375 "/>
<path style=" stroke:none;fill-rule:nonzero;fill:rgb(58.039218%,81.960785%,87.843138%);fill-opacity:1;" d="M 119.160156 52.5 C 117.53125 33.25 82.800781 27.820312 63.699219 27.878906 C 44.769531 27.71875 8.410156 33.570312 8.261719 53.339844 C -2.171875 71.960938 30.890625 84.421875 64 84.5 C 97.21875 84.578125 131.53125 71.339844 119.160156 52.5 Z M 119.160156 52.5 "/>
<path style=" stroke:none;fill-rule:nonzero;fill:rgb(100%,80.000001%,50.196081%);fill-opacity:1;" d="M 116.25 52.691406 C 116.25 40.59375 92.722656 30.789062 63.699219 30.789062 C 34.675781 30.789062 11.148438 40.59375 11.148438 52.691406 C 11.148438 64.785156 34.675781 74.589844 63.699219 74.589844 C 92.722656 74.589844 116.25 64.785156 116.25 52.691406 Z M 116.25 52.691406 "/>
<path style=" stroke:none;fill-rule:nonzero;fill:rgb(99.607843%,96.470588%,87.843138%);fill-opacity:1;" d="M 112.210938 54.71875 C 112.210938 43.558594 90.492188 34.511719 63.699219 34.511719 C 36.910156 34.511719 15.191406 43.558594 15.191406 54.71875 C 15.191406 65.882812 36.910156 74.929688 63.699219 74.929688 C 90.492188 74.929688 112.210938 65.882812 112.210938 54.71875 Z M 112.210938 54.71875 "/>
<path style=" stroke:none;fill-rule:nonzero;fill:rgb(100%,80.000001%,50.196081%);fill-opacity:1;" d="M 53.910156 67.078125 L 18.960938 43.859375 L 24.480469 41.191406 L 55.539062 64.789062 Z M 53.910156 67.078125 "/>
<path style=" stroke:none;fill-rule:nonzero;fill:rgb(100%,80.000001%,50.196081%);fill-opacity:1;" d="M 74.351562 67.078125 L 109.289062 43.859375 L 103.78125 41.191406 L 72.710938 64.789062 Z M 74.351562 67.078125 "/>
<path style=" stroke:none;fill-rule:nonzero;fill:rgb(72.941178%,47.450981%,24.313726%);fill-opacity:1;" d="M 57.640625 62.648438 C 56.230469 60.738281 53.941406 60.308594 53.648438 59.78125 L 52.511719 57.738281 C 52.121094 57.039062 51.828125 56.601562 51.511719 56.179688 L 11.871094 5.140625 C 10.929688 3.921875 9.199219 3.640625 7.910156 4.5 C 6.480469 5.46875 6.191406 7.460938 7.289062 8.789062 L 47.308594 59.199219 C 47.839844 59.859375 48.441406 60.460938 49.109375 60.96875 L 50.789062 62.261719 C 51.238281 62.601562 51.160156 64.769531 52.75 66.230469 C 54.070312 67.441406 56.128906 67.878906 57.441406 66.5 C 58.449219 65.449219 58.46875 63.769531 57.640625 62.648438 Z M 57.640625 62.648438 "/>
<path style=" stroke:none;fill-rule:nonzero;fill:rgb(72.941178%,47.450981%,24.313726%);fill-opacity:1;" d="M 70.828125 62.648438 C 72.238281 60.738281 74.53125 60.308594 74.820312 59.78125 L 75.960938 57.738281 C 76.351562 57.039062 76.640625 56.601562 76.960938 56.179688 L 116.601562 5.140625 C 117.550781 3.921875 119.28125 3.640625 120.558594 4.5 C 121.988281 5.46875 122.28125 7.460938 121.179688 8.789062 L 81.160156 59.210938 C 80.628906 59.871094 80.03125 60.46875 79.359375 60.980469 L 77.679688 62.269531 C 77.230469 62.609375 77.308594 64.78125 75.71875 66.238281 C 74.398438 67.449219 72.339844 67.890625 71.03125 66.511719 C 70.019531 65.449219 70 63.769531 70.828125 62.648438 Z M 70.828125 62.648438 "/>
<path style=" stroke:none;fill-rule:nonzero;fill:rgb(100%,100%,100%);fill-opacity:1;" d="M 19.050781 72.238281 C 13.238281 68.628906 10.570312 64.980469 11.039062 63.769531 C 11.339844 63 12.449219 63 12.980469 63.628906 C 18.230469 69.808594 28.988281 74.160156 36.761719 75.601562 C 37.570312 75.75 38.191406 77.261719 36.011719 77.46875 C 34.121094 77.640625 26.71875 77.011719 19.050781 72.238281 Z M 19.050781 72.238281 "/>
<path style=" stroke:none;fill-rule:nonzero;fill:rgb(100%,100%,100%);fill-opacity:1;" d="M 83.601562 104.019531 C 82.941406 104.289062 82.199219 103.488281 81.890625 102.441406 C 81.578125 101.390625 81.398438 97.730469 81.578125 96.660156 C 81.75 95.601562 81.96875 94.949219 82.800781 94.949219 C 83.628906 94.949219 84.300781 95.621094 84.300781 96.449219 C 84.300781 96.449219 84.199219 100.449219 84.25 101.421875 C 84.300781 102.410156 84.261719 103.75 83.601562 104.019531 Z M 83.601562 104.019531 "/>
<path style=" stroke:none;fill-rule:nonzero;fill:rgb(100%,100%,100%);fill-opacity:1;" d="M 42.449219 104.019531 C 41.789062 104.289062 41.050781 103.488281 40.738281 102.441406 C 40.429688 101.390625 40.25 97.730469 40.429688 96.660156 C 40.609375 95.589844 40.820312 94.949219 41.648438 94.949219 C 42.480469 94.949219 43.148438 95.621094 43.148438 96.449219 C 43.148438 96.449219 43.050781 100.449219 43.101562 101.421875 C 43.148438 102.410156 43.109375 103.75 42.449219 104.019531 Z M 42.449219 104.019531 "/>
</g>
</svg>
