<?xml version="1.0" encoding="UTF-8"?>
<svg xmlns="http://www.w3.org/2000/svg" xmlns:xlink="http://www.w3.org/1999/xlink" width="128px" height="128px" viewBox="0 0 128 128" version="1.1">
<g id="surface1">
<path style=" stroke:none;fill-rule:nonzero;fill:rgb(53.725493%,51.764709%,49.411765%);fill-opacity:1;" d="M 11.148438 102.660156 L 12.5 104.289062 C 12.5 104.289062 20.121094 114.328125 39.539062 120.648438 C 55.839844 125.949219 75.210938 125.191406 89.460938 120.230469 C 109.210938 113.351562 116.519531 100.449219 116.519531 100.449219 Z M 11.148438 102.660156 "/>
<path style=" stroke:none;fill-rule:nonzero;fill:rgb(81.176472%,77.64706%,74.117649%);fill-opacity:1;" d="M 7.078125 89.378906 C 7.078125 89.378906 5.71875 92.589844 6.710938 96.449219 C 7.679688 100.230469 14.859375 115.058594 63.230469 115.449219 C 107.089844 115.808594 120.25 99.339844 120.121094 93.28125 C 120.03125 89.261719 114.148438 78.78125 83.210938 77.078125 C 52.269531 75.378906 31.691406 78.898438 31.691406 78.898438 Z M 7.078125 89.378906 "/>
<path style=" stroke:none;fill-rule:nonzero;fill:rgb(63.529414%,89.411765%,99.215686%);fill-opacity:1;" d="M 63.96875 81.949219 C 45.089844 81.71875 17.558594 86.359375 15.121094 93.28125 C 13.109375 98.988281 21.699219 104.609375 39.359375 107.050781 C 57.019531 109.488281 88.089844 107.421875 94.179688 105.101562 C 100.269531 102.78125 111.109375 98.28125 111.109375 98.28125 L 113.671875 94.5 C 113.671875 94.5 113.910156 92.429688 112.210938 90.851562 C 110.511719 89.269531 104.410156 82.441406 63.96875 81.949219 Z M 63.96875 81.949219 "/>
<path style=" stroke:none;fill-rule:nonzero;fill:rgb(89.411765%,86.274511%,83.529413%);fill-opacity:1;" d="M 115.851562 92.550781 C 117.058594 92.421875 117.160156 95.179688 114.539062 97.691406 C 111.921875 100.199219 96.738281 111.070312 63.761719 111.191406 C 30.78125 111.308594 6.46875 102.648438 6.550781 91.539062 C 6.640625 79.699219 48.050781 74.871094 62.148438 76.789062 C 76.25 78.699219 59.761719 79.058594 59.761719 79.058594 C 59.761719 79.058594 41.21875 79.03125 26 83.230469 C 18.960938 85.171875 13.101562 87.410156 12.980469 91 C 12.859375 94.578125 23.261719 105.578125 62.679688 106.171875 C 102.101562 106.761719 114.78125 92.671875 115.851562 92.550781 Z M 115.851562 92.550781 "/>
<path style=" stroke:none;fill-rule:nonzero;fill:rgb(100%,100%,100%);fill-opacity:1;" d="M 27.871094 87.238281 C 27.289062 87.570312 27.871094 88.53125 27.160156 89.191406 C 26.449219 89.859375 23.128906 91.28125 22.828125 93.808594 C 22.351562 97.808594 29.96875 98.671875 30.691406 98.238281 C 31.398438 97.808594 27.980469 95 28.640625 93.339844 C 29.421875 91.390625 31.730469 90.101562 31.730469 88.769531 C 31.730469 87.429688 28.960938 86.628906 27.871094 87.238281 Z M 27.871094 87.238281 "/>
<path style=" stroke:none;fill-rule:nonzero;fill:rgb(100%,100%,100%);fill-opacity:1;" d="M 37.300781 85.628906 C 37.300781 86.148438 38.441406 86.578125 38.441406 87.339844 C 38.441406 88.390625 33.628906 90.71875 34.199219 94.910156 C 34.730469 98.761719 38.488281 100.628906 40.390625 101.429688 C 42.769531 102.429688 48.550781 102.789062 48.289062 101.570312 C 48.101562 100.671875 43.808594 100.238281 41.390625 97.519531 C 39.25 95.128906 39.21875 92.421875 41.488281 90.238281 C 44.441406 87.378906 42.589844 85.289062 40.628906 84.949219 C 38.5 84.601562 37.300781 85.148438 37.300781 85.628906 Z M 37.300781 85.628906 "/>
<path style=" stroke:none;fill-rule:nonzero;fill:rgb(30.980393%,75.294119%,98.039216%);fill-opacity:1;" d="M 64.039062 86.171875 C 51.710938 86.351562 44.910156 89.210938 45.011719 93.621094 C 45.121094 98.519531 54.058594 100.988281 64.390625 101.050781 C 75.511719 101.121094 82.011719 97.671875 82.238281 93.910156 C 82.480469 90.148438 76.160156 85.988281 64.039062 86.171875 Z M 64.039062 86.171875 "/>
<path style=" stroke:none;fill-rule:nonzero;fill:rgb(30.980393%,75.294119%,98.039216%);fill-opacity:1;" d="M 85.511719 85.960938 C 85.351562 86.121094 84.421875 87.371094 86.539062 89.761719 C 88.191406 91.621094 88.710938 93.511719 88.21875 96.171875 C 87.730469 98.828125 89.421875 101.121094 93.171875 101.121094 C 96.921875 101.121094 97.628906 99.921875 97.628906 99.601562 C 97.628906 99.269531 94.898438 98.28125 94.261719 94.871094 C 93.5 90.851562 91.980469 88.191406 89.691406 86.769531 C 87.320312 85.300781 85.859375 85.601562 85.511719 85.960938 Z M 85.511719 85.960938 "/>
<path style=" stroke:none;fill-rule:nonzero;fill:rgb(30.980393%,75.294119%,98.039216%);fill-opacity:1;" d="M 95.398438 89.050781 C 95.390625 89.601562 98.878906 91.28125 99.101562 93.558594 C 99.320312 95.839844 98.339844 97.308594 98.988281 97.691406 C 99.640625 98.070312 105.121094 96.929688 105.078125 92.851562 C 105.019531 88.128906 95.449219 86.988281 95.398438 89.050781 Z M 95.398438 89.050781 "/>
<path style=" stroke:none;fill-rule:nonzero;fill:rgb(63.529414%,89.411765%,99.215686%);fill-opacity:1;" d="M 30.289062 56.648438 L 33.128906 88.230469 L 35.96875 87.949219 L 34.960938 57.839844 Z M 30.289062 56.648438 "/>
<path style=" stroke:none;fill-rule:nonzero;fill:rgb(63.529414%,89.411765%,99.215686%);fill-opacity:1;" d="M 91.429688 58.570312 C 91.429688 60.488281 91.339844 85.019531 91.339844 85.019531 L 94.359375 85.570312 L 96.011719 55.910156 C 96.011719 55.921875 91.429688 56.828125 91.429688 58.570312 Z M 91.429688 58.570312 "/>
<path style=" stroke:none;fill-rule:nonzero;fill:rgb(53.725493%,51.764709%,49.411765%);fill-opacity:1;" d="M 28.640625 56.28125 C 28.640625 56.28125 32.121094 63.328125 40.808594 68.449219 C 49.511719 73.578125 56.070312 72.339844 56.28125 79.980469 C 56.429688 85.46875 55.179688 86.480469 53.988281 87.761719 C 52.839844 88.988281 50.691406 89.960938 50.691406 92.058594 C 50.691406 94.171875 52.789062 96.910156 63.988281 96.96875 C 75.820312 97.039062 76.710938 93.789062 76.589844 91.691406 C 76.46875 89.628906 73.78125 88.011719 72.871094 86.539062 C 72.089844 85.289062 71.769531 82.898438 71.828125 80.339844 C 72.039062 72.449219 77.101562 73.828125 86.019531 68.53125 C 97.019531 62 98.28125 55.988281 98.28125 55.988281 Z M 28.640625 56.28125 "/>
<path style=" stroke:none;fill-rule:nonzero;fill:rgb(81.176472%,77.64706%,74.117649%);fill-opacity:1;" d="M 30.328125 49.101562 L 39.988281 44.019531 L 59.03125 41.730469 L 69.96875 39.671875 C 69.96875 39.671875 76.808594 40.109375 81.589844 40.890625 C 85.96875 41.609375 89.960938 42.921875 89.960938 42.921875 L 90.421875 44.929688 L 93.898438 45.199219 C 93.898438 45.199219 97.011719 45.109375 99.390625 47.949219 C 101.921875 50.96875 101.398438 54.628906 95.550781 58.378906 C 89.761719 62.089844 64.800781 63.140625 64.800781 63.140625 L 36.238281 56.921875 Z M 30.328125 49.101562 "/>
<path style=" stroke:none;fill-rule:nonzero;fill:rgb(63.529414%,89.411765%,99.215686%);fill-opacity:1;" d="M 34.320312 53.171875 C 34.320312 53.171875 32.398438 44.570312 64.25 44.378906 C 96.101562 44.191406 95.640625 53.078125 95.640625 53.078125 L 88.039062 59.488281 L 64.96875 62.511719 L 38.148438 58.480469 Z M 34.320312 53.171875 "/>
<path style=" stroke:none;fill-rule:nonzero;fill:rgb(63.529414%,89.411765%,99.215686%);fill-opacity:1;" d="M 36.441406 50.320312 C 36.441406 50.320312 35.519531 49.199219 34.808594 48.851562 C 34.101562 48.5 32.570312 47.828125 32.570312 47.828125 C 32.570312 47.828125 33.230469 46.511719 34.449219 46 C 35.671875 45.488281 36.640625 45.390625 38.011719 45.898438 C 39.378906 46.410156 39.988281 48.339844 39.988281 48.339844 Z M 36.441406 50.320312 "/>
<path style=" stroke:none;fill-rule:nonzero;fill:rgb(63.529414%,89.411765%,99.215686%);fill-opacity:1;" d="M 90.378906 48.390625 C 90.378906 48.390625 91.601562 46.75 92.410156 46.25 C 93.328125 45.691406 94.601562 45.230469 94.601562 45.230469 C 94.601562 45.230469 93.070312 43.699219 90.839844 43.910156 C 88.601562 44.109375 86.769531 46.910156 86.769531 46.910156 Z M 90.378906 48.390625 "/>
<path style=" stroke:none;fill-rule:nonzero;fill:rgb(88.627452%,86.666667%,84.313726%);fill-opacity:1;" d="M 39.578125 46.128906 C 40.140625 46.191406 45.011719 44.320312 48.28125 43.800781 C 54.859375 42.761719 59.25 42.839844 59.25 42.839844 L 59.460938 40.109375 C 59.460938 40.109375 53.960938 39.691406 46.28125 41.199219 C 41.289062 42.179688 38.070312 43.671875 38.070312 43.671875 Z M 39.578125 46.128906 "/>
<path style=" stroke:none;fill-rule:nonzero;fill:rgb(88.627452%,86.666667%,84.313726%);fill-opacity:1;" d="M 94.429688 47.011719 C 93.75 47.660156 96.371094 48.839844 95.660156 51.03125 C 94.828125 53.578125 88.421875 59.359375 63.710938 59.5 C 38.929688 59.640625 34.570312 53.109375 33.359375 51.230469 C 32.011719 49.121094 34.578125 47.230469 31.679688 47 C 29.199219 46.800781 25.859375 48.96875 26.128906 52.230469 C 26.390625 55.371094 32.089844 65.699219 64.101562 65.699219 C 94.828125 65.699219 100.191406 55.140625 100.460938 51.988281 C 100.730469 48.808594 95.960938 45.550781 94.429688 47.011719 Z M 94.429688 47.011719 "/>
<path style=" stroke:none;fill-rule:nonzero;fill:rgb(100%,100%,99.215686%);fill-opacity:1;" d="M 51.398438 48.300781 C 52 48.789062 48.609375 50.429688 48.558594 52.339844 C 48.519531 54.25 51.78125 55.859375 51.308594 56.511719 C 50.640625 57.441406 41.769531 55.828125 41.949219 52.519531 C 42.179688 48.390625 50.160156 47.28125 51.398438 48.300781 Z M 51.398438 48.300781 "/>
<path style=" stroke:none;fill-rule:nonzero;fill:rgb(30.980393%,75.294119%,98.039216%);fill-opacity:1;" d="M 51.871094 52.640625 C 51.761719 54.558594 54.949219 56.511719 64.441406 56.550781 C 74.300781 56.589844 76.359375 54.570312 76.148438 52.378906 C 75.960938 50.441406 71.230469 49.628906 64.25 49.5 C 58 49.378906 52.019531 50.058594 51.871094 52.640625 Z M 51.871094 52.640625 "/>
<path style=" stroke:none;fill-rule:nonzero;fill:rgb(30.980393%,75.294119%,98.039216%);fill-opacity:1;" d="M 78.03125 49.28125 C 77.679688 49.828125 80.679688 50.941406 80.628906 52.871094 C 80.589844 54.800781 78.390625 56.320312 78.878906 56.769531 C 79.371094 57.21875 86.820312 56.460938 86.78125 52.691406 C 86.730469 48.921875 78.738281 48.148438 78.03125 49.28125 Z M 78.03125 49.28125 "/>
<path style=" stroke:none;fill-rule:nonzero;fill:rgb(53.725493%,51.764709%,49.411765%);fill-opacity:1;" d="M 58.730469 53.039062 L 58.691406 45.191406 C 58.691406 45.191406 55.910156 42.5 54.699219 39.488281 C 53.488281 36.480469 53.351562 34.148438 53.800781 33.25 C 54.25 32.351562 57.121094 31.898438 57.121094 31.898438 L 64.839844 34.140625 C 64.839844 34.140625 73.679688 31.898438 74.128906 32.261719 C 74.578125 32.621094 74.941406 36.179688 73.949219 39.121094 C 72.648438 42.980469 70.089844 45.089844 70.089844 45.089844 L 70.128906 53.480469 C 70.128906 53.480469 68.738281 54.878906 64.300781 54.921875 C 59.140625 54.96875 58.730469 53.039062 58.730469 53.039062 Z M 58.730469 53.039062 "/>
<path style=" stroke:none;fill-rule:nonzero;fill:rgb(66.274512%,63.529414%,60.000002%);fill-opacity:1;" d="M 64.03125 28.5 C 55.859375 28.539062 53.800781 33.261719 53.800781 33.261719 C 53.800781 33.261719 56 36.359375 64.300781 36.449219 C 72.960938 36.539062 74.191406 32.359375 74.191406 32.359375 C 74.191406 32.359375 71.648438 28.460938 64.03125 28.5 Z M 64.03125 28.5 "/>
<path style=" stroke:none;fill-rule:nonzero;fill:rgb(63.529414%,89.411765%,99.215686%);fill-opacity:1;" d="M 73.148438 58.851562 C 73.148438 58.851562 79.308594 59.191406 80.28125 63.171875 C 81.25 67.148438 80.929688 86.390625 80.929688 86.390625 L 84.910156 84.359375 C 84.910156 84.359375 86.039062 65.398438 86.359375 62.480469 C 86.601562 60.28125 87.339844 55.710938 87.339844 55.710938 L 81.980469 57.328125 Z M 73.148438 58.851562 "/>
<path style=" stroke:none;fill-rule:nonzero;fill:rgb(63.529414%,89.411765%,99.215686%);fill-opacity:1;" d="M 42.128906 57.558594 C 42.128906 57.558594 41.488281 58.320312 41.160156 60.320312 C 40.671875 63.238281 41.480469 70.46875 41.808594 74.769531 C 42.128906 79.070312 42.621094 85.078125 42.621094 85.078125 L 45.789062 84.269531 C 45.789062 84.269531 46.03125 73.070312 46.359375 68.929688 C 46.691406 64.789062 48.058594 61.539062 50.5 60.488281 C 52.941406 59.441406 55.699219 58.621094 55.699219 58.621094 L 43.28125 56.179688 Z M 42.128906 57.558594 "/>
<path style=" stroke:none;fill-rule:nonzero;fill:rgb(63.529414%,89.411765%,99.215686%);fill-opacity:1;" d="M 64.289062 32.320312 C 67.128906 32.320312 67.210938 30.289062 67.210938 29.148438 C 67.210938 28.011719 68.511719 14.941406 77.03125 14.699219 C 85.070312 14.46875 86.539062 34.191406 86.640625 39.070312 C 86.730469 43.230469 86.71875 49.351562 86.71875 49.351562 L 90.570312 48.558594 C 90.570312 48.558594 93.648438 10.578125 77.761719 9.589844 C 70.46875 9.128906 67.128906 15.191406 67.128906 15.191406 C 67.128906 15.191406 66.890625 8.128906 66.71875 6.101562 C 66.550781 4.070312 64.929688 3.5 63.878906 3.578125 C 62.820312 3.660156 61.53125 4.550781 61.359375 6.101562 C 61.199219 7.640625 61.28125 15.109375 61.28125 15.109375 C 61.28125 15.109375 57.148438 8.699219 51.621094 8.78125 C 45.609375 8.859375 38.878906 15.921875 37.011719 30.53125 C 35.140625 45.140625 36.691406 51.878906 36.691406 51.878906 L 40.46875 48.910156 C 40.46875 48.910156 40.261719 33.621094 42.039062 26.878906 C 43.820312 20.140625 47 14.070312 51.308594 14.070312 C 55.621094 14.070312 58.210938 18.691406 59.988281 23.308594 C 60.960938 25.828125 61.109375 28.648438 61.128906 29.480469 C 61.160156 30.988281 61.609375 32.320312 64.289062 32.320312 Z M 64.289062 32.320312 "/>
</g>
</svg>
