<?xml version="1.0" encoding="UTF-8"?>
<svg xmlns="http://www.w3.org/2000/svg" xmlns:xlink="http://www.w3.org/1999/xlink" width="128px" height="128px" viewBox="0 0 128 128" version="1.1">
<g id="surface1">
<path style=" stroke:none;fill-rule:nonzero;fill:rgb(90.588236%,33.725491%,14.509805%);fill-opacity:1;" d="M 35.699219 7.671875 C 35.699219 7.699219 36.238281 45.921875 36.238281 45.921875 C 36.238281 45.921875 43.269531 43.339844 48.28125 38.640625 C 52.820312 34.378906 62.671875 32.179688 69.289062 29.800781 C 83.941406 24.539062 86.699219 19.078125 86.699219 19.078125 C 86.699219 19.078125 86.941406 20.339844 74.089844 18.808594 C 70.449219 18.378906 61.648438 16.230469 57.058594 14.929688 C 51.730469 13.421875 50.261719 12.730469 46.800781 11.480469 C 39.128906 8.691406 37.328125 7.671875 37.328125 7.671875 Z M 35.699219 7.671875 "/>
<path style=" stroke:none;fill-rule:nonzero;fill:rgb(63.529414%,75.294119%,16.862746%);fill-opacity:1;" d="M 3.339844 82.859375 C 3.339844 82.859375 7.109375 75.238281 37.019531 69.578125 C 64.609375 64.359375 85.179688 66.429688 98.089844 70.390625 C 128.371094 79.660156 90.511719 84.921875 102.109375 92.5 C 111.871094 98.878906 126.820312 97.078125 127 105.578125 C 127.128906 111.371094 112.570312 115.371094 92.769531 116.589844 C 47.898438 119.359375 19.460938 107.609375 9.730469 101.578125 C 1.421875 96.421875 -1.53125 88.460938 3.339844 82.859375 Z M 3.339844 82.859375 "/>
<path style=" stroke:none;fill-rule:nonzero;fill:rgb(38.431373%,43.137255%,18.82353%);fill-opacity:1;" d="M 43.308594 91.730469 L 64.398438 66.519531 C 61.609375 66.601562 58.699219 66.761719 55.691406 67.011719 L 40.371094 89.261719 Z M 43.308594 91.730469 "/>
<path style=" stroke:none;fill-rule:nonzero;fill:rgb(18.431373%,18.431373%,18.431373%);fill-opacity:1;" d="M 54.078125 91.101562 C 54.078125 88.0625 46.640625 85.601562 37.460938 85.601562 C 28.28125 85.601562 20.839844 88.0625 20.839844 91.101562 C 20.839844 94.136719 28.28125 96.601562 37.460938 96.601562 C 46.640625 96.601562 54.078125 94.136719 54.078125 91.101562 Z M 54.078125 91.101562 "/>
<path style=" stroke:none;fill-rule:nonzero;fill:rgb(98.431373%,72.156864%,9.019608%);fill-opacity:1;" d="M 37.578125 96.558594 C 37.730469 96.558594 37.878906 96.558594 38.03125 96.550781 L 38.03125 8.5 C 38.03125 7.519531 37.230469 6.71875 36.238281 6.71875 C 35.261719 6.71875 34.460938 7.519531 34.460938 8.5 L 34.460938 96.460938 C 35.46875 96.519531 36.511719 96.558594 37.578125 96.558594 Z M 37.578125 96.558594 "/>
</g>
</svg>
