<?xml version="1.0" encoding="UTF-8"?>
<svg xmlns="http://www.w3.org/2000/svg" xmlns:xlink="http://www.w3.org/1999/xlink" width="128px" height="128px" viewBox="0 0 128 128" version="1.1">
<g id="surface1">
<path style=" stroke:none;fill-rule:nonzero;fill:rgb(74.117649%,81.176472%,27.450982%);fill-opacity:1;" d="M 60.75 33.921875 C 49.890625 32.511719 39.179688 29.898438 29.058594 36.199219 C 19.609375 42.101562 12.371094 52.179688 9.609375 62.949219 C 5.710938 78.179688 8.019531 95.519531 18.441406 107.71875 C 24.160156 114.410156 33.671875 121.53125 42.171875 124.191406 C 63.988281 131.011719 90.960938 127.769531 104.648438 107.449219 C 108.558594 101.648438 112.480469 93.789062 113.910156 86.898438 C 117.921875 67.640625 113.429688 45.070312 93.488281 36.78125 C 84.609375 33.089844 75.121094 35.121094 65.839844 34.449219 C 64.140625 34.328125 62.441406 34.140625 60.75 33.921875 Z M 60.75 33.921875 "/>
<path style=" stroke:none;fill-rule:nonzero;fill:rgb(45.882353%,49.803922%,24.705882%);fill-opacity:1;" d="M 93.921875 0.578125 C 101.160156 0.351562 113.300781 3.578125 118.210938 8.75 C 118.808594 9.390625 119.960938 10.300781 120.128906 11.109375 C 120.398438 12.421875 119.359375 13.539062 118.601562 14.511719 C 107.800781 28.300781 85.679688 35.449219 71.679688 26.078125 C 69.71875 24.769531 70.769531 22.339844 71.171875 20.328125 C 72.769531 12.308594 78.96875 4.949219 86.601562 2.039062 C 88.988281 1.121094 91.460938 0.660156 93.921875 0.578125 Z M 93.921875 0.578125 "/>
<path style=" stroke:none;fill-rule:nonzero;fill:rgb(52.156866%,36.078432%,32.156864%);fill-opacity:1;" d="M 71.410156 21.921875 C 71.339844 21.660156 71.210938 21.429688 71.019531 21.28125 C 70.621094 20.96875 69.789062 20.660156 69.320312 20.488281 C 68.609375 20.21875 67.851562 20.109375 67.109375 20.109375 C 66.828125 20.109375 66.558594 20.121094 66.300781 20.148438 C 65.300781 20.269531 64.441406 20.640625 63.871094 21.449219 C 63.109375 22.5 63.238281 23.691406 63.039062 24.910156 C 62.761719 26.648438 61.941406 28.230469 61.488281 29.929688 C 61.140625 31.238281 60.859375 32.570312 60.609375 33.910156 C 60.421875 34.890625 60.261719 35.871094 60.140625 36.859375 C 59.710938 40.53125 59.109375 44.199219 59.269531 47.910156 C 59.28125 48.421875 59.300781 48.929688 59.328125 49.441406 C 59.339844 49.699219 59.371094 49.949219 59.410156 50.210938 C 59.46875 50.550781 59.488281 50.941406 59.53125 51.328125 C 59.550781 51.46875 59.558594 51.609375 59.578125 51.75 C 59.691406 52.351562 59.898438 52.910156 60.46875 53.21875 C 61.191406 53.621094 62.019531 53.800781 62.859375 53.808594 C 63.121094 53.808594 63.378906 53.769531 63.628906 53.75 L 64.289062 53.710938 C 64.609375 53.621094 64.941406 53.5 65.269531 53.410156 C 65.800781 53.28125 66.320312 53.011719 66.691406 52.601562 C 67.019531 52.230469 67.058594 51.851562 67.039062 51.410156 C 67.03125 51.308594 67.019531 51.210938 67.011719 51.101562 C 66.96875 50.710938 66.941406 50.308594 66.921875 49.910156 C 66.871094 49.121094 66.851562 48.308594 66.828125 47.519531 C 66.769531 45.738281 66.800781 43.941406 66.960938 42.160156 C 67.070312 41.101562 67.121094 40.019531 67.210938 38.960938 C 67.320312 37.480469 67.53125 36.011719 67.78125 34.539062 C 67.839844 34.230469 67.871094 33.929688 67.929688 33.628906 C 68.289062 31.75 68.960938 30.058594 69.679688 28.28125 C 70.011719 27.460938 70.148438 26.589844 70.449219 25.800781 C 70.78125 24.980469 71.511719 24.53125 71.511719 23.550781 C 71.511719 23.089844 71.558594 22.441406 71.410156 21.921875 Z M 71.410156 21.921875 "/>
<path style=" stroke:none;fill-rule:nonzero;fill:rgb(18.431373%,18.431373%,18.431373%);fill-opacity:1;" d="M 59.019531 50.25 C 56.679688 49.75 54.398438 48.921875 52.261719 47.871094 C 51.140625 47.320312 47.898438 44.738281 47.570312 47.449219 C 47.148438 50.71875 51.660156 53.539062 53.898438 54.589844 C 57.761719 56.410156 62.078125 57.058594 66.230469 56.21875 C 70.21875 55.410156 73.640625 53.441406 76.199219 49.980469 C 76.519531 49.53125 76.75 49 76.910156 48.5 C 77.480469 46.691406 75.5 46.671875 74.441406 47.179688 C 73.578125 47.589844 72.839844 48.25 71.980469 48.660156 C 70.339844 49.449219 68.621094 50.089844 66.871094 50.429688 C 64.261719 50.921875 61.609375 50.789062 59.019531 50.25 Z M 59.019531 50.25 "/>
<path style=" stroke:none;fill-rule:nonzero;fill:rgb(100%,100%,100%);fill-opacity:1;" d="M 39.171875 43.589844 C 37.890625 41.871094 34.378906 41.710938 31.878906 42.558594 C 28.789062 43.621094 26.039062 45.921875 24.109375 48.53125 C 22.449219 50.769531 20.011719 55.46875 22.421875 58.039062 C 23.601562 59.289062 25.03125 58.800781 26.390625 58.121094 C 28.851562 56.890625 30.351562 54.199219 32.429688 52.46875 C 34.570312 50.699219 42.148438 47.519531 39.171875 43.589844 Z M 39.171875 43.589844 "/>
</g>
</svg>
