<?xml version="1.0" encoding="UTF-8"?>
<svg xmlns="http://www.w3.org/2000/svg" xmlns:xlink="http://www.w3.org/1999/xlink" width="128px" height="128px" viewBox="0 0 128 128" version="1.1">
<defs>
<clipPath id="clip1">
  <path d="M 29 101 L 42 101 L 42 116 L 29 116 Z M 29 101 "/>
</clipPath>
<clipPath id="clip2">
  <path d="M 111.75 94.949219 C 110.859375 91.71875 107.730469 89.441406 107.320312 85.941406 C 106.839844 81.839844 108.210938 77.839844 108.148438 73.75 C 108.121094 71.609375 107.570312 69.5 107.019531 67.441406 C 106.601562 65.859375 106.078125 64.289062 105.339844 62.820312 C 105.199219 62.53125 104.96875 61.859375 104.710938 61.679688 C 104.488281 61.53125 104.128906 61.589844 103.839844 61.558594 C 103.078125 61.460938 102.339844 61.210938 101.578125 61.210938 C 100.539062 61.210938 99.5 61.210938 98.460938 61.210938 C 97.019531 61.210938 95.578125 61.210938 94.128906 61.210938 C 93.171875 61.210938 92.25 61.078125 91.28125 61.078125 C 90.179688 61.078125 89.089844 61.191406 88 61.21875 C 84.179688 61.300781 80.320312 62.101562 76.511719 62.46875 C 71.230469 62.980469 66.179688 64.488281 60.839844 64.460938 C 57.71875 64.449219 54.609375 64.738281 51.480469 64.738281 C 49.089844 64.738281 46.699219 64.730469 44.308594 64.738281 C 42.550781 64.75 40.800781 64.449219 39.03125 64.628906 C 38.671875 64.671875 34.488281 65.46875 34.371094 65.148438 C 34.378906 65.179688 36.140625 70.578125 33.03125 75.140625 C 30.980469 78.140625 27.339844 82.109375 24.871094 84.671875 C 22.289062 87.339844 21.558594 90.441406 22.230469 94.039062 C 22.679688 96.429688 23.441406 98.730469 24.089844 101.058594 C 24.648438 103.089844 24.878906 105.28125 25.921875 107.148438 C 27.011719 109.109375 28.851562 110.550781 30.660156 111.820312 C 31.929688 112.710938 33.390625 113.75 35.070312 113.378906 C 36.519531 113.058594 37.96875 111.109375 38.398438 109.648438 C 38.839844 108.128906 38.789062 105.871094 37.980469 104.5 C 37.449219 103.578125 36.429688 103.179688 35.570312 102.660156 C 34.011719 101.71875 33.460938 98.839844 33.101562 97.238281 C 32.671875 95.308594 32.308594 93.28125 34.25 92.160156 C 35.511719 91.429688 36.828125 90.890625 38.230469 90.511719 C 39.691406 90.101562 41.199219 89.25 42.730469 89.511719 C 44.660156 89.839844 47.058594 91.371094 48.761719 92.359375 C 49.699219 92.910156 50.011719 93.808594 50.121094 94.828125 C 50.261719 96.070312 50.378906 97.25 50.378906 98.519531 C 50.378906 101.371094 50.519531 104.25 50.519531 107.128906 C 50.519531 108.710938 50.519531 110.289062 50.519531 111.871094 C 50.519531 114.421875 50.378906 116.960938 50.378906 119.511719 C 50.378906 121.078125 50.25 122.648438 50.25 124.230469 C 50.25 124.890625 50.230469 125.769531 50.519531 126.378906 C 50.800781 126.941406 51.398438 127.089844 51.980469 127.238281 C 53.011719 127.511719 54.148438 127.480469 55.269531 127.480469 C 56.480469 127.480469 57.808594 127.359375 58.851562 126.628906 C 59.859375 125.921875 59.730469 124.070312 59.621094 123.011719 C 59.039062 117.941406 59.488281 112.78125 60.691406 107.828125 C 61.601562 104.078125 63.449219 100.730469 64.589844 97.070312 C 65.429688 94.398438 66.96875 93.199219 69.570312 92.390625 C 70.578125 92.078125 71.671875 91.96875 72.710938 91.699219 C 75.929688 90.878906 78.980469 89.429688 82.070312 88.230469 C 83.238281 87.78125 85.398438 86.609375 86.550781 87.570312 C 87.378906 88.269531 87.96875 89.53125 88.648438 90.378906 C 89.46875 91.390625 90.359375 92.359375 91.449219 93.058594 C 93.449219 94.351562 95.53125 95.390625 97.679688 96.308594 C 99.660156 97.140625 99.851562 97.761719 99.828125 99.75 C 99.800781 102.449219 99.050781 104.730469 98.191406 107.25 C 97.480469 109.320312 96.890625 111.441406 96.28125 113.539062 C 95.46875 116.308594 94.320312 120.578125 95.570312 123.410156 C 96.070312 124.550781 97.949219 124.570312 98.988281 124.621094 C 100.671875 124.699219 102.480469 124.179688 103.949219 123.429688 C 104.910156 122.941406 105.140625 122.578125 105.140625 121.5 C 105.140625 118.96875 105.148438 116.570312 105.820312 114.109375 C 106.488281 111.671875 108.300781 108.351562 109.289062 106.039062 C 110.648438 102.859375 112.648438 98.910156 111.898438 95.359375 C 111.828125 95.21875 111.789062 95.089844 111.75 94.949219 Z M 111.75 94.949219 "/>
</clipPath>
<clipPath id="clip3">
  <path d="M 47 121 L 63 121 L 63 128 L 47 128 Z M 47 121 "/>
</clipPath>
<clipPath id="clip4">
  <path d="M 111.75 94.949219 C 110.859375 91.71875 107.730469 89.441406 107.320312 85.941406 C 106.839844 81.839844 108.210938 77.839844 108.148438 73.75 C 108.121094 71.609375 107.570312 69.5 107.019531 67.441406 C 106.601562 65.859375 106.078125 64.289062 105.339844 62.820312 C 105.199219 62.53125 104.96875 61.859375 104.710938 61.679688 C 104.488281 61.53125 104.128906 61.589844 103.839844 61.558594 C 103.078125 61.460938 102.339844 61.210938 101.578125 61.210938 C 100.539062 61.210938 99.5 61.210938 98.460938 61.210938 C 97.019531 61.210938 95.578125 61.210938 94.128906 61.210938 C 93.171875 61.210938 92.25 61.078125 91.28125 61.078125 C 90.179688 61.078125 89.089844 61.191406 88 61.21875 C 84.179688 61.300781 80.320312 62.101562 76.511719 62.46875 C 71.230469 62.980469 66.179688 64.488281 60.839844 64.460938 C 57.71875 64.449219 54.609375 64.738281 51.480469 64.738281 C 49.089844 64.738281 46.699219 64.730469 44.308594 64.738281 C 42.550781 64.75 40.800781 64.449219 39.03125 64.628906 C 38.671875 64.671875 34.488281 65.46875 34.371094 65.148438 C 34.378906 65.179688 36.140625 70.578125 33.03125 75.140625 C 30.980469 78.140625 27.339844 82.109375 24.871094 84.671875 C 22.289062 87.339844 21.558594 90.441406 22.230469 94.039062 C 22.679688 96.429688 23.441406 98.730469 24.089844 101.058594 C 24.648438 103.089844 24.878906 105.28125 25.921875 107.148438 C 27.011719 109.109375 28.851562 110.550781 30.660156 111.820312 C 31.929688 112.710938 33.390625 113.75 35.070312 113.378906 C 36.519531 113.058594 37.96875 111.109375 38.398438 109.648438 C 38.839844 108.128906 38.789062 105.871094 37.980469 104.5 C 37.449219 103.578125 36.429688 103.179688 35.570312 102.660156 C 34.011719 101.71875 33.460938 98.839844 33.101562 97.238281 C 32.671875 95.308594 32.308594 93.28125 34.25 92.160156 C 35.511719 91.429688 36.828125 90.890625 38.230469 90.511719 C 39.691406 90.101562 41.199219 89.25 42.730469 89.511719 C 44.660156 89.839844 47.058594 91.371094 48.761719 92.359375 C 49.699219 92.910156 50.011719 93.808594 50.121094 94.828125 C 50.261719 96.070312 50.378906 97.25 50.378906 98.519531 C 50.378906 101.371094 50.519531 104.25 50.519531 107.128906 C 50.519531 108.710938 50.519531 110.289062 50.519531 111.871094 C 50.519531 114.421875 50.378906 116.960938 50.378906 119.511719 C 50.378906 121.078125 50.25 122.648438 50.25 124.230469 C 50.25 124.890625 50.230469 125.769531 50.519531 126.378906 C 50.800781 126.941406 51.398438 127.089844 51.980469 127.238281 C 53.011719 127.511719 54.148438 127.480469 55.269531 127.480469 C 56.480469 127.480469 57.808594 127.359375 58.851562 126.628906 C 59.859375 125.921875 59.730469 124.070312 59.621094 123.011719 C 59.039062 117.941406 59.488281 112.78125 60.691406 107.828125 C 61.601562 104.078125 63.449219 100.730469 64.589844 97.070312 C 65.429688 94.398438 66.96875 93.199219 69.570312 92.390625 C 70.578125 92.078125 71.671875 91.96875 72.710938 91.699219 C 75.929688 90.878906 78.980469 89.429688 82.070312 88.230469 C 83.238281 87.78125 85.398438 86.609375 86.550781 87.570312 C 87.378906 88.269531 87.96875 89.53125 88.648438 90.378906 C 89.46875 91.390625 90.359375 92.359375 91.449219 93.058594 C 93.449219 94.351562 95.53125 95.390625 97.679688 96.308594 C 99.660156 97.140625 99.851562 97.761719 99.828125 99.75 C 99.800781 102.449219 99.050781 104.730469 98.191406 107.25 C 97.480469 109.320312 96.890625 111.441406 96.28125 113.539062 C 95.46875 116.308594 94.320312 120.578125 95.570312 123.410156 C 96.070312 124.550781 97.949219 124.570312 98.988281 124.621094 C 100.671875 124.699219 102.480469 124.179688 103.949219 123.429688 C 104.910156 122.941406 105.140625 122.578125 105.140625 121.5 C 105.140625 118.96875 105.148438 116.570312 105.820312 114.109375 C 106.488281 111.671875 108.300781 108.351562 109.289062 106.039062 C 110.648438 102.859375 112.648438 98.910156 111.898438 95.359375 C 111.828125 95.21875 111.789062 95.089844 111.75 94.949219 Z M 111.75 94.949219 "/>
</clipPath>
<clipPath id="clip5">
  <path d="M 92 117 L 107 117 L 107 127 L 92 127 Z M 92 117 "/>
</clipPath>
<clipPath id="clip6">
  <path d="M 111.75 94.949219 C 110.859375 91.71875 107.730469 89.441406 107.320312 85.941406 C 106.839844 81.839844 108.210938 77.839844 108.148438 73.75 C 108.121094 71.609375 107.570312 69.5 107.019531 67.441406 C 106.601562 65.859375 106.078125 64.289062 105.339844 62.820312 C 105.199219 62.53125 104.96875 61.859375 104.710938 61.679688 C 104.488281 61.53125 104.128906 61.589844 103.839844 61.558594 C 103.078125 61.460938 102.339844 61.210938 101.578125 61.210938 C 100.539062 61.210938 99.5 61.210938 98.460938 61.210938 C 97.019531 61.210938 95.578125 61.210938 94.128906 61.210938 C 93.171875 61.210938 92.25 61.078125 91.28125 61.078125 C 90.179688 61.078125 89.089844 61.191406 88 61.21875 C 84.179688 61.300781 80.320312 62.101562 76.511719 62.46875 C 71.230469 62.980469 66.179688 64.488281 60.839844 64.460938 C 57.71875 64.449219 54.609375 64.738281 51.480469 64.738281 C 49.089844 64.738281 46.699219 64.730469 44.308594 64.738281 C 42.550781 64.75 40.800781 64.449219 39.03125 64.628906 C 38.671875 64.671875 34.488281 65.46875 34.371094 65.148438 C 34.378906 65.179688 36.140625 70.578125 33.03125 75.140625 C 30.980469 78.140625 27.339844 82.109375 24.871094 84.671875 C 22.289062 87.339844 21.558594 90.441406 22.230469 94.039062 C 22.679688 96.429688 23.441406 98.730469 24.089844 101.058594 C 24.648438 103.089844 24.878906 105.28125 25.921875 107.148438 C 27.011719 109.109375 28.851562 110.550781 30.660156 111.820312 C 31.929688 112.710938 33.390625 113.75 35.070312 113.378906 C 36.519531 113.058594 37.96875 111.109375 38.398438 109.648438 C 38.839844 108.128906 38.789062 105.871094 37.980469 104.5 C 37.449219 103.578125 36.429688 103.179688 35.570312 102.660156 C 34.011719 101.71875 33.460938 98.839844 33.101562 97.238281 C 32.671875 95.308594 32.308594 93.28125 34.25 92.160156 C 35.511719 91.429688 36.828125 90.890625 38.230469 90.511719 C 39.691406 90.101562 41.199219 89.25 42.730469 89.511719 C 44.660156 89.839844 47.058594 91.371094 48.761719 92.359375 C 49.699219 92.910156 50.011719 93.808594 50.121094 94.828125 C 50.261719 96.070312 50.378906 97.25 50.378906 98.519531 C 50.378906 101.371094 50.519531 104.25 50.519531 107.128906 C 50.519531 108.710938 50.519531 110.289062 50.519531 111.871094 C 50.519531 114.421875 50.378906 116.960938 50.378906 119.511719 C 50.378906 121.078125 50.25 122.648438 50.25 124.230469 C 50.25 124.890625 50.230469 125.769531 50.519531 126.378906 C 50.800781 126.941406 51.398438 127.089844 51.980469 127.238281 C 53.011719 127.511719 54.148438 127.480469 55.269531 127.480469 C 56.480469 127.480469 57.808594 127.359375 58.851562 126.628906 C 59.859375 125.921875 59.730469 124.070312 59.621094 123.011719 C 59.039062 117.941406 59.488281 112.78125 60.691406 107.828125 C 61.601562 104.078125 63.449219 100.730469 64.589844 97.070312 C 65.429688 94.398438 66.96875 93.199219 69.570312 92.390625 C 70.578125 92.078125 71.671875 91.96875 72.710938 91.699219 C 75.929688 90.878906 78.980469 89.429688 82.070312 88.230469 C 83.238281 87.78125 85.398438 86.609375 86.550781 87.570312 C 87.378906 88.269531 87.96875 89.53125 88.648438 90.378906 C 89.46875 91.390625 90.359375 92.359375 91.449219 93.058594 C 93.449219 94.351562 95.53125 95.390625 97.679688 96.308594 C 99.660156 97.140625 99.851562 97.761719 99.828125 99.75 C 99.800781 102.449219 99.050781 104.730469 98.191406 107.25 C 97.480469 109.320312 96.890625 111.441406 96.28125 113.539062 C 95.46875 116.308594 94.320312 120.578125 95.570312 123.410156 C 96.070312 124.550781 97.949219 124.570312 98.988281 124.621094 C 100.671875 124.699219 102.480469 124.179688 103.949219 123.429688 C 104.910156 122.941406 105.140625 122.578125 105.140625 121.5 C 105.140625 118.96875 105.148438 116.570312 105.820312 114.109375 C 106.488281 111.671875 108.300781 108.351562 109.289062 106.039062 C 110.648438 102.859375 112.648438 98.910156 111.898438 95.359375 C 111.828125 95.21875 111.789062 95.089844 111.75 94.949219 Z M 111.75 94.949219 "/>
</clipPath>
</defs>
<g id="surface1">
<path style=" stroke:none;fill-rule:nonzero;fill:rgb(18.431373%,18.431373%,18.431373%);fill-opacity:1;" d="M 77.101562 105.148438 C 77.300781 104.648438 77.488281 104.160156 77.679688 103.679688 C 78.839844 100.558594 81.089844 95.128906 76.738281 93.289062 C 74.589844 92.378906 72.519531 91.328125 70.511719 90.039062 C 68.589844 88.800781 67.171875 86.640625 65.820312 84.828125 C 64.820312 83.5 63.460938 81.988281 63.5 80.238281 C 63.558594 77.988281 65.050781 75.421875 66.050781 73.441406 C 67.140625 71.199219 68.449219 69.070312 69.910156 67.050781 C 72 64.171875 75.351562 60.128906 78.910156 59.140625 C 81.230469 58.5 82.859375 58.828125 84 61.039062 C 85.558594 64.128906 87.078125 67.570312 87.300781 71.089844 C 87.371094 72.199219 86.988281 73.121094 86.839844 74.191406 C 86.589844 75.898438 86.769531 77.738281 86.769531 79.46875 C 86.769531 82.128906 85.898438 85.28125 88.320312 87.21875 C 90.109375 88.660156 92.199219 91.179688 92.210938 93.589844 C 92.210938 96.230469 90.621094 99.351562 89.539062 101.691406 C 88.101562 104.789062 86.519531 107.828125 85.058594 110.929688 C 83.949219 113.289062 83.808594 115.648438 83.808594 118.238281 C 83.808594 121.609375 79.769531 121.320312 77.359375 121.371094 C 76.628906 121.390625 75.660156 121.570312 74.980469 121.199219 C 74.5 120.941406 74.378906 120.460938 74.210938 119.96875 C 74.058594 119.53125 73.859375 118.980469 73.800781 118.511719 C 73.28125 113.859375 75.398438 109.410156 77.101562 105.148438 Z M 77.101562 105.148438 "/>
<path style=" stroke:none;fill-rule:nonzero;fill:rgb(72.156864%,57.254905%,47.058824%);fill-opacity:1;" d="M 30.679688 12.058594 C 30.949219 11.550781 31.339844 11.058594 31.761719 10.621094 C 34.109375 8.148438 37.808594 6.828125 41.058594 6 C 42.601562 5.609375 45.148438 4.691406 46.199219 6.53125 C 46.75 7.5 46.429688 8.019531 45.730469 8.769531 C 44.828125 9.710938 44.691406 10.28125 44.878906 11.640625 C 45 12.429688 50 12.660156 50.691406 12.769531 C 51.96875 12.96875 53.070312 13.519531 54.308594 13.851562 C 55.980469 14.289062 63.910156 13.320312 61.988281 17.171875 C 61.511719 18.160156 59.191406 18.601562 59.449219 19.828125 C 59.859375 21.820312 64.289062 21.058594 65.699219 21.179688 C 66.890625 21.28125 67.769531 21.671875 67.871094 23.078125 C 67.96875 24.578125 67.011719 24.550781 65.960938 25.25 C 65.460938 25.578125 64.308594 26.480469 64.308594 27.140625 C 64.339844 28.199219 65.75 28.308594 66.511719 28.5 C 67.480469 28.75 68.421875 28.769531 69.488281 28.769531 C 70.351562 28.769531 72.148438 28.441406 72.820312 28.960938 C 75.261719 30.851562 70.390625 32.210938 70.289062 33.640625 C 70.140625 35.78125 75.390625 35.398438 76.808594 36.019531 C 77.789062 36.449219 77.980469 37.160156 77.890625 38.25 C 77.738281 39.800781 76.699219 39.871094 75.78125 40.960938 C 73.769531 43.339844 80.210938 41.839844 79.179688 45.019531 C 78.769531 46.328125 77 47.53125 75.929688 48.269531 C 73.558594 49.898438 71.101562 50.609375 68.339844 51.320312 C 66.5 51.789062 63.828125 52.578125 61.898438 52.089844 C 61.238281 51.921875 60.929688 51.378906 60.488281 50.988281 C 59.789062 50.371094 58.941406 49.800781 58.359375 49.03125 C 56.210938 46.128906 54.671875 42.789062 51.550781 40.691406 C 50.238281 39.808594 49.359375 39.148438 48.351562 37.921875 C 47.578125 36.980469 46.539062 35.570312 45.101562 35.808594 C 44.671875 35.878906 41.820312 30.621094 41.550781 30.191406 C 39.25 26.519531 36.929688 22.839844 34.621094 19.160156 C 34.011719 18.199219 33.46875 17.121094 32.78125 16.21875 C 32.230469 15.519531 31.441406 15.140625 30.878906 14.488281 C 30.199219 13.699219 30.28125 12.851562 30.679688 12.058594 Z M 30.679688 12.058594 "/>
<path style=" stroke:none;fill-rule:nonzero;fill:rgb(72.156864%,57.254905%,47.058824%);fill-opacity:1;" d="M 92.988281 51.25 C 92.488281 50.300781 92.460938 49.140625 93.308594 47.53125 C 96.339844 41.75 102.789062 43.859375 107.53125 45.949219 C 110.878906 47.429688 114.128906 49.210938 117.699219 50.148438 C 119.25 50.558594 120.738281 50.78125 122.339844 50.691406 C 123.921875 50.601562 125.890625 50.28125 126.710938 52.019531 C 127.421875 53.511719 126.710938 55.859375 125.921875 57.179688 C 120.621094 65.949219 107.578125 65.511719 100.859375 58.738281 C 99.589844 57.460938 98.351562 56.160156 97.019531 54.949219 C 95.550781 53.621094 93.761719 52.679688 92.988281 51.25 Z M 92.988281 51.25 "/>
<path style=" stroke:none;fill-rule:nonzero;fill:rgb(52.156866%,36.078432%,32.156864%);fill-opacity:1;" d="M 102.148438 84.878906 C 103.960938 82.511719 104.75 79.261719 105.308594 76.460938 C 105.890625 73.578125 105.859375 70.558594 105.800781 67.519531 C 105.761719 65.75 105.5 63.949219 104.921875 62.28125 C 104.359375 60.691406 103.308594 59.480469 102.589844 58 C 101 54.761719 98.429688 52.078125 95.550781 49.960938 C 91.238281 46.789062 85.660156 46.171875 80.480469 46.449219 C 75.019531 46.738281 69.949219 48.371094 65.050781 45.148438 C 60.671875 42.25 56.449219 37.699219 53.578125 33.171875 C 51.921875 30.539062 50.519531 27.75 49 25.039062 C 49.058594 23.070312 49.46875 19.589844 49.480469 19.589844 C 49.5 19.410156 53.140625 17.96875 53.5 17.738281 C 54.851562 16.898438 56.050781 15.878906 56.761719 14.441406 C 57.910156 12.160156 58.359375 8.78125 55.261719 7.890625 C 52.789062 7.179688 49.929688 8.21875 47.839844 9.539062 C 45.960938 10.738281 41.910156 13.878906 41.910156 13.878906 C 41.910156 13.878906 39.96875 13.75 36.46875 12.960938 C 32.96875 12.171875 29.558594 10.25 29.558594 10.25 C 29.558594 10.25 28 6.371094 27.28125 4.390625 C 26.921875 3.371094 26.390625 2.25 25.609375 1.480469 C 23.730469 -0.390625 21.578125 0.839844 20.21875 2.480469 C 18.609375 4.421875 18.121094 6.300781 18.820312 8.738281 C 19.289062 10.378906 20.929688 13.71875 20.929688 13.71875 C 20.929688 13.71875 17.878906 16.441406 16.761719 17.710938 C 15.558594 19.058594 14.558594 20.441406 13.839844 22.058594 C 12.398438 25.28125 11.171875 28.859375 9.558594 32.109375 C 6.921875 37.429688 2.769531 42.101562 1.351562 48 C -0.109375 54.128906 3.070312 59.539062 8.851562 61.820312 C 13.011719 63.449219 17.660156 63.898438 21.78125 61.929688 C 24.929688 60.429688 27.089844 57.761719 29.789062 55.648438 C 30.410156 56.570312 30.988281 57.511719 31.5 58.480469 C 33.089844 61.460938 34.320312 64.628906 35.109375 67.898438 C 35.820312 70.828125 35.699219 73.660156 35.640625 76.628906 C 35.589844 79.140625 35.089844 80.871094 36.351562 83.238281 C 37.109375 84.648438 38.019531 85.371094 39.128906 86.488281 C 41.011719 88.390625 43.171875 89.738281 45.671875 90.550781 C 48.289062 91.390625 50.949219 92.078125 53.648438 92.558594 C 56.351562 93.03125 59.058594 93.058594 61.769531 93.339844 C 64.070312 93.570312 66.710938 92.421875 68.828125 91.601562 C 71.269531 90.660156 73.640625 89.539062 76.039062 88.511719 C 78.140625 87.601562 80.28125 86.738281 82.5 86.121094 C 83.640625 85.800781 84.761719 85.769531 85.96875 85.761719 C 87.070312 85.75 87.660156 86.160156 88.53125 86.800781 C 89.371094 87.421875 90.171875 88.179688 91.199219 88.289062 C 91.820312 88.359375 92.410156 88.339844 93 88.460938 C 94.191406 88.691406 95.558594 89.019531 96.75 88.640625 C 98.128906 88.199219 99.480469 87.339844 100.609375 86.441406 C 101.199219 85.980469 101.699219 85.449219 102.148438 84.878906 Z M 102.148438 84.878906 "/>
<path style=" stroke:none;fill-rule:nonzero;fill:rgb(18.431373%,18.431373%,18.431373%);fill-opacity:1;" d="M 35.148438 36.929688 C 32.71875 36.648438 31.269531 34.511719 31.890625 32.128906 C 32.308594 30.5 33.519531 29.128906 35.289062 29.261719 C 40.328125 29.628906 40.429688 37.53125 35.148438 36.929688 Z M 35.148438 36.929688 "/>
<path style=" stroke:none;fill-rule:nonzero;fill:rgb(52.156866%,36.078432%,32.156864%);fill-opacity:1;" d="M 111.75 94.949219 C 110.859375 91.71875 107.730469 89.441406 107.320312 85.941406 C 106.839844 81.839844 108.210938 77.839844 108.148438 73.75 C 108.121094 71.609375 107.570312 69.5 107.019531 67.441406 C 106.601562 65.859375 106.078125 64.289062 105.339844 62.820312 C 105.199219 62.53125 104.96875 61.859375 104.710938 61.679688 C 104.488281 61.53125 104.128906 61.589844 103.839844 61.558594 C 103.078125 61.460938 102.339844 61.210938 101.578125 61.210938 C 100.539062 61.210938 99.5 61.210938 98.460938 61.210938 C 97.019531 61.210938 95.578125 61.210938 94.128906 61.210938 C 93.171875 61.210938 92.25 61.078125 91.28125 61.078125 C 90.179688 61.078125 89.089844 61.191406 88 61.21875 C 84.179688 61.300781 80.320312 62.101562 76.511719 62.46875 C 71.230469 62.980469 66.179688 64.488281 60.839844 64.460938 C 57.71875 64.449219 54.609375 64.738281 51.480469 64.738281 C 49.089844 64.738281 46.699219 64.730469 44.308594 64.738281 C 42.550781 64.75 40.800781 64.449219 39.03125 64.628906 C 38.671875 64.671875 34.488281 65.46875 34.371094 65.148438 C 34.378906 65.179688 36.140625 70.578125 33.03125 75.140625 C 30.980469 78.140625 27.339844 82.109375 24.871094 84.671875 C 22.289062 87.339844 21.558594 90.441406 22.230469 94.039062 C 22.679688 96.429688 23.441406 98.730469 24.089844 101.058594 C 24.648438 103.089844 24.878906 105.28125 25.921875 107.148438 C 27.011719 109.109375 28.851562 110.550781 30.660156 111.820312 C 31.929688 112.710938 33.390625 113.75 35.070312 113.378906 C 36.519531 113.058594 37.96875 111.109375 38.398438 109.648438 C 38.839844 108.128906 38.789062 105.871094 37.980469 104.5 C 37.449219 103.578125 36.429688 103.179688 35.570312 102.660156 C 34.011719 101.71875 33.460938 98.839844 33.101562 97.238281 C 32.671875 95.308594 32.308594 93.28125 34.25 92.160156 C 35.511719 91.429688 36.828125 90.890625 38.230469 90.511719 C 39.691406 90.101562 41.199219 89.25 42.730469 89.511719 C 44.660156 89.839844 47.058594 91.371094 48.761719 92.359375 C 49.699219 92.910156 50.011719 93.808594 50.121094 94.828125 C 50.261719 96.070312 50.378906 97.25 50.378906 98.519531 C 50.378906 101.371094 50.519531 104.25 50.519531 107.128906 C 50.519531 108.710938 50.519531 110.289062 50.519531 111.871094 C 50.519531 114.421875 50.378906 116.960938 50.378906 119.511719 C 50.378906 121.078125 50.25 122.648438 50.25 124.230469 C 50.25 124.890625 50.230469 125.769531 50.519531 126.378906 C 50.800781 126.941406 51.398438 127.089844 51.980469 127.238281 C 53.011719 127.511719 54.148438 127.480469 55.269531 127.480469 C 56.480469 127.480469 57.808594 127.359375 58.851562 126.628906 C 59.859375 125.921875 59.730469 124.070312 59.621094 123.011719 C 59.039062 117.941406 59.488281 112.78125 60.691406 107.828125 C 61.601562 104.078125 63.449219 100.730469 64.589844 97.070312 C 65.429688 94.398438 66.96875 93.199219 69.570312 92.390625 C 70.578125 92.078125 71.671875 91.96875 72.710938 91.699219 C 75.929688 90.878906 78.980469 89.429688 82.070312 88.230469 C 83.238281 87.78125 85.398438 86.609375 86.550781 87.570312 C 87.378906 88.269531 87.96875 89.53125 88.648438 90.378906 C 89.46875 91.390625 90.359375 92.359375 91.449219 93.058594 C 93.449219 94.351562 95.53125 95.390625 97.679688 96.308594 C 99.660156 97.140625 99.851562 97.761719 99.828125 99.75 C 99.800781 102.449219 99.050781 104.730469 98.191406 107.25 C 97.480469 109.320312 96.890625 111.441406 96.28125 113.539062 C 95.46875 116.308594 94.320312 120.578125 95.570312 123.410156 C 96.070312 124.550781 97.949219 124.570312 98.988281 124.621094 C 100.671875 124.699219 102.480469 124.179688 103.949219 123.429688 C 104.910156 122.941406 105.140625 122.578125 105.140625 121.5 C 105.140625 118.96875 105.148438 116.570312 105.820312 114.109375 C 106.488281 111.671875 108.300781 108.351562 109.289062 106.039062 C 110.648438 102.859375 112.648438 98.910156 111.898438 95.359375 C 111.828125 95.21875 111.789062 95.089844 111.75 94.949219 Z M 111.75 94.949219 "/>
<g clip-path="url(#clip1)" clip-rule="nonzero">
<g clip-path="url(#clip2)" clip-rule="nonzero">
<path style=" stroke:none;fill-rule:nonzero;fill:rgb(47.058824%,63.921571%,67.843139%);fill-opacity:1;" d="M 35.109375 102.300781 C 35.109375 102.300781 35.28125 111.078125 29.46875 110.980469 L 30.199219 113.058594 L 35.511719 115.859375 L 40.480469 113.371094 L 41.890625 105.898438 L 39.558594 101.378906 Z M 35.109375 102.300781 "/>
</g>
</g>
<g clip-path="url(#clip3)" clip-rule="nonzero">
<g clip-path="url(#clip4)" clip-rule="nonzero">
<path style=" stroke:none;fill-rule:nonzero;fill:rgb(47.058824%,63.921571%,67.843139%);fill-opacity:1;" d="M 50.300781 121.160156 C 50.300781 121.160156 53.269531 123.328125 59.410156 121.308594 L 62.128906 123.03125 L 61.820312 129.878906 L 47.339844 129.71875 L 47.960938 122.398438 Z M 50.300781 121.160156 "/>
</g>
</g>
<g clip-path="url(#clip5)" clip-rule="nonzero">
<g clip-path="url(#clip6)" clip-rule="nonzero">
<path style=" stroke:none;fill-rule:nonzero;fill:rgb(47.058824%,63.921571%,67.843139%);fill-opacity:1;" d="M 95.160156 118.078125 C 95.160156 118.078125 98.28125 120.878906 105.160156 117.980469 L 106.421875 118.738281 L 106.691406 125.660156 L 94.929688 126.96875 L 92.851562 121.351562 Z M 95.160156 118.078125 "/>
</g>
</g>
<path style=" stroke:none;fill-rule:nonzero;fill:rgb(18.431373%,18.431373%,18.431373%);fill-opacity:1;" d="M 18.128906 56.351562 C 17.320312 56.839844 16.308594 57.28125 15.351562 57.089844 C 14.488281 56.921875 13.601562 56.179688 14.078125 55.199219 C 14.378906 54.589844 15.039062 54.078125 15.621094 53.75 C 16.359375 53.320312 18.539062 52.660156 19.230469 53.488281 C 20.109375 54.550781 19.03125 55.820312 18.128906 56.351562 Z M 18.128906 56.351562 "/>
</g>
</svg>
