<?xml version="1.0" encoding="UTF-8"?>
<svg xmlns="http://www.w3.org/2000/svg" xmlns:xlink="http://www.w3.org/1999/xlink" width="128px" height="128px" viewBox="0 0 128 128" version="1.1">
<g id="surface1">
<path style=" stroke:none;fill-rule:nonzero;fill:rgb(16.078432%,18.431373%,20%);fill-opacity:1;" d="M 5.464844 88.753906 C 3.992188 88.753906 2.796875 89.949219 2.796875 91.421875 C 2.796875 92.894531 3.992188 94.085938 5.464844 94.085938 L 69.464844 94.085938 L 69.464844 88.753906 Z M 125.183594 60.46875 L 80.738281 60.46875 L 80.738281 65.800781 L 125.183594 65.800781 C 126.65625 65.800781 127.851562 64.609375 127.851562 63.136719 C 127.851562 61.660156 126.660156 60.46875 125.183594 60.46875 Z M 125.183594 60.46875 "/>
<path style=" stroke:none;fill-rule:nonzero;fill:rgb(100%,80.000001%,30.19608%);fill-opacity:1;" d="M 82.546875 34.21875 L 102.960938 13.800781 L 123.382812 34.21875 L 123.382812 60.46875 L 82.546875 60.46875 Z M 82.546875 34.21875 "/>
<path style=" stroke:none;fill-rule:nonzero;fill:rgb(16.078432%,18.431373%,20%);fill-opacity:1;" d="M 123.382812 37.136719 C 122.632812 37.136719 121.886719 36.851562 121.320312 36.285156 L 102.964844 17.929688 L 84.613281 36.285156 C 83.472656 37.421875 81.625 37.421875 80.488281 36.285156 C 79.347656 35.148438 79.347656 33.296875 80.488281 32.160156 L 100.902344 11.742188 C 102.039062 10.605469 103.890625 10.605469 105.027344 11.742188 L 125.445312 32.160156 C 126.582031 33.296875 126.582031 35.148438 125.445312 36.285156 C 124.871094 36.851562 124.125 37.136719 123.382812 37.136719 Z M 123.382812 37.136719 "/>
<path style=" stroke:none;fill-rule:nonzero;fill:rgb(40.000001%,12.941177%,7.450981%);fill-opacity:1;" d="M 97.128906 40.054688 L 108.796875 40.054688 L 108.796875 60.46875 L 97.128906 60.46875 Z M 97.128906 40.054688 "/>
<path style=" stroke:none;fill-rule:nonzero;fill:rgb(23.137255%,53.333336%,76.47059%);fill-opacity:1;" d="M 88.378906 40.054688 L 94.214844 40.054688 L 94.214844 45.886719 L 88.378906 45.886719 Z M 111.710938 40.054688 L 117.546875 40.054688 L 117.546875 45.886719 L 111.710938 45.886719 Z M 111.710938 48.804688 L 117.546875 48.804688 L 117.546875 54.636719 L 111.710938 54.636719 Z M 111.710938 48.804688 "/>
<path style=" stroke:none;fill-rule:nonzero;fill:rgb(100%,80.000001%,30.19608%);fill-opacity:1;" d="M 37.464844 18.699219 L 7.96875 48.195312 L 7.96875 88.753906 L 66.960938 88.753906 L 66.960938 48.195312 Z M 37.464844 18.699219 "/>
<path style=" stroke:none;fill-rule:nonzero;fill:rgb(16.078432%,18.431373%,20%);fill-opacity:1;" d="M 70.648438 55.570312 C 69.707031 55.570312 68.761719 55.210938 68.042969 54.488281 L 37.464844 23.910156 L 6.886719 54.488281 C 5.445312 55.929688 3.113281 55.929688 1.675781 54.488281 C 0.234375 53.050781 0.234375 50.714844 1.675781 49.277344 L 34.859375 16.09375 C 36.296875 14.652344 38.632812 14.652344 40.070312 16.09375 L 73.253906 49.277344 C 74.695312 50.714844 74.695312 53.050781 73.253906 54.488281 C 72.535156 55.207031 71.59375 55.570312 70.648438 55.570312 Z M 70.648438 55.570312 "/>
<path style=" stroke:none;fill-rule:nonzero;fill:rgb(40.000001%,12.941177%,7.450981%);fill-opacity:1;" d="M 30.089844 55.570312 L 44.839844 55.570312 L 44.839844 88.753906 L 30.089844 88.753906 Z M 30.089844 55.570312 "/>
<path style=" stroke:none;fill-rule:nonzero;fill:rgb(23.137255%,53.333336%,76.47059%);fill-opacity:1;" d="M 15.34375 55.570312 L 26.402344 55.570312 L 26.402344 66.632812 L 15.34375 66.632812 Z M 15.34375 70.316406 L 26.402344 70.316406 L 26.402344 81.378906 L 15.34375 81.378906 Z M 15.34375 70.316406 "/>
<path style=" stroke:none;fill-rule:nonzero;fill:rgb(100%,90.980393%,71.372551%);fill-opacity:1;" d="M 76.363281 30 L 38.949219 67.539062 L 38.949219 119.160156 L 113.777344 119.160156 L 113.777344 67.539062 Z M 76.363281 30 "/>
<path style=" stroke:none;fill-rule:nonzero;fill:rgb(40.000001%,45.882353%,49.803922%);fill-opacity:1;" d="M 117.332031 117.363281 L 35.554688 117.363281 C 33.59375 117.363281 32 118.957031 32 120.929688 C 32 122.898438 33.59375 124.496094 35.554688 124.496094 L 117.332031 124.496094 C 119.296875 124.496094 120.890625 122.898438 120.890625 120.929688 C 120.890625 118.957031 119.296875 117.363281 117.332031 117.363281 Z M 117.332031 117.363281 "/>
<path style=" stroke:none;fill-rule:nonzero;fill:rgb(100%,80.000001%,30.19608%);fill-opacity:1;" d="M 74.667969 67.554688 L 78.222656 67.554688 L 78.222656 117.332031 L 74.667969 117.332031 Z M 74.667969 67.554688 "/>
<path style=" stroke:none;fill-rule:nonzero;fill:rgb(75.686276%,41.176471%,30.980393%);fill-opacity:1;" d="M 49.777344 96 L 64 96 L 64 117.332031 L 49.777344 117.332031 Z M 49.777344 96 "/>
<path style=" stroke:none;fill-rule:nonzero;fill:rgb(33.333334%,67.450982%,93.333334%);fill-opacity:1;" d="M 49.777344 71.109375 L 64 71.109375 L 64 85.332031 L 49.777344 85.332031 Z M 88.890625 71.109375 L 103.109375 71.109375 L 103.109375 85.332031 L 88.890625 85.332031 Z M 88.890625 96 L 103.109375 96 L 103.109375 110.222656 L 88.890625 110.222656 Z M 88.890625 96 "/>
<path style=" stroke:none;fill-rule:nonzero;fill:rgb(40.000001%,45.882353%,49.803922%);fill-opacity:1;" d="M 74.667969 69.699219 C 73.757812 69.699219 72.847656 69.351562 72.152344 68.65625 C 70.761719 67.265625 70.761719 65.019531 72.152344 63.628906 L 95.265625 40.519531 L 100.292969 45.546875 L 77.179688 68.65625 C 76.488281 69.355469 75.578125 69.699219 74.667969 69.699219 Z M 74.667969 69.699219 "/>
<path style=" stroke:none;fill-rule:nonzero;fill:rgb(40.000001%,45.882353%,49.803922%);fill-opacity:1;" d="M 116.921875 69.699219 C 115.980469 69.699219 115.03125 69.339844 114.316406 68.617188 L 76.363281 30.667969 L 38.410156 68.617188 C 36.96875 70.058594 34.636719 70.058594 33.199219 68.617188 C 31.757812 67.179688 31.757812 64.847656 33.199219 63.40625 L 73.757812 22.847656 C 75.195312 21.40625 77.527344 21.40625 78.96875 22.847656 L 119.527344 63.40625 C 120.96875 64.847656 120.96875 67.179688 119.527344 68.617188 C 118.808594 69.339844 117.867188 69.699219 116.921875 69.699219 Z M 116.921875 69.699219 "/>
</g>
</svg>
