<?xml version="1.0" encoding="UTF-8"?>
<svg xmlns="http://www.w3.org/2000/svg" xmlns:xlink="http://www.w3.org/1999/xlink" width="128px" height="128px" viewBox="0 0 128 128" version="1.1">
<defs>
<filter id="alpha" filterUnits="objectBoundingBox" x="0%" y="0%" width="100%" height="100%">
  <feColorMatrix type="matrix" in="SourceGraphic" values="0 0 0 0 1 0 0 0 0 1 0 0 0 0 1 0 0 0 1 0"/>
</filter>
<mask id="mask0">
  <g filter="url(#alpha)">
<rect x="0" y="0" width="128" height="128" style="fill:rgb(0%,0%,0%);fill-opacity:0.698039;stroke:none;"/>
  </g>
</mask>
<radialGradient id="radial0" gradientUnits="userSpaceOnUse" cx="35.145302" cy="76.897598" fx="35.145302" fy="76.897598" r="73.699699" >
<stop offset="0.1223" style="stop-color:rgb(100%,65.882353%,82.352941%);stop-opacity:1;"/>
<stop offset="0.3647" style="stop-color:rgb(94.509804%,69.019608%,87.45098%);stop-opacity:1;"/>
<stop offset="0.7812" style="stop-color:rgb(86.27451%,73.333333%,94.509804%);stop-opacity:1;"/>
</radialGradient>
<clipPath id="clip1">
  <rect x="0" y="0" width="128" height="128"/>
</clipPath>
<g id="surface5" clip-path="url(#clip1)">
<path style=" stroke:none;fill-rule:nonzero;fill:url(#radial0);" d="M 31.359375 51.109375 C 31.398438 52.71875 32.25 56.949219 30.46875 62.089844 C 27.480469 70.761719 15.238281 73.429688 19.789062 87.308594 C 22.269531 94.878906 27.289062 95.011719 27.589844 96.019531 C 27.890625 97.03125 26.191406 111.78125 44.101562 115.929688 C 60.929688 119.828125 68.941406 105.308594 73.859375 104.058594 C 78.929688 102.769531 78.691406 107.890625 79.769531 112.839844 C 80.679688 116.988281 83.128906 119.921875 87.070312 121.550781 C 91.21875 123.269531 93.660156 120.839844 93.660156 120.839844 C 93.660156 120.839844 97.578125 123.820312 103.078125 122.460938 C 113.308594 119.929688 112.101562 109.191406 111.390625 109.089844 C 110.679688 108.988281 106.449219 115.75 99.429688 113.039062 C 93.25 110.660156 93.648438 104.019531 95.070312 99.96875 C 96.488281 95.921875 96.078125 91.859375 94.058594 89.738281 C 92.03125 87.609375 88.28125 88.929688 88.28125 88.929688 C 88.28125 88.929688 88.179688 81.941406 83.71875 79.300781 C 79.261719 76.671875 73.410156 80.558594 69.960938 83.871094 C 65.101562 88.53125 59.710938 87.609375 55.859375 82.949219 C 52.390625 78.75 51.761719 73.191406 55.441406 68.460938 C 58.960938 63.941406 61.738281 63.800781 61.738281 63.800781 C 61.738281 63.800781 58.699219 62.480469 56.570312 62.179688 C 54.441406 61.878906 47.5 64.5 42.589844 61.46875 C 35.261719 56.949219 34.769531 52.011719 31.359375 51.109375 Z M 31.359375 51.109375 "/>
</g>
<radialGradient id="radial1" gradientUnits="userSpaceOnUse" cx="35.145302" cy="76.897598" fx="35.145302" fy="76.897598" r="73.699699" >
<stop offset="0.1746" style="stop-color:rgb(100%,65.882353%,82.352941%);stop-opacity:1;"/>
<stop offset="0.4543" style="stop-color:rgb(92.941176%,69.803922%,88.627451%);stop-opacity:0.537255;"/>
<stop offset="0.7812" style="stop-color:rgb(86.27451%,73.333333%,94.509804%);stop-opacity:0;"/>
</radialGradient>
<radialGradient id="radial2" gradientUnits="userSpaceOnUse" cx="63.633202" cy="11.5167" fx="63.633202" fy="11.5167" r="50.225399" gradientTransform="matrix(-0.3376,0.9413,-2.3779,-0.8529,112.503197,-38.556801)">
<stop offset="0.0479" style="stop-color:rgb(99.607843%,38.823529%,36.470588%);stop-opacity:1;"/>
<stop offset="0.1278" style="stop-color:rgb(99.607843%,43.921569%,32.54902%);stop-opacity:1;"/>
<stop offset="0.3256" style="stop-color:rgb(100%,54.901961%,23.529412%);stop-opacity:1;"/>
<stop offset="0.4401" style="stop-color:rgb(100%,59.215686%,20.392157%);stop-opacity:1;"/>
<stop offset="0.5272" style="stop-color:rgb(99.607843%,54.509804%,20.392157%);stop-opacity:1;"/>
<stop offset="0.6826" style="stop-color:rgb(98.823529%,42.745098%,21.176471%);stop-opacity:1;"/>
<stop offset="0.825" style="stop-color:rgb(97.647059%,29.411765%,21.568627%);stop-opacity:1;"/>
</radialGradient>
<radialGradient id="radial3" gradientUnits="userSpaceOnUse" cx="63.577999" cy="17.583799" fx="63.577999" fy="17.583799" r="45.029099" gradientTransform="matrix(-0.3794,0.9252,-1.6774,-0.6878,117.193398,-29.146999)">
<stop offset="0.3617" style="stop-color:rgb(100%,79.215686%,52.941176%);stop-opacity:1;"/>
<stop offset="0.4434" style="stop-color:rgb(100%,74.901961%,50.980392%);stop-opacity:1;"/>
<stop offset="0.5872" style="stop-color:rgb(100%,63.529412%,45.490196%);stop-opacity:1;"/>
<stop offset="0.775" style="stop-color:rgb(100%,44.705882%,37.254902%);stop-opacity:1;"/>
<stop offset="0.812" style="stop-color:rgb(100%,40.784314%,35.294118%);stop-opacity:1;"/>
</radialGradient>
</defs>
<g id="surface1">
<path style=" stroke:none;fill-rule:nonzero;fill:rgb(92.156863%,16.470589%,0%);fill-opacity:1;" d="M 64.238281 86.949219 C 61.011719 86.949219 58.03125 85.789062 56.148438 82.359375 C 53.980469 78.390625 54.640625 73.96875 58.058594 69.578125 C 60.5 66.460938 62.949219 64.960938 63.078125 64.878906 C 63.761719 64.429688 64.679688 64.609375 65.128906 65.289062 C 65.578125 65.96875 65.398438 66.890625 64.71875 67.351562 C 64.621094 67.421875 54.890625 73.890625 58.75 80.941406 C 61.441406 85.851562 67.519531 84.300781 75.820312 80.46875 C 79.609375 78.71875 82.75 78.578125 85.511719 78.449219 C 87.859375 78.339844 89.890625 78.25 92.089844 77.25 C 97.011719 75.011719 97.871094 70.621094 98.78125 65.96875 C 99.261719 63.53125 99.75 61.019531 100.859375 58.800781 C 103.140625 54.238281 106.710938 51.691406 107.359375 51.289062 C 108.121094 50.820312 108.949219 50.261719 109.480469 50.898438 C 110 51.53125 109.25 52.351562 108.621094 52.871094 C 108.578125 52.898438 105.550781 55.160156 103.371094 59.679688 C 102.46875 61.550781 102.148438 64.199219 101.691406 66.550781 C 100.71875 71.488281 99.628906 77.078125 93.320312 79.960938 C 90.601562 81.199219 88.078125 81.308594 85.648438 81.429688 C 83.039062 81.550781 80.328125 81.671875 77.070312 83.179688 C 73.941406 84.589844 68.839844 86.949219 64.238281 86.949219 Z M 64.238281 86.949219 "/>
<path style=" stroke:none;fill-rule:nonzero;fill:rgb(92.156863%,16.470589%,0%);fill-opacity:1;" d="M 80.871094 123.511719 C 79.929688 123.039062 71.171875 118.5 62.859375 115.390625 C 61.328125 114.820312 59.738281 114.289062 58.050781 113.730469 C 51.289062 111.488281 42.871094 108.710938 33.289062 100.839844 C 20.488281 90.328125 18.96875 80.449219 19.199219 75.5 C 19.390625 71.519531 20.941406 68.511719 22.578125 65.320312 C 23.269531 63.980469 23.980469 62.601562 24.601562 61.109375 C 26.398438 56.800781 25.730469 50.101562 25.71875 50.03125 C 25.640625 49.21875 26.230469 48.488281 27.039062 48.398438 C 27.859375 48.320312 28.578125 48.910156 28.671875 49.71875 C 28.699219 50.019531 29.421875 57.238281 27.328125 62.25 C 26.660156 63.851562 25.921875 65.289062 25.210938 66.679688 C 23.660156 69.699219 22.308594 72.308594 22.160156 75.640625 C 22 79.179688 22.929688 88.5 35.171875 98.550781 C 44.328125 106.070312 52.121094 108.648438 58.988281 110.921875 C 60.710938 111.488281 62.328125 112.03125 63.910156 112.621094 C 72.460938 115.828125 80.171875 120.550781 81.28125 121.148438 C 82.398438 121.761719 83.890625 123.171875 83.46875 123.878906 C 83.191406 124.339844 81.808594 123.980469 80.871094 123.511719 Z M 80.871094 123.511719 "/>
<path style=" stroke:none;fill-rule:nonzero;fill:rgb(92.156863%,16.470589%,0%);fill-opacity:1;" d="M 60.71875 99.121094 C 59.398438 99.121094 58.058594 99.011719 56.691406 98.769531 C 43.570312 96.488281 35.589844 86.699219 37.28125 74.96875 C 39.050781 62.730469 47.5 53.421875 47.859375 53.03125 C 48.410156 52.429688 49.351562 52.390625 49.949219 52.941406 C 50.550781 53.488281 50.589844 54.429688 50.039062 55.03125 C 49.960938 55.121094 41.839844 64.078125 40.210938 75.378906 C 38.511719 87.179688 47.511719 94.148438 57.191406 95.839844 C 65.941406 97.359375 73.769531 92.878906 79.488281 89.601562 C 80.761719 88.871094 81.949219 88.191406 83.011719 87.660156 C 85.609375 86.359375 88 86.03125 90.300781 85.71875 C 93.359375 85.300781 96.578125 85.128906 100.238281 82.558594 C 104.769531 79.371094 106.609375 74.359375 106.628906 74.300781 C 106.890625 73.421875 107.378906 72.289062 108.160156 72.539062 C 108.941406 72.789062 108.761719 74.578125 108.511719 75.359375 C 108.148438 76.449219 106.980469 80.988281 101.609375 84.769531 C 97.359375 87.761719 93.820312 88.238281 90.699219 88.671875 C 88.539062 88.96875 86.488281 89.25 84.328125 90.328125 C 83.351562 90.820312 82.179688 91.488281 80.949219 92.191406 C 76 95.03125 68.851562 99.121094 60.71875 99.121094 Z M 60.71875 99.121094 "/>
<use xlink:href="#surface5" mask="url(#mask0)"/>
<path style=" stroke:none;fill-rule:nonzero;fill:url(#radial1);" d="M 31.359375 51.109375 C 31.398438 52.71875 32.25 56.949219 30.46875 62.089844 C 27.480469 70.761719 15.238281 73.429688 19.789062 87.308594 C 22.269531 94.878906 27.289062 95.011719 27.589844 96.019531 C 27.890625 97.03125 26.191406 111.78125 44.101562 115.929688 C 60.929688 119.828125 68.941406 105.308594 73.859375 104.058594 C 78.929688 102.769531 78.691406 107.890625 79.769531 112.839844 C 80.679688 116.988281 83.128906 119.921875 87.070312 121.550781 C 91.21875 123.269531 93.660156 120.839844 93.660156 120.839844 C 93.660156 120.839844 97.578125 123.820312 103.078125 122.460938 C 113.308594 119.929688 112.101562 109.191406 111.390625 109.089844 C 110.679688 108.988281 106.449219 115.75 99.429688 113.039062 C 93.25 110.660156 93.648438 104.019531 95.070312 99.96875 C 96.488281 95.921875 96.078125 91.859375 94.058594 89.738281 C 92.03125 87.609375 88.28125 88.929688 88.28125 88.929688 C 88.28125 88.929688 88.179688 81.941406 83.71875 79.300781 C 79.261719 76.671875 73.410156 80.558594 69.960938 83.871094 C 65.101562 88.53125 59.710938 87.609375 55.859375 82.949219 C 52.390625 78.75 51.761719 73.191406 55.441406 68.460938 C 58.960938 63.941406 61.738281 63.800781 61.738281 63.800781 C 61.738281 63.800781 58.699219 62.480469 56.570312 62.179688 C 54.441406 61.878906 47.5 64.5 42.589844 61.46875 C 35.261719 56.949219 34.769531 52.011719 31.359375 51.109375 Z M 31.359375 51.109375 "/>
<path style=" stroke:none;fill-rule:nonzero;fill:url(#radial2);" d="M 17.570312 43.339844 C 16.851562 41.75 15.628906 34.390625 20.488281 23.550781 C 25.351562 12.710938 43.25 -4.441406 70.601562 8.320312 C 96.699219 20.5 89.550781 49.519531 84.570312 57.929688 C 79.910156 65.789062 75.75 67.769531 71.679688 68.160156 C 68.988281 68.410156 61.648438 62.691406 58.511719 62.488281 C 55.371094 62.289062 46.761719 63.710938 42.601562 61.480469 C 38.449219 59.25 32.96875 51.75 31.148438 51.039062 C 29.328125 50.328125 20.410156 49.621094 17.570312 43.339844 Z M 17.570312 43.339844 "/>
<path style=" stroke:none;fill-rule:nonzero;fill:rgb(96.078432%,92.54902%,92.156863%);fill-opacity:1;" d="M 40.898438 68.710938 C 39.679688 68.640625 38.761719 69.460938 38.691406 70.78125 C 38.621094 72.101562 39.511719 72.878906 40.648438 72.949219 C 41.789062 73.019531 42.71875 72.339844 42.820312 70.960938 C 42.921875 69.601562 42.070312 68.78125 40.898438 68.710938 Z M 40.898438 68.710938 "/>
<path style=" stroke:none;fill-rule:nonzero;fill:rgb(96.078432%,92.54902%,92.156863%);fill-opacity:1;" d="M 37.078125 83.171875 C 35.691406 83.238281 35.03125 84.160156 35.050781 85.53125 C 35.070312 86.898438 36.128906 87.558594 37.390625 87.519531 C 38.648438 87.480469 39.351562 86.570312 39.351562 85.269531 C 39.351562 83.96875 38.378906 83.109375 37.078125 83.171875 Z M 37.078125 83.171875 "/>
<path style=" stroke:none;fill-rule:nonzero;fill:rgb(96.078432%,92.54902%,92.156863%);fill-opacity:1;" d="M 26.121094 73.089844 C 24.761719 73.21875 24.121094 74.230469 24.210938 75.21875 C 24.308594 76.210938 24.75 77.128906 26.121094 77.101562 C 27.261719 77.070312 28.050781 76.46875 28.121094 75.160156 C 28.191406 73.980469 27.429688 72.96875 26.121094 73.089844 Z M 26.121094 73.089844 "/>
<path style=" stroke:none;fill-rule:nonzero;fill:rgb(96.078432%,92.54902%,92.156863%);fill-opacity:1;" d="M 55.019531 87.160156 C 53.75 87.171875 53.171875 88.21875 53.25 89.128906 C 53.339844 90.039062 53.878906 90.941406 55.019531 90.949219 C 56.078125 90.960938 56.808594 90.28125 56.871094 89.070312 C 56.929688 87.980469 56.300781 87.148438 55.019531 87.160156 Z M 55.019531 87.160156 "/>
<path style=" stroke:none;fill-rule:nonzero;fill:rgb(96.078432%,92.54902%,92.156863%);fill-opacity:1;" d="M 39.378906 99.429688 C 38.128906 99.359375 37.210938 100.148438 37.140625 101.46875 C 37.070312 102.789062 37.960938 103.601562 39.121094 103.671875 C 40.28125 103.738281 41.230469 103.058594 41.339844 101.679688 C 41.449219 100.320312 40.578125 99.5 39.378906 99.429688 Z M 39.378906 99.429688 "/>
<path style=" stroke:none;fill-rule:nonzero;fill:rgb(96.078432%,92.54902%,92.156863%);fill-opacity:1;" d="M 52.878906 107.140625 C 51.800781 107.070312 50.988281 107.800781 50.929688 108.960938 C 50.871094 110.121094 51.648438 110.820312 52.660156 110.878906 C 53.671875 110.941406 54.480469 110.351562 54.578125 109.121094 C 54.671875 107.929688 53.921875 107.199219 52.878906 107.140625 Z M 52.878906 107.140625 "/>
<path style=" stroke:none;fill-rule:nonzero;fill:rgb(96.078432%,92.54902%,92.156863%);fill-opacity:1;" d="M 69.359375 93.570312 C 68.21875 93.878906 67.890625 95.28125 68.25 96.210938 C 68.609375 97.140625 69.390625 97.910156 70.589844 97.628906 C 71.679688 97.378906 72.191406 96.410156 71.898438 95.128906 C 71.648438 93.96875 70.589844 93.230469 69.359375 93.570312 Z M 69.359375 93.570312 "/>
<path style=" stroke:none;fill-rule:nonzero;fill:rgb(96.078432%,92.54902%,92.156863%);fill-opacity:1;" d="M 79.21875 85.179688 C 77.988281 85.191406 77.421875 86.160156 77.511719 87 C 77.601562 87.839844 78.121094 88.671875 79.21875 88.679688 C 80.25 88.691406 80.960938 88.058594 81.019531 86.941406 C 81.078125 85.941406 80.46875 85.171875 79.21875 85.179688 Z M 79.21875 85.179688 "/>
<path style=" stroke:none;fill-rule:nonzero;fill:url(#radial3);" d="M 29.421875 48.910156 C 28.308594 48.808594 24.238281 47.300781 23.628906 41.019531 C 23.019531 34.738281 26.941406 31.230469 32.261719 29.21875 C 36.210938 27.730469 39.191406 25.691406 42.75 22.949219 C 46.03125 20.429688 52.589844 16.351562 61.941406 20.53125 C 72.648438 25.320312 71.949219 33.5 72.378906 37.148438 C 72.988281 42.320312 74.261719 44.371094 76.289062 48.570312 C 78.351562 52.839844 77.070312 59.121094 73.761719 62.171875 C 69.808594 65.820312 62.859375 64.5 61.738281 63.789062 C 60.628906 63.078125 58.289062 62.371094 56.570312 62.171875 C 54.851562 61.96875 45.21875 63.28125 42.589844 61.460938 C 39.960938 59.640625 34.378906 53.558594 33.269531 52.75 C 32.160156 51.949219 29.421875 48.910156 29.421875 48.910156 Z M 29.421875 48.910156 "/>
<path style=" stroke:none;fill-rule:nonzero;fill:rgb(92.156863%,16.470589%,0%);fill-opacity:1;" d="M 33.199219 49.789062 C 28.828125 47.210938 26.191406 48.160156 23.011719 46.21875 C 18.390625 43.398438 19.070312 40.421875 17.839844 40.878906 C 16.71875 41.308594 17.339844 47.550781 22.800781 50.378906 C 28.261719 53.210938 29.480469 51.410156 32.558594 54.109375 C 35.640625 56.808594 35.871094 60.78125 42.898438 63.289062 C 49.128906 65.519531 53.441406 62.96875 57.320312 63.820312 C 62.441406 64.941406 60.628906 67.449219 66.5 68.671875 C 71.070312 69.628906 74.96875 67.878906 74.71875 67.121094 C 74.46875 66.371094 71.148438 67.488281 67.351562 65.730469 C 64.660156 64.480469 62.320312 61.539062 59.140625 60.710938 C 52.789062 59.058594 49.191406 62.410156 42.96875 59.269531 C 36.738281 56.148438 38.101562 52.679688 33.199219 49.789062 Z M 33.199219 49.789062 "/>
<path style=" stroke:none;fill-rule:nonzero;fill:rgb(100%,99.607843%,99.607843%);fill-opacity:1;" d="M 48.140625 9.019531 C 48.390625 10.910156 50.429688 10.851562 51.53125 10.789062 C 52.828125 10.71875 54.988281 10.140625 54.730469 8.078125 C 54.539062 6.578125 53.230469 6.050781 51.289062 6.199219 C 49.488281 6.328125 47.921875 7.300781 48.140625 9.019531 Z M 48.140625 9.019531 "/>
<path style=" stroke:none;fill-rule:nonzero;fill:rgb(100%,99.607843%,99.607843%);fill-opacity:1;" d="M 32.140625 13.71875 C 38.449219 8.53125 41.960938 8.371094 43.148438 8.5 C 44.25 8.621094 45.46875 9.390625 45.171875 10.851562 C 44.871094 12.308594 43.390625 12.691406 42.289062 13.109375 C 41.191406 13.53125 39.320312 14 35.171875 17.300781 C 31.988281 19.820312 29.078125 24.160156 27.691406 25.261719 C 26.941406 25.851562 24.691406 25.679688 25.109375 23.089844 C 25.53125 20.5 28.308594 16.871094 32.140625 13.71875 Z M 32.140625 13.71875 "/>
<path style=" stroke:none;fill-rule:nonzero;fill:rgb(92.156863%,16.470589%,0%);fill-opacity:1;" d="M 48.789062 121.640625 C 42.929688 121.640625 32.519531 120.121094 26.199219 109.558594 C 18.539062 96.761719 23.730469 87.921875 28.550781 79.53125 C 30.429688 76.261719 32.199219 73.171875 33.28125 69.820312 C 36.128906 60.898438 34.980469 55.800781 34.96875 55.75 C 34.78125 54.960938 35.269531 54.160156 36.058594 53.960938 C 36.851562 53.769531 37.878906 55.089844 37.980469 55.898438 C 38.109375 56.941406 39.238281 60.921875 36.101562 70.730469 C 34.929688 74.378906 33 77.75 31.121094 81.011719 C 26.53125 89.011719 22.191406 96.570312 28.949219 107.871094 C 37.101562 121.5 50.578125 118.980469 51.550781 118.929688 C 52.371094 118.890625 54.28125 118.710938 54.449219 119.519531 C 54.621094 120.320312 53.558594 121.011719 52.761719 121.179688 C 52.710938 121.179688 51.480469 121.640625 48.789062 121.640625 Z M 48.789062 121.640625 "/>
<path style=" stroke:none;fill-rule:nonzero;fill:rgb(92.156863%,16.470589%,0%);fill-opacity:1;" d="M 74.078125 110.078125 C 69.980469 110.078125 65.421875 109.261719 60.28125 107.261719 C 47.828125 102.421875 41.851562 89.410156 42.550781 79.628906 C 43.351562 68.46875 49.769531 61.859375 50.039062 61.578125 C 50.621094 61 51.550781 60.988281 52.140625 61.570312 C 52.71875 62.148438 52.730469 63.078125 52.148438 63.671875 C 52.050781 63.769531 46.21875 69.859375 45.5 79.851562 C 45 86.808594 49.039062 99.289062 61.53125 104.148438 C 78.480469 110.738281 88.148438 103.890625 96.828125 97.519531 C 100.140625 95.089844 103.269531 92.789062 106.460938 91.628906 C 115.289062 88.421875 119.710938 92.78125 119.929688 92.96875 C 120.550781 93.511719 121.410156 94.480469 120.871094 95.101562 C 120.328125 95.71875 119.5 94.890625 118.621094 94.429688 C 117.128906 93.660156 114.261719 91.621094 107.140625 94.210938 C 104.351562 95.21875 101.710938 97.601562 98.570312 99.898438 C 92.210938 104.578125 84.710938 110.078125 74.078125 110.078125 Z M 74.078125 110.078125 "/>
</g>
</svg>
