<?xml version="1.0" encoding="UTF-8"?>
<svg xmlns="http://www.w3.org/2000/svg" xmlns:xlink="http://www.w3.org/1999/xlink" width="128px" height="128px" viewBox="0 0 128 128" version="1.1">
<g id="surface1">
<path style=" stroke:none;fill-rule:nonzero;fill:rgb(52.156866%,36.078432%,32.156864%);fill-opacity:1;" d="M 65.300781 7.199219 C 67.101562 6.199219 72.601562 3.699219 81 3.800781 C 82.101562 3.800781 82.5 5.300781 81.5 5.800781 C 81.5 5.800781 81.398438 5.800781 81.398438 5.898438 C 80.398438 6.398438 80.699219 7.898438 81.800781 7.898438 C 85.398438 8 91.300781 8.5 96.300781 10 C 97.300781 10.300781 97 11.800781 95.898438 11.699219 C 95.800781 11.699219 95.800781 11.699219 95.699219 11.699219 C 94.699219 11.601562 94.300781 13 95.300781 13.398438 C 103.199219 16.199219 114.398438 22.398438 118.699219 36 C 119 36.898438 118 37.699219 117.101562 37.199219 C 115.398438 36.199219 112.800781 34.898438 109.699219 34 C 108.699219 33.699219 107.898438 34.898438 108.601562 35.699219 C 112.601562 40.699219 121 53.300781 119.199219 68.898438 L 117.300781 85.800781 C 117.199219 86.800781 115.800781 87.101562 115.300781 86.199219 L 113 82 C 112.5 81 110.898438 81.398438 111 82.5 C 111.199219 87.800781 111.101562 96.101562 109 101.199219 C 107.199219 105.601562 106.300781 108.699219 105.898438 110.601562 C 105.699219 111.5 104.601562 111.800781 104 111 C 102.898438 109.601562 101.398438 107.699219 100.101562 106.101562 C 99.601562 105.398438 98.5 105.601562 98.300781 106.398438 C 97.300781 109.398438 94.699219 115.101562 88.898438 118.5 C 88.199219 118.898438 87.199219 118.300781 87.300781 117.5 L 87.699219 113.101562 C 87.699219 112.101562 86.699219 111.601562 86 112.199219 C 82.199219 115.101562 73.601562 124.699219 59.699219 125.300781 C 59.101562 125.300781 58.601562 124.800781 58.601562 124.199219 C 58.699219 121.800781 58.300781 116.199219 51.898438 113.398438 C 51.398438 113.199219 50.800781 113.398438 50.5 113.898438 C 50 114.898438 49.101562 116.699219 49.101562 118.5 C 49.101562 119.199219 48.398438 119.699219 47.800781 119.5 C 44.898438 118.699219 38.699219 116.101562 35 107.898438 C 34.699219 107.101562 33.601562 107 33.101562 107.699219 C 32.5 108.601562 31.699219 110 31.199219 111.601562 C 31 112.300781 30.199219 112.601562 29.601562 112.199219 C 26.199219 110.101562 17 103.300781 15.601562 92.601562 C 14.699219 85.800781 14.300781 81.101562 14.101562 78.101562 C 14 77 12.5 76.699219 12.101562 77.699219 C 11.398438 79.199219 10.699219 81.101562 10 83 C 9.601562 84.101562 8 83.898438 7.898438 82.800781 C 7.398438 77.300781 7.101562 68.800781 8.800781 60.398438 C 11.800781 46 19 43.398438 19 43.398438 L 10.5 46.199219 C 9.699219 46.5 9 45.800781 9.101562 45 C 10 40.199219 13.300781 27 24.699219 20.898438 C 25.601562 20.398438 25.398438 19.101562 24.398438 18.898438 C 23 18.699219 21.398438 18.601562 19.601562 18.699219 C 18.5 19 18 17.699219 18.898438 17 C 22.5 14.199219 28.800781 10.101562 36.101562 9.601562 C 39.199219 9.398438 41.800781 9.300781 43.898438 9.199219 C 45.101562 9.199219 45.398438 7.398438 44.199219 7.101562 C 42.800781 6.699219 41.300781 6.398438 39.699219 6.101562 C 38.601562 5.898438 38.398438 4.398438 39.5 4 C 45 2 55.699219 -0.398438 64 7.101562 C 64.398438 7.398438 64.898438 7.398438 65.300781 7.199219 Z M 65.300781 7.199219 "/>
<path style=" stroke:none;fill-rule:nonzero;fill:rgb(98.823529%,76.078433%,10.980392%);fill-opacity:1;" d="M 100.898438 59.898438 C 97.898438 43.300781 92.601562 24.398438 65.300781 24.398438 C 65.199219 24.398438 65 24.398438 64.898438 24.398438 C 64.800781 24.398438 64.699219 24.398438 64.5 24.398438 C 35.5 24.398438 30.101562 43.199219 27.101562 59.898438 C 24.101562 76.699219 30.101562 89.398438 45.300781 91.601562 C 54.898438 93.101562 51.300781 98.300781 62.699219 99 L 62.699219 99.101562 C 63.101562 99.101562 63.601562 99.101562 64 99.101562 C 64.398438 99.101562 64.800781 99.101562 65.300781 99.101562 L 65.300781 99 C 76.699219 98.300781 73.101562 93.101562 82.699219 91.601562 C 97.898438 89.398438 103.898438 76.699219 100.898438 59.898438 Z M 100.898438 59.898438 "/>
<path style=" stroke:none;fill-rule:nonzero;fill:rgb(98.823529%,76.078433%,10.980392%);fill-opacity:1;" d="M 77.199219 27.800781 C 77.199219 27.800781 85.800781 17.601562 94.300781 25.199219 C 100.898438 31.199219 94.5 43.699219 94.5 43.699219 C 94.5 43.699219 79 38.800781 77.199219 27.800781 Z M 77.199219 27.800781 "/>
<path style=" stroke:none;fill-rule:nonzero;fill:rgb(98.823529%,76.078433%,10.980392%);fill-opacity:1;" d="M 51 27.800781 C 51 27.800781 42.398438 17.601562 33.898438 25.199219 C 27.300781 31.199219 33.699219 43.699219 33.699219 43.699219 C 33.699219 43.699219 49.199219 38.800781 51 27.800781 Z M 51 27.800781 "/>
<path style=" stroke:none;fill-rule:nonzero;fill:rgb(100%,93.333334%,80.000001%);fill-opacity:1;" d="M 101.5 64.398438 C 89.699219 77.699219 81.398438 65.5 63.800781 65.398438 C 46 65.398438 36.5 76.5 26.601562 63.699219 C 24.898438 77 30.101562 89.398438 45.300781 91.699219 C 54.898438 93.199219 51.300781 98.398438 62.699219 99.101562 L 62.699219 99.199219 C 63.101562 99.199219 63.601562 99.199219 64 99.199219 C 64.398438 99.199219 64.800781 99.199219 65.300781 99.199219 L 65.300781 99 C 76.699219 98.300781 73.101562 93.101562 82.699219 91.601562 C 97.898438 89.398438 103.101562 77 101.5 64.398438 Z M 101.5 64.398438 "/>
<path style=" stroke:none;fill-rule:nonzero;fill:rgb(18.431373%,18.431373%,18.431373%);fill-opacity:1;" d="M 52.5 49.398438 C 52.5 46.636719 50.484375 44.398438 48 44.398438 C 45.515625 44.398438 43.5 46.636719 43.5 49.398438 C 43.5 52.160156 45.515625 54.398438 48 54.398438 C 50.484375 54.398438 52.5 52.160156 52.5 49.398438 Z M 52.5 49.398438 "/>
<path style=" stroke:none;fill-rule:nonzero;fill:rgb(18.431373%,18.431373%,18.431373%);fill-opacity:1;" d="M 84.5 49.398438 C 84.5 46.636719 82.484375 44.398438 80 44.398438 C 77.515625 44.398438 75.5 46.636719 75.5 49.398438 C 75.5 52.160156 77.515625 54.398438 80 54.398438 C 82.484375 54.398438 84.5 52.160156 84.5 49.398438 Z M 84.5 49.398438 "/>
<path style=" stroke:none;fill-rule:nonzero;fill:rgb(18.431373%,18.431373%,18.431373%);fill-opacity:1;" d="M 55.300781 61.5 C 52.800781 62.5 57.5 69.199219 63.300781 69.199219 C 69.101562 69.199219 71.898438 64.300781 72.300781 62.800781 C 73 60.601562 62.699219 58.699219 55.300781 61.5 Z M 55.300781 61.5 "/>
<path style="fill:none;stroke-width:4;stroke-linecap:butt;stroke-linejoin:miter;stroke:rgb(18.431373%,18.431373%,18.431373%);stroke-opacity:1;stroke-miterlimit:10;" d="M 63.5 75.398438 L 63.5 66.398438 "/>
<path style="fill:none;stroke-width:4;stroke-linecap:round;stroke-linejoin:miter;stroke:rgb(18.431373%,18.431373%,18.431373%);stroke-opacity:1;stroke-miterlimit:10;" d="M 49 81 C 51.199219 81.101562 57 81.898438 63.5 74.398438 "/>
<path style="fill:none;stroke-width:4;stroke-linecap:round;stroke-linejoin:miter;stroke:rgb(18.431373%,18.431373%,18.431373%);stroke-opacity:1;stroke-miterlimit:10;" d="M 77.898438 81 C 75.699219 81.101562 69.898438 81.898438 63.398438 74.398438 "/>
<path style=" stroke:none;fill-rule:nonzero;fill:rgb(18.431373%,18.431373%,18.431373%);fill-opacity:1;" d="M 83.398438 30.699219 C 82.800781 30.199219 82.898438 29.300781 83.601562 28.898438 C 85.5 27.800781 89 26.398438 91.199219 28.601562 C 93.398438 30.800781 92.601562 34.199219 91.800781 36.101562 C 91.5 36.800781 90.601562 37.101562 90 36.601562 Z M 83.398438 30.699219 "/>
<path style=" stroke:none;fill-rule:nonzero;fill:rgb(18.431373%,18.431373%,18.431373%);fill-opacity:1;" d="M 45.199219 30.300781 C 45.800781 29.800781 45.699219 28.898438 45 28.5 C 43.101562 27.398438 39.601562 26 37.398438 28.199219 C 35.199219 30.398438 36 33.800781 36.800781 35.699219 C 37.101562 36.398438 38 36.699219 38.601562 36.199219 Z M 45.199219 30.300781 "/>
<path style=" stroke:none;fill-rule:nonzero;fill:rgb(18.431373%,18.431373%,18.431373%);fill-opacity:1;" d="M 53 67.398438 C 53 66.296875 52.105469 65.398438 51 65.398438 C 49.894531 65.398438 49 66.296875 49 67.398438 C 49 68.503906 49.894531 69.398438 51 69.398438 C 52.105469 69.398438 53 68.503906 53 67.398438 Z M 53 67.398438 "/>
<path style=" stroke:none;fill-rule:nonzero;fill:rgb(18.431373%,18.431373%,18.431373%);fill-opacity:1;" d="M 52 74.398438 C 52 73.296875 51.105469 72.398438 50 72.398438 C 48.894531 72.398438 48 73.296875 48 74.398438 C 48 75.503906 48.894531 76.398438 50 76.398438 C 51.105469 76.398438 52 75.503906 52 74.398438 Z M 52 74.398438 "/>
<path style=" stroke:none;fill-rule:nonzero;fill:rgb(18.431373%,18.431373%,18.431373%);fill-opacity:1;" d="M 45.5 69.398438 C 45.5 68.296875 44.605469 67.398438 43.5 67.398438 C 42.394531 67.398438 41.5 68.296875 41.5 69.398438 C 41.5 70.503906 42.394531 71.398438 43.5 71.398438 C 44.605469 71.398438 45.5 70.503906 45.5 69.398438 Z M 45.5 69.398438 "/>
<path style=" stroke:none;fill-rule:nonzero;fill:rgb(18.431373%,18.431373%,18.431373%);fill-opacity:1;" d="M 78 67.398438 C 78 66.296875 77.105469 65.398438 76 65.398438 C 74.894531 65.398438 74 66.296875 74 67.398438 C 74 68.503906 74.894531 69.398438 76 69.398438 C 77.105469 69.398438 78 68.503906 78 67.398438 Z M 78 67.398438 "/>
<path style=" stroke:none;fill-rule:nonzero;fill:rgb(18.431373%,18.431373%,18.431373%);fill-opacity:1;" d="M 85 69.398438 C 85 68.296875 84.105469 67.398438 83 67.398438 C 81.894531 67.398438 81 68.296875 81 69.398438 C 81 70.503906 81.894531 71.398438 83 71.398438 C 84.105469 71.398438 85 70.503906 85 69.398438 Z M 85 69.398438 "/>
<path style=" stroke:none;fill-rule:nonzero;fill:rgb(18.431373%,18.431373%,18.431373%);fill-opacity:1;" d="M 79 74.398438 C 79 73.296875 78.105469 72.398438 77 72.398438 C 75.894531 72.398438 75 73.296875 75 74.398438 C 75 75.503906 75.894531 76.398438 77 76.398438 C 78.105469 76.398438 79 75.503906 79 74.398438 Z M 79 74.398438 "/>
<path style=" stroke:none;fill-rule:nonzero;fill:rgb(18.431373%,18.431373%,18.431373%);fill-opacity:1;" d="M 57.699219 81.5 C 57.699219 81.5 60.199219 80.5 63.5 80.5 C 66.800781 80.5 69.699219 81.699219 69.699219 81.699219 L 63.5 76 Z M 57.699219 81.5 "/>
</g>
</svg>
