<?xml version="1.0" encoding="UTF-8"?>
<svg xmlns="http://www.w3.org/2000/svg" xmlns:xlink="http://www.w3.org/1999/xlink" width="128px" height="128px" viewBox="0 0 128 128" version="1.1">
<defs>
<clipPath id="clip1">
  <path d="M 60 37 L 109 37 L 109 67 L 60 67 Z M 60 37 "/>
</clipPath>
<clipPath id="clip2">
  <path d="M 132.070312 64.339844 C 132.839844 108.519531 106.25 122.371094 64.621094 122.308594 C 22.628906 122.238281 -1.75 118.71875 -1.75 69.53125 C -1.75 37.601562 21.851562 3.628906 63.851562 3.628906 C 105.839844 3.628906 131.511719 32.410156 132.070312 64.339844 Z M 132.070312 64.339844 "/>
</clipPath>
<clipPath id="clip3">
  <path d="M 33 61 L 95 61 L 95 123 L 33 123 Z M 33 61 "/>
</clipPath>
<clipPath id="clip4">
  <path d="M 132.070312 64.339844 C 132.839844 108.519531 106.25 122.371094 64.621094 122.308594 C 22.628906 122.238281 -1.75 118.71875 -1.75 69.53125 C -1.75 37.601562 21.851562 3.628906 63.851562 3.628906 C 105.839844 3.628906 131.511719 32.410156 132.070312 64.339844 Z M 132.070312 64.339844 "/>
</clipPath>
<clipPath id="clip5">
  <path d="M 63 61 L 121 61 L 121 123 L 63 123 Z M 63 61 "/>
</clipPath>
<clipPath id="clip6">
  <path d="M 132.070312 64.339844 C 132.839844 108.519531 106.25 122.371094 64.621094 122.308594 C 22.628906 122.238281 -1.75 118.71875 -1.75 69.53125 C -1.75 37.601562 21.851562 3.628906 63.851562 3.628906 C 105.839844 3.628906 131.511719 32.410156 132.070312 64.339844 Z M 132.070312 64.339844 "/>
</clipPath>
<clipPath id="clip7">
  <path d="M 0 59 L 82 59 L 82 123 L 0 123 Z M 0 59 "/>
</clipPath>
<clipPath id="clip8">
  <path d="M 132.070312 64.339844 C 132.839844 108.519531 106.25 122.371094 64.621094 122.308594 C 22.628906 122.238281 -1.75 118.71875 -1.75 69.53125 C -1.75 37.601562 21.851562 3.628906 63.851562 3.628906 C 105.839844 3.628906 131.511719 32.410156 132.070312 64.339844 Z M 132.070312 64.339844 "/>
</clipPath>
<clipPath id="clip9">
  <path d="M 4 18 L 82 18 L 82 70 L 4 70 Z M 4 18 "/>
</clipPath>
<clipPath id="clip10">
  <path d="M 132.070312 64.339844 C 132.839844 108.519531 106.25 122.371094 64.621094 122.308594 C 22.628906 122.238281 -1.75 118.71875 -1.75 69.53125 C -1.75 37.601562 21.851562 3.628906 63.851562 3.628906 C 105.839844 3.628906 131.511719 32.410156 132.070312 64.339844 Z M 132.070312 64.339844 "/>
</clipPath>
<clipPath id="clip11">
  <path d="M 99 89 L 109 89 L 109 103 L 99 103 Z M 99 89 "/>
</clipPath>
<clipPath id="clip12">
  <path d="M 132.070312 64.339844 C 132.839844 108.519531 106.25 122.371094 64.621094 122.308594 C 22.628906 122.238281 -1.75 118.71875 -1.75 69.53125 C -1.75 37.601562 21.851562 3.628906 63.851562 3.628906 C 105.839844 3.628906 131.511719 32.410156 132.070312 64.339844 Z M 132.070312 64.339844 "/>
</clipPath>
<clipPath id="clip13">
  <path d="M 80 47 L 128 47 L 128 96 L 80 96 Z M 80 47 "/>
</clipPath>
<clipPath id="clip14">
  <path d="M 132.070312 64.339844 C 132.839844 108.519531 106.25 122.371094 64.621094 122.308594 C 22.628906 122.238281 -1.75 118.71875 -1.75 69.53125 C -1.75 37.601562 21.851562 3.628906 63.851562 3.628906 C 105.839844 3.628906 131.511719 32.410156 132.070312 64.339844 Z M 132.070312 64.339844 "/>
</clipPath>
</defs>
<g id="surface1">
<g clip-path="url(#clip1)" clip-rule="nonzero">
<g clip-path="url(#clip2)" clip-rule="nonzero">
<path style=" stroke:none;fill-rule:nonzero;fill:rgb(41.960785%,56.470591%,58.823532%);fill-opacity:1;" d="M 107.359375 62.589844 C 103.800781 60.191406 88.160156 40.351562 86.988281 38.890625 C 86.21875 37.929688 84.980469 37.96875 84.078125 38 C 83.460938 38.019531 82.460938 38.320312 82.261719 38.480469 C 81.351562 39.199219 68.300781 58.488281 62.269531 62.390625 C 59.128906 64.421875 61.828125 66.109375 63.601562 66.109375 C 68.070312 66.109375 72.128906 64.949219 74.089844 64.949219 C 76.050781 64.949219 78.480469 66.359375 81.960938 66.359375 C 85.441406 66.359375 86.070312 66.300781 88.699219 66.300781 C 91.328125 66.300781 95.308594 64.949219 97.308594 64.949219 C 99.308594 64.949219 102.578125 66.078125 105.058594 66.078125 C 107.539062 66.070312 109.609375 64.121094 107.359375 62.589844 "/>
</g>
</g>
<g clip-path="url(#clip3)" clip-rule="nonzero">
<g clip-path="url(#clip4)" clip-rule="nonzero">
<path style=" stroke:none;fill-rule:nonzero;fill:rgb(24.705882%,74.901962%,90.588236%);fill-opacity:1;" d="M 39.328125 120.171875 C 37.871094 118.839844 36.851562 115.699219 36.429688 114.550781 C 35.921875 113.179688 35.980469 111.679688 35.5 110.289062 C 34.808594 108.269531 33.769531 106.789062 33.46875 104.589844 C 32.570312 97.921875 34.039062 92.128906 39.210938 87.460938 C 42.300781 84.660156 46.769531 83.011719 50.671875 81.671875 C 55.140625 80.128906 59.648438 78.660156 64.078125 76.980469 C 67.539062 75.671875 70.101562 72.960938 71.839844 69.738281 C 72.921875 67.738281 72.640625 65.441406 73.601562 63.488281 C 74.640625 61.390625 76.378906 61.699219 78.351562 61.75 C 82.019531 61.839844 87.109375 61 89.441406 62.539062 C 91.890625 64.148438 92.648438 67.238281 93.699219 69.871094 C 94.96875 73.050781 94.371094 77.511719 93.839844 80.839844 C 93.140625 85.230469 89.25 89.738281 85.851562 92.308594 C 83.089844 94.390625 80.03125 95.949219 77.039062 97.660156 C 74.070312 99.359375 68.988281 99.648438 68.121094 102.820312 C 67.980469 103.320312 73.171875 115.441406 73.78125 115.601562 C 77.238281 129.429688 68.148438 125.679688 58.648438 126.839844 C 53.910156 127.421875 47.28125 125.621094 44.890625 124.609375 C 43.25 123.921875 41.328125 122.121094 39.328125 120.171875 Z M 39.328125 120.171875 "/>
</g>
</g>
<g clip-path="url(#clip5)" clip-rule="nonzero">
<g clip-path="url(#clip6)" clip-rule="nonzero">
<path style=" stroke:none;fill-rule:nonzero;fill:rgb(73.725492%,80.392158%,27.450982%);fill-opacity:1;" d="M 83.25 61.589844 C 83.910156 62.441406 85.488281 63.238281 86.808594 64.820312 C 89.890625 68.488281 94.769531 71.320312 94.371094 76.378906 C 93.960938 81.730469 88.601562 87.210938 83 89.328125 C 75.648438 92.121094 67.75 92.980469 64 99.660156 C 61.960938 103.289062 63.300781 112.269531 69.789062 119.160156 C 73.859375 123.480469 76.128906 124.609375 81.730469 124.628906 C 90.191406 124.671875 92.699219 123.851562 102.089844 120.058594 C 106.261719 118.378906 108.488281 116.660156 116.25 108.269531 C 122.351562 101.691406 120.128906 94.21875 120.011719 92.019531 C 119.761719 87.589844 118.820312 86.390625 117.609375 82.078125 C 116.53125 78.25 116.199219 79.351562 113.539062 74.921875 C 109.339844 67.910156 109.628906 65.519531 101.890625 63 C 96.121094 61.121094 94.519531 61.441406 83.25 61.589844 Z M 83.25 61.589844 "/>
</g>
</g>
<g clip-path="url(#clip7)" clip-rule="nonzero">
<g clip-path="url(#clip8)" clip-rule="nonzero">
<path style=" stroke:none;fill-rule:nonzero;fill:rgb(73.725492%,80.392158%,27.450982%);fill-opacity:1;" d="M 77 61.558594 C 83.171875 65.949219 82.75 73.109375 78.949219 77.75 C 73.53125 84.339844 63.800781 84.070312 56.519531 86.660156 C 48.859375 89.371094 39.960938 94.46875 38.410156 103.109375 C 36.519531 113.671875 40.351562 120.671875 47.269531 125.421875 C 33.449219 125.941406 18.039062 117.488281 11.351562 113.488281 C 4.339844 109.300781 1.441406 96.78125 0.851562 85.480469 C 0.480469 78.929688 1.789062 72.601562 5.769531 67.050781 C 9.019531 62.519531 14.648438 61.289062 20.21875 60.511719 C 35.890625 58.308594 54.75 59.390625 60.609375 59.269531 C 62.949219 59.320312 72.738281 59.570312 77 61.558594 Z M 77 61.558594 "/>
</g>
</g>
<g clip-path="url(#clip9)" clip-rule="nonzero">
<g clip-path="url(#clip10)" clip-rule="nonzero">
<path style=" stroke:none;fill-rule:nonzero;fill:rgb(47.450981%,64.705884%,68.627453%);fill-opacity:1;" d="M 81.730469 69.820312 C 75.75 69.75 66.558594 69.859375 58.789062 69.859375 C 50.261719 69.859375 58.761719 69.859375 58.738281 69.859375 L 4.320312 69.289062 C 4.320312 69.289062 7.730469 62.511719 9 60.328125 C 12.378906 54.511719 19.011719 42.519531 21.578125 36.53125 C 23.679688 31.640625 25.058594 28.410156 26.191406 26.269531 C 27.261719 24.238281 28.28125 22.789062 29.800781 22.308594 C 31.300781 21.839844 32.328125 22.359375 33.019531 22.691406 C 33.519531 22.941406 33.710938 23.03125 34.160156 22.929688 C 34.390625 22.878906 34.460938 22.828125 34.808594 22.519531 L 34.878906 22.460938 C 35.089844 22.269531 35.320312 21.878906 35.550781 21.511719 C 36.058594 20.660156 36.75 19.511719 38.171875 19.128906 C 41.488281 18.261719 43.871094 19.140625 45.441406 21.839844 C 45.738281 22.359375 46.820312 24.488281 48.851562 28.488281 C 49.359375 29.488281 49.910156 30.578125 50.5 31.738281 C 52.5 28.78125 53.988281 26.578125 54.199219 26.269531 C 54.839844 25.339844 56.058594 24.738281 57.121094 24.679688 C 58.179688 24.621094 59.558594 25.511719 60.199219 26.578125 C 60.710938 27.421875 71.378906 47.921875 77.171875 59.378906 C 80.46875 65.941406 81.730469 65.878906 81.730469 69.820312 Z M 81.730469 69.820312 "/>
</g>
</g>
<g clip-path="url(#clip11)" clip-rule="nonzero">
<g clip-path="url(#clip12)" clip-rule="nonzero">
<path style=" stroke:none;fill-rule:nonzero;fill:rgb(52.156866%,36.078432%,32.156864%);fill-opacity:1;" d="M 107.351562 97.128906 C 106.96875 95.171875 106.941406 93.160156 106.738281 91.179688 C 106.710938 90.921875 106.679688 90.660156 106.671875 90.398438 C 106.660156 89.851562 106.378906 89.480469 105.859375 89.28125 C 105.589844 89.179688 105.25 89.191406 104.96875 89.140625 C 104.660156 89.089844 104.371094 89.070312 104.058594 89.078125 C 104.039062 89.078125 104.011719 89.078125 103.980469 89.089844 C 103.960938 89.089844 103.929688 89.078125 103.910156 89.078125 C 103.601562 89.070312 103.308594 89.089844 103 89.140625 C 102.71875 89.191406 102.371094 89.171875 102.109375 89.28125 C 101.589844 89.480469 101.320312 89.851562 101.300781 90.398438 C 101.289062 90.660156 101.261719 90.921875 101.238281 91.179688 C 101.039062 93.171875 101 95.171875 100.628906 97.128906 C 100.320312 98.738281 98.398438 101.328125 100.980469 101.921875 C 102.898438 102.351562 105.070312 102.359375 106.988281 101.921875 C 109.578125 101.339844 107.660156 98.738281 107.351562 97.128906 Z M 107.351562 97.128906 "/>
</g>
</g>
<g clip-path="url(#clip13)" clip-rule="nonzero">
<g clip-path="url(#clip14)" clip-rule="nonzero">
<path style=" stroke:none;fill-rule:nonzero;fill:rgb(45.882353%,49.803922%,24.705882%);fill-opacity:1;" d="M 124.820312 85.671875 C 121.898438 84.851562 119.609375 83.761719 117.988281 82.828125 C 117.878906 82.730469 117.710938 82.640625 117.761719 82.480469 C 117.800781 82.371094 117.941406 82.328125 118.039062 82.308594 C 119.011719 82.179688 119.851562 82.039062 120.460938 81.890625 C 123.871094 81.078125 123.890625 78.898438 123.890625 78.898438 C 123.890625 78.898438 124.390625 76.300781 121.328125 75.441406 C 118.640625 74.679688 116.46875 73.691406 114.871094 72.808594 C 114.761719 72.738281 114.660156 72.660156 114.699219 72.53125 C 114.730469 72.460938 114.78125 72.421875 114.851562 72.410156 C 115.351562 72.351562 115.808594 72.289062 116.191406 72.21875 C 119.148438 71.671875 119.261719 69.808594 119.261719 69.808594 C 119.261719 69.808594 119.761719 67.738281 117.230469 66.738281 C 114.878906 65.808594 112.519531 64.429688 110.96875 63.441406 C 110.890625 63.351562 110.78125 63.25 110.839844 63.128906 C 110.890625 63.019531 111.019531 63.011719 111.121094 63 C 111.121094 63 111.128906 63 111.128906 63 L 111.578125 63.050781 C 111.578125 63.050781 114.199219 63.550781 115.011719 61.308594 C 115.820312 59.070312 113.328125 57.878906 113.328125 57.878906 C 108.410156 55.578125 105.171875 49.039062 105.171875 49.039062 C 104.480469 47.730469 103.980469 47.980469 103.980469 47.980469 C 103.980469 47.980469 103.480469 47.730469 102.800781 49.039062 C 102.800781 49.039062 99.558594 55.578125 94.640625 57.878906 C 94.640625 57.878906 92.148438 59.058594 92.960938 61.308594 C 93.769531 63.550781 96.390625 63.050781 96.390625 63.050781 L 96.851562 63 C 96.851562 63 96.859375 63 96.859375 63 C 96.960938 63.019531 97.101562 63.019531 97.148438 63.128906 C 97.199219 63.25 97.089844 63.359375 97.019531 63.441406 C 95.46875 64.429688 93.109375 65.808594 90.761719 66.738281 C 88.230469 67.738281 88.71875 69.808594 88.71875 69.808594 C 88.71875 69.808594 88.839844 71.671875 91.789062 72.21875 C 92.171875 72.289062 92.628906 72.351562 93.128906 72.410156 C 93.191406 72.429688 93.25 72.460938 93.269531 72.53125 C 93.320312 72.660156 93.21875 72.738281 93.109375 72.808594 C 91.511719 73.691406 89.351562 74.679688 86.648438 75.441406 C 83.589844 76.300781 84.089844 78.898438 84.089844 78.898438 C 84.089844 78.898438 84.121094 81.078125 87.519531 81.890625 C 88.128906 82.039062 88.96875 82.179688 89.941406 82.308594 C 90.039062 82.328125 90.191406 82.378906 90.21875 82.480469 C 90.269531 82.640625 90.109375 82.730469 90 82.828125 C 88.378906 83.761719 86.078125 84.851562 83.171875 85.671875 C 80.109375 86.53125 80.609375 89.121094 80.609375 89.121094 C 80.609375 89.121094 80.671875 91.191406 84.039062 92.109375 C 85.441406 92.488281 87.390625 92.5 89.570312 92.300781 C 89.878906 92.308594 90.199219 92.28125 90.46875 92.441406 C 90.800781 92.640625 90.808594 93.070312 90.910156 93.398438 C 91 93.71875 91.121094 94.03125 91.28125 94.320312 C 92.71875 96.898438 96.261719 95.949219 98.820312 94.230469 C 99.070312 94.089844 99.359375 93.980469 99.660156 93.929688 C 100.058594 93.859375 100.480469 93.910156 100.839844 94.109375 C 100.871094 94.128906 100.910156 94.148438 100.941406 94.171875 C 101.21875 94.410156 101.511719 94.628906 101.828125 94.808594 C 102.410156 95.140625 103.128906 95.308594 103.769531 95.460938 C 104.960938 95.738281 106.480469 95.53125 107.609375 94.828125 C 107.660156 94.800781 107.699219 94.769531 107.730469 94.75 C 107.761719 94.730469 107.78125 94.710938 107.808594 94.691406 C 107.839844 94.671875 107.878906 94.640625 107.910156 94.621094 C 108.019531 94.53125 108.128906 94.441406 108.25 94.371094 C 108.488281 94.21875 108.761719 94.121094 109.039062 94.101562 C 109.171875 94.089844 109.289062 94.101562 109.410156 94.121094 C 109.601562 94.160156 109.789062 94.238281 109.960938 94.328125 C 110 94.351562 110.050781 94.378906 110.101562 94.410156 C 112.640625 96.03125 116.011719 96.859375 117.410156 94.351562 C 117.570312 94.058594 117.691406 93.75 117.78125 93.429688 C 117.878906 93.101562 117.890625 92.671875 118.21875 92.46875 C 118.441406 92.339844 118.699219 92.339844 118.949219 92.328125 C 120.910156 92.480469 122.660156 92.441406 123.941406 92.101562 C 127.320312 91.179688 127.371094 89.109375 127.371094 89.109375 C 127.371094 89.109375 127.871094 86.53125 124.820312 85.671875 Z M 124.820312 85.671875 "/>
</g>
</g>
<path style=" stroke:none;fill-rule:nonzero;fill:rgb(60.392159%,66.666669%,37.254903%);fill-opacity:1;" d="M 99.339844 60.699219 C 99.808594 60.878906 100.121094 61.25 100.800781 60.980469 C 101.230469 60.808594 101.621094 60.160156 101.691406 59.710938 C 101.78125 59.019531 101.308594 59.179688 100.859375 58.960938 C 100.730469 58.609375 101.121094 58.050781 100.921875 57.660156 C 100.628906 57.101562 99.738281 57.699219 99.488281 57.988281 C 99.078125 58.460938 98.71875 58.808594 98.140625 59.121094 C 97.75 59.328125 96.109375 60.191406 96.910156 60.78125 C 97.078125 60.898438 97.25 60.921875 97.449219 60.921875 C 97.980469 60.921875 98.511719 60.558594 99.011719 60.609375 C 99.121094 60.628906 99.238281 60.660156 99.339844 60.699219 Z M 99.339844 60.699219 "/>
<path style=" stroke:none;fill-rule:nonzero;fill:rgb(60.392159%,66.666669%,37.254903%);fill-opacity:1;" d="M 94.5 68.03125 C 93.898438 68.238281 92.628906 69.03125 93.429688 69.761719 C 93.988281 70.269531 95.191406 69.980469 95.839844 69.808594 C 96.109375 69.738281 96.46875 69.550781 96.761719 69.570312 C 97.070312 69.589844 97.070312 69.808594 97.171875 70.058594 C 97.378906 70.578125 97.761719 70.671875 98.289062 70.671875 C 98.609375 70.671875 98.859375 70.691406 99.148438 70.550781 C 99.828125 70.21875 99.789062 70.390625 100.421875 70.609375 C 101.160156 70.871094 101.789062 70.511719 102.21875 69.921875 C 102.359375 69.730469 102.46875 69.429688 102.460938 69.199219 C 102.441406 68.75 102.128906 68.519531 101.660156 68.589844 C 101.191406 68.660156 100.871094 68.761719 100.609375 68.28125 C 100.28125 67.648438 99.328125 68.441406 99.089844 67.980469 C 98.988281 67.78125 99.210938 67.359375 99.171875 67.121094 C 99.121094 66.828125 98.949219 66.609375 98.640625 66.558594 C 98.160156 66.480469 97.761719 66.609375 97.371094 66.820312 C 96.640625 67.21875 96.011719 67.539062 95.21875 67.78125 C 95.050781 67.859375 94.78125 67.929688 94.5 68.03125 Z M 94.5 68.03125 "/>
<path style=" stroke:none;fill-rule:nonzero;fill:rgb(60.392159%,66.666669%,37.254903%);fill-opacity:1;" d="M 95.53125 75.109375 C 95.128906 75.050781 94.660156 75.21875 94.320312 75.390625 C 92.949219 76.058594 91.589844 76.769531 90.210938 77.421875 C 89.71875 77.648438 88.941406 77.878906 88.96875 78.558594 C 89.011719 79.800781 91.148438 79.269531 91.859375 79.191406 C 92.488281 79.121094 93.519531 78.871094 94.039062 79.378906 C 94.339844 79.671875 94.480469 79.851562 94.921875 79.890625 C 95.660156 79.96875 96.621094 79.230469 97.289062 79.578125 C 97.570312 79.730469 97.71875 79.929688 98.03125 80.03125 C 98.78125 80.289062 99.691406 79.980469 100.300781 79.519531 C 100.820312 79.128906 101.199219 78.011719 100.480469 77.621094 C 100.019531 77.371094 99.640625 77.820312 99.210938 77.75 C 98.558594 77.628906 98.71875 77.140625 98.261719 76.78125 C 97.699219 76.351562 96.839844 77.070312 96.429688 76.640625 C 96.089844 76.28125 96.320312 75.691406 96.019531 75.359375 C 95.890625 75.210938 95.71875 75.140625 95.53125 75.109375 Z M 95.53125 75.109375 "/>
<path style=" stroke:none;fill-rule:nonzero;fill:rgb(60.392159%,66.666669%,37.254903%);fill-opacity:1;" d="M 94.109375 84.859375 C 92.96875 84.640625 91.808594 85.5 90.828125 85.941406 C 89.75 86.421875 88.550781 86.488281 87.480469 87.011719 C 86.769531 87.351562 86.839844 88.429688 87.539062 88.738281 C 88.171875 89.019531 88.988281 88.941406 89.660156 88.898438 C 90.660156 88.839844 91.601562 88.410156 92.589844 88.328125 C 93.949219 88.210938 94.011719 88.570312 94.25 89.738281 C 94.421875 90.589844 95.320312 91.039062 96.140625 90.871094 C 96.570312 90.78125 96.941406 90.410156 97.339844 90.230469 C 97.839844 90.011719 97.820312 90.070312 98.300781 90.230469 C 98.648438 90.351562 99.089844 90.339844 99.429688 90.210938 C 100 90 100.269531 89.550781 100.28125 88.980469 C 100.300781 88.089844 100.289062 86.921875 99.058594 87.261719 C 97.71875 87.628906 98.148438 86.898438 97.171875 86.539062 C 96.46875 86.28125 95.828125 86.941406 95.199219 86.378906 C 94.679688 85.929688 94.980469 85.050781 94.109375 84.859375 Z M 94.109375 84.859375 "/>
<path style=" stroke:none;fill-rule:nonzero;fill:rgb(73.725492%,80.392158%,27.450982%);fill-opacity:1;" d="M 27.609375 69.101562 C 34 68.628906 40.210938 65.308594 46.378906 65.808594 C 52.550781 66.308594 59.421875 69.050781 67.75 69.261719 C 76.078125 69.46875 79.960938 66.480469 81.730469 69.828125 L 79.671875 71.679688 L 3.960938 69.980469 L 5.648438 66.691406 C 5.648438 66.671875 15.390625 70 27.609375 69.101562 Z M 27.609375 69.101562 "/>
</g>
</svg>
