<?xml version="1.0" encoding="UTF-8"?>
<svg xmlns="http://www.w3.org/2000/svg" xmlns:xlink="http://www.w3.org/1999/xlink" width="128px" height="128px" viewBox="0 0 128 128" version="1.1">
<g id="surface1">
<path style=" stroke:none;fill-rule:nonzero;fill:rgb(0%,42.352942%,63.529414%);fill-opacity:1;" d="M 118.261719 25.121094 L 112.738281 25.121094 C 112.328125 25.121094 111.988281 25.449219 111.988281 25.871094 L 111.988281 126.140625 C 111.988281 126.550781 112.320312 126.890625 112.738281 126.890625 L 118.261719 126.890625 C 118.671875 126.890625 119.011719 126.558594 119.011719 126.140625 L 119.011719 25.871094 C 119.011719 25.449219 118.671875 25.121094 118.261719 25.121094 Z M 118.261719 25.121094 "/>
<path style=" stroke:none;fill-rule:nonzero;fill:rgb(0%,42.352942%,63.529414%);fill-opacity:1;" d="M 89.949219 68.289062 L 84.429688 68.289062 C 84.121094 68.289062 83.859375 68.539062 83.859375 68.859375 L 83.859375 126.148438 C 83.859375 126.460938 84.121094 126.710938 84.429688 126.710938 L 89.949219 126.710938 C 90.269531 126.710938 90.511719 126.460938 90.511719 126.148438 L 90.511719 68.859375 C 90.519531 68.539062 90.269531 68.289062 89.949219 68.289062 Z M 89.949219 68.289062 "/>
<path style=" stroke:none;fill-rule:nonzero;fill:rgb(0%,42.352942%,63.529414%);fill-opacity:1;" d="M 62.488281 102.261719 L 56.96875 102.261719 C 56.769531 102.261719 56.609375 102.421875 56.609375 102.621094 L 56.609375 126.128906 C 56.609375 126.328125 56.769531 126.488281 56.96875 126.488281 L 62.488281 126.488281 C 62.691406 126.488281 62.859375 126.328125 62.859375 126.128906 L 62.859375 102.621094 C 62.859375 102.429688 62.691406 102.261719 62.488281 102.261719 Z M 62.488281 102.261719 "/>
<path style=" stroke:none;fill-rule:nonzero;fill:rgb(0%,42.352942%,63.529414%);fill-opacity:1;" d="M 126.28125 0.460938 L 117.800781 0.460938 C 117.46875 0.460938 117.179688 0.679688 117.089844 0.988281 C 116.890625 1.648438 95.96875 67.871094 11.929688 126.179688 C 11.660156 126.359375 11.539062 126.699219 11.640625 127.019531 C 11.738281 127.328125 12.03125 127.539062 12.351562 127.539062 L 39.96875 127.539062 C 40.160156 127.539062 40.339844 127.46875 40.46875 127.351562 C 112.800781 62.511719 126.878906 5.269531 127.03125 4.53125 L 127.03125 1.210938 C 127.03125 0.789062 126.699219 0.460938 126.28125 0.460938 Z M 126.28125 0.460938 "/>
<path style=" stroke:none;fill-rule:nonzero;fill:rgb(0%,42.352942%,63.529414%);fill-opacity:1;" d="M 102.320312 4.738281 C 102.339844 4.671875 102.351562 4.601562 102.351562 4.53125 L 102.351562 1.210938 C 102.351562 0.800781 102.019531 0.460938 101.601562 0.460938 L 94.570312 0.460938 C 94.261719 0.460938 93.988281 0.648438 93.871094 0.929688 C 93.671875 1.441406 72.980469 52.308594 1.289062 100.671875 C 1.089844 100.808594 0.960938 101.039062 0.960938 101.289062 L 0.960938 113.738281 C 0.960938 114.019531 1.109375 114.269531 1.359375 114.398438 C 1.46875 114.460938 1.589844 114.488281 1.710938 114.488281 C 1.851562 114.488281 2 114.449219 2.128906 114.359375 C 86.578125 56.371094 102.171875 5.25 102.320312 4.738281 Z M 102.320312 4.738281 "/>
<path style=" stroke:none;fill-rule:nonzero;fill:rgb(25.098041%,75.294119%,90.588236%);fill-opacity:1;" d="M 48.738281 15.660156 C 48.488281 15.511719 48.171875 15.570312 48 15.789062 C 28.710938 40.339844 1.828125 48.449219 1.558594 48.53125 C 1.320312 48.601562 1.148438 48.820312 1.148438 49.070312 L 1.148438 60.039062 C 1.148438 60.238281 1.25 60.421875 1.421875 60.519531 C 1.511719 60.570312 1.621094 60.601562 1.71875 60.601562 C 1.800781 60.601562 1.898438 60.578125 1.980469 60.539062 C 36.851562 42.441406 48.851562 16.628906 48.960938 16.371094 C 49.078125 16.109375 48.988281 15.800781 48.738281 15.660156 Z M 48.738281 15.660156 "/>
<path style=" stroke:none;fill-rule:nonzero;fill:rgb(25.098041%,75.294119%,90.588236%);fill-opacity:1;" d="M 1.71875 40.160156 C 1.769531 40.160156 1.839844 40.148438 1.890625 40.128906 C 30.539062 29.761719 38.679688 14.101562 38.75 13.949219 C 38.859375 13.738281 38.800781 13.480469 38.609375 13.328125 C 38.429688 13.179688 38.160156 13.191406 37.980469 13.339844 C 19.511719 28.980469 1.820312 31.808594 1.640625 31.839844 C 1.390625 31.878906 1.210938 32.089844 1.210938 32.339844 L 1.210938 39.660156 C 1.210938 39.820312 1.300781 39.980469 1.429688 40.070312 C 1.519531 40.128906 1.621094 40.160156 1.71875 40.160156 Z M 1.71875 40.160156 "/>
<path style=" stroke:none;fill-rule:nonzero;fill:rgb(92.941177%,42.352942%,18.82353%);fill-opacity:1;" d="M 104.230469 25.28125 C 103.699219 23.050781 102.441406 20.578125 100.898438 18.878906 C 96.160156 13.640625 84.480469 14.089844 77.988281 14.328125 C 76.699219 14.378906 75.378906 14.480469 74.121094 14.800781 C 72.589844 15.179688 71.011719 15.699219 69.640625 16.480469 C 69.140625 16.769531 68.621094 17.078125 68.140625 17.429688 C 67.960938 17.511719 67.769531 17.558594 67.589844 17.648438 C 66.410156 18.25 65.289062 18.980469 64.269531 19.820312 C 58.550781 24.570312 54.019531 34.710938 58.480469 41.621094 C 61.980469 47.050781 69.269531 47.890625 75.121094 48.53125 C 80.648438 49.128906 89.390625 52.230469 94.230469 48.480469 C 100.289062 43.789062 106.058594 32.96875 104.230469 25.28125 Z M 104.230469 25.28125 "/>
<path style=" stroke:none;fill-rule:nonzero;fill:rgb(92.941177%,42.352942%,18.82353%);fill-opacity:1;" d="M 87.738281 51.300781 C 84.949219 51.300781 81.949219 50.730469 79.300781 50.230469 C 77.75 49.941406 76.289062 49.660156 75.019531 49.519531 C 69.289062 48.898438 61.441406 48.039062 57.648438 42.160156 C 52.679688 34.460938 57.929688 23.789062 63.648438 19.050781 C 64.71875 18.160156 65.898438 17.390625 67.148438 16.761719 C 67.300781 16.679688 67.449219 16.628906 67.609375 16.570312 C 68.070312 16.25 68.628906 15.910156 69.160156 15.609375 C 70.441406 14.878906 71.988281 14.300781 73.898438 13.828125 C 75.339844 13.46875 76.828125 13.378906 77.980469 13.328125 C 79.550781 13.269531 81.421875 13.199219 83.429688 13.199219 C 92.648438 13.199219 98.621094 14.839844 101.671875 18.210938 C 103.289062 20 104.648438 22.621094 105.230469 25.050781 C 107.140625 33.121094 101.300781 44.289062 94.871094 49.269531 C 93.078125 50.628906 90.75 51.300781 87.738281 51.300781 Z M 83.410156 15.191406 C 81.429688 15.191406 79.578125 15.261719 78.039062 15.320312 C 76.988281 15.359375 75.628906 15.441406 74.359375 15.761719 C 72.628906 16.191406 71.25 16.710938 70.128906 17.339844 C 69.660156 17.609375 69.179688 17.898438 68.730469 18.230469 L 68.28125 18.441406 C 68.199219 18.46875 68.121094 18.5 68.039062 18.539062 C 66.921875 19.109375 65.871094 19.800781 64.910156 20.589844 C 59.910156 24.75 55.03125 34.441406 59.320312 41.078125 C 62.589844 46.160156 69.601562 46.921875 75.230469 47.539062 C 76.570312 47.691406 78.078125 47.96875 79.671875 48.269531 C 82.230469 48.761719 85.140625 49.300781 87.730469 49.300781 L 87.738281 49.300781 C 90.300781 49.300781 92.21875 48.769531 93.621094 47.691406 C 99.558594 43.089844 104.949219 32.621094 103.261719 25.5 C 102.75 23.378906 101.570312 21.089844 100.171875 19.53125 C 97.519531 16.609375 92.039062 15.191406 83.410156 15.191406 Z M 83.410156 15.191406 "/>
<path style=" stroke:none;fill-rule:nonzero;fill:rgb(18.431373%,18.431373%,18.431373%);fill-opacity:1;" d="M 65.859375 21.929688 C 65.828125 21.980469 65.800781 22.03125 65.769531 22.078125 C 64.070312 24.96875 62.730469 28.511719 66.261719 30.578125 C 69.089844 32.238281 72.648438 32.378906 75.828125 32.609375 C 77.96875 32.769531 80.109375 33.03125 82.269531 33.109375 C 84.519531 33.191406 86.550781 32.78125 88.761719 32.519531 C 94.839844 31.800781 98.960938 21.390625 91.460938 19.488281 C 88.609375 18.769531 85.730469 18.109375 82.808594 17.75 C 81.410156 17.578125 80.011719 17.550781 78.601562 17.46875 C 77.410156 17.398438 76.210938 17.039062 75.019531 17.179688 C 73.960938 17.308594 72.808594 17.570312 71.78125 17.871094 C 69.460938 18.550781 67.140625 19.890625 65.859375 21.929688 Z M 65.859375 21.929688 "/>
<path style=" stroke:none;fill-rule:nonzero;fill:rgb(92.941177%,42.352942%,18.82353%);fill-opacity:1;" d="M 88.261719 51.101562 C 88.039062 48.820312 87.140625 46.199219 85.839844 44.300781 C 83.621094 41.039062 76.179688 39.148438 72.261719 38.570312 C 70.289062 38.28125 68.328125 37.878906 66.339844 37.628906 C 62.199219 37.121094 57.980469 36.890625 53.808594 37.371094 C 52.300781 37.539062 50.828125 38.160156 49.410156 39.070312 C 43.980469 42.578125 39.550781 50.601562 38.039062 55.578125 C 36.628906 60.238281 36.171875 65.96875 39.328125 70.050781 C 41.449219 72.789062 44.78125 74.019531 48.078125 74.628906 C 55.011719 75.910156 63.179688 77.558594 70.21875 76.300781 C 75.921875 75.28125 78.921875 69.828125 82.308594 65.691406 C 85.828125 61.398438 88.820312 56.910156 88.261719 51.101562 Z M 88.261719 51.101562 "/>
<path style=" stroke:none;fill-rule:nonzero;fill:rgb(92.941177%,42.352942%,18.82353%);fill-opacity:1;" d="M 64.710938 77.75 C 59.410156 77.75 53.851562 76.71875 48.941406 75.800781 L 47.910156 75.609375 C 43.570312 74.808594 40.511719 73.191406 38.550781 70.660156 C 34.730469 65.730469 36 58.921875 37.101562 55.289062 C 38.46875 50.761719 42.878906 42.121094 48.878906 38.230469 C 50.5 37.179688 52.121094 36.558594 53.710938 36.378906 C 57.441406 35.949219 61.5 36.03125 66.46875 36.640625 C 67.679688 36.789062 68.871094 36.988281 70.070312 37.191406 C 70.859375 37.320312 71.640625 37.460938 72.421875 37.570312 C 73.570312 37.738281 83.710938 39.359375 86.691406 43.71875 C 88.050781 45.71875 89.03125 48.5 89.269531 50.980469 C 89.890625 57.410156 86.410156 62.25 83.109375 66.289062 C 82.488281 67.050781 81.878906 67.859375 81.261719 68.671875 C 78.539062 72.269531 75.449219 76.351562 70.429688 77.25 C 68.648438 77.601562 66.789062 77.75 64.710938 77.75 Z M 58.589844 38.109375 C 56.96875 38.109375 55.398438 38.199219 53.929688 38.371094 C 52.648438 38.519531 51.308594 39.039062 49.960938 39.910156 C 44.710938 43.308594 40.390625 51.289062 39.011719 55.871094 C 38.03125 59.128906 36.859375 65.21875 40.140625 69.449219 C 41.769531 71.570312 44.441406 72.949219 48.28125 73.660156 L 49.308594 73.851562 C 54.128906 74.75 59.601562 75.761719 64.710938 75.761719 C 66.671875 75.761719 68.421875 75.621094 70.058594 75.320312 C 74.308594 74.558594 77.03125 70.96875 79.648438 67.5 C 80.28125 66.671875 80.910156 65.839844 81.550781 65.058594 C 84.601562 61.328125 87.808594 56.871094 87.269531 51.199219 C 87.070312 49.03125 86.210938 46.601562 85.03125 44.871094 C 83.261719 42.28125 77.101562 40.308594 72.121094 39.558594 C 71.320312 39.441406 70.519531 39.308594 69.71875 39.171875 C 68.558594 38.96875 67.390625 38.769531 66.210938 38.628906 C 63.390625 38.28125 60.898438 38.109375 58.589844 38.109375 Z M 58.589844 38.109375 "/>
<path style=" stroke:none;fill-rule:nonzero;fill:rgb(18.431373%,18.431373%,18.431373%);fill-opacity:1;" d="M 50.058594 43.640625 C 50.03125 43.691406 50 43.738281 49.980469 43.78125 C 48.328125 46.53125 47.03125 49.96875 50.449219 52.308594 C 53.191406 54.191406 56.640625 54.609375 59.71875 55.101562 C 61.800781 55.429688 63.871094 55.859375 65.949219 56.109375 C 68.128906 56.371094 70.089844 56.121094 72.230469 56.03125 C 78.121094 55.800781 82.101562 45.710938 74.851562 43.21875 C 72.089844 42.28125 69.300781 41.390625 66.46875 40.800781 C 65.109375 40.519531 63.761719 40.378906 62.390625 40.191406 C 61.238281 40.019531 60.078125 39.570312 58.921875 39.621094 C 57.890625 39.671875 56.78125 39.828125 55.789062 40.050781 C 53.558594 40.550781 51.308594 41.699219 50.058594 43.640625 Z M 50.058594 43.640625 "/>
<path style=" stroke:none;fill-rule:nonzero;fill:rgb(92.941177%,42.352942%,18.82353%);fill-opacity:1;" d="M 70.109375 75.289062 C 70.019531 72.808594 69.191406 69.898438 67.898438 67.75 C 63.96875 61.230469 51.53125 60.738281 44.828125 59.511719 C 40.058594 58.628906 35.269531 58.121094 30.671875 60.101562 C 24.988281 62.558594 20.859375 67.539062 17.710938 72.71875 C 16.25 75.121094 14.96875 77.671875 14.25 80.390625 C 12.980469 85.179688 12.300781 90.460938 15.640625 94.589844 C 18.671875 98.351562 23.640625 100 28.179688 101.089844 C 33.53125 102.371094 39.550781 104.398438 45.109375 103.769531 C 50.308594 103.191406 54.621094 100.199219 58.019531 96.410156 C 61.371094 92.671875 65.289062 88.738281 67.761719 84.351562 C 69.230469 81.75 70.230469 78.320312 70.109375 75.289062 Z M 70.109375 75.289062 "/>
<path style=" stroke:none;fill-rule:nonzero;fill:rgb(92.941177%,42.352942%,18.82353%);fill-opacity:1;" d="M 42.960938 104.890625 C 38.960938 104.890625 34.921875 103.839844 31 102.828125 C 29.960938 102.558594 28.941406 102.300781 27.949219 102.058594 C 23.320312 100.941406 18.128906 99.261719 14.871094 95.21875 C 11.148438 90.609375 12.078125 84.738281 13.289062 80.140625 C 13.949219 77.648438 15.089844 75.128906 16.859375 72.199219 C 20.859375 65.621094 25.25 61.359375 30.269531 59.179688 C 32.539062 58.199219 34.988281 57.71875 37.78125 57.71875 C 40.351562 57.71875 42.871094 58.121094 45 58.519531 C 46.179688 58.738281 47.539062 58.929688 49.011719 59.140625 C 55.871094 60.121094 65.269531 61.460938 68.738281 67.230469 C 70.089844 69.46875 70.988281 72.539062 71.089844 75.25 C 71.210938 78.289062 70.28125 81.871094 68.621094 84.839844 C 66.519531 88.570312 63.480469 91.898438 60.53125 95.121094 C 59.929688 95.78125 59.328125 96.429688 58.761719 97.078125 C 54.679688 101.628906 50.121094 104.210938 45.21875 104.761719 C 44.480469 104.851562 43.71875 104.890625 42.960938 104.890625 Z M 37.789062 59.71875 C 35.28125 59.71875 33.078125 60.140625 31.070312 61.011719 C 26.429688 63.011719 22.351562 67.019531 18.570312 73.238281 C 16.890625 76 15.828125 78.359375 15.21875 80.648438 C 14.058594 85.050781 13.28125 90.078125 16.421875 93.96875 C 19.308594 97.550781 24.101562 99.089844 28.421875 100.121094 C 29.421875 100.359375 30.460938 100.628906 31.5 100.898438 C 35.289062 101.878906 39.210938 102.898438 42.949219 102.898438 C 43.640625 102.898438 44.320312 102.871094 45 102.789062 C 49.398438 102.300781 53.53125 99.929688 57.28125 95.761719 C 57.859375 95.109375 58.460938 94.449219 59.070312 93.789062 C 61.941406 90.648438 64.910156 87.410156 66.890625 83.878906 C 68.359375 81.261719 69.210938 77.988281 69.109375 75.339844 C 69.019531 72.949219 68.230469 70.238281 67.039062 68.28125 C 64.058594 63.328125 55.210938 62.058594 48.738281 61.140625 C 47.238281 60.929688 45.851562 60.730469 44.640625 60.5 C 42.609375 60.109375 40.199219 59.71875 37.789062 59.71875 Z M 37.789062 59.71875 "/>
<path style=" stroke:none;fill-rule:nonzero;fill:rgb(18.431373%,18.431373%,18.431373%);fill-opacity:1;" d="M 28.800781 64.949219 C 28.769531 65.011719 28.738281 65.050781 28.710938 65.109375 C 27.128906 67.851562 25.921875 71.210938 29.140625 73.730469 C 31.78125 75.800781 35.210938 76.5 38.371094 77.238281 C 40.550781 77.761719 42.78125 78.398438 45.058594 78.851562 C 47.5 79.328125 49.769531 79.261719 52.28125 79.390625 C 59.511719 79.71875 65.371094 68.230469 56.058594 65.058594 C 52.691406 63.921875 49.390625 62.851562 46.121094 62.171875 C 44.578125 61.851562 43.058594 61.691406 41.550781 61.46875 C 40.300781 61.28125 39.050781 60.789062 37.820312 60.839844 C 36.730469 60.898438 35.570312 61.070312 34.539062 61.300781 C 32.261719 61.789062 30.011719 62.96875 28.800781 64.949219 Z M 28.800781 64.949219 "/>
<path style=" stroke:none;fill-rule:nonzero;fill:rgb(100%,100%,100%);fill-opacity:1;" d="M 18.160156 85.769531 C 19.429688 84.238281 22.199219 84.03125 23.398438 85.691406 C 24.28125 86.910156 24.46875 88.378906 23.628906 89.660156 C 22.96875 90.671875 21.949219 91.699219 20.648438 91.609375 C 17.910156 91.429688 16.46875 87.808594 18.160156 85.769531 Z M 18.160156 85.769531 "/>
<path style=" stroke:none;fill-rule:nonzero;fill:rgb(100%,100%,100%);fill-opacity:1;" d="M 37.671875 91.628906 C 39.101562 89.890625 42.230469 89.660156 43.589844 91.539062 C 44.578125 92.921875 44.789062 94.589844 43.851562 96.039062 C 43.121094 97.179688 41.949219 98.339844 40.480469 98.25 C 37.378906 98.03125 35.761719 93.941406 37.671875 91.628906 Z M 37.671875 91.628906 "/>
<path style=" stroke:none;fill-rule:nonzero;fill:rgb(47.058824%,63.921571%,67.843139%);fill-opacity:1;" d="M 74.761719 47.648438 C 74.488281 46.769531 74.058594 45.910156 74.058594 44.898438 C 74.058594 43.78125 74.890625 42.859375 74.929688 41.730469 C 74.960938 40.949219 75.019531 40.238281 74.828125 39.511719 C 73.800781 35.421875 68.738281 35.480469 67.058594 38.890625 C 66.210938 40.621094 66.730469 41.941406 67.238281 43.648438 C 67.539062 44.628906 67.53125 45.378906 67.019531 46.210938 C 66.5 47.058594 65.910156 47.859375 65.589844 48.851562 C 65.238281 49.929688 64.558594 51.171875 65.589844 51.890625 C 66.988281 52.878906 68.679688 52.871094 70.25 53.128906 C 71.03125 53.261719 71.871094 53.398438 72.550781 52.808594 C 73.410156 52.058594 74.300781 51.058594 74.761719 49.890625 C 75.078125 49.070312 74.96875 48.359375 74.761719 47.648438 Z M 74.761719 47.648438 "/>
<path style=" stroke:none;fill-rule:nonzero;fill:rgb(47.058824%,63.921571%,67.843139%);fill-opacity:1;" d="M 62.511719 36.238281 C 62.480469 36.101562 62.449219 35.949219 62.410156 35.808594 C 61.96875 34.078125 60.609375 32.960938 59.070312 32.859375 C 57.480469 32.761719 55.570312 33.320312 54.558594 34.820312 C 53.738281 36.03125 53.578125 37.828125 53.96875 39.269531 C 54.328125 40.589844 55.269531 41.621094 54.429688 43.019531 C 53.660156 44.308594 52.578125 45.78125 52.550781 47.441406 C 52.511719 49.75 57.238281 50.109375 58.691406 50.230469 C 59.941406 50.328125 61.210938 48.78125 61.800781 47.679688 C 62.949219 45.519531 61.941406 45.179688 61.328125 43.238281 C 61.039062 42.320312 61.519531 40.789062 61.878906 39.96875 C 62.410156 38.71875 62.738281 37.578125 62.511719 36.238281 Z M 62.511719 36.238281 "/>
<path style=" stroke:none;fill-rule:nonzero;fill:rgb(47.058824%,63.921571%,67.843139%);fill-opacity:1;" d="M 56.039062 70.730469 C 55.78125 69.75 55.320312 68.78125 55.371094 67.671875 C 55.441406 66.449219 56.449219 65.5 56.558594 64.261719 C 56.628906 63.421875 56.738281 62.640625 56.558594 61.820312 C 55.589844 57.261719 49.671875 56.960938 47.53125 60.570312 C 46.441406 62.410156 46.988281 63.890625 47.480469 65.800781 C 47.769531 66.890625 47.730469 67.71875 47.078125 68.589844 C 46.429688 69.480469 45.691406 70.320312 45.261719 71.378906 C 44.789062 72.539062 43.929688 73.851562 45.089844 74.71875 C 46.671875 75.898438 48.648438 76.019531 50.460938 76.421875 C 51.371094 76.621094 52.339844 76.839844 53.171875 76.238281 C 54.21875 75.480469 55.300781 74.449219 55.910156 73.199219 C 56.328125 72.308594 56.25 71.519531 56.039062 70.730469 Z M 56.039062 70.730469 "/>
<path style=" stroke:none;fill-rule:nonzero;fill:rgb(47.058824%,63.921571%,67.843139%);fill-opacity:1;" d="M 43.039062 57.28125 C 43.019531 57.121094 43 56.960938 42.960938 56.789062 C 42.578125 54.839844 41.148438 53.5 39.46875 53.28125 C 37.75 53.058594 35.640625 53.53125 34.460938 55.128906 C 33.5 56.421875 33.230469 58.390625 33.578125 60.03125 C 33.898438 61.519531 34.859375 62.730469 33.878906 64.210938 C 32.96875 65.589844 31.71875 67.148438 31.601562 68.980469 C 31.429688 71.53125 36.558594 72.28125 38.121094 72.511719 C 39.480469 72.699219 40.941406 71.078125 41.640625 69.898438 C 43 67.589844 41.921875 67.140625 41.371094 64.941406 C 41.109375 63.898438 41.699219 62.238281 42.128906 61.351562 C 42.789062 60.019531 43.210938 58.769531 43.039062 57.28125 Z M 43.039062 57.28125 "/>
<path style=" stroke:none;fill-rule:nonzero;fill:rgb(47.058824%,63.921571%,67.843139%);fill-opacity:1;" d="M 90.941406 23.589844 C 90.53125 22.761719 89.929688 21.980469 89.800781 20.980469 C 89.660156 19.871094 90.449219 18.828125 90.351562 17.691406 C 90.28125 16.921875 90.25 16.210938 89.941406 15.511719 C 88.261719 11.628906 82.628906 12.511719 81.210938 16.179688 C 80.488281 18.03125 81.25 19.25 82.03125 20.859375 C 82.480469 21.78125 82.578125 22.53125 82.109375 23.441406 C 81.648438 24.359375 81.089844 25.25 80.859375 26.289062 C 80.601562 27.410156 80.011719 28.761719 81.261719 29.300781 C 82.949219 30.050781 84.828125 29.769531 86.609375 29.769531 C 87.5 29.769531 88.449219 29.769531 89.128906 29.070312 C 90 28.179688 90.851562 27.050781 91.210938 25.808594 C 91.46875 24.949219 91.261719 24.261719 90.941406 23.589844 Z M 90.941406 23.589844 "/>
<path style=" stroke:none;fill-rule:nonzero;fill:rgb(47.058824%,63.921571%,67.843139%);fill-opacity:1;" d="M 77.050781 14.019531 C 77.011719 13.890625 76.960938 13.738281 76.898438 13.609375 C 76.210938 11.96875 74.660156 11.070312 73.039062 11.21875 C 71.371094 11.371094 69.460938 12.21875 68.589844 13.859375 C 67.878906 15.191406 67.941406 16.988281 68.539062 18.351562 C 69.078125 19.601562 70.191406 20.46875 69.5 21.980469 C 68.851562 23.378906 67.921875 25 68.101562 26.640625 C 68.351562 28.929688 73.328125 28.550781 74.851562 28.429688 C 76.171875 28.328125 77.289062 26.601562 77.761719 25.421875 C 78.691406 23.109375 77.589844 22.929688 76.710938 21.109375 C 76.289062 20.25 76.589844 18.660156 76.859375 17.789062 C 77.261719 16.488281 77.46875 15.300781 77.050781 14.019531 Z M 77.050781 14.019531 "/>
</g>
</svg>
