<?xml version="1.0" encoding="UTF-8"?>
<svg xmlns="http://www.w3.org/2000/svg" xmlns:xlink="http://www.w3.org/1999/xlink" width="128px" height="128px" viewBox="0 0 128 128" version="1.1">
<g id="surface1">
<path style=" stroke:none;fill-rule:nonzero;fill:rgb(98.823529%,76.078433%,10.588235%);fill-opacity:1;" d="M 55.011719 29.671875 L 54.460938 39.878906 L 62.191406 41.230469 L 66.03125 21.289062 Z M 55.011719 29.671875 "/>
<path style=" stroke:none;fill-rule:nonzero;fill:rgb(39.215687%,39.215687%,39.215687%);fill-opacity:1;" d="M 34.640625 68.941406 L 36.199219 62.980469 L 58.050781 65.800781 L 74.289062 68.941406 L 74.289062 72.730469 L 34.640625 72.730469 Z M 34.640625 68.941406 "/>
<path style=" stroke:none;fill-rule:nonzero;fill:rgb(98.823529%,76.078433%,10.588235%);fill-opacity:1;" d="M 61.757812 49.441406 L 65.984375 43.359375 L 78.296875 51.90625 L 74.070312 57.992188 Z M 61.757812 49.441406 "/>
<path style=" stroke:none;fill-rule:nonzero;fill:rgb(98.823529%,76.078433%,10.588235%);fill-opacity:1;" d="M 79.933594 54.449219 C 79.664062 52.394531 77.785156 50.945312 75.730469 51.214844 C 73.675781 51.480469 72.226562 53.363281 72.496094 55.414062 C 72.761719 57.46875 74.644531 58.917969 76.695312 58.652344 C 78.75 58.382812 80.199219 56.503906 79.933594 54.449219 Z M 79.933594 54.449219 "/>
<path style=" stroke:none;fill-rule:nonzero;fill:rgb(98.823529%,76.078433%,10.588235%);fill-opacity:1;" d="M 53.601562 19.699219 L 54.960938 36.699219 L 66.058594 35.898438 C 71.21875 35.53125 75.019531 30.921875 74.390625 25.78125 L 73.628906 19.558594 C 72.929688 13.808594 67.421875 9.921875 61.769531 11.179688 L 59.53125 11.679688 C 55.820312 12.5 53.300781 15.929688 53.601562 19.699219 Z M 53.601562 19.699219 "/>
<path style=" stroke:none;fill-rule:nonzero;fill:rgb(42.745098%,29.803923%,25.490198%);fill-opacity:1;" d="M 54.121094 31.261719 L 59.230469 29.921875 L 59.210938 26.261719 C 59.199219 25.03125 59.871094 23.890625 60.960938 23.300781 L 62.511719 27.210938 C 63.699219 26.898438 64.628906 25.988281 64.988281 24.820312 L 65.691406 22.480469 C 65.988281 21.46875 66.769531 20.660156 67.769531 20.320312 L 73.421875 18.410156 C 73.421875 18.410156 72.730469 10.390625 64.730469 10.050781 C 63.351562 9.988281 61.988281 10.011719 60.691406 10.089844 C 54.648438 10.441406 50.328125 16.070312 51.53125 22 C 52.160156 25.160156 53.03125 28.25 54.121094 31.261719 Z M 54.121094 31.261719 "/>
<path style=" stroke:none;fill-rule:nonzero;fill:rgb(75.686276%,48.235294%,27.843139%);fill-opacity:1;" d="M 69.839844 23.808594 C 69.910156 24.558594 70.480469 25.121094 71.109375 25.058594 C 71.730469 25 72.179688 24.339844 72.101562 23.589844 C 72.019531 22.839844 71.460938 22.28125 70.839844 22.339844 C 70.210938 22.390625 69.769531 23.050781 69.839844 23.808594 "/>
<path style=" stroke:none;fill-rule:nonzero;fill:rgb(0%,74.509805%,64.313728%);fill-opacity:1;" d="M 64.851562 44.53125 L 62.359375 53.398438 L 58.039062 65.800781 L 36.199219 62.980469 L 44.179688 45.988281 C 46.179688 41.71875 49.589844 38.359375 53.730469 36.390625 C 56.960938 34.851562 60.839844 36.199219 62.390625 39.429688 Z M 64.851562 44.53125 "/>
<path style=" stroke:none;fill-rule:nonzero;fill:rgb(1.568628%,63.529414%,52.941179%);fill-opacity:1;" d="M 71.199219 44.75 L 64.398438 54.171875 L 54.761719 47.21875 C 52.160156 45.339844 51.570312 41.710938 53.449219 39.109375 C 55.328125 36.511719 58.960938 35.921875 61.558594 37.800781 Z M 71.199219 44.75 "/>
<path style=" stroke:none;fill-rule:nonzero;fill:rgb(92.941177%,42.352942%,18.82353%);fill-opacity:1;" d="M 5.011719 73.148438 L 124.171875 73.148438 C 124.171875 73.148438 124.03125 91.011719 113.539062 98.128906 L 25.519531 98.128906 C 25.519531 98.128906 11.679688 88.21875 5.011719 73.148438 Z M 5.011719 73.148438 "/>
<path style=" stroke:none;fill-rule:nonzero;fill:rgb(85.882354%,36.862746%,17.254902%);fill-opacity:1;" d="M 125.089844 76.640625 L 3.25 76.640625 C 2.128906 76.640625 1.230469 75.738281 1.230469 74.621094 L 1.230469 69.648438 C 1.230469 68.53125 2.128906 67.628906 3.25 67.628906 L 125.101562 67.628906 C 126.21875 67.628906 127.121094 68.53125 127.121094 69.648438 L 127.121094 74.621094 C 127.121094 75.738281 126.210938 76.640625 125.089844 76.640625 Z M 125.089844 76.640625 "/>
<path style=" stroke:none;fill-rule:nonzero;fill:rgb(100%,67.843139%,10.196079%);fill-opacity:1;" d="M 60.382812 94.082031 L 55.660156 89.402344 L 88.015625 56.734375 L 92.738281 61.414062 Z M 60.382812 94.082031 "/>
<path style=" stroke:none;fill-rule:nonzero;fill:rgb(91.764706%,58.823532%,5.882353%);fill-opacity:1;" d="M 90.410156 63.800781 L 81.53125 63.320312 L 91.390625 53.078125 L 96.660156 57.371094 Z M 90.410156 63.800781 "/>
<path style=" stroke:none;fill-rule:nonzero;fill:rgb(98.823529%,76.078433%,10.588235%);fill-opacity:1;" d="M 76.355469 58.671875 L 76.609375 51.265625 L 89.292969 51.699219 L 89.039062 59.105469 Z M 76.355469 58.671875 "/>
<path style=" stroke:none;fill-rule:nonzero;fill:rgb(98.823529%,76.078433%,10.588235%);fill-opacity:1;" d="M 96.980469 59.589844 C 95.808594 61.980469 92.921875 62.96875 90.53125 61.800781 L 88.359375 60.738281 C 85.96875 59.570312 84.980469 56.679688 86.148438 54.289062 C 87.320312 51.898438 90.210938 50.910156 92.601562 52.078125 L 94.769531 53.140625 C 97.160156 54.308594 98.148438 57.199219 96.980469 59.589844 Z M 96.980469 59.589844 "/>
<path style=" stroke:none;fill-rule:nonzero;fill:rgb(1.176471%,60.784316%,89.803922%);fill-opacity:1;" d="M 0 93.578125 L 127.929688 93.578125 L 127.929688 128 L 0 128 Z M 0 93.578125 "/>
<path style=" stroke:none;fill-rule:nonzero;fill:rgb(16.078432%,71.372551%,96.470588%);fill-opacity:1;" d="M 0.03125 104.359375 C 6.089844 104.359375 9.460938 97.171875 16.03125 97.171875 L 0.03125 97.171875 Z M 0.03125 104.359375 "/>
<path style=" stroke:none;fill-rule:nonzero;fill:rgb(16.078432%,71.372551%,96.470588%);fill-opacity:1;" d="M 16.03125 97.179688 C 22.601562 97.179688 25.960938 104.371094 32.03125 104.371094 C 38.101562 104.371094 41.460938 97.179688 48.03125 97.179688 Z M 16.03125 97.179688 "/>
<path style=" stroke:none;fill-rule:nonzero;fill:rgb(16.078432%,71.372551%,96.470588%);fill-opacity:1;" d="M 48.019531 97.179688 C 54.589844 97.179688 57.949219 104.371094 64.019531 104.371094 C 70.078125 104.371094 73.449219 97.179688 80.019531 97.179688 Z M 48.019531 97.179688 "/>
<path style=" stroke:none;fill-rule:nonzero;fill:rgb(16.078432%,71.372551%,96.470588%);fill-opacity:1;" d="M 80.011719 97.179688 C 86.578125 97.179688 89.941406 104.371094 96.011719 104.371094 C 102.070312 104.371094 105.441406 97.179688 112.011719 97.179688 Z M 80.011719 97.179688 "/>
<path style=" stroke:none;fill-rule:nonzero;fill:rgb(16.078432%,71.372551%,96.470588%);fill-opacity:1;" d="M 112 97.179688 C 118.570312 97.179688 121.929688 104.371094 128 104.371094 L 128 97.179688 Z M 112 97.179688 "/>
<path style=" stroke:none;fill-rule:nonzero;fill:rgb(16.078432%,71.372551%,96.470588%);fill-opacity:1;" d="M 0 93.578125 L 128 93.578125 L 128 97.171875 L 0 97.171875 Z M 0 93.578125 "/>
<path style=" stroke:none;fill-rule:nonzero;fill:rgb(100%,80.392158%,24.313726%);fill-opacity:1;" d="M 60.808594 88.851562 C 63.308594 91.320312 63.328125 95.351562 60.851562 97.851562 L 46.640625 112.199219 C 44.171875 114.699219 40.140625 114.71875 37.640625 112.238281 C 35.140625 109.769531 35.121094 105.738281 37.601562 103.238281 L 51.808594 88.890625 C 54.28125 86.390625 58.308594 86.371094 60.808594 88.851562 Z M 60.808594 88.851562 "/>
</g>
</svg>
