<?xml version="1.0" encoding="UTF-8"?>
<svg xmlns="http://www.w3.org/2000/svg" xmlns:xlink="http://www.w3.org/1999/xlink" width="128px" height="128px" viewBox="0 0 128 128" version="1.1">
<defs>
<linearGradient id="linear0" gradientUnits="userSpaceOnUse" x1="51.553001" y1="79.196999" x2="83.165001" y2="79.196999" gradientTransform="matrix(0.7071,-0.7071,0.7071,0.7071,-29.681999,64.947998)">
<stop offset="0" style="stop-color:rgb(29.803922%,68.627451%,31.372549%);stop-opacity:1;"/>
<stop offset="0.6933" style="stop-color:rgb(64.313725%,90.980392%,28.627451%);stop-opacity:1;"/>
<stop offset="0.7603" style="stop-color:rgb(61.176471%,87.058824%,27.843137%);stop-opacity:1;"/>
<stop offset="0.873" style="stop-color:rgb(52.54902%,76.862745%,25.490196%);stop-opacity:1;"/>
<stop offset="1" style="stop-color:rgb(40.784314%,62.352941%,21.960784%);stop-opacity:1;"/>
</linearGradient>
<filter id="alpha" filterUnits="objectBoundingBox" x="0%" y="0%" width="100%" height="100%">
  <feColorMatrix type="matrix" in="SourceGraphic" values="0 0 0 0 1 0 0 0 0 1 0 0 0 0 1 0 0 0 1 0"/>
</filter>
<mask id="mask0">
  <g filter="url(#alpha)">
<rect x="0" y="0" width="128" height="128" style="fill:rgb(0%,0%,0%);fill-opacity:0.54902;stroke:none;"/>
  </g>
</mask>
<clipPath id="clip1">
  <rect x="0" y="0" width="128" height="128"/>
</clipPath>
<g id="surface8" clip-path="url(#clip1)">
<path style=" stroke:none;fill-rule:nonzero;fill:rgb(100%,100%,100%);fill-opacity:1;" d="M 115.578125 103.390625 C 114.949219 104.019531 113.929688 104.019531 113.300781 103.390625 L 38.460938 28.550781 C 37.828125 27.921875 37.828125 26.898438 38.460938 26.269531 C 39.089844 25.640625 40.109375 25.640625 40.738281 26.269531 L 115.578125 101.109375 C 116.199219 101.738281 116.199219 102.761719 115.578125 103.390625 Z M 115.578125 103.390625 "/>
</g>
<mask id="mask1">
  <g filter="url(#alpha)">
<rect x="0" y="0" width="128" height="128" style="fill:rgb(0%,0%,0%);fill-opacity:0.2;stroke:none;"/>
  </g>
</mask>
<clipPath id="clip2">
  <rect x="0" y="0" width="128" height="128"/>
</clipPath>
<g id="surface11" clip-path="url(#clip2)">
<path style=" stroke:none;fill-rule:nonzero;fill:rgb(25.882354%,25.882354%,25.882354%);fill-opacity:1;" d="M 32.679688 9.300781 L 35.308594 11.929688 C 35.191406 15.519531 36.601562 19.101562 39.261719 21.761719 L 113.359375 95.859375 C 117.238281 99.738281 119.339844 103.738281 119.441406 107.421875 C 119.539062 111.230469 117.53125 114.058594 115.820312 115.761719 C 114.160156 117.421875 111.421875 119.390625 107.75 119.390625 C 103.988281 119.390625 99.898438 117.28125 95.921875 113.300781 L 21.820312 39.199219 C 19.269531 36.648438 15.929688 35.238281 12.421875 35.238281 C 12.28125 35.238281 12.140625 35.238281 12 35.25 L 9.359375 32.609375 C 10.78125 30.371094 14.171875 25.96875 20.109375 20.039062 C 26.050781 14.109375 30.449219 10.71875 32.679688 9.300781 M 33.789062 4.238281 L 33.730469 4.300781 C 33.648438 4.269531 33.558594 4.261719 33.449219 4.261719 C 31.351562 4.261719 24.429688 9.570312 17.03125 16.96875 C 9.261719 24.738281 3.800781 31.980469 4.359375 33.671875 L 4.300781 33.730469 L 10.21875 39.648438 L 10.230469 39.640625 C 10.339844 39.71875 10.480469 39.761719 10.671875 39.761719 C 10.761719 39.761719 10.859375 39.75 10.96875 39.730469 C 11.441406 39.648438 11.921875 39.601562 12.410156 39.601562 C 14.621094 39.601562 16.929688 40.480469 18.730469 42.28125 L 92.828125 116.378906 C 98.058594 121.609375 103.179688 123.75 107.75 123.75 C 112.070312 123.75 115.910156 121.839844 118.910156 118.839844 C 125.078125 112.671875 126.609375 102.929688 116.449219 92.769531 L 42.351562 18.671875 C 40.148438 16.46875 39.320312 13.519531 39.789062 10.898438 C 39.851562 10.570312 39.820312 10.328125 39.691406 10.171875 L 39.699219 10.160156 Z M 33.789062 4.238281 "/>
</g>
<mask id="mask2">
  <g filter="url(#alpha)">
<rect x="0" y="0" width="128" height="128" style="fill:rgb(0%,0%,0%);fill-opacity:0.690196;stroke:none;"/>
  </g>
</mask>
<clipPath id="clip3">
  <rect x="0" y="0" width="128" height="128"/>
</clipPath>
<g id="surface14" clip-path="url(#clip3)">
<path style=" stroke:none;fill-rule:nonzero;fill:rgb(100%,100%,100%);fill-opacity:1;" d="M 49.578125 52.21875 C 49.578125 49.710938 47.546875 47.679688 45.039062 47.679688 C 42.53125 47.679688 40.5 49.710938 40.5 52.21875 C 40.5 54.726562 42.53125 56.761719 45.039062 56.761719 C 47.546875 56.761719 49.578125 54.726562 49.578125 52.21875 Z M 49.578125 52.21875 "/>
</g>
<mask id="mask3">
  <g filter="url(#alpha)">
<rect x="0" y="0" width="128" height="128" style="fill:rgb(0%,0%,0%);fill-opacity:0.690196;stroke:none;"/>
  </g>
</mask>
<clipPath id="clip4">
  <rect x="0" y="0" width="128" height="128"/>
</clipPath>
<g id="surface17" clip-path="url(#clip4)">
<path style=" stroke:none;fill-rule:nonzero;fill:rgb(100%,100%,100%);fill-opacity:1;" d="M 57.890625 58.769531 C 57.890625 57.554688 56.90625 56.570312 55.691406 56.570312 C 54.476562 56.570312 53.488281 57.554688 53.488281 58.769531 C 53.488281 59.984375 54.476562 60.96875 55.691406 60.96875 C 56.90625 60.96875 57.890625 59.984375 57.890625 58.769531 Z M 57.890625 58.769531 "/>
</g>
<mask id="mask4">
  <g filter="url(#alpha)">
<rect x="0" y="0" width="128" height="128" style="fill:rgb(0%,0%,0%);fill-opacity:0.690196;stroke:none;"/>
  </g>
</mask>
<clipPath id="clip5">
  <rect x="0" y="0" width="128" height="128"/>
</clipPath>
<g id="surface20" clip-path="url(#clip5)">
<path style=" stroke:none;fill-rule:nonzero;fill:rgb(100%,100%,100%);fill-opacity:1;" d="M 73.058594 72.710938 C 73.058594 70.605469 71.355469 68.898438 69.25 68.898438 C 67.144531 68.898438 65.441406 70.605469 65.441406 72.710938 C 65.441406 74.8125 67.144531 76.519531 69.25 76.519531 C 71.355469 76.519531 73.058594 74.8125 73.058594 72.710938 Z M 73.058594 72.710938 "/>
</g>
<mask id="mask5">
  <g filter="url(#alpha)">
<rect x="0" y="0" width="128" height="128" style="fill:rgb(0%,0%,0%);fill-opacity:0.690196;stroke:none;"/>
  </g>
</mask>
<clipPath id="clip6">
  <rect x="0" y="0" width="128" height="128"/>
</clipPath>
<g id="surface23" clip-path="url(#clip6)">
<path style=" stroke:none;fill-rule:nonzero;fill:rgb(100%,100%,100%);fill-opacity:1;" d="M 64.800781 62.378906 C 64.800781 61.566406 64.140625 60.910156 63.328125 60.910156 C 62.519531 60.910156 61.859375 61.566406 61.859375 62.378906 C 61.859375 63.191406 62.519531 63.851562 63.328125 63.851562 C 64.140625 63.851562 64.800781 63.191406 64.800781 62.378906 Z M 64.800781 62.378906 "/>
</g>
</defs>
<g id="surface1">
<path style=" stroke:none;fill-rule:nonzero;fill:rgb(90.196079%,90.196079%,90.196079%);fill-opacity:1;" d="M 33.789062 4.25 L 33.730469 4.300781 C 32.039062 3.738281 24.800781 9.199219 17.03125 16.96875 C 9.261719 24.738281 3.800781 31.980469 4.359375 33.671875 L 4.300781 33.730469 L 10.21875 39.648438 L 10.230469 39.640625 C 10.390625 39.761719 10.640625 39.789062 10.960938 39.738281 C 13.578125 39.269531 16.53125 40.101562 18.71875 42.300781 L 92.820312 116.398438 C 103 126.578125 112.71875 125.03125 118.890625 118.859375 C 125.058594 112.691406 126.589844 102.949219 116.429688 92.789062 L 42.328125 18.691406 C 40.128906 16.488281 39.300781 13.539062 39.769531 10.921875 C 39.828125 10.589844 39.800781 10.351562 39.671875 10.191406 L 39.679688 10.179688 Z M 33.789062 4.25 "/>
<path style=" stroke:none;fill-rule:nonzero;fill:url(#linear0);" d="M 18.660156 40.390625 L 93.011719 114.738281 C 102.910156 124.640625 112.121094 123.359375 117.859375 117.628906 C 123.601562 111.890625 124.851562 102.660156 114.96875 92.789062 L 66.949219 44.761719 Z M 18.660156 40.390625 "/>
<use xlink:href="#surface8" mask="url(#mask0)"/>
<use xlink:href="#surface11" mask="url(#mask1)"/>
<use xlink:href="#surface14" mask="url(#mask2)"/>
<path style=" stroke:none;fill-rule:nonzero;fill:rgb(61.176473%,80.000001%,39.607844%);fill-opacity:1;" d="M 35.539062 33.960938 C 35.539062 31.453125 33.507812 29.421875 31 29.421875 C 28.492188 29.421875 26.460938 31.453125 26.460938 33.960938 C 26.460938 36.46875 28.492188 38.5 31 38.5 C 33.507812 38.5 35.539062 36.46875 35.539062 33.960938 Z M 35.539062 33.960938 "/>
<use xlink:href="#surface17" mask="url(#mask3)"/>
<path style=" stroke:none;fill-rule:nonzero;fill:rgb(61.176473%,80.000001%,39.607844%);fill-opacity:1;" d="M 20.621094 9.28125 C 20.621094 7.535156 19.207031 6.121094 17.460938 6.121094 C 15.714844 6.121094 14.300781 7.535156 14.300781 9.28125 C 14.300781 11.023438 15.714844 12.441406 17.460938 12.441406 C 19.207031 12.441406 20.621094 11.023438 20.621094 9.28125 Z M 20.621094 9.28125 "/>
<path style=" stroke:none;fill-rule:nonzero;fill:rgb(61.176473%,80.000001%,39.607844%);fill-opacity:1;" d="M 12.71875 15.25 C 12.71875 14.4375 12.0625 13.78125 11.25 13.78125 C 10.4375 13.78125 9.78125 14.4375 9.78125 15.25 C 9.78125 16.0625 10.4375 16.71875 11.25 16.71875 C 12.0625 16.71875 12.71875 16.0625 12.71875 15.25 Z M 12.71875 15.25 "/>
<use xlink:href="#surface20" mask="url(#mask4)"/>
<use xlink:href="#surface23" mask="url(#mask5)"/>
</g>
</svg>
