<?xml version="1.0" encoding="UTF-8"?>
<svg xmlns="http://www.w3.org/2000/svg" xmlns:xlink="http://www.w3.org/1999/xlink" width="128px" height="128px" viewBox="0 0 128 128" version="1.1">
<g id="surface1">
<path style=" stroke:none;fill-rule:nonzero;fill:rgb(92.941177%,42.352942%,18.82353%);fill-opacity:1;" d="M 64.351562 72.121094 C 61.039062 72.121094 58.359375 69.890625 58.359375 67.140625 L 58.359375 53.21875 C 58.359375 50.480469 61.039062 48.25 64.351562 48.25 C 67.648438 48.25 70.339844 50.46875 70.339844 53.21875 L 70.339844 67.140625 C 70.351562 69.878906 67.660156 72.121094 64.351562 72.121094 Z M 64.351562 72.121094 "/>
<path style=" stroke:none;fill-rule:nonzero;fill:rgb(92.941177%,42.352942%,18.82353%);fill-opacity:1;" d="M 49.289062 75.75 C 45.980469 75.75 43.308594 73.519531 43.308594 70.78125 L 43.308594 56.871094 C 43.308594 54.121094 45.980469 51.890625 49.289062 51.890625 C 52.601562 51.890625 55.289062 54.109375 55.289062 56.871094 L 55.289062 70.789062 C 55.28125 73.519531 52.589844 75.75 49.289062 75.75 Z M 49.289062 75.75 "/>
<path style=" stroke:none;fill-rule:nonzero;fill:rgb(18.431373%,18.431373%,18.431373%);fill-opacity:1;" d="M 26.441406 95.78125 L 121.851562 95.78125 L 121.851562 111.691406 L 26.441406 111.691406 Z M 26.441406 95.78125 "/>
<path style=" stroke:none;fill-rule:nonzero;fill:rgb(92.941177%,42.352942%,18.82353%);fill-opacity:1;" d="M 13.359375 63.230469 L 105.171875 63.230469 L 105.171875 100.640625 L 13.359375 100.640625 Z M 13.359375 63.230469 "/>
<path style=" stroke:none;fill-rule:nonzero;fill:rgb(92.941177%,42.352942%,18.82353%);fill-opacity:1;" d="M 77.941406 39.578125 L 121.859375 39.578125 L 121.859375 100.640625 L 77.941406 100.640625 Z M 77.941406 39.578125 "/>
<path style=" stroke:none;fill-rule:nonzero;fill:rgb(18.431373%,18.431373%,18.431373%);fill-opacity:1;" d="M 35.039062 63.238281 C 39.300781 63.238281 42.761719 71.621094 42.761719 81.949219 C 42.761719 92.28125 39.300781 100.648438 35.039062 100.648438 C 30.769531 100.648438 27.308594 92.28125 27.308594 81.949219 C 27.320312 71.621094 30.78125 63.238281 35.039062 63.238281 Z M 35.039062 63.238281 "/>
<path style=" stroke:none;fill-rule:nonzero;fill:rgb(98.823529%,76.078433%,10.588235%);fill-opacity:1;" d="M 35.039062 101.691406 C 30.121094 101.691406 26.269531 93.019531 26.269531 81.949219 C 26.269531 70.878906 30.121094 62.210938 35.039062 62.210938 C 39.949219 62.210938 43.800781 70.878906 43.800781 81.949219 C 43.800781 93.019531 39.949219 101.691406 35.039062 101.691406 Z M 35.039062 64.28125 C 31.878906 64.28125 28.351562 71.539062 28.351562 81.949219 C 28.351562 92.359375 31.878906 99.609375 35.039062 99.609375 C 38.199219 99.609375 41.71875 92.359375 41.71875 81.949219 C 41.71875 71.539062 38.199219 64.28125 35.039062 64.28125 Z M 35.039062 64.28125 "/>
<path style=" stroke:none;fill-rule:nonzero;fill:rgb(18.431373%,18.431373%,18.431373%);fill-opacity:1;" d="M 13.789062 63.210938 L 35.570312 63.210938 L 35.570312 101.140625 L 13.789062 101.140625 Z M 13.789062 63.210938 "/>
<path style=" stroke:none;fill-rule:nonzero;fill:rgb(18.431373%,18.431373%,18.431373%);fill-opacity:1;" d="M 71.960938 32.660156 L 127.851562 32.660156 L 127.851562 39.589844 L 71.960938 39.589844 Z M 71.960938 32.660156 "/>
<path style=" stroke:none;fill-rule:nonzero;fill:rgb(18.431373%,18.431373%,18.431373%);fill-opacity:1;" d="M 35.441406 63.230469 L 20.921875 63.230469 L 11.871094 33.929688 L 44.488281 33.929688 Z M 35.441406 63.230469 "/>
<path style=" stroke:none;fill-rule:nonzero;fill:rgb(18.431373%,18.431373%,18.431373%);fill-opacity:1;" d="M 39.839844 23.558594 L 16.308594 23.558594 L 11.871094 33.929688 L 44.488281 33.929688 Z M 39.839844 23.558594 "/>
<path style=" stroke:none;fill-rule:nonzero;fill:rgb(18.431373%,18.431373%,18.431373%);fill-opacity:1;" d="M 0.148438 120.191406 L 28.671875 120.191406 L 28.671875 100.640625 L 13.359375 100.640625 Z M 0.148438 120.191406 "/>
<path style=" stroke:none;fill-rule:nonzero;fill:rgb(100%,100%,100%);fill-opacity:1;" d="M 116.511719 45.550781 C 116.511719 44.011719 115.261719 42.75 113.699219 42.75 L 101.191406 42.75 C 99.628906 42.75 98.359375 44.011719 98.359375 45.550781 L 98.359375 67.191406 C 98.359375 68.738281 99.628906 69.988281 101.191406 69.988281 L 113.699219 69.988281 C 115.261719 69.988281 116.511719 68.75 116.511719 67.191406 Z M 116.511719 45.550781 "/>
<path style=" stroke:none;fill-rule:nonzero;fill:rgb(18.431373%,18.431373%,18.431373%);fill-opacity:1;" d="M 0.148438 114.261719 L 28.671875 114.261719 L 28.671875 120.191406 L 0.148438 120.191406 Z M 0.148438 114.261719 "/>
<path style=" stroke:none;fill-rule:nonzero;fill:rgb(47.058824%,63.921571%,67.843139%);fill-opacity:1;" d="M 82.789062 105.019531 C 82.789062 113.550781 75.878906 120.460938 67.371094 120.460938 C 58.839844 120.460938 51.921875 113.550781 51.921875 105.019531 C 51.921875 96.488281 58.839844 89.578125 67.371094 89.578125 C 75.890625 89.578125 82.789062 96.488281 82.789062 105.019531 Z M 82.789062 105.019531 "/>
<path style=" stroke:none;fill-rule:nonzero;fill:rgb(18.431373%,18.431373%,18.431373%);fill-opacity:1;" d="M 76.25 105.019531 C 76.25 109.929688 72.269531 113.921875 67.359375 113.921875 C 62.441406 113.921875 58.449219 109.941406 58.449219 105.019531 C 58.449219 100.101562 62.441406 96.128906 67.359375 96.128906 C 72.269531 96.128906 76.25 100.109375 76.25 105.019531 Z M 76.25 105.019531 "/>
<path style=" stroke:none;fill-rule:nonzero;fill:rgb(47.058824%,63.921571%,67.843139%);fill-opacity:1;" d="M 113.679688 105.019531 C 113.679688 113.550781 106.769531 120.460938 98.25 120.460938 C 89.71875 120.460938 82.800781 113.550781 82.800781 105.019531 C 82.800781 96.488281 89.71875 89.578125 98.25 89.578125 C 106.769531 89.578125 113.679688 96.488281 113.679688 105.019531 Z M 113.679688 105.019531 "/>
<path style=" stroke:none;fill-rule:nonzero;fill:rgb(18.431373%,18.431373%,18.431373%);fill-opacity:1;" d="M 107.128906 105.019531 C 107.128906 109.929688 103.148438 113.921875 98.230469 113.921875 C 93.320312 113.921875 89.328125 109.941406 89.328125 105.019531 C 89.328125 100.101562 93.320312 96.128906 98.230469 96.128906 C 103.148438 96.128906 107.128906 100.109375 107.128906 105.019531 Z M 107.128906 105.019531 "/>
<path style=" stroke:none;fill-rule:nonzero;fill:rgb(100%,100%,100%);fill-opacity:1;" d="M 70.039062 104.25 C 68.621094 104.25 67.460938 103.089844 67.460938 101.660156 C 67.460938 100.238281 68.621094 99.078125 70.039062 99.078125 L 95.578125 99.078125 C 97 99.078125 98.148438 100.230469 98.148438 101.660156 C 98.148438 103.089844 97 104.25 95.578125 104.25 Z M 70.039062 104.25 "/>
<path style=" stroke:none;fill-rule:nonzero;fill:rgb(47.058824%,63.921571%,67.843139%);fill-opacity:1;" d="M 50.46875 109.570312 C 50.46875 115.589844 45.589844 120.460938 39.578125 120.460938 C 33.550781 120.460938 28.671875 115.589844 28.671875 109.570312 C 28.671875 103.550781 33.539062 98.691406 39.578125 98.691406 C 45.589844 98.679688 50.46875 103.550781 50.46875 109.570312 Z M 50.46875 109.570312 "/>
<path style=" stroke:none;fill-rule:nonzero;fill:rgb(98.823529%,76.078433%,10.588235%);fill-opacity:1;" d="M 58.328125 54.03125 L 70.339844 54.03125 L 70.339844 61.71875 L 58.328125 61.71875 Z M 58.328125 54.03125 "/>
<path style=" stroke:none;fill-rule:nonzero;fill:rgb(98.823529%,76.078433%,10.588235%);fill-opacity:1;" d="M 43.359375 56.800781 L 55.261719 56.800781 L 55.261719 61.828125 L 43.359375 61.828125 Z M 43.359375 56.800781 "/>
<path style=" stroke:none;fill-rule:nonzero;fill:rgb(18.431373%,18.431373%,18.431373%);fill-opacity:1;" d="M 13.359375 63.230469 C 17.628906 63.230469 21.078125 71.601562 21.078125 81.941406 C 21.078125 92.269531 17.628906 100.640625 13.359375 100.640625 C 9.101562 100.640625 5.648438 92.261719 5.648438 81.941406 C 5.648438 71.609375 9.109375 63.230469 13.359375 63.230469 Z M 13.359375 63.230469 "/>
<path style=" stroke:none;fill-rule:nonzero;fill:rgb(98.823529%,76.078433%,10.588235%);fill-opacity:1;" d="M 13.359375 101.679688 C 8.449219 101.679688 4.609375 93 4.609375 81.941406 C 4.609375 70.871094 8.460938 62.199219 13.359375 62.199219 C 18.28125 62.199219 22.121094 70.871094 22.121094 81.941406 C 22.128906 93.011719 18.28125 101.679688 13.359375 101.679688 Z M 13.359375 64.269531 C 10.210938 64.269531 6.691406 71.519531 6.691406 81.941406 C 6.691406 92.351562 10.210938 99.601562 13.359375 99.601562 C 16.519531 99.601562 20.039062 92.351562 20.039062 81.941406 C 20.050781 71.53125 16.53125 64.269531 13.359375 64.269531 Z M 13.359375 64.269531 "/>
<path style=" stroke:none;fill-rule:nonzero;fill:rgb(18.431373%,18.431373%,18.431373%);fill-opacity:1;" d="M 10.589844 32.691406 L 45.769531 32.691406 L 45.769531 35.320312 L 10.589844 35.320312 Z M 10.589844 32.691406 "/>
</g>
</svg>
