<?xml version="1.0" encoding="UTF-8"?>
<svg xmlns="http://www.w3.org/2000/svg" xmlns:xlink="http://www.w3.org/1999/xlink" width="128px" height="128px" viewBox="0 0 128 128" version="1.1">
<defs>
<clipPath id="clip1">
  <path d="M 40 3 L 61 3 L 61 46 L 40 46 Z M 40 3 "/>
</clipPath>
<clipPath id="clip2">
  <path d="M 51.988281 3.308594 C 42.359375 2.878906 37.441406 18.949219 43 40.378906 C 44.941406 47.851562 48.019531 56.199219 51.75 64.210938 C 56.761719 74.949219 64.78125 72.75 71.960938 70.890625 C 77.808594 69.371094 83.828125 70.03125 81.121094 62.101562 C 78.890625 55.570312 76.578125 49.058594 74.929688 43.371094 C 67.378906 17.289062 58.410156 3.609375 51.988281 3.308594 Z M 51.988281 3.308594 "/>
</clipPath>
<clipPath id="clip3">
  <path d="M 0 40 L 124 40 L 124 75 L 0 75 Z M 0 40 "/>
</clipPath>
<clipPath id="clip4">
  <path d="M 120.929688 53.671875 C 120.929688 53.671875 62.710938 39.179688 35.921875 40.558594 C 20.769531 41.339844 14.828125 51.269531 14.828125 51.269531 C 14.828125 51.269531 0.0898438 56.25 0.488281 64.058594 C 1.019531 74.511719 22.398438 82.839844 63.730469 78.230469 C 105.070312 73.609375 121.738281 61.171875 121.738281 61.171875 C 121.738281 61.171875 126.910156 57.539062 120.929688 53.671875 Z M 120.929688 53.671875 "/>
</clipPath>
<clipPath id="clip5">
  <path d="M 14 42 L 35 42 L 35 67 L 14 67 Z M 14 42 "/>
</clipPath>
<clipPath id="clip6">
  <path d="M 120.929688 53.671875 C 120.929688 53.671875 62.710938 39.179688 35.921875 40.558594 C 20.769531 41.339844 14.828125 51.269531 14.828125 51.269531 C 14.828125 51.269531 0.0898438 56.25 0.488281 64.058594 C 1.019531 74.511719 22.398438 82.839844 63.730469 78.230469 C 105.070312 73.609375 121.738281 61.171875 121.738281 61.171875 C 121.738281 61.171875 126.910156 57.539062 120.929688 53.671875 Z M 120.929688 53.671875 "/>
</clipPath>
<clipPath id="clip7">
  <path d="M 14 42 L 27 42 L 27 60 L 14 60 Z M 14 42 "/>
</clipPath>
<clipPath id="clip8">
  <path d="M 120.929688 53.671875 C 120.929688 53.671875 62.710938 39.179688 35.921875 40.558594 C 20.769531 41.339844 14.828125 51.269531 14.828125 51.269531 C 14.828125 51.269531 0.0898438 56.25 0.488281 64.058594 C 1.019531 74.511719 22.398438 82.839844 63.730469 78.230469 C 105.070312 73.609375 121.738281 61.171875 121.738281 61.171875 C 121.738281 61.171875 126.910156 57.539062 120.929688 53.671875 Z M 120.929688 53.671875 "/>
</clipPath>
<clipPath id="clip9">
  <path d="M 21.679688 42.710938 C 21.46875 42.890625 21.488281 43.808594 21.46875 44.039062 C 21.398438 45.25 21.550781 46.46875 21.859375 47.628906 C 23.109375 52.308594 26.800781 55.949219 30.648438 58.660156 C 31.519531 59.289062 32.679688 59.78125 33.441406 60.519531 C 33.890625 60.980469 34.359375 62.058594 33.96875 62.660156 C 33.429688 63.558594 32.71875 64.378906 31.988281 65.128906 C 31.339844 65.808594 30.621094 66.71875 29.578125 66.699219 C 29.230469 66.679688 28.890625 66.601562 28.550781 66.5 C 27.738281 66.261719 26.988281 65.839844 26.269531 65.398438 C 24.96875 64.609375 23.800781 63.671875 22.589844 62.761719 C 19.75 60.660156 17.238281 57.949219 15.789062 54.730469 C 14.929688 52.769531 14.570312 50.589844 14.75 48.460938 Z M 21.679688 42.710938 "/>
</clipPath>
<clipPath id="clip10">
  <path d="M 36 62 L 44 62 L 44 70 L 36 70 Z M 36 62 "/>
</clipPath>
<clipPath id="clip11">
  <path d="M 120.929688 53.671875 C 120.929688 53.671875 62.710938 39.179688 35.921875 40.558594 C 20.769531 41.339844 14.828125 51.269531 14.828125 51.269531 C 14.828125 51.269531 0.0898438 56.25 0.488281 64.058594 C 1.019531 74.511719 22.398438 82.839844 63.730469 78.230469 C 105.070312 73.609375 121.738281 61.171875 121.738281 61.171875 C 121.738281 61.171875 126.910156 57.539062 120.929688 53.671875 Z M 120.929688 53.671875 "/>
</clipPath>
<clipPath id="clip12">
  <path d="M 44 63 L 52 63 L 52 70 L 44 70 Z M 44 63 "/>
</clipPath>
<clipPath id="clip13">
  <path d="M 120.929688 53.671875 C 120.929688 53.671875 62.710938 39.179688 35.921875 40.558594 C 20.769531 41.339844 14.828125 51.269531 14.828125 51.269531 C 14.828125 51.269531 0.0898438 56.25 0.488281 64.058594 C 1.019531 74.511719 22.398438 82.839844 63.730469 78.230469 C 105.070312 73.609375 121.738281 61.171875 121.738281 61.171875 C 121.738281 61.171875 126.910156 57.539062 120.929688 53.671875 Z M 120.929688 53.671875 "/>
</clipPath>
<clipPath id="clip14">
  <path d="M 53 69 L 93 69 L 93 125 L 53 125 Z M 53 69 "/>
</clipPath>
<clipPath id="clip15">
  <path d="M 52.480469 66.519531 C 52.921875 68.078125 53.421875 69.671875 53.960938 71.300781 C 62.28125 96.238281 81.570312 127.328125 94.128906 124.519531 C 106.890625 121.671875 91.078125 89.710938 84.46875 68.761719 C 80.390625 55.820312 72.171875 57.628906 64.429688 57.640625 C 56.699219 57.648438 49.449219 55.871094 52.480469 66.519531 Z M 52.480469 66.519531 "/>
</clipPath>
</defs>
<g id="surface1">
<path style=" stroke:none;fill-rule:nonzero;fill:rgb(96.862745%,57.647061%,16.078432%);fill-opacity:1;" d="M 51.988281 3.308594 C 42.359375 2.878906 37.441406 18.949219 43 40.378906 C 44.941406 47.851562 48.019531 56.199219 51.75 64.210938 C 56.761719 74.949219 64.78125 72.75 71.960938 70.890625 C 77.808594 69.371094 83.828125 70.03125 81.121094 62.101562 C 78.890625 55.570312 76.578125 49.058594 74.929688 43.371094 C 67.378906 17.289062 58.410156 3.609375 51.988281 3.308594 Z M 51.988281 3.308594 "/>
<g clip-path="url(#clip1)" clip-rule="nonzero">
<g clip-path="url(#clip2)" clip-rule="nonzero">
<path style=" stroke:none;fill-rule:nonzero;fill:rgb(98.823529%,76.078433%,10.588235%);fill-opacity:1;" d="M 51.019531 1.769531 C 51.121094 1.769531 51.230469 1.761719 51.351562 1.761719 C 53.109375 1.761719 55.328125 2.230469 56.558594 3.550781 C 57.050781 4.070312 57.410156 4.53125 58.011719 4.949219 C 58.628906 5.390625 59.109375 5.898438 59.449219 6.589844 C 59.78125 7.269531 60.230469 7.980469 60.078125 8.75 C 59.410156 8.539062 58.710938 7.75 58.078125 7.359375 C 56.789062 6.558594 55.570312 5.628906 54.019531 5.488281 C 48.621094 5 46.609375 9.820312 46.128906 14.390625 C 45.660156 18.839844 45.640625 23.339844 46.140625 27.789062 C 46.609375 31.929688 47.878906 35.828125 48.660156 39.910156 C 48.820312 40.730469 49.039062 41.578125 49.238281 42.339844 C 49.390625 42.921875 49.941406 44.199219 49.769531 44.761719 C 48.449219 44.929688 47.011719 44.789062 45.671875 44.789062 C 45.050781 44.789062 44.410156 44.761719 43.789062 44.828125 C 43.390625 44.878906 42.921875 45.210938 42.519531 45.160156 C 41.898438 45.078125 42.199219 45.050781 41.949219 44.621094 C 40.589844 42.328125 40.519531 38.628906 40.050781 36.058594 C 39.230469 31.589844 38.789062 27.148438 38.789062 22.609375 C 38.789062 20.171875 38.800781 17.828125 39.449219 15.449219 C 40.128906 12.941406 41.269531 10.578125 42.679688 8.421875 C 43.589844 7.039062 44.53125 5.621094 45.828125 4.578125 C 46.628906 3.929688 47.640625 3.628906 48.429688 3.011719 C 49.050781 2.53125 49.460938 2.070312 50.28125 1.890625 C 50.539062 1.820312 50.769531 1.789062 51.019531 1.769531 Z M 51.019531 1.769531 "/>
</g>
</g>
<path style=" stroke:none;fill-rule:nonzero;fill:rgb(96.862745%,57.647061%,16.078432%);fill-opacity:1;" d="M 120.929688 53.671875 C 120.929688 53.671875 62.710938 39.179688 35.921875 40.558594 C 20.769531 41.339844 14.828125 51.269531 14.828125 51.269531 C 14.828125 51.269531 0.0898438 56.25 0.488281 64.058594 C 1.019531 74.511719 22.398438 82.839844 63.730469 78.230469 C 105.070312 73.609375 121.738281 61.171875 121.738281 61.171875 C 121.738281 61.171875 126.910156 57.539062 120.929688 53.671875 Z M 120.929688 53.671875 "/>
<g clip-path="url(#clip3)" clip-rule="nonzero">
<g clip-path="url(#clip4)" clip-rule="nonzero">
<path style=" stroke:none;fill-rule:nonzero;fill:rgb(98.823529%,76.078433%,10.588235%);fill-opacity:1;" d="M 9.671875 70.371094 C 9.269531 62.558594 24 57.589844 24 57.589844 C 24 57.589844 29.941406 47.660156 45.089844 46.878906 C 66.46875 45.78125 107.859375 54.78125 123.699219 58.460938 C 124.050781 57.121094 123.628906 55.429688 120.921875 53.679688 C 120.921875 53.679688 62.699219 39.191406 35.910156 40.570312 C 20.761719 41.351562 14.820312 51.28125 14.820312 51.28125 C 14.820312 51.28125 0.0898438 56.25 0.488281 64.058594 C 0.710938 68.308594 4.421875 72.179688 11.460938 75 C 10.390625 73.53125 9.75 71.980469 9.671875 70.371094 Z M 9.671875 70.371094 "/>
</g>
</g>
<g clip-path="url(#clip5)" clip-rule="nonzero">
<g clip-path="url(#clip6)" clip-rule="nonzero">
<path style=" stroke:none;fill-rule:nonzero;fill:rgb(0%,42.352942%,63.529414%);fill-opacity:1;" d="M 21.679688 42.710938 C 21.46875 42.890625 21.488281 43.808594 21.46875 44.039062 C 21.398438 45.25 21.550781 46.46875 21.859375 47.628906 C 23.109375 52.308594 26.800781 55.949219 30.648438 58.660156 C 31.519531 59.289062 32.679688 59.78125 33.441406 60.519531 C 33.890625 60.980469 34.359375 62.058594 33.96875 62.660156 C 33.429688 63.558594 32.71875 64.378906 31.988281 65.128906 C 31.339844 65.808594 30.621094 66.71875 29.578125 66.699219 C 29.230469 66.679688 28.890625 66.601562 28.550781 66.5 C 27.738281 66.261719 26.988281 65.839844 26.269531 65.398438 C 24.96875 64.609375 23.800781 63.671875 22.589844 62.761719 C 19.75 60.660156 17.238281 57.949219 15.789062 54.730469 C 14.929688 52.769531 14.570312 50.589844 14.75 48.460938 Z M 21.679688 42.710938 "/>
</g>
</g>
<g clip-path="url(#clip7)" clip-rule="nonzero">
<g clip-path="url(#clip8)" clip-rule="nonzero">
<g clip-path="url(#clip9)" clip-rule="nonzero">
<path style=" stroke:none;fill-rule:nonzero;fill:rgb(25.098041%,75.294119%,90.588236%);fill-opacity:1;" d="M 26.761719 54.808594 L 18.730469 59.96875 C 18.730469 59.96875 12.710938 54.519531 13.28125 49.640625 L 22.738281 42.761719 Z M 26.761719 54.808594 "/>
</g>
</g>
</g>
<g clip-path="url(#clip10)" clip-rule="nonzero">
<g clip-path="url(#clip11)" clip-rule="nonzero">
<path style=" stroke:none;fill-rule:nonzero;fill:rgb(0%,42.352942%,63.529414%);fill-opacity:1;" d="M 39.539062 62.429688 C 40.679688 62.019531 42.460938 62.289062 43.019531 63.511719 C 43.160156 63.828125 43.21875 64.300781 43.179688 64.679688 C 43.140625 65.429688 42.679688 66.171875 42.359375 66.800781 C 41.871094 67.828125 41.191406 69.039062 39.96875 69.300781 C 38.859375 69.558594 36.929688 69.160156 36.578125 67.890625 C 36.398438 67.25 36.429688 66.429688 36.730469 65.828125 C 37.148438 64.980469 37.558594 64.050781 38.199219 63.328125 C 38.578125 62.921875 39.039062 62.609375 39.539062 62.429688 Z M 39.539062 62.429688 "/>
</g>
</g>
<g clip-path="url(#clip12)" clip-rule="nonzero">
<g clip-path="url(#clip13)" clip-rule="nonzero">
<path style=" stroke:none;fill-rule:nonzero;fill:rgb(0%,42.352942%,63.529414%);fill-opacity:1;" d="M 47.75 63.28125 C 48.839844 62.851562 50.519531 63.050781 51 64.199219 C 51.128906 64.511719 51.160156 64.949219 51.121094 65.300781 C 50.980469 66.859375 49.578125 69.371094 47.949219 69.789062 C 46.789062 70.101562 45.519531 70.03125 45.101562 68.839844 C 44.628906 67.480469 45.539062 65.210938 46.460938 64.179688 C 46.839844 63.761719 47.289062 63.46875 47.75 63.28125 Z M 47.75 63.28125 "/>
</g>
</g>
<path style=" stroke:none;fill-rule:nonzero;fill:rgb(98.823529%,76.078433%,10.588235%);fill-opacity:1;" d="M 107.851562 51.699219 C 107.851562 51.699219 113.730469 45.328125 117.488281 42.871094 C 122.28125 39.738281 126.941406 39.359375 127.480469 42.46875 C 128.039062 45.578125 120.519531 56.96875 120.519531 56.96875 "/>
<path style=" stroke:none;fill-rule:nonzero;fill:rgb(96.862745%,57.647061%,16.078432%);fill-opacity:1;" d="M 120.398438 61.070312 C 120.578125 61.140625 120.769531 61.238281 120.941406 61.351562 C 122.128906 62.109375 122.878906 64.070312 123.511719 65.289062 C 124.558594 67.320312 127.148438 71.949219 125.039062 74.058594 C 124.738281 74.359375 124.339844 74.558594 123.929688 74.671875 C 120.601562 75.570312 116.699219 71.839844 114.488281 69.859375 C 112.960938 68.488281 111.320312 67.039062 110.03125 65.429688 C 109.53125 64.808594 109.28125 63.949219 109.578125 63.148438 C 109.929688 62.25 111.171875 62.171875 111.921875 61.761719 C 113.011719 61.160156 114.308594 61.179688 115.550781 61.039062 C 117.101562 60.871094 118.910156 60.460938 120.398438 61.070312 Z M 120.398438 61.070312 "/>
<path style=" stroke:none;fill-rule:nonzero;fill:rgb(96.862745%,57.647061%,16.078432%);fill-opacity:1;" d="M 52.480469 66.519531 C 52.921875 68.078125 53.421875 69.671875 53.960938 71.300781 C 62.28125 96.238281 81.570312 127.328125 94.128906 124.519531 C 106.890625 121.671875 91.078125 89.710938 84.46875 68.761719 C 80.390625 55.820312 72.171875 57.628906 64.429688 57.640625 C 56.699219 57.648438 49.449219 55.871094 52.480469 66.519531 Z M 52.480469 66.519531 "/>
<g clip-path="url(#clip14)" clip-rule="nonzero">
<g clip-path="url(#clip15)" clip-rule="nonzero">
<path style=" stroke:none;fill-rule:nonzero;fill:rgb(98.823529%,76.078433%,10.588235%);fill-opacity:1;" d="M 82.898438 116.320312 C 70.910156 100.191406 64.558594 80.660156 64.28125 79.121094 C 63.78125 76.328125 64.308594 73.480469 66.898438 71.929688 C 67.640625 71.488281 68.460938 71.148438 69.230469 70.761719 C 69.78125 70.488281 70.539062 70.328125 70.988281 70.03125 C 70.300781 69.238281 68.148438 69.21875 67.148438 69.109375 C 65.390625 68.921875 63.199219 69.128906 61.488281 69.480469 C 59.261719 69.941406 56.628906 70.390625 54.851562 71.910156 C 53.878906 72.738281 53.589844 73.761719 53.679688 74.820312 C 53.859375 76.800781 54.960938 78.550781 55.960938 80.210938 C 56.308594 80.789062 56.628906 81.410156 56.949219 82.019531 C 57.128906 83.269531 57.429688 84.488281 57.601562 84.988281 C 58.089844 86.46875 58.511719 88.070312 59.300781 89.421875 C 59.511719 89.78125 59.75 90.109375 59.988281 90.441406 C 60.199219 90.730469 60.410156 91.019531 60.578125 91.339844 C 60.898438 91.910156 60.878906 92.441406 61.070312 93.039062 C 61.519531 94.480469 62.660156 95.808594 63.390625 97.121094 C 68.25 105.851562 76.328125 118.578125 85.238281 123.859375 C 86.898438 124.839844 92.71875 124.679688 92.71875 124.679688 C 92.71875 124.679688 88.050781 123.261719 82.898438 116.320312 Z M 82.898438 116.320312 "/>
</g>
</g>
</g>
</svg>
