<?xml version="1.0" encoding="UTF-8"?>
<svg xmlns="http://www.w3.org/2000/svg" xmlns:xlink="http://www.w3.org/1999/xlink" width="128px" height="128px" viewBox="0 0 128 128" version="1.1">
<defs>
<clipPath id="clip1">
  <path d="M 21.289062 50 L 77 50 L 77 93.789062 L 21.289062 93.789062 Z M 21.289062 50 "/>
</clipPath>
<clipPath id="clip2">
  <path d="M 21.289062 68 L 74 68 L 74 93.789062 L 21.289062 93.789062 Z M 21.289062 68 "/>
</clipPath>
<clipPath id="clip3">
  <path d="M 45 55 L 106.601562 55 L 106.601562 93.789062 L 45 93.789062 Z M 45 55 "/>
</clipPath>
</defs>
<g id="surface1">
<path style=" stroke:none;fill-rule:nonzero;fill:rgb(100%,100%,100%);fill-opacity:1;" d="M 11.601562 27.859375 L 117.269531 27.859375 L 117.269531 103.480469 L 11.601562 103.480469 Z M 11.601562 27.859375 "/>
<path style=" stroke:none;fill-rule:nonzero;fill:rgb(52.156866%,36.078432%,32.156864%);fill-opacity:1;" d="M 4.949219 110.449219 C 1.929688 107.25 1.429688 102.359375 3.800781 98.648438 C 6.210938 94.871094 8.011719 90.878906 6.691406 86.03125 C 5.078125 80.089844 3.039062 74.261719 1.269531 68.371094 C 0.679688 66.410156 0.71875 64.308594 1.378906 62.371094 C 2.808594 58.230469 3.46875 53.738281 5.28125 49.761719 C 8.199219 43.328125 7.058594 37.761719 3.820312 32.5 C 1.550781 28.808594 1.890625 24.039062 4.820312 20.839844 C 7.871094 17.5 10.929688 17.328125 17.140625 19.140625 C 18.378906 19.5 19.660156 19.75 20.828125 20.25 C 28.660156 23.550781 36.128906 23.71875 43.980469 19.53125 C 46.71875 18.070312 51.769531 18.078125 54.320312 19.699219 C 61.070312 23.96875 67.191406 23.96875 73.78125 20.070312 C 78.359375 17.359375 82.851562 17.171875 87.289062 20.53125 C 91.191406 23.488281 95.621094 23.738281 100.171875 22.480469 C 103.730469 21.488281 107.25 20.351562 110.769531 19.230469 C 117.011719 17.25 120.148438 17.5 123.339844 21.160156 C 126.128906 24.351562 126.371094 29.070312 124.058594 32.621094 C 121.71875 36.210938 119.800781 39.960938 121.078125 44.660156 C 122.75 50.78125 124.820312 56.789062 126.628906 62.871094 C 127.230469 64.871094 127.171875 67 126.46875 68.96875 C 125.078125 72.898438 124.390625 77.160156 122.640625 80.921875 C 119.589844 87.5 120.660156 93.25 124.03125 98.660156 C 126.320312 102.339844 125.988281 107.128906 123.050781 110.320312 C 120.050781 113.570312 117.058594 113.789062 111.140625 112.128906 C 109.589844 111.691406 107.988281 111.351562 106.511719 110.730469 C 98.941406 107.558594 91.75 107.628906 84.199219 111.5 C 81.359375 112.949219 76.308594 113.210938 73.820312 111.609375 C 66.710938 107.050781 60.269531 107.378906 53.398438 111.390625 C 49.058594 113.921875 44.808594 113.769531 40.730469 110.71875 C 36.628906 107.660156 32.050781 107.511719 27.339844 108.761719 C 23.921875 109.671875 20.550781 110.800781 17.171875 111.871094 C 11.101562 113.820312 8.019531 113.699219 4.949219 110.449219 Z M 63.898438 98.859375 C 77.449219 98.859375 91.011719 98.890625 104.558594 98.851562 C 110.550781 98.828125 111.558594 97.800781 111.570312 91.730469 C 111.589844 74.300781 111.589844 56.878906 111.570312 39.449219 C 111.558594 33.441406 110.269531 32.109375 104.140625 32.101562 C 77.351562 32.058594 50.570312 32.070312 23.78125 32.101562 C 17.570312 32.109375 16.320312 33.359375 16.308594 39.378906 C 16.289062 56.808594 16.289062 74.230469 16.308594 91.660156 C 16.320312 97.988281 17.199219 98.839844 23.710938 98.851562 C 37.121094 98.878906 50.511719 98.859375 63.898438 98.859375 Z M 63.898438 98.859375 "/>
<g clip-path="url(#clip1)" clip-rule="nonzero">
<path style=" stroke:none;fill-rule:nonzero;fill:rgb(47.058824%,63.921571%,67.843139%);fill-opacity:1;" d="M 5 114.621094 C 5 80.160156 28.03125 50 41 50 C 54.238281 50 77 80.160156 77 114.621094 C 77 149.070312 60.878906 177 41 177 C 21.121094 177 5 149.070312 5 114.621094 Z M 5 114.621094 "/>
</g>
<g clip-path="url(#clip2)" clip-rule="nonzero">
<path style=" stroke:none;fill-rule:nonzero;fill:rgb(45.882353%,49.803922%,24.705882%);fill-opacity:1;" d="M 73.640625 103.960938 C 73.640625 84.421875 50 68.578125 20.839844 68.578125 C -8.320312 68.578125 -31.960938 84.421875 -31.960938 103.960938 C -31.960938 123.5 -8.320312 139.339844 20.839844 139.339844 C 50 139.339844 73.640625 123.5 73.640625 103.960938 Z M 73.640625 103.960938 "/>
</g>
<g clip-path="url(#clip3)" clip-rule="nonzero">
<path style=" stroke:none;fill-rule:nonzero;fill:rgb(74.117649%,81.176472%,27.450982%);fill-opacity:1;" d="M 177.191406 100.089844 C 177.191406 75.730469 147.71875 55.980469 111.359375 55.980469 C 75.003906 55.980469 45.53125 75.730469 45.53125 100.089844 C 45.53125 124.453125 75.003906 144.199219 111.359375 144.199219 C 147.71875 144.199219 177.191406 124.453125 177.191406 100.089844 Z M 177.191406 100.089844 "/>
</g>
<path style=" stroke:none;fill-rule:nonzero;fill:rgb(98.823529%,76.078433%,10.588235%);fill-opacity:1;" d="M 84.308594 49.679688 C 84.308594 46.199219 81.488281 43.378906 78.011719 43.378906 C 74.53125 43.378906 71.710938 46.199219 71.710938 49.679688 C 71.710938 53.160156 74.53125 55.980469 78.011719 55.980469 C 81.488281 55.980469 84.308594 53.160156 84.308594 49.679688 Z M 84.308594 49.679688 "/>
</g>
</svg>
