<?xml version="1.0" encoding="UTF-8"?>
<svg xmlns="http://www.w3.org/2000/svg" xmlns:xlink="http://www.w3.org/1999/xlink" width="128px" height="128px" viewBox="0 0 128 128" version="1.1">
<g id="surface1">
<path style=" stroke:none;fill-rule:nonzero;fill:rgb(95.686275%,67.058825%,72.941178%);fill-opacity:1;" d="M 82.738281 0.382812 C 91.132812 0.148438 115.078125 9.601562 115.078125 64.890625 C 114.554688 72.019531 113.863281 97.574219 95.953125 110.09375 L 77.003906 110.09375 C 73.351562 108.53125 68.308594 102.097656 68.308594 80.363281 C 68.308594 73.929688 73.394531 56.394531 73.523438 51.5 C 73.8125 40.683594 71.269531 35.410156 66.976562 24.722656 C 61.523438 11.164062 70.21875 0.730469 82.738281 0.382812 Z M 82.738281 0.382812 "/>
<path style=" stroke:none;fill-rule:nonzero;fill:rgb(91.764706%,34.901962%,43.137255%);fill-opacity:1;" d="M 104.5625 26.464844 C 106.804688 32.027344 119.019531 74.21875 95.703125 74.566406 C 89.839844 75.03125 79.304688 73.929688 88.097656 46.457031 C 91.464844 37.589844 83.234375 19.304688 82.480469 15.683594 C 81.359375 10.292969 90.527344 4.554688 96.699219 12.730469 C 102.230469 20.042969 104.5625 26.464844 104.5625 26.464844 Z M 104.5625 26.464844 "/>
<path style=" stroke:none;fill-rule:nonzero;fill:rgb(95.686275%,67.058825%,72.941178%);fill-opacity:1;" d="M 83.203125 73.324219 C 82.199219 73.324219 81.21875 72.804688 80.675781 71.875 C 79.859375 70.476562 80.324219 68.691406 81.722656 67.871094 C 92.863281 61.339844 104.398438 45.859375 107.195312 39.738281 C 107.867188 38.265625 109.597656 37.613281 111.078125 38.292969 C 112.546875 38.964844 113.195312 40.703125 112.523438 42.171875 C 109.371094 49.054688 97.035156 65.683594 84.679688 72.921875 C 84.21875 73.195312 83.707031 73.324219 83.203125 73.324219 Z M 83.203125 73.324219 "/>
<path style=" stroke:none;fill-rule:nonzero;fill:rgb(95.686275%,67.058825%,72.941178%);fill-opacity:1;" d="M 111.714844 62.890625 C 111.488281 62.890625 111.253906 62.867188 111.023438 62.808594 C 105.675781 61.507812 88.996094 53.773438 82.539062 40.371094 C 81.839844 38.910156 82.449219 37.164062 83.902344 36.460938 C 85.367188 35.757812 87.109375 36.375 87.8125 37.828125 C 93.289062 49.191406 107.964844 56.039062 112.40625 57.121094 C 113.976562 57.5 114.941406 59.085938 114.554688 60.65625 C 114.230469 61.996094 113.03125 62.890625 111.714844 62.890625 Z M 43.867188 17.644531 C 35.4375 17.410156 11.382812 26.902344 11.382812 82.441406 C 11.902344 89.605469 12.605469 115.277344 30.59375 127.855469 L 49.628906 127.855469 C 53.296875 126.28125 58.359375 119.820312 58.359375 97.988281 C 58.359375 91.523438 53.390625 73.90625 53.121094 68.996094 C 52.457031 56.902344 55.386719 52.835938 59.699219 42.097656 C 65.175781 28.472656 56.445312 17.996094 43.867188 17.644531 Z M 43.867188 17.644531 "/>
<path style=" stroke:none;fill-rule:nonzero;fill:rgb(91.764706%,34.901962%,43.137255%);fill-opacity:1;" d="M 21.945312 43.84375 C 19.691406 49.433594 7.425781 91.816406 30.839844 92.164062 C 36.730469 92.628906 47.316406 91.523438 38.484375 63.929688 C 35.105469 55.023438 43.367188 36.652344 44.125 33.011719 C 45.25 27.597656 36.042969 21.835938 29.839844 30.042969 C 24.289062 37.394531 21.945312 43.84375 21.945312 43.84375 Z M 21.945312 43.84375 "/>
<path style=" stroke:none;fill-rule:nonzero;fill:rgb(95.686275%,67.058825%,72.941178%);fill-opacity:1;" d="M 43.398438 90.910156 C 42.894531 90.910156 42.382812 90.78125 41.917969 90.511719 C 29.507812 83.238281 17.113281 66.539062 13.949219 59.625 C 13.273438 58.144531 13.921875 56.402344 15.398438 55.726562 C 16.878906 55.050781 18.621094 55.699219 19.296875 57.175781 C 22.113281 63.328125 33.695312 78.878906 44.890625 85.4375 C 46.289062 86.257812 46.757812 88.058594 45.9375 89.460938 C 45.394531 90.394531 44.410156 90.910156 43.398438 90.910156 Z M 43.398438 90.910156 "/>
<path style=" stroke:none;fill-rule:nonzero;fill:rgb(95.686275%,67.058825%,72.941178%);fill-opacity:1;" d="M 14.972656 80.222656 C 13.644531 80.222656 12.445312 79.320312 12.117188 77.976562 C 11.734375 76.402344 12.699219 74.808594 14.277344 74.425781 C 18.710938 73.347656 33.335938 66.535156 38.773438 55.257812 C 39.480469 53.792969 41.242188 53.183594 42.699219 53.882812 C 44.164062 54.589844 44.773438 56.347656 44.070312 57.808594 C 37.152344 72.167969 19.632812 79.175781 15.667969 80.140625 C 15.433594 80.199219 15.199219 80.222656 14.972656 80.222656 Z M 14.972656 80.222656 "/>
</g>
</svg>
