<?xml version="1.0" encoding="UTF-8"?>
<svg xmlns="http://www.w3.org/2000/svg" xmlns:xlink="http://www.w3.org/1999/xlink" width="128px" height="128px" viewBox="0 0 128 128" version="1.1">
<g id="surface1">
<path style=" stroke:none;fill-rule:nonzero;fill:rgb(25.490198%,28.235295%,29.019609%);fill-opacity:1;" d="M 71.078125 63.949219 L 75.769531 54.558594 L 86.28125 41.050781 L 99.800781 31.101562 L 113.308594 24.898438 L 120.589844 24.71875 L 122.421875 27.53125 L 119.320312 41.75 L 114.390625 62.730469 L 111.300781 67.789062 L 103.980469 71.878906 L 96.511719 73 L 104.121094 76.519531 L 109.75 80.890625 L 112.980469 85.390625 L 112.980469 91.449219 L 110.171875 99.328125 L 101.71875 106.089844 L 96.511719 108.058594 L 88.351562 106.089844 L 86.519531 103.980469 L 82.621094 97.78125 L 79.898438 88.488281 L 74.410156 85.671875 L 69.109375 88.578125 L 71.03125 101.019531 L 70.609375 104.960938 L 69.910156 107.78125 L 67.941406 111.71875 L 62.871094 114.671875 L 55.691406 114.820312 L 46.398438 112.28125 L 40.910156 108.058594 L 37.53125 102.429688 L 38.371094 94.96875 L 47.941406 82.71875 L 39.921875 85.671875 L 29.640625 85.960938 L 21.199219 76.800781 L 8.238281 55.828125 L 5.011719 46.539062 L 7.679688 43.71875 L 15.421875 43.71875 L 32.039062 46.398438 L 50.199219 53.578125 L 63.289062 61.039062 Z M 71.078125 63.949219 "/>
<path style=" stroke:none;fill-rule:nonzero;fill:rgb(40.392157%,43.529412%,44.705883%);fill-opacity:1;" d="M 67.019531 46.261719 C 67.019531 46.261719 68.25 34.628906 69.550781 30.070312 C 71.378906 23.660156 76.589844 18.601562 80.949219 18.101562 C 85.308594 17.609375 84.75 20.988281 82.078125 22.390625 C 79.511719 23.738281 76.730469 22.949219 76.730469 22.949219 C 76.730469 22.949219 73.140625 25.570312 71.941406 30.96875 C 70.53125 37.308594 69.410156 47.160156 69.410156 47.160156 Z M 67.019531 46.261719 "/>
<path style=" stroke:none;fill-rule:nonzero;fill:rgb(40.392157%,43.529412%,44.705883%);fill-opacity:1;" d="M 63.148438 47.03125 C 63.148438 47.03125 58.378906 37.339844 53.230469 31.191406 C 48.089844 25.070312 41.550781 24.851562 40.628906 24.78125 C 39.710938 24.710938 35.839844 25.339844 35.839844 27.171875 C 35.839844 29.628906 39.238281 30.070312 41.191406 29.699219 C 43.441406 29.28125 44.5 27.941406 44.5 27.941406 C 44.5 27.941406 48.679688 29.601562 51.46875 32.941406 C 54.710938 36.808594 60.691406 48.5 60.691406 48.5 L 61.109375 50.050781 Z M 63.148438 47.03125 "/>
<path style=" stroke:none;fill-rule:nonzero;fill:rgb(100%,54.509807%,1.176471%);fill-opacity:1;" d="M 54.839844 93.699219 C 53.089844 92.828125 47.800781 97.78125 47.800781 100.179688 C 47.800781 101.75 48.929688 104.398438 51.320312 103.699219 C 53.71875 102.988281 57.101562 94.820312 54.839844 93.699219 Z M 54.839844 93.699219 "/>
<path style=" stroke:none;fill-rule:nonzero;fill:rgb(100%,54.509807%,1.176471%);fill-opacity:1;" d="M 45.410156 93.699219 C 47.660156 95.671875 51.378906 91.75 53.011719 89.199219 C 54.980469 86.101562 55.96875 78.359375 55.398438 78.640625 C 54.839844 78.921875 47.800781 83.988281 47.800781 83.988281 C 47.800781 83.988281 42.460938 91.121094 45.410156 93.699219 Z M 45.410156 93.699219 "/>
<path style=" stroke:none;fill-rule:nonzero;fill:rgb(100%,54.509807%,1.176471%);fill-opacity:1;" d="M 56.109375 103.269531 C 56.109375 105.730469 58.78125 107.488281 61.460938 107.070312 C 62.859375 106.851562 65.371094 105.550781 65.121094 103.269531 C 64.839844 100.738281 63.710938 96.929688 61.039062 96.511719 C 58.359375 96.089844 56.109375 99.191406 56.109375 103.269531 Z M 56.109375 103.269531 "/>
<path style=" stroke:none;fill-rule:nonzero;fill:rgb(100%,54.509807%,1.176471%);fill-opacity:1;" d="M 71.011719 83.910156 C 71.011719 83.910156 67.320312 91.660156 66.519531 93.550781 C 65.390625 96.21875 65.351562 102.890625 68.351562 103.96875 C 70.488281 104.738281 71.019531 101.011719 71.019531 101.011719 C 71.019531 101.011719 71.390625 93.371094 71.390625 90.839844 C 71.398438 88.308594 71.011719 83.910156 71.011719 83.910156 Z M 71.011719 83.910156 "/>
<path style=" stroke:none;fill-rule:nonzero;fill:rgb(100%,54.509807%,1.176471%);fill-opacity:1;" d="M 73.851562 75.121094 C 73.851562 75.121094 80.890625 83.289062 83 84.828125 C 85.109375 86.378906 88.769531 90.738281 93.558594 87.5 C 98.351562 84.261719 85.390625 73.421875 84.269531 72.578125 C 83.140625 71.738281 73 71.601562 73 71.601562 Z M 73.851562 75.121094 "/>
<path style=" stroke:none;fill-rule:nonzero;fill:rgb(100%,54.509807%,1.176471%);fill-opacity:1;" d="M 76.378906 83 C 76.378906 83 81.300781 87.488281 82.289062 88.488281 C 84.398438 90.601562 86.789062 92.558594 87.78125 95.53125 C 88.339844 97.21875 89.191406 99.75 87.359375 100.738281 C 85.851562 101.550781 83.960938 99.351562 83.28125 98.628906 C 82.589844 97.910156 79.949219 92.101562 78.410156 88.789062 C 77.769531 87.429688 76.378906 83 76.378906 83 Z M 76.378906 83 "/>
<path style=" stroke:none;fill-rule:nonzero;fill:rgb(100%,54.509807%,1.176471%);fill-opacity:1;" d="M 90.738281 91.449219 C 89.609375 92.96875 91.058594 98.210938 92.570312 99.191406 C 95.390625 101.019531 98.761719 97.78125 98.761719 96.230469 C 98.769531 94.679688 93.128906 88.210938 90.738281 91.449219 Z M 90.738281 91.449219 "/>
<path style=" stroke:none;fill-rule:nonzero;fill:rgb(100%,54.509807%,1.176471%);fill-opacity:1;" d="M 88.910156 72.019531 C 88.910156 72.019531 95.101562 81.730469 98.480469 83.699219 C 101.859375 85.671875 104.519531 85.449219 105.519531 83.699219 C 107.769531 79.761719 98.058594 74.410156 98.058594 74.410156 Z M 88.910156 72.019531 "/>
<path style=" stroke:none;fill-rule:nonzero;fill:rgb(100%,54.509807%,1.176471%);fill-opacity:1;" d="M 96.648438 87.21875 C 95.808594 89.050781 99.320312 94.398438 101.71875 94.398438 C 104.121094 94.398438 104.980469 91.011719 104.820312 89.898438 C 104.539062 87.929688 98.089844 84.101562 96.648438 87.21875 Z M 96.648438 87.21875 "/>
<path style=" stroke:none;fill-rule:nonzero;fill:rgb(100%,54.509807%,1.176471%);fill-opacity:1;" d="M 61.601562 75.398438 C 61.601562 75.398438 55.109375 86.058594 57.101562 91.308594 C 58.648438 95.390625 62.871094 94.691406 66.53125 87.789062 C 70.191406 80.890625 70.890625 76.53125 70.890625 76.53125 L 69.761719 72.589844 Z M 61.601562 75.398438 "/>
<path style=" stroke:none;fill-rule:nonzero;fill:rgb(40.392157%,43.529412%,44.705883%);fill-opacity:1;" d="M 63.988281 60.328125 C 63.988281 60.328125 58.21875 55.121094 46.53125 50.191406 C 34.839844 45.261719 24.429688 42.171875 15.140625 42.308594 C 5.851562 42.449219 4.441406 44.558594 4.019531 46.25 C 3.601562 47.941406 5.261719 53.269531 7.121094 56.53125 C 9.371094 60.46875 17.820312 74.128906 20.78125 78.351562 C 23.328125 82 25.089844 86.050781 30.628906 87.359375 C 36.78125 88.808594 44.289062 85.671875 44.289062 85.671875 C 44.289062 85.671875 37.109375 92.148438 36.691406 99.039062 C 36.269531 105.941406 39.929688 110.871094 47.53125 113.539062 C 55.128906 116.210938 66.230469 118.261719 69.769531 109.878906 C 70.800781 107.441406 70.609375 104.949219 70.609375 104.949219 C 70.609375 104.949219 68.050781 112.261719 64.128906 112.96875 C 61.03125 113.53125 61.460938 111.699219 58.640625 111.421875 C 55.820312 111.140625 56.25 113.25 53.289062 113.25 C 51.019531 113.25 51.738281 111.421875 49.351562 110.148438 C 46.960938 108.878906 45.601562 110.929688 44.140625 109.730469 C 41.75 107.761719 44 106.769531 43.011719 105.230469 C 42.019531 103.679688 39.75 103.210938 39.210938 101.289062 C 38.21875 97.769531 40.199219 95.101562 42.308594 92 C 44.421875 88.898438 48.21875 84.398438 51.179688 82.289062 C 54.140625 80.179688 68.710938 73.230469 68.710938 73.230469 C 68.710938 73.230469 69.480469 70.609375 68.359375 70.75 C 67.230469 70.890625 54 77.929688 51.601562 79.480469 C 49.210938 81.03125 38.859375 86.390625 31.328125 84.691406 C 26.96875 83.699219 19.101562 69.820312 15.921875 65.5 C 12.738281 61.179688 7.238281 50.578125 7.679688 47.519531 C 8.089844 44.699219 12.890625 44.140625 20.210938 44.988281 C 27.53125 45.828125 34.011719 48.089844 43.160156 51.890625 C 52.308594 55.691406 62.730469 62.730469 64 62.730469 C 65.261719 62.730469 63.988281 60.328125 63.988281 60.328125 Z M 63.988281 60.328125 "/>
<path style=" stroke:none;fill-rule:nonzero;fill:rgb(40.392157%,43.529412%,44.705883%);fill-opacity:1;" d="M 72.578125 62.019531 C 72.578125 62.019531 71.449219 59.300781 73.421875 55.921875 C 75.390625 52.539062 81.730469 43.019531 88.199219 37.238281 C 94.679688 31.46875 116.5 19.5 121.421875 23.019531 C 126.351562 26.539062 121 40.378906 119.871094 45.121094 C 118.890625 49.25 117.621094 62.53125 112.828125 68.070312 C 109.109375 72.378906 101.148438 73.839844 101.148438 73.839844 C 101.148438 73.839844 114.089844 80.050781 114.660156 88.199219 C 115.359375 98.199219 103.679688 109.621094 94.949219 109.320312 C 88.238281 109.089844 86.5 103.96875 86.5 103.96875 C 86.5 103.96875 92.691406 107.488281 95.230469 106.789062 C 97.761719 106.089844 95.929688 103.691406 98.328125 102.289062 C 100.730469 100.890625 102.691406 104.539062 104.519531 102.851562 C 106.351562 101.160156 104.941406 99.609375 106.210938 97.921875 C 107.480469 96.230469 109.308594 97.921875 110.429688 96.371094 C 111.558594 94.820312 110.429688 92.710938 110.988281 91.300781 C 111.550781 89.890625 112.679688 89.609375 112.539062 87.5 C 112.398438 85.390625 108.460938 80.460938 103.53125 78.070312 C 98.601562 75.679688 93.25 74.550781 88.890625 73.710938 C 84.53125 72.871094 73.261719 72.109375 73.261719 72.109375 C 73.261719 72.109375 72.269531 69.808594 72.839844 69.898438 C 73.96875 70.089844 76.78125 70.320312 81.011719 70.460938 C 89.550781 70.738281 103.25 72.710938 109.308594 67.929688 C 115.371094 63.148438 116.351562 49.628906 116.910156 46.109375 C 117.46875 42.589844 122.820312 27.101562 119.730469 25.558594 C 116.628906 24.011719 101.390625 30.171875 93.03125 36.628906 C 84.671875 43.089844 78.628906 52.03125 76.800781 55.691406 C 74.96875 59.351562 72.578125 62.019531 72.578125 62.019531 Z M 72.578125 62.019531 "/>
<path style=" stroke:none;fill-rule:nonzero;fill:rgb(25.490198%,28.235295%,29.019609%);fill-opacity:1;" d="M 72.410156 58.679688 C 73.179688 57.621094 74.359375 56.789062 73.851562 51.609375 C 73.289062 45.910156 68.390625 44.46875 64.519531 45.308594 C 61.378906 45.988281 56.949219 48.941406 59.351562 56.039062 C 61.46875 62.351562 68.640625 60.398438 68.640625 60.398438 C 68.640625 60.398438 71.628906 59.730469 72.410156 58.679688 Z M 72.410156 58.679688 "/>
<path style=" stroke:none;fill-rule:nonzero;fill:rgb(98.823529%,99.215686%,98.039216%);fill-opacity:1;" d="M 97.394531 36.703125 C 96.726562 35.703125 95.160156 35.574219 93.898438 36.417969 C 92.632812 37.257812 92.152344 38.753906 92.820312 39.757812 C 93.488281 40.757812 95.054688 40.886719 96.316406 40.042969 C 97.582031 39.199219 98.0625 37.703125 97.394531 36.703125 Z M 97.394531 36.703125 "/>
<path style=" stroke:none;fill-rule:nonzero;fill:rgb(98.823529%,99.215686%,98.039216%);fill-opacity:1;" d="M 117.210938 41.46875 C 116.578125 40.441406 115.199219 40.210938 114.039062 41.191406 C 113.25 41.851562 112.601562 43.429688 113.269531 44.429688 C 113.941406 45.429688 115.410156 45.550781 116.371094 44.78125 C 117.550781 43.828125 117.78125 42.410156 117.210938 41.46875 Z M 117.210938 41.46875 "/>
<path style=" stroke:none;fill-rule:nonzero;fill:rgb(98.823529%,99.215686%,98.039216%);fill-opacity:1;" d="M 104.328125 35.128906 C 103.660156 34.128906 101.859375 34.011719 100.601562 34.851562 C 99.339844 35.691406 98.390625 37.261719 99.398438 38.789062 C 100.101562 39.851562 101.710938 39.828125 103.269531 38.929688 C 104.75 38.089844 105 36.140625 104.328125 35.128906 Z M 104.328125 35.128906 "/>
<path style=" stroke:none;fill-rule:nonzero;fill:rgb(98.823529%,99.215686%,98.039216%);fill-opacity:1;" d="M 121.21875 26.050781 C 121.21875 27.140625 120.519531 28.230469 119.039062 28.019531 C 117.691406 27.828125 117.070312 27.320312 117.070312 25.839844 C 117.070312 24.75 118.109375 24.078125 119.21875 24.078125 C 120.328125 24.078125 121.21875 24.960938 121.21875 26.050781 Z M 121.21875 26.050781 "/>
<path style=" stroke:none;fill-rule:nonzero;fill:rgb(98.823529%,99.215686%,98.039216%);fill-opacity:1;" d="M 119.53125 34.640625 C 119.53125 35.730469 118.449219 36.679688 117.351562 36.609375 C 116.289062 36.539062 115.378906 35.910156 115.378906 34.429688 C 115.378906 33.339844 116.449219 32.53125 117.558594 32.53125 C 118.671875 32.53125 119.53125 33.550781 119.53125 34.640625 Z M 119.53125 34.640625 "/>
<path style=" stroke:none;fill-rule:nonzero;fill:rgb(98.823529%,99.215686%,98.039216%);fill-opacity:1;" d="M 115.941406 53.679688 C 115.941406 52.492188 114.976562 51.53125 113.789062 51.53125 C 112.601562 51.53125 111.640625 52.492188 111.640625 53.679688 C 111.640625 54.867188 112.601562 55.828125 113.789062 55.828125 C 114.976562 55.828125 115.941406 54.867188 115.941406 53.679688 Z M 115.941406 53.679688 "/>
<path style=" stroke:none;fill-rule:nonzero;fill:rgb(98.823529%,99.215686%,98.039216%);fill-opacity:1;" d="M 22.609375 72.300781 C 22.609375 71.25 21.773438 70.398438 20.738281 70.398438 C 19.707031 70.398438 18.871094 71.25 18.871094 72.300781 C 18.871094 73.347656 19.707031 74.199219 20.738281 74.199219 C 21.773438 74.199219 22.609375 73.347656 22.609375 72.300781 Z M 22.609375 72.300781 "/>
<path style=" stroke:none;fill-rule:nonzero;fill:rgb(98.823529%,99.215686%,98.039216%);fill-opacity:1;" d="M 10 45.96875 C 10.828125 47.078125 10.179688 48.320312 9.140625 49.171875 C 8.109375 50.019531 6.691406 50 5.980469 49.128906 C 5.269531 48.261719 5.53125 46.859375 6.570312 46.011719 C 7.609375 45.160156 9.191406 44.871094 10 45.96875 Z M 10 45.96875 "/>
<path style=" stroke:none;fill-rule:nonzero;fill:rgb(98.823529%,99.215686%,98.039216%);fill-opacity:1;" d="M 16.738281 60.878906 C 18.160156 61.160156 18.550781 62.410156 18.359375 63.621094 C 18.171875 64.839844 17.078125 65.679688 15.921875 65.5 C 14.761719 65.320312 13.96875 64.191406 14.148438 62.96875 C 14.328125 61.75 15.339844 60.609375 16.738281 60.878906 Z M 16.738281 60.878906 "/>
<path style=" stroke:none;fill-rule:nonzero;fill:rgb(98.823529%,99.215686%,98.039216%);fill-opacity:1;" d="M 12.460938 53.78125 C 13.488281 54.800781 13.121094 56.050781 12.289062 56.960938 C 11.460938 57.871094 10.089844 57.96875 9.21875 57.171875 C 8.351562 56.378906 8.320312 55 9.148438 54.089844 C 9.980469 53.179688 11.449219 52.769531 12.460938 53.78125 Z M 12.460938 53.78125 "/>
<path style=" stroke:none;fill-rule:nonzero;fill:rgb(98.823529%,99.215686%,98.039216%);fill-opacity:1;" d="M 29.769531 49.609375 C 30.808594 50.429688 30.511719 51.75 29.75 52.808594 C 28.988281 53.871094 27.671875 54.230469 26.789062 53.609375 C 25.910156 52.988281 25.820312 51.621094 26.578125 50.550781 C 27.339844 49.488281 28.738281 48.800781 29.769531 49.609375 Z M 29.769531 49.609375 "/>
<path style=" stroke:none;fill-rule:nonzero;fill:rgb(98.823529%,99.215686%,98.039216%);fill-opacity:1;" d="M 26.550781 48.96875 C 26.511719 50.328125 25.238281 50.890625 23.910156 50.898438 C 22.578125 50.921875 21.488281 50.03125 21.480469 48.929688 C 21.46875 47.820312 22.53125 46.910156 23.859375 46.898438 C 25.191406 46.878906 26.589844 47.621094 26.550781 48.96875 Z M 26.550781 48.96875 "/>
<path style=" stroke:none;fill-rule:nonzero;fill:rgb(98.823529%,99.215686%,98.039216%);fill-opacity:1;" d="M 43.859375 99.191406 C 43.859375 100.421875 43.078125 101.410156 41.851562 101.410156 C 40.621094 101.410156 39.628906 100.410156 39.628906 99.171875 C 39.628906 97.941406 40.621094 96.929688 41.851562 96.929688 C 43.078125 96.929688 43.859375 97.949219 43.859375 99.191406 Z M 43.859375 99.191406 "/>
<path style=" stroke:none;fill-rule:nonzero;fill:rgb(98.823529%,99.215686%,98.039216%);fill-opacity:1;" d="M 47.589844 107.070312 C 46.789062 108.019531 45.148438 107.878906 44.308594 107.179688 C 43.480469 106.480469 43.449219 105.140625 44.25 104.191406 C 45.050781 103.238281 46.371094 103.03125 47.210938 103.730469 C 48.039062 104.429688 48.390625 106.121094 47.589844 107.070312 Z M 47.589844 107.070312 "/>
<path style=" stroke:none;fill-rule:nonzero;fill:rgb(98.823529%,99.215686%,98.039216%);fill-opacity:1;" d="M 109.183594 92.613281 C 108.640625 91.808594 107.429688 91.675781 106.476562 92.316406 C 105.523438 92.960938 105.191406 94.132812 105.734375 94.9375 C 106.277344 95.746094 107.492188 95.878906 108.441406 95.238281 C 109.394531 94.59375 109.726562 93.421875 109.183594 92.613281 Z M 109.183594 92.613281 "/>
<path style=" stroke:none;fill-rule:nonzero;fill:rgb(98.823529%,99.215686%,98.039216%);fill-opacity:1;" d="M 111.503906 85.984375 C 110.886719 85.070312 109.613281 84.847656 108.660156 85.488281 C 107.707031 86.128906 107.433594 87.394531 108.050781 88.308594 C 108.667969 89.226562 109.941406 89.445312 110.894531 88.804688 C 111.847656 88.164062 112.121094 86.902344 111.503906 85.984375 Z M 111.503906 85.984375 "/>
<path style=" stroke:none;fill-rule:nonzero;fill:rgb(100%,54.509807%,1.176471%);fill-opacity:1;" d="M 95.199219 43.488281 C 91.710938 42.039062 88.070312 43.960938 83.941406 49.871094 C 79.808594 55.78125 77.558594 59.910156 79.339844 61.410156 C 81.121094 62.910156 89.339844 55.25 91.070312 53.898438 C 93.601562 51.929688 99.050781 45.078125 95.199219 43.488281 Z M 95.199219 43.488281 "/>
<path style=" stroke:none;fill-rule:nonzero;fill:rgb(100%,54.509807%,1.176471%);fill-opacity:1;" d="M 88.160156 60 C 90.480469 58.679688 97.261719 59.25 100.921875 59.058594 C 103.359375 58.929688 106.929688 59.308594 107.019531 60.558594 C 107.210938 63.089844 106.269531 64.691406 103.078125 65.820312 C 99.890625 66.949219 92.378906 67.128906 87.589844 67.230469 C 84.769531 67.289062 82.179688 67.570312 81.859375 66.289062 C 81.679688 65.539062 84.03125 62.351562 88.160156 60 Z M 88.160156 60 "/>
<path style=" stroke:none;fill-rule:nonzero;fill:rgb(100%,54.509807%,1.176471%);fill-opacity:1;" d="M 99.238281 48.929688 C 101.398438 49.308594 108.339844 49.121094 110.308594 47.621094 C 111.511719 46.699219 112.191406 42.828125 110.308594 41.988281 C 108.429688 41.148438 103.078125 41.328125 101.019531 42.929688 C 99.75 43.898438 97.398438 48.609375 99.238281 48.929688 Z M 99.238281 48.929688 "/>
<path style=" stroke:none;fill-rule:nonzero;fill:rgb(100%,54.509807%,1.176471%);fill-opacity:1;" d="M 109.46875 31.289062 C 109.109375 33.5 112.660156 33.449219 114.261719 32.980469 C 115.859375 32.511719 118.011719 29.980469 116.980469 28.660156 C 115.941406 27.339844 109.929688 28.378906 109.46875 31.289062 Z M 109.46875 31.289062 "/>
<path style=" stroke:none;fill-rule:nonzero;fill:rgb(100%,54.509807%,1.176471%);fill-opacity:1;" d="M 106.929688 36.730469 C 106.929688 38.328125 108.238281 38.890625 110.121094 38.890625 C 112 38.890625 113.21875 37.699219 113.21875 36.449219 C 113.21875 34.761719 111.621094 34.101562 109.558594 34.480469 C 107.988281 34.761719 106.929688 35.421875 106.929688 36.730469 Z M 106.929688 36.730469 "/>
<path style=" stroke:none;fill-rule:nonzero;fill:rgb(100%,54.509807%,1.176471%);fill-opacity:1;" d="M 94.359375 56.160156 C 94.359375 57.359375 97.738281 57 102.621094 57 C 107.5 57 108.628906 56.25 109.191406 54.371094 C 109.75 52.488281 109.570312 51.269531 106.660156 51.179688 C 103.75 51.089844 98.03125 51.371094 96.339844 52.589844 C 95.570312 53.140625 94.359375 55.21875 94.359375 56.160156 Z M 94.359375 56.160156 "/>
<path style=" stroke:none;fill-rule:nonzero;fill:rgb(100%,54.509807%,1.176471%);fill-opacity:1;" d="M 29.128906 75.578125 C 28.929688 77.730469 30.820312 80.460938 36.449219 79.988281 C 42.078125 79.519531 48.75 76.199219 50.53125 75.390625 C 53.808594 73.890625 56.820312 72.671875 56.820312 71.171875 C 56.820312 69.480469 53.070312 68.921875 48 68.449219 C 42.929688 67.980469 39.179688 68.921875 34.949219 71.269531 C 31.421875 73.230469 29.21875 74.550781 29.128906 75.578125 Z M 29.128906 75.578125 "/>
<path style=" stroke:none;fill-rule:nonzero;fill:rgb(100%,54.509807%,1.176471%);fill-opacity:1;" d="M 23.589844 68.171875 C 23.421875 69.46875 25.558594 72.578125 26.96875 72.671875 C 28.378906 72.761719 35.789062 68.820312 35.980469 67.511719 C 36.171875 66.199219 34.289062 64.128906 32.789062 63.761719 C 31.289062 63.378906 23.78125 66.761719 23.589844 68.171875 Z M 23.589844 68.171875 "/>
<path style=" stroke:none;fill-rule:nonzero;fill:rgb(100%,54.509807%,1.176471%);fill-opacity:1;" d="M 32.789062 53.808594 C 30.53125 56.070312 33.171875 60.289062 38.050781 62.730469 C 42.929688 65.171875 50.71875 65.828125 53.820312 66.300781 C 56.921875 66.769531 59.171875 66.859375 59.640625 65.921875 C 60.648438 63.910156 53.160156 60.191406 46.21875 56.910156 C 41.890625 54.859375 34.570312 52.03125 32.789062 53.808594 Z M 32.789062 53.808594 "/>
<path style=" stroke:none;fill-rule:nonzero;fill:rgb(100%,54.509807%,1.176471%);fill-opacity:1;" d="M 10.730469 49.210938 C 11.011719 52.03125 18.519531 51.308594 18.609375 48.550781 C 18.710938 45.828125 10.449219 46.398438 10.730469 49.210938 Z M 10.730469 49.210938 "/>
<path style=" stroke:none;fill-rule:nonzero;fill:rgb(100%,54.509807%,1.176471%);fill-opacity:1;" d="M 15.609375 55.78125 C 16.78125 57.730469 21.621094 55.96875 20.019531 53.429688 C 18.5 51.019531 13.921875 52.96875 15.609375 55.78125 Z M 15.609375 55.78125 "/>
<path style=" stroke:none;fill-rule:nonzero;fill:rgb(100%,54.509807%,1.176471%);fill-opacity:1;" d="M 20.871094 63.570312 C 21.640625 64.878906 24.199219 64.789062 26.601562 63.660156 C 28.199219 62.910156 30.300781 61.371094 29.878906 59.53125 C 29.410156 57.46875 25.558594 57.179688 23.03125 58.398438 C 21.238281 59.269531 19.269531 60.851562 20.871094 63.570312 Z M 20.871094 63.570312 "/>
<path style=" stroke:none;fill-rule:nonzero;fill:rgb(40.392157%,43.529412%,44.705883%);fill-opacity:1;" d="M 74.058594 71.238281 L 67.789062 73 C 67.789062 73 69.730469 81.398438 70.460938 84.539062 C 71.230469 87.851562 76.160156 111.710938 80.03125 111.078125 C 84.019531 110.429688 77.359375 85.738281 76.71875 83.058594 C 76.121094 80.488281 74.058594 71.238281 74.058594 71.238281 Z M 74.058594 71.238281 "/>
<path style=" stroke:none;fill-rule:nonzero;fill:rgb(25.490198%,28.235295%,29.019609%);fill-opacity:1;" d="M 73.429688 82.511719 C 75.28125 82.109375 76.300781 81 76.300781 81 L 77.53125 86.300781 C 77.53125 86.300781 76.601562 87.160156 74.769531 87.578125 C 72.75 88.050781 71.179688 87.691406 71.179688 87.691406 L 69.96875 82.429688 C 69.960938 82.421875 71.449219 82.929688 73.429688 82.511719 Z M 73.429688 82.511719 "/>
<path style=" stroke:none;fill-rule:nonzero;fill:rgb(25.490198%,28.235295%,29.019609%);fill-opacity:1;" d="M 67.789062 73 L 74.050781 71.238281 L 74.980469 75.460938 C 74.980469 75.460938 73.328125 76.289062 71.988281 76.570312 C 70.648438 76.851562 68.679688 76.871094 68.679688 76.871094 Z M 67.789062 73 "/>
<path style=" stroke:none;fill-rule:nonzero;fill:rgb(25.490198%,28.235295%,29.019609%);fill-opacity:1;" d="M 72.300781 92.5 C 72.300781 92.5 74.078125 92.710938 75.699219 92.359375 C 77.320312 92.011719 78.671875 90.96875 78.671875 90.96875 L 79.710938 95.628906 C 79.710938 95.628906 78.171875 96.71875 76.761719 96.980469 C 75.308594 97.25 73.480469 97.089844 73.5 97.089844 Z M 72.300781 92.5 "/>
<path style=" stroke:none;fill-rule:nonzero;fill:rgb(18.82353%,18.82353%,19.215687%);fill-opacity:1;" d="M 67.230469 56.671875 C 65.039062 57.28125 63.398438 58.640625 63.289062 61.03125 C 63.148438 64.128906 63.851562 65.960938 64.699219 68.910156 C 65.238281 70.800781 65.871094 75.128906 71.601562 73.699219 C 75.539062 72.710938 75.121094 69.050781 74.980469 66.378906 C 74.839844 63.691406 74.28125 60.191406 73.289062 58.640625 C 72.371094 57.199219 69.769531 55.96875 67.230469 56.671875 Z M 67.230469 56.671875 "/>
<path style=" stroke:none;fill-rule:nonzero;fill:rgb(18.82353%,18.82353%,19.215687%);fill-opacity:1;" d="M 72.539062 47.421875 C 73.410156 48.710938 73.441406 50.488281 72.300781 51.25 C 71.171875 52.011719 69.300781 51.46875 68.429688 50.179688 C 67.558594 48.890625 67.78125 47.230469 68.910156 46.460938 C 70.050781 45.699219 71.671875 46.128906 72.539062 47.421875 Z M 72.539062 47.421875 "/>
<path style=" stroke:none;fill-rule:nonzero;fill:rgb(18.82353%,18.82353%,19.215687%);fill-opacity:1;" d="M 63.300781 51.578125 C 62.878906 53.078125 61.441406 54.160156 60.128906 53.789062 C 58.808594 53.421875 58.121094 51.761719 58.53125 50.261719 C 58.949219 48.761719 60.351562 47.839844 61.671875 48.210938 C 62.988281 48.578125 63.710938 50.078125 63.300781 51.578125 Z M 63.300781 51.578125 "/>
</g>
</svg>
