<?xml version="1.0" encoding="UTF-8"?>
<svg xmlns="http://www.w3.org/2000/svg" xmlns:xlink="http://www.w3.org/1999/xlink" width="128px" height="128px" viewBox="0 0 128 128" version="1.1">
<g id="surface1">
<path style=" stroke:none;fill-rule:nonzero;fill:rgb(89.411765%,58.431375%,0%);fill-opacity:1;" d="M 51.691406 90.179688 L 42.609375 90.179688 L 42.609375 99.769531 C 42.609375 104.109375 46.308594 107.628906 50.871094 107.628906 L 52.519531 107.628906 C 57.078125 107.628906 60.78125 104.109375 60.78125 99.769531 L 60.78125 90.179688 Z M 51.691406 90.179688 "/>
<path style=" stroke:none;fill-rule:nonzero;fill:rgb(89.019608%,58.039218%,0%);fill-opacity:1;" d="M 83.878906 52.28125 C 83.878906 52.28125 89.769531 53.300781 89.769531 59.648438 C 89.769531 65.25 85.46875 67.460938 81.171875 67.460938 L 81.171875 52.28125 Z M 83.878906 52.28125 "/>
<path style=" stroke:none;fill-rule:nonzero;fill:rgb(89.019608%,58.039218%,0%);fill-opacity:1;" d="M 19.601562 52.28125 C 19.601562 52.28125 13.710938 53.300781 13.710938 59.648438 C 13.710938 65.25 18.011719 67.460938 22.308594 67.460938 L 22.308594 52.28125 Z M 19.601562 52.28125 "/>
<path style=" stroke:none;fill-rule:nonzero;fill:rgb(98.039216%,75.294119%,10.588235%);fill-opacity:1;" d="M 51.738281 10.71875 C 26.339844 10.71875 19.699219 30.410156 19.699219 58.070312 C 19.699219 86.75 38.128906 94.171875 51.738281 94.171875 C 65.148438 94.171875 83.78125 86.96875 83.78125 58.070312 C 83.78125 30.410156 77.140625 10.71875 51.738281 10.71875 Z M 51.738281 10.71875 "/>
<path style=" stroke:none;fill-rule:nonzero;fill:rgb(26.666668%,26.666668%,26.666668%);fill-opacity:1;" d="M 41.191406 60.628906 C 41.191406 63.488281 39.28125 65.800781 36.910156 65.800781 C 34.550781 65.800781 32.621094 63.480469 32.621094 60.628906 C 32.621094 57.769531 34.539062 55.449219 36.910156 55.449219 C 39.28125 55.460938 41.191406 57.769531 41.191406 60.628906 "/>
<path style=" stroke:none;fill-rule:nonzero;fill:rgb(26.666668%,26.666668%,26.666668%);fill-opacity:1;" d="M 62.289062 60.628906 C 62.289062 63.488281 64.199219 65.800781 66.578125 65.800781 C 68.941406 65.800781 70.859375 63.480469 70.859375 60.628906 C 70.859375 57.769531 68.941406 55.449219 66.578125 55.449219 C 64.199219 55.460938 62.289062 57.769531 62.289062 60.628906 "/>
<path style=" stroke:none;fill-rule:nonzero;fill:rgb(31.764707%,24.705882%,20.784314%);fill-opacity:1;" d="M 61.011719 78.101562 C 59.710938 78.101562 51.738281 78.101562 51.738281 78.101562 C 51.738281 78.101562 43.761719 78.101562 42.46875 78.101562 C 41.410156 78.101562 40.949219 78.808594 41.648438 79.890625 C 42.628906 81.390625 46.289062 84.269531 51.738281 84.269531 C 57.191406 84.269531 60.851562 81.390625 61.828125 79.890625 C 62.53125 78.820312 62.078125 78.101562 61.011719 78.101562 Z M 61.011719 78.101562 "/>
<path style=" stroke:none;fill-rule:nonzero;fill:rgb(89.019608%,58.039218%,0%);fill-opacity:1;" d="M 56.21875 70.21875 C 54.640625 70.671875 53 70.878906 51.738281 70.878906 C 50.480469 70.878906 48.839844 70.660156 47.261719 70.21875 C 46.589844 70.03125 46.320312 70.671875 46.558594 71.089844 C 47.058594 71.96875 49.078125 73.75 51.738281 73.75 C 54.398438 73.75 56.421875 71.96875 56.921875 71.089844 C 57.160156 70.671875 56.898438 70.03125 56.21875 70.21875 Z M 56.21875 70.21875 "/>
<path style=" stroke:none;fill-rule:nonzero;fill:rgb(42.745098%,29.803923%,25.490198%);fill-opacity:1;" d="M 52.511719 7.101562 C 52.511719 7.101562 52.011719 7.078125 51.800781 7.089844 C 51.589844 7.089844 51.089844 7.101562 51.089844 7.101562 C 23.679688 7.628906 17.539062 24.320312 15.421875 35.558594 C 13.558594 45.421875 15.429688 54.839844 15.429688 54.839844 C 15.429688 54.839844 15.871094 54.390625 16.671875 53.761719 C 17.53125 53.089844 18.480469 52.71875 18.480469 52.71875 L 19.859375 62 L 28.988281 42.921875 C 29.050781 42.800781 29.171875 42.730469 29.300781 42.75 L 34.710938 43.351562 C 40.148438 43.949219 45.621094 44.25 51.078125 44.261719 L 51.078125 44.269531 C 51.320312 44.269531 51.550781 44.261719 51.789062 44.261719 C 52.03125 44.261719 52.261719 44.269531 52.5 44.269531 L 52.5 44.261719 C 57.960938 44.238281 63.429688 43.949219 68.871094 43.351562 L 74.28125 42.75 C 74.410156 42.738281 74.53125 42.808594 74.589844 42.921875 L 83.71875 62 L 85.101562 52.71875 C 85.101562 52.71875 86.050781 53.101562 86.910156 53.761719 C 87.71875 54.390625 88.148438 54.839844 88.148438 54.839844 C 88.148438 54.839844 90.039062 46.789062 90.039062 35.671875 C 90.050781 24.230469 79.910156 7.628906 52.511719 7.101562 Z M 52.511719 7.101562 "/>
<path style=" stroke:none;fill-rule:nonzero;fill:rgb(76.862746%,77.64706%,78.039217%);fill-opacity:1;" d="M 8.171875 118.03125 L 8.171875 128 L 95.308594 128 L 95.308594 118.03125 C 95.308594 102.859375 74.160156 98.03125 52.300781 98.058594 C 30.589844 98.078125 8.171875 101.960938 8.171875 118.03125 Z M 8.171875 118.03125 "/>
<path style=" stroke:none;fill-rule:nonzero;fill:rgb(8.235294%,39.607844%,75.294119%);fill-opacity:1;" d="M 46.328125 92.148438 L 37.460938 92.148438 C 37.300781 92.148438 37.140625 92.160156 36.980469 92.179688 L 36.980469 100.601562 L 51.710938 100.601562 C 51.730469 100.328125 51.738281 100.058594 51.738281 99.789062 C 51.738281 95.589844 49.308594 92.148438 46.328125 92.148438 Z M 46.328125 92.148438 "/>
<path style=" stroke:none;fill-rule:nonzero;fill:rgb(8.235294%,39.607844%,75.294119%);fill-opacity:1;" d="M 57.148438 92.148438 L 66.019531 92.148438 C 66.179688 92.148438 66.339844 92.160156 66.5 92.179688 L 66.5 100.601562 L 51.769531 100.601562 C 51.75 100.328125 51.738281 100.058594 51.738281 99.789062 C 51.738281 95.589844 54.179688 92.148438 57.148438 92.148438 Z M 57.148438 92.148438 "/>
<path style=" stroke:none;fill-rule:nonzero;fill:rgb(58.431375%,58.823532%,60.000002%);fill-opacity:1;" d="M 50.808594 103.5 L 53.808594 103.5 L 53.808594 128 L 50.808594 128 Z M 50.808594 103.5 "/>
<path style=" stroke:none;fill-rule:nonzero;fill:rgb(58.431375%,58.823532%,60.000002%);fill-opacity:1;" d="M 61.511719 108.691406 C 61.511719 107.425781 60.484375 106.398438 59.21875 106.398438 C 57.957031 106.398438 56.929688 107.425781 56.929688 108.691406 C 56.929688 109.953125 57.957031 110.980469 59.21875 110.980469 C 60.484375 110.980469 61.511719 109.953125 61.511719 108.691406 Z M 61.511719 108.691406 "/>
<path style=" stroke:none;fill-rule:nonzero;fill:rgb(58.431375%,58.823532%,60.000002%);fill-opacity:1;" d="M 61.511719 120.210938 C 61.511719 118.945312 60.484375 117.921875 59.21875 117.921875 C 57.957031 117.921875 56.929688 118.945312 56.929688 120.210938 C 56.929688 121.476562 57.957031 122.5 59.21875 122.5 C 60.484375 122.5 61.511719 121.476562 61.511719 120.210938 Z M 61.511719 120.210938 "/>
<path style=" stroke:none;fill-rule:nonzero;fill:rgb(98.431373%,75.686276%,10.588235%);fill-opacity:1;" d="M 101.859375 107.609375 C 103.359375 107.980469 104.320312 109.039062 104.988281 110.359375 C 106.660156 110.058594 109.539062 109.761719 110.378906 109.78125 C 111.371094 109.808594 112.679688 109.921875 112.898438 111.949219 C 113.039062 113.269531 112.539062 114.359375 110.851562 114.519531 C 110.21875 114.578125 109.570312 114.621094 108.929688 114.648438 L 109.160156 115.390625 C 109.75 115.378906 110.28125 115.359375 110.691406 115.359375 C 112.398438 115.339844 113.371094 116.25 113.371094 118.058594 C 113.371094 119.648438 112 120.398438 111 120.460938 C 110.46875 120.488281 108.988281 120.410156 107.53125 120.269531 L 107.378906 120.578125 L 107.320312 120.671875 C 108.238281 120.808594 109.121094 120.960938 109.738281 121.070312 C 111.410156 121.371094 112.210938 122.480469 112.019531 123.800781 C 111.789062 125.398438 110.359375 125.839844 109.371094 125.808594 C 108.628906 125.789062 106.03125 125.378906 104.289062 125.011719 L 103.949219 125.5 C 104.070312 125.519531 104.199219 125.539062 104.339844 125.558594 C 104.359375 125.558594 104.378906 125.570312 104.410156 125.570312 C 104.53125 125.589844 104.640625 125.609375 104.761719 125.628906 C 104.789062 125.628906 104.808594 125.640625 104.839844 125.640625 C 104.980469 125.660156 105.121094 125.691406 105.261719 125.710938 C 105.269531 125.710938 105.269531 125.710938 105.28125 125.710938 C 105.429688 125.730469 105.578125 125.761719 105.730469 125.789062 C 105.761719 125.789062 105.789062 125.800781 105.808594 125.800781 C 105.929688 125.820312 106.039062 125.839844 106.160156 125.859375 C 106.210938 125.871094 106.25 125.878906 106.300781 125.878906 C 106.398438 125.898438 106.5 125.921875 106.589844 125.929688 C 106.640625 125.941406 106.691406 125.949219 106.738281 125.960938 C 106.839844 125.980469 106.929688 126 107.019531 126.011719 C 107.070312 126.019531 107.109375 126.03125 107.160156 126.039062 C 107.289062 126.070312 107.429688 126.089844 107.550781 126.121094 C 109.078125 126.441406 109.660156 127.128906 109.46875 128.339844 C 109.210938 130.039062 107.5 130.421875 106.589844 130.328125 C 105.679688 130.25 102.621094 129.621094 101.621094 129.179688 C 101.558594 129.148438 101.5 129.121094 101.441406 129.089844 L 101.089844 129.589844 C 96.589844 129.289062 93.359375 127.410156 93.359375 127.410156 C 90.71875 125.929688 90.28125 124.789062 89.839844 122.980469 C 89.339844 120.921875 89.460938 118.480469 89.480469 118.101562 C 89.640625 114 90.550781 111.351562 93.859375 109.148438 C 94.660156 108.621094 95.828125 107.691406 98.421875 107.390625 C 99.421875 107.289062 100.859375 107.359375 101.859375 107.609375 Z M 101.859375 107.609375 "/>
<path style=" stroke:none;fill-rule:nonzero;fill:rgb(89.411765%,58.431375%,0%);fill-opacity:1;" d="M 105.601562 114.421875 C 105.601562 114.421875 105.640625 112.359375 104.988281 110.359375 L 105.710938 110.230469 C 105.710938 110.230469 106.21875 111.648438 106.398438 113.75 C 106.429688 114.089844 106.441406 114.398438 106.441406 114.699219 L 107.078125 114.660156 L 111.371094 114.421875 C 111.371094 114.421875 111.050781 114.480469 111.050781 114.960938 C 111.050781 115.160156 111.171875 115.289062 111.261719 115.371094 C 111.078125 115.351562 110.878906 115.328125 110.679688 115.339844 L 106.421875 115.449219 C 106.410156 115.570312 106.410156 115.691406 106.398438 115.820312 C 106.300781 117.558594 105.890625 119.230469 104.921875 119.871094 C 108.140625 120.25 111 120.441406 111 120.441406 C 110.441406 120.671875 110.679688 121.351562 110.679688 121.351562 C 108.511719 120.761719 103.25 120.449219 103.25 120.449219 C 101.03125 120.261719 100.730469 121.761719 100.730469 121.761719 C 100.320312 123.570312 102.289062 124.398438 102.289062 124.398438 C 102.550781 124.550781 104.898438 125.019531 106.578125 125.339844 L 108.261719 125.648438 L 108.730469 125.738281 C 108.679688 125.730469 108.480469 125.71875 108.398438 126.050781 C 108.359375 126.210938 108.398438 126.320312 108.429688 126.390625 C 108.179688 126.28125 107.878906 126.179688 107.53125 126.109375 C 106.738281 125.949219 104.351562 125.558594 104.171875 125.53125 L 103.570312 125.449219 C 101.589844 125.191406 101.109375 125.539062 101.109375 125.539062 C 100.011719 126.121094 100.328125 127.519531 100.328125 127.519531 C 100.570312 128.871094 102.058594 129.289062 102.058594 129.289062 C 102.628906 129.460938 105.648438 130.191406 105.648438 130.191406 L 101.078125 129.589844 C 100.761719 129.488281 100.640625 129.339844 100.460938 129.199219 C 98.851562 127.878906 99.53125 126.089844 99.53125 126.089844 C 99.78125 125.398438 100.300781 125.089844 100.300781 125.089844 C 100.609375 124.898438 100.96875 124.800781 101.339844 124.761719 C 99.46875 123.769531 99.769531 121.769531 99.769531 121.769531 C 100.011719 120.539062 100.898438 120.019531 101.601562 119.800781 C 101.539062 119.75 101.46875 119.699219 101.410156 119.640625 C 101.410156 119.640625 100.210938 118.851562 100.648438 115.460938 C 100.800781 114.320312 100.78125 114.160156 100.660156 113.441406 C 100.660156 113.441406 100.230469 111.898438 98.949219 112.390625 C 98.949219 112.390625 98.519531 112.5 97.851562 113.03125 C 97.851562 113.03125 97.308594 113.449219 97.320312 112.789062 C 97.320312 112.589844 97.460938 112.230469 97.730469 111.921875 C 97.730469 111.921875 98.011719 111.589844 98.699219 111.398438 C 98.699219 111.398438 100.488281 110.691406 101.378906 112.480469 C 101.851562 113.421875 101.761719 114.039062 101.609375 115 C 101.609375 115 101.328125 118.03125 102.121094 119 C 102.121094 119 102.898438 119.890625 104.148438 119.339844 C 104.160156 119.359375 105.859375 118.421875 105.601562 114.421875 Z M 105.601562 114.421875 "/>
<path style=" stroke:none;fill-rule:nonzero;fill:rgb(34.117648%,34.117648%,34.117648%);fill-opacity:1;" d="M 110.308594 58.425781 C 99.253906 56.875 89.035156 64.574219 87.484375 75.628906 C 85.929688 86.683594 93.632812 96.902344 104.6875 98.453125 C 115.738281 100.007812 125.957031 92.304688 127.511719 81.25 C 129.0625 70.199219 121.363281 59.976562 110.308594 58.425781 Z M 110.308594 58.425781 "/>
<path style=" stroke:none;fill-rule:nonzero;fill:rgb(34.117648%,34.117648%,34.117648%);fill-opacity:1;" d="M 105.371094 123.941406 L 97.339844 122.261719 L 103.140625 89.429688 L 110.058594 90.398438 Z M 105.371094 123.941406 "/>
<path style=" stroke:none;fill-rule:nonzero;fill:rgb(100%,100%,100%);fill-opacity:1;" d="M 119.570312 78.949219 C 121.359375 87.179688 115.019531 95.28125 107.609375 89.730469 C 100.199219 84.191406 93.308594 85.058594 96.191406 77.960938 C 99.070312 70.859375 101.378906 64.601562 106.988281 66.21875 C 112.601562 67.839844 117.78125 70.71875 119.570312 78.949219 Z M 119.570312 78.949219 "/>
<path style=" stroke:none;fill-rule:nonzero;fill:rgb(98.431373%,75.686276%,10.588235%);fill-opacity:1;" d="M 113.101562 78.050781 C 113.101562 74.957031 110.59375 72.449219 107.5 72.449219 C 104.40625 72.449219 101.898438 74.957031 101.898438 78.050781 C 101.898438 81.144531 104.40625 83.648438 107.5 83.648438 C 110.59375 83.648438 113.101562 81.144531 113.101562 78.050781 Z M 113.101562 78.050781 "/>
<path style=" stroke:none;fill-rule:nonzero;fill:rgb(98.431373%,75.686276%,10.588235%);fill-opacity:1;" d="M 110.890625 120.449219 C 110.929688 120.449219 110.96875 120.449219 111 120.449219 C 111.988281 120.390625 113.359375 119.640625 113.371094 118.050781 C 113.371094 116.308594 112.480469 115.410156 110.890625 115.359375 C 110.890625 115.359375 110.859375 115.199219 110.820312 114.988281 C 110.988281 114.980469 111.171875 114.96875 111.339844 114.960938 C 112.21875 114.75 112.679688 114.21875 112.839844 113.539062 C 112.898438 113.441406 112.921875 112.300781 112.910156 112.171875 C 112.828125 111.101562 112.441406 110.601562 112.441406 110.601562 C 112.039062 109.578125 109.578125 109.808594 109.578125 109.808594 L 105.089844 110.410156 C 104.929688 110.359375 104.769531 110.308594 104.621094 110.261719 C 103.96875 109.238281 103.101562 108.449219 101.851562 108.140625 C 100.851562 107.898438 99.421875 107.820312 98.410156 107.941406 C 95.820312 108.238281 94.648438 109.171875 93.851562 109.699219 C 93.679688 109.808594 93.539062 109.929688 93.390625 110.050781 C 94.300781 111.699219 95.679688 113.429688 97.371094 113.140625 C 97.480469 112.890625 97.660156 112.628906 97.738281 112.539062 C 98.101562 112.148438 98.601562 111.871094 99.128906 111.808594 C 99.960938 111.710938 100.820312 112.121094 101.269531 112.820312 C 101.96875 113.898438 101.160156 115.328125 101.109375 116.621094 C 101.089844 117.230469 101.589844 117.820312 101.710938 118.421875 C 101.820312 118.988281 102.039062 119.589844 102.53125 119.898438 C 102.558594 119.921875 102.609375 119.921875 102.640625 119.941406 C 102.609375 120.039062 102.539062 120.238281 102.460938 120.5 C 102.140625 120.519531 101.828125 120.578125 101.558594 120.730469 C 100.941406 121.070312 100.621094 121.820312 100.699219 122.511719 C 100.761719 123.019531 101.03125 123.488281 101.410156 123.839844 C 101.171875 124.621094 100.96875 125.320312 100.871094 125.730469 C 100.179688 126.261719 100.109375 127.390625 100.589844 128.140625 C 101.089844 128.929688 102.011719 129.359375 102.921875 129.589844 C 103.828125 129.820312 104.769531 129.898438 105.660156 130.199219 C 105.609375 130.191406 105.570312 130.191406 105.519531 130.179688 C 105.96875 130.261719 106.351562 130.320312 106.589844 130.339844 C 107.488281 130.421875 109.210938 130.039062 109.46875 128.351562 C 109.621094 127.378906 109.261719 126.75 108.328125 126.371094 C 108.261719 126.121094 108.140625 125.839844 108.070312 125.628906 C 108.238281 125.660156 108.421875 125.699219 108.589844 125.730469 C 108.921875 125.769531 109.199219 125.800781 109.371094 125.800781 C 110.359375 125.828125 111.800781 125.390625 112.019531 123.789062 C 112.171875 122.730469 111.679688 121.820312 110.621094 121.339844 C 110.230469 121.261719 109.828125 121.199219 109.441406 121.128906 C 109.601562 120.871094 109.761719 120.609375 109.921875 120.359375 C 110.238281 120.390625 110.570312 120.421875 110.890625 120.449219 Z M 110.890625 120.449219 "/>
<path style=" stroke:none;fill-rule:nonzero;fill:rgb(89.411765%,58.431375%,0%);fill-opacity:1;" d="M 111.328125 115.390625 C 111.191406 115.210938 111.160156 114.921875 111.160156 114.921875 C 111.148438 114.921875 111.140625 114.921875 111.128906 114.921875 C 110.769531 114.890625 106.460938 114.710938 106.460938 114.710938 C 106.441406 113.320312 105.871094 111.660156 105.480469 110.328125 C 105.21875 110.300781 104.910156 110.328125 104.640625 110.238281 C 104.980469 111.550781 105.609375 113.078125 105.648438 114.421875 C 105.679688 115.320312 105.621094 116.210938 105.429688 117.089844 C 105.28125 117.800781 105.039062 118.519531 104.519531 119.03125 C 104 119.539062 103.148438 119.75 102.539062 119.359375 C 102.050781 119.050781 101.839844 118.449219 101.71875 117.878906 C 101.601562 117.28125 101.550781 116.671875 101.578125 116.070312 C 101.628906 114.78125 101.980469 113.371094 101.289062 112.289062 C 100.839844 111.589844 99.96875 111.179688 99.148438 111.28125 C 98.621094 111.339844 98.121094 111.621094 97.761719 112.011719 C 97.589844 112.199219 96.929688 113.140625 97.609375 113.160156 C 97.800781 113.160156 97.96875 113.03125 98.121094 112.910156 C 98.578125 112.539062 99.160156 112.199219 99.730469 112.371094 C 100.429688 112.578125 100.699219 113.429688 100.730469 114.160156 C 100.769531 115.160156 100.558594 116.148438 100.558594 117.140625 C 100.558594 118.140625 100.828125 119.210938 101.601562 119.839844 C 100.558594 120.070312 99.789062 121.101562 99.761719 122.171875 C 99.730469 123.238281 100.398438 124.261719 101.328125 124.78125 C 100.460938 124.800781 99.699219 125.5 99.46875 126.339844 C 99.238281 127.179688 99.5 128.101562 100.03125 128.789062 C 100.261719 129.089844 100.539062 129.351562 100.878906 129.511719 C 100.949219 129.539062 101.03125 129.558594 101.109375 129.578125 L 101.429688 129.121094 L 101.320312 129.269531 L 101.101562 129.578125 C 101.328125 129.648438 101.578125 129.691406 101.820312 129.730469 C 101.960938 129.75 102.101562 129.769531 102.25 129.78125 C 103.339844 129.921875 104.429688 130.058594 105.519531 130.191406 C 105.570312 130.199219 105.609375 130.199219 105.660156 130.210938 C 104.769531 129.910156 103.828125 129.828125 102.921875 129.601562 C 102.011719 129.371094 101.101562 128.941406 100.589844 128.148438 C 100.089844 127.359375 100.179688 126.148438 100.96875 125.660156 C 101.449219 125.359375 102.039062 125.378906 102.601562 125.421875 C 103.488281 125.480469 104.371094 125.589844 105.25 125.730469 C 105.488281 125.769531 105.730469 125.808594 105.960938 125.851562 C 106.019531 125.859375 106.078125 125.871094 106.140625 125.878906 C 106.191406 125.890625 106.230469 125.898438 106.28125 125.898438 C 106.378906 125.921875 106.480469 125.941406 106.570312 125.949219 C 106.621094 125.960938 106.671875 125.96875 106.71875 125.980469 C 106.820312 126 106.910156 126.019531 107 126.03125 C 107.050781 126.039062 107.089844 126.050781 107.140625 126.058594 C 107.269531 126.089844 107.410156 126.109375 107.53125 126.140625 C 107.800781 126.199219 108.019531 126.269531 108.230469 126.339844 C 108.289062 126.359375 108.359375 126.371094 108.421875 126.390625 C 108.28125 126.160156 108.449219 125.808594 108.710938 125.769531 C 108.660156 125.761719 108.621094 125.75 108.570312 125.738281 C 106.941406 125.421875 105.308594 125.101562 103.679688 124.78125 C 103.039062 124.648438 102.378906 124.519531 101.828125 124.191406 C 101.230469 123.828125 100.769531 123.210938 100.679688 122.511719 C 100.589844 121.808594 100.921875 121.058594 101.539062 120.730469 C 102.011719 120.46875 102.570312 120.480469 103.109375 120.488281 C 105.621094 120.570312 108.128906 120.859375 110.601562 121.351562 C 110.621094 121.351562 110.648438 121.359375 110.671875 121.359375 C 110.511719 121.050781 110.671875 120.609375 110.988281 120.46875 C 110.949219 120.46875 110.910156 120.460938 110.878906 120.460938 C 108.898438 120.28125 106.921875 120.089844 104.941406 119.910156 C 106.148438 118.851562 106.328125 117.058594 106.421875 115.460938 C 106.421875 115.449219 111.128906 115.390625 111.328125 115.390625 Z M 111.328125 115.390625 "/>
<path style=" stroke:none;fill-rule:nonzero;fill:rgb(76.862746%,77.64706%,78.039217%);fill-opacity:1;" d="M 81.21875 36.441406 L 22.550781 36.441406 C 12.191406 36.441406 3.71875 28.78125 3.71875 19.410156 L 3.71875 17.308594 C 3.71875 0.328125 27.800781 0 51.878906 0 C 75.960938 0 100.039062 0.5 100.039062 17.308594 L 100.039062 19.410156 C 100.050781 28.769531 91.570312 36.441406 81.21875 36.441406 Z M 81.21875 36.441406 "/>
<path style=" stroke:none;fill-rule:nonzero;fill:rgb(76.862746%,77.64706%,78.039217%);fill-opacity:1;" d="M 7.390625 29.421875 L 11.511719 36.441406 L 92.25 36.441406 L 96.550781 29.078125 Z M 7.390625 29.421875 "/>
<path style=" stroke:none;fill-rule:nonzero;fill:rgb(76.862746%,77.64706%,78.039217%);fill-opacity:1;" d="M 89.949219 53 C 89.949219 53 73.640625 47.660156 51.890625 47.660156 C 30.140625 47.660156 14.039062 53 14.039062 53 L 11.511719 36.429688 C 11.511719 36.429688 27.640625 31.988281 51.820312 31.988281 C 76 31.988281 92.25 36.429688 92.25 36.429688 Z M 89.949219 53 "/>
<path style=" stroke:none;fill-rule:nonzero;fill:rgb(58.431375%,58.823532%,60.000002%);fill-opacity:1;" d="M 15.96875 31.558594 C 15.488281 31.558594 15.011719 31.339844 14.699219 30.921875 C 11.160156 26.148438 9.101562 17.960938 12.261719 12.179688 C 12.679688 11.410156 13.640625 11.140625 14.398438 11.550781 C 15.160156 11.96875 15.449219 12.929688 15.03125 13.691406 C 12.589844 18.148438 14.238281 25 17.238281 29.039062 C 17.761719 29.738281 17.609375 30.730469 16.910156 31.25 C 16.621094 31.460938 16.300781 31.558594 15.96875 31.558594 Z M 15.96875 31.558594 "/>
<path style=" stroke:none;fill-rule:nonzero;fill:rgb(58.431375%,58.823532%,60.000002%);fill-opacity:1;" d="M 24.921875 31.289062 C 24.261719 31.289062 23.621094 30.980469 23.210938 30.410156 C 19.039062 24.578125 18.398438 14.75 21.710938 7.550781 C 22.199219 6.488281 23.449219 6.039062 24.5 6.519531 C 25.550781 7.011719 26.019531 8.25 25.53125 9.308594 C 22.839844 15.148438 23.328125 23.351562 26.628906 27.96875 C 27.300781 28.921875 27.089844 30.230469 26.140625 30.898438 C 25.769531 31.171875 25.339844 31.289062 24.921875 31.289062 Z M 24.921875 31.289062 "/>
<path style=" stroke:none;fill-rule:nonzero;fill:rgb(58.431375%,58.823532%,60.000002%);fill-opacity:1;" d="M 82.96875 35.378906 C 82.320312 35.378906 81.671875 35.140625 81.171875 34.660156 C 80.109375 33.660156 80.070312 32 81.058594 30.941406 C 84.699219 27.089844 86.089844 20.609375 84.710938 14.039062 C 84.410156 12.621094 85.320312 11.230469 86.738281 10.929688 C 88.160156 10.640625 89.550781 11.539062 89.851562 12.960938 C 91.578125 21.199219 89.679688 29.46875 84.878906 34.558594 C 84.359375 35.101562 83.671875 35.378906 82.96875 35.378906 Z M 82.96875 35.378906 "/>
<path style=" stroke:none;fill-rule:nonzero;fill:rgb(58.431375%,58.823532%,60.000002%);fill-opacity:1;" d="M 91.851562 38.5 C 53.089844 25.738281 12.421875 37.828125 12.011719 37.949219 L 11.089844 34.929688 C 11.511719 34.800781 53.128906 22.429688 92.828125 35.5 Z M 91.851562 38.5 "/>
</g>
</svg>
