<?xml version="1.0" encoding="UTF-8"?>
<svg xmlns="http://www.w3.org/2000/svg" xmlns:xlink="http://www.w3.org/1999/xlink" width="128px" height="128px" viewBox="0 0 128 128" version="1.1">
<defs>
<filter id="alpha" filterUnits="objectBoundingBox" x="0%" y="0%" width="100%" height="100%">
  <feColorMatrix type="matrix" in="SourceGraphic" values="0 0 0 0 1 0 0 0 0 1 0 0 0 0 1 0 0 0 1 0"/>
</filter>
<mask id="mask0">
  <g filter="url(#alpha)">
<rect x="0" y="0" width="128" height="128" style="fill:rgb(0%,0%,0%);fill-opacity:0.4;stroke:none;"/>
  </g>
</mask>
<clipPath id="clip1">
  <rect x="0" y="0" width="128" height="128"/>
</clipPath>
<g id="surface5" clip-path="url(#clip1)">
<path style=" stroke:none;fill-rule:nonzero;fill:rgb(72.156864%,80.784315%,83.137256%);fill-opacity:1;" d="M 82.898438 3.511719 C 82.039062 5.738281 86.558594 7.730469 83.648438 11.859375 C 81.230469 15.289062 61.25 10.929688 52.960938 21.148438 C 45.730469 30.070312 51.648438 39.550781 53.339844 42.269531 C 55.03125 44.988281 58.78125 49.308594 61.601562 48.558594 C 64.421875 47.808594 60.101562 37.578125 67.980469 32.421875 C 75.859375 27.261719 86.980469 27.191406 91.910156 20.78125 C 95.660156 15.898438 93.320312 8.671875 89.75 5.011719 C 87.160156 2.339844 83.839844 1.058594 82.898438 3.511719 Z M 82.898438 3.511719 "/>
</g>
</defs>
<g id="surface1">
<path style=" stroke:none;fill-rule:nonzero;fill:rgb(73.333335%,80.784315%,82.745099%);fill-opacity:1;" d="M 44.570312 73.851562 L 19.839844 71.640625 C 19.839844 71.640625 19.75 74.488281 19.75 77.179688 C 19.75 80.28125 20.359375 82.808594 20.359375 82.808594 C 20.359375 82.808594 5.289062 86.519531 4.019531 98.058594 C 2.75 109.601562 25.421875 124.390625 59.488281 123.960938 C 93.558594 123.53125 114.390625 110.300781 115.519531 98.199219 C 116.648438 86.101562 97.359375 83.28125 97.359375 83.28125 L 98.199219 76.800781 C 98.199219 76.800781 118.328125 75.671875 119.320312 65.679688 C 120.308594 55.691406 110.589844 56.53125 110.589844 56.53125 C 110.589844 56.53125 113.828125 59.910156 113.691406 62.578125 C 113.550781 65.25 111.71875 68.210938 107.070312 69.480469 C 102.421875 70.75 95.808594 71.449219 95.808594 71.449219 Z M 44.570312 73.851562 "/>
<path style=" stroke:none;fill-rule:nonzero;fill:rgb(41.568628%,64.705884%,67.450982%);fill-opacity:1;" d="M 101.71875 52.308594 L 97.070312 55.410156 L 97.628906 57.519531 C 97.628906 57.519531 106.78125 56.679688 110.441406 58.078125 C 114.101562 59.488281 117.621094 65.398438 117.621094 65.398438 L 121.980469 59.488281 L 106.628906 50.898438 Z M 101.71875 52.308594 "/>
<path style=" stroke:none;fill-rule:nonzero;fill:rgb(41.568628%,64.705884%,67.450982%);fill-opacity:1;" d="M 40.199219 95.199219 C 40.199219 95.199219 28.488281 92.21875 27.441406 94.730469 C 26.691406 96.511719 31.691406 101.910156 35.230469 104.679688 C 38.699219 107.398438 47.410156 112.46875 58.601562 112.46875 C 70.800781 112.46875 78.589844 107.96875 83.191406 104.488281 C 87.109375 101.53125 91.070312 95.101562 90.140625 94.070312 C 89.191406 93.039062 40.199219 95.199219 40.199219 95.199219 Z M 40.199219 95.199219 "/>
<path style=" stroke:none;fill-rule:nonzero;fill:rgb(87.843138%,87.843138%,87.843138%);fill-opacity:1;" d="M 21.011719 86.421875 C 21.011719 86.421875 8.21875 90.289062 8.480469 98.199219 C 8.761719 106.828125 25.371094 119.128906 59.820312 119.039062 C 94.261719 118.949219 110.410156 104.488281 111.25 96.800781 C 112.089844 89.101562 96.519531 86.660156 96.519531 86.660156 C 96.519531 86.660156 92.199219 111.441406 59.71875 112 C 28.460938 112.539062 21.011719 86.421875 21.011719 86.421875 Z M 21.011719 86.421875 "/>
<path style=" stroke:none;fill-rule:nonzero;fill:rgb(87.843138%,87.843138%,87.843138%);fill-opacity:1;" d="M 96.609375 47.898438 C 96.609375 47.898438 105.011719 47.191406 109.46875 47.710938 C 115.101562 48.371094 123.921875 52.589844 123.738281 62.628906 C 123.558594 72.671875 114.351562 77.359375 108.71875 79.238281 C 104.628906 80.601562 94.359375 81.019531 94.359375 81.019531 L 95.390625 74.828125 C 95.390625 74.828125 104.019531 74.828125 108.339844 73.230469 C 112.660156 71.628906 116.878906 67.96875 116.96875 62.53125 C 117.078125 56.308594 109.839844 54.460938 104.488281 54.550781 C 99.140625 54.640625 94.070312 55.859375 94.070312 55.859375 Z M 96.609375 47.898438 "/>
<path style=" stroke:none;fill-rule:nonzero;fill:rgb(87.843138%,87.843138%,87.843138%);fill-opacity:1;" d="M 58.5 29.078125 C 32.738281 29.730469 18.660156 40.910156 18.238281 48.929688 C 17.820312 56.949219 19.941406 79.21875 22.890625 86.660156 C 26.128906 94.828125 35.421875 108.761719 60.621094 107.78125 C 85.820312 106.800781 93 92.71875 95.109375 83.988281 C 96.648438 77.621094 99.898438 53.761719 99.050781 47.671875 C 98.199219 41.609375 86.519531 28.378906 58.5 29.078125 Z M 58.5 29.078125 "/>
<path style=" stroke:none;fill-rule:nonzero;fill:rgb(100%,100%,100%);fill-opacity:1;" d="M 96.609375 90.410156 C 96.691406 91.679688 100.261719 92.46875 99.429688 96.421875 C 98.488281 100.828125 94.269531 101.578125 94.359375 103.269531 C 94.46875 105.261719 105.058594 103.738281 105.53125 96.890625 C 105.988281 90.039062 96.511719 89.011719 96.609375 90.410156 Z M 96.609375 90.410156 "/>
<path style=" stroke:none;fill-rule:nonzero;fill:rgb(100%,100%,100%);fill-opacity:1;" d="M 20.589844 91.730469 C 21.710938 92.710938 19.570312 94.011719 18.808594 96.050781 C 17.679688 99.050781 22.089844 103.75 27.441406 106.371094 C 31.210938 108.21875 36.761719 109.871094 36.640625 111.628906 C 36.449219 114.261719 11.578125 107.511719 11.578125 98.679688 C 11.578125 91.160156 19.078125 90.410156 20.589844 91.730469 Z M 20.589844 91.730469 "/>
<path style=" stroke:none;fill-rule:nonzero;fill:rgb(100%,100%,100%);fill-opacity:1;" d="M 23.5 62.910156 C 22.03125 64.589844 22.5 76.378906 25.101562 83.839844 C 27.351562 90.320312 29.890625 94.160156 32.421875 94.261719 C 34.949219 94.351562 30.820312 83.75 31.011719 76.898438 C 31.199219 70.050781 31.011719 68.171875 29.601562 66.578125 C 28.191406 64.980469 24.808594 61.410156 23.5 62.910156 Z M 23.5 62.910156 "/>
<path style=" stroke:none;fill-rule:nonzero;fill:rgb(42.745098%,29.411766%,25.490198%);fill-opacity:1;" d="M 59.25 36.070312 C 42.078125 36.308594 24.058594 43.390625 24.429688 52.589844 C 24.808594 61.789062 42.730469 66.671875 60 66.761719 C 77.269531 66.851562 92.941406 59.71875 93.039062 52.121094 C 93.128906 44.519531 79.429688 35.789062 59.25 36.070312 Z M 59.25 36.070312 "/>
<path style=" stroke:none;fill-rule:nonzero;fill:rgb(70.980394%,56.470591%,45.882353%);fill-opacity:1;" d="M 28.75 50.710938 C 28.75 53.710938 32.96875 54.878906 35.789062 55.03125 C 39.359375 55.21875 41.980469 54.089844 42.269531 52.308594 C 42.550781 50.53125 40.859375 48.929688 43.210938 47.519531 C 45.558594 46.109375 48.410156 46.921875 51.941406 47.988281 C 55.980469 49.210938 62.359375 53.429688 65.828125 51.738281 C 69.300781 50.050781 65.550781 47.140625 67.140625 46.011719 C 68.730469 44.878906 72.300781 44.878906 77.28125 46.671875 C 82.25 48.449219 86.761719 51.550781 88.449219 50.238281 C 90.140625 48.929688 84.460938 42.859375 71.371094 40.570312 C 59.539062 38.511719 46.441406 39.859375 39.460938 42.351562 C 32.878906 44.710938 28.75 48.089844 28.75 50.710938 Z M 28.75 50.710938 "/>
<path style=" stroke:none;fill-rule:nonzero;fill:rgb(70.980394%,56.470591%,45.490196%);fill-opacity:1;" d="M 70.421875 54.941406 C 64.601562 57.191406 54.839844 51.089844 49.300781 51.75 C 46.390625 52.101562 45.550781 55.410156 48.269531 56.539062 C 50.988281 57.671875 51.421875 55.570312 54.839844 56.820312 C 59.320312 58.46875 68.628906 60.269531 71.828125 59.070312 C 76.25 57.410156 75.679688 55.128906 77.371094 54.851562 C 80.171875 54.378906 82.96875 57.429688 84.5 55.691406 C 85.910156 54.089844 84.480469 52.210938 79.808594 50.53125 C 76.148438 49.21875 73.308594 48.890625 72.488281 49.96875 C 71.550781 51.179688 73.269531 53.828125 70.421875 54.941406 Z M 70.421875 54.941406 "/>
<use xlink:href="#surface5" mask="url(#mask0)"/>
</g>
</svg>
