<?xml version="1.0" encoding="UTF-8"?>
<svg xmlns="http://www.w3.org/2000/svg" xmlns:xlink="http://www.w3.org/1999/xlink" width="128px" height="128px" viewBox="0 0 128 128" version="1.1">
<g id="surface1">
<path style=" stroke:none;fill-rule:nonzero;fill:rgb(24.313726%,44.705883%,11.372549%);fill-opacity:1;" d="M 62.863281 78.222656 C 62.863281 78.222656 69.75 106.214844 67.082031 111.546875 C 58.640625 128.421875 62.863281 128 67.082031 128 L 75.519531 128 C 83.957031 128 71.300781 78.222656 71.300781 78.222656 Z M 62.863281 78.222656 "/>
<path style=" stroke:none;fill-rule:nonzero;fill:rgb(24.313726%,44.705883%,11.372549%);fill-opacity:1;" d="M 18.683594 68.929688 C 18.683594 68.929688 17.132812 97.351562 14.464844 102.683594 C 6.027344 119.5625 6.027344 128 10.246094 128 L 18.683594 128 C 22.902344 128 22.902344 113.230469 22.902344 109.011719 C 22.902344 104.796875 27.121094 78.421875 27.121094 78.421875 Z M 18.683594 68.929688 "/>
<path style=" stroke:none;fill-rule:nonzero;fill:rgb(46.666667%,69.803923%,33.333334%);fill-opacity:1;" d="M 43.996094 18.667969 C 36.644531 18.734375 29.03125 17.121094 24.359375 26.132812 C 19.367188 35.765625 17.015625 56.636719 27.121094 60.492188 C 35.933594 63.855469 55.328125 56.273438 76.417969 64.710938 C 97.515625 73.148438 105.953125 123.773438 122.699219 123.84375 C 127.046875 123.855469 126.984375 127.835938 122.699219 127.867188 C 101.671875 128.027344 92.445312 106.898438 88.890625 106.898438 C 88.890625 106.898438 92.445312 128 88.890625 128 L 74.667969 128 C 71.113281 128 74.667969 117.042969 74.667969 112.828125 L 74.667969 106.898438 C 74.667969 106.898438 69.003906 111.230469 53.558594 111.230469 C 41.886719 111.230469 32 106.898438 32 106.898438 C 32 106.898438 35.554688 128 32 128 L 18.683594 128 C 12.71875 128 19.269531 113.730469 18.683594 106.902344 C 18.320312 102.699219 16.867188 89.988281 14.332031 85.808594 C 8.195312 75.683594 4.507812 44.839844 7.472656 31.457031 C 10.25 18.921875 18.574219 7.875 24.097656 4.753906 C 29.496094 1.703125 34.273438 -0.578125 46.105469 1.320312 C 52.417969 2.335938 58.875 11.710938 56.382812 16.519531 C 54.886719 19.402344 49.488281 18.621094 43.996094 18.667969 "/>
<path style=" stroke:none;fill-rule:nonzero;fill:rgb(0%,0%,0%);fill-opacity:1;" d="M 46.105469 7.757812 C 46.105469 8.921875 45.164062 9.863281 43.996094 9.863281 C 42.832031 9.863281 41.886719 8.921875 41.886719 7.757812 C 41.886719 6.589844 42.832031 5.648438 43.996094 5.648438 C 45.164062 5.648438 46.105469 6.589844 46.105469 7.757812 "/>
<path style=" stroke:none;fill-rule:nonzero;fill:rgb(36.078432%,56.862748%,23.137255%);fill-opacity:1;" d="M 36.332031 65.722656 C 36.664062 66.804688 36.0625 67.949219 34.980469 68.285156 C 33.902344 68.617188 32.753906 68.015625 32.421875 66.9375 C 32.085938 65.855469 32.691406 64.707031 33.769531 64.375 C 34.847656 64.039062 35.996094 64.644531 36.332031 65.722656 "/>
<path style=" stroke:none;fill-rule:nonzero;fill:rgb(36.078432%,56.862748%,23.137255%);fill-opacity:1;" d="M 50.105469 70.164062 C 50.582031 71.699219 49.71875 73.332031 48.179688 73.808594 C 46.644531 74.285156 45.011719 73.425781 44.535156 71.886719 C 44.058594 70.347656 44.917969 68.714844 46.460938 68.238281 C 47.996094 67.765625 49.628906 68.628906 50.105469 70.164062 "/>
<path style=" stroke:none;fill-rule:nonzero;fill:rgb(36.078432%,56.862748%,23.137255%);fill-opacity:1;" d="M 44.328125 65.09375 C 44.582031 65.910156 44.125 66.777344 43.304688 67.03125 C 42.488281 67.285156 41.621094 66.828125 41.367188 66.007812 C 41.113281 65.191406 41.574219 64.324219 42.386719 64.066406 C 43.207031 63.816406 44.078125 64.273438 44.328125 65.09375 "/>
<path style=" stroke:none;fill-rule:nonzero;fill:rgb(36.078432%,56.862748%,23.137255%);fill-opacity:1;" d="M 53.066406 63.917969 C 53.304688 64.6875 52.875 65.507812 52.097656 65.75 C 51.328125 65.988281 50.507812 65.554688 50.265625 64.785156 C 50.027344 64.007812 50.460938 63.191406 51.230469 62.949219 C 52.007812 62.710938 52.828125 63.144531 53.066406 63.917969 "/>
<path style=" stroke:none;fill-rule:nonzero;fill:rgb(36.078432%,56.862748%,23.137255%);fill-opacity:1;" d="M 63.175781 65.160156 C 63.621094 66.589844 62.816406 68.105469 61.386719 68.550781 C 59.957031 68.992188 58.441406 68.191406 58 66.761719 C 57.554688 65.332031 58.355469 63.816406 59.785156 63.371094 C 61.214844 62.929688 62.730469 63.730469 63.175781 65.160156 "/>
<path style=" stroke:none;fill-rule:nonzero;fill:rgb(36.078432%,56.862748%,23.137255%);fill-opacity:1;" d="M 80.078125 72.195312 C 80.359375 73.109375 79.847656 74.082031 78.929688 74.363281 C 78.019531 74.648438 77.046875 74.136719 76.761719 73.222656 C 76.476562 72.304688 76.988281 71.335938 77.90625 71.050781 C 78.820312 70.765625 79.792969 71.28125 80.078125 72.195312 "/>
<path style=" stroke:none;fill-rule:nonzero;fill:rgb(36.078432%,56.862748%,23.137255%);fill-opacity:1;" d="M 59.261719 72.195312 C 59.546875 73.109375 59.035156 74.082031 58.117188 74.363281 C 57.203125 74.648438 56.230469 74.136719 55.949219 73.222656 C 55.664062 72.304688 56.175781 71.335938 57.09375 71.050781 C 58.007812 70.765625 58.976562 71.28125 59.261719 72.195312 "/>
<path style=" stroke:none;fill-rule:nonzero;fill:rgb(36.078432%,56.862748%,23.137255%);fill-opacity:1;" d="M 74.257812 67.550781 C 74.542969 68.464844 74.03125 69.441406 73.113281 69.722656 C 72.199219 70.003906 71.230469 69.492188 70.945312 68.578125 C 70.660156 67.664062 71.171875 66.691406 72.089844 66.40625 C 73.003906 66.125 73.972656 66.636719 74.257812 67.550781 "/>
<path style=" stroke:none;fill-rule:nonzero;fill:rgb(36.078432%,56.862748%,23.137255%);fill-opacity:1;" d="M 68.921875 68.261719 C 69.339844 69.613281 68.582031 71.050781 67.230469 71.472656 C 65.875 71.890625 64.433594 71.132812 64.015625 69.777344 C 63.597656 68.421875 64.355469 66.988281 65.710938 66.566406 C 67.066406 66.148438 68.5 66.90625 68.921875 68.261719 "/>
</g>
</svg>
