<?xml version="1.0" encoding="UTF-8"?>
<svg xmlns="http://www.w3.org/2000/svg" xmlns:xlink="http://www.w3.org/1999/xlink" width="128px" height="128px" viewBox="0 0 128 128" version="1.1">
<g id="surface1">
<path style=" stroke:none;fill-rule:nonzero;fill:rgb(46.666667%,69.803923%,33.333334%);fill-opacity:1;" d="M 10.734375 93.320312 L 22.9375 105.523438 L 19.65625 108.800781 L 7.453125 96.601562 Z M 10.734375 93.320312 "/>
<path style=" stroke:none;fill-rule:nonzero;fill:rgb(100%,85.09804%,51.372552%);fill-opacity:1;" d="M 22.621094 105.199219 L 34.820312 117.402344 L 31.539062 120.683594 L 19.34375 108.480469 Z M 22.621094 105.199219 "/>
<path style=" stroke:none;fill-rule:nonzero;fill:rgb(100%,67.450982%,20%);fill-opacity:1;" d="M 22.304688 86.175781 L 34.507812 98.378906 L 31.226562 101.660156 L 19.023438 89.457031 Z M 22.304688 86.175781 "/>
<path style=" stroke:none;fill-rule:nonzero;fill:rgb(91.764706%,34.901962%,43.137255%);fill-opacity:1;" d="M 31.992188 95.863281 L 44.195312 108.066406 L 40.914062 111.347656 L 28.714844 99.148438 Z M 45.890625 62.589844 L 58.089844 74.792969 L 54.808594 78.074219 L 42.609375 65.871094 Z M 45.890625 62.589844 "/>
<path style=" stroke:none;fill-rule:nonzero;fill:rgb(100%,67.450982%,20%);fill-opacity:1;" d="M 55.578125 72.28125 L 67.78125 84.480469 L 64.496094 87.761719 L 52.296875 75.5625 Z M 55.578125 72.28125 "/>
<path style=" stroke:none;fill-rule:nonzero;fill:rgb(46.666667%,69.803923%,33.333334%);fill-opacity:1;" d="M 53.226562 51.117188 L 65.429688 63.320312 L 62.152344 66.601562 L 49.949219 54.398438 Z M 53.226562 51.117188 "/>
<path style=" stroke:none;fill-rule:nonzero;fill:rgb(100%,85.09804%,51.372552%);fill-opacity:1;" d="M 64.984375 62.871094 L 77.1875 75.074219 L 73.90625 78.355469 L 61.703125 66.15625 Z M 64.984375 62.871094 "/>
<path style=" stroke:none;fill-rule:nonzero;fill:rgb(100%,67.450982%,20%);fill-opacity:1;" d="M 62.632812 41.710938 L 74.835938 53.914062 L 71.554688 57.191406 L 59.351562 44.992188 Z M 62.632812 41.710938 "/>
<path style=" stroke:none;fill-rule:nonzero;fill:rgb(91.764706%,34.901962%,43.137255%);fill-opacity:1;" d="M 74.394531 53.46875 L 86.59375 65.667969 L 83.3125 68.949219 L 71.113281 56.746094 Z M 86.710938 17.636719 L 98.910156 29.839844 L 95.628906 33.117188 L 83.425781 20.917969 Z M 86.710938 17.636719 "/>
<path style=" stroke:none;fill-rule:nonzero;fill:rgb(100%,67.450982%,20%);fill-opacity:1;" d="M 98.46875 29.394531 L 110.671875 41.59375 L 107.386719 44.875 L 95.1875 32.671875 Z M 98.46875 29.394531 "/>
<path style=" stroke:none;fill-rule:nonzero;fill:rgb(46.666667%,69.803923%,33.333334%);fill-opacity:1;" d="M 96.046875 8.007812 L 108.25 20.210938 L 104.96875 23.492188 L 92.765625 11.289062 Z M 96.046875 8.007812 "/>
<path style=" stroke:none;fill-rule:nonzero;fill:rgb(100%,85.09804%,51.372552%);fill-opacity:1;" d="M 107.945312 19.910156 L 120.148438 32.109375 L 116.867188 35.390625 L 104.664062 23.191406 Z M 107.945312 19.910156 "/>
<path style=" stroke:none;fill-rule:nonzero;fill:rgb(57.254905%,40.000001%,80.000001%);fill-opacity:1;" d="M 88.613281 2.886719 C 79.652344 11.847656 79.363281 24.734375 80.09375 37.753906 C 81.875 37.851562 83.65625 37.96875 85.433594 38.085938 C 86.820312 38.179688 88.1875 38.269531 89.554688 38.351562 C 88.851562 26.667969 88.847656 15.953125 95.265625 9.535156 C 97.847656 7.035156 98.660156 3.660156 96.851562 1.835938 C 94.949219 -0.0859375 91.371094 0.0664062 88.613281 2.886719 Z M 88.613281 2.886719 "/>
<path style=" stroke:none;fill-rule:nonzero;fill:rgb(23.137255%,53.333336%,76.47059%);fill-opacity:1;" d="M 46.742188 91.199219 L 46.199219 81.742188 C 46.105469 80.160156 45.992188 78.546875 45.933594 77.007812 C 44.882812 75.953125 37.167969 75.765625 36.5 76.429688 C 36.546875 77.996094 36.667969 79.574219 36.753906 81.148438 C 36.851562 82.933594 37.203125 89.238281 37.285156 90.605469 C 37.476562 93.839844 37.625 97.027344 37.589844 100.050781 C 38.511719 100.96875 46.019531 101.605469 46.992188 100.625 C 47.046875 97.523438 46.914062 94.363281 46.742188 91.199219 Z M 46.742188 91.199219 "/>
<path style=" stroke:none;fill-rule:nonzero;fill:rgb(33.333334%,67.450982%,93.333334%);fill-opacity:1;" d="M 47.003906 100.621094 L 37.585938 100.046875 C 37.492188 107.902344 36.21875 114.785156 31.585938 119.417969 C 29.75 121.253906 29.75 124.230469 31.585938 126.070312 C 32.503906 126.988281 33.710938 127.449219 34.910156 127.449219 C 36.113281 127.449219 37.320312 126.988281 38.238281 126.070312 C 46.851562 117.457031 47.007812 100.5625 47.003906 100.621094 Z M 47.003906 100.621094 "/>
<path style=" stroke:none;fill-rule:nonzero;fill:rgb(57.254905%,40.000001%,80.000001%);fill-opacity:1;" d="M 90.148438 47.8125 C 88.367188 47.710938 86.582031 47.59375 84.804688 47.476562 C 83.421875 47.386719 82.046875 47.296875 80.6875 47.214844 C 81.390625 58.894531 81.394531 69.609375 74.972656 76.027344 C 68.558594 82.441406 57.859375 82.445312 46.195312 81.742188 C 44.820312 81.660156 38.515625 81.246094 36.75 81.144531 C 23.710938 80.414062 10.804688 80.695312 1.835938 89.667969 C 0 91.503906 0 94.476562 1.839844 96.316406 C 2.753906 97.234375 3.960938 97.695312 5.164062 97.695312 C 6.363281 97.695312 7.570312 97.238281 8.488281 96.316406 C 14.90625 89.902344 25.605469 89.894531 37.28125 90.597656 C 38.648438 90.679688 44.964844 91.097656 46.738281 91.195312 C 59.757812 91.925781 72.652344 91.640625 81.621094 82.675781 C 90.585938 73.71875 90.875 60.828125 90.148438 47.8125 Z M 90.148438 47.8125 "/>
<path style=" stroke:none;fill-rule:nonzero;fill:rgb(45.490196%,30.588236%,66.666669%);fill-opacity:1;" d="M 90.148438 47.8125 C 90.046875 46.03125 89.632812 39.714844 89.550781 38.355469 C 89.453125 36.753906 89.375 35.175781 89.324219 33.617188 C 88.128906 33.542969 81.855469 33.144531 79.890625 33.039062 C 79.9375 34.601562 80.003906 36.179688 80.089844 37.753906 C 80.1875 39.535156 80.605469 45.847656 80.6875 47.214844 C 80.882812 50.464844 81.011719 53.628906 80.972656 56.65625 C 82.160156 56.734375 88.417969 57.128906 90.378906 57.234375 C 90.433594 54.132812 90.324219 50.980469 90.148438 47.8125 Z M 90.148438 47.8125 "/>
<path style=" stroke:none;fill-rule:nonzero;fill:rgb(33.333334%,67.450982%,93.333334%);fill-opacity:1;" d="M 126.511719 31.386719 C 125.015625 29.835938 121.585938 29.246094 118.363281 32.640625 C 111.945312 39.058594 101.238281 39.0625 89.550781 38.355469 C 88.183594 38.273438 81.871094 37.851562 80.089844 37.753906 C 67.074219 37.023438 54.183594 37.316406 45.222656 46.277344 C 37.347656 54.152344 36.175781 65.0625 36.5 76.425781 C 38.46875 76.535156 44.746094 76.929688 45.933594 77.003906 C 45.585938 67.207031 46.335938 58.464844 51.875 52.925781 C 58.292969 46.507812 69.007812 46.507812 80.691406 47.210938 C 82.050781 47.292969 88.371094 47.707031 90.152344 47.808594 C 103.167969 48.535156 116.058594 48.25 125.015625 39.289062 C 128.167969 36.199219 128.003906 32.933594 126.511719 31.386719 Z M 126.511719 31.386719 "/>
</g>
</svg>
