<?xml version="1.0" encoding="UTF-8"?>
<svg xmlns="http://www.w3.org/2000/svg" xmlns:xlink="http://www.w3.org/1999/xlink" width="128px" height="128px" viewBox="0 0 128 128" version="1.1">
<defs>
<clipPath id="clip1">
  <path d="M 8 0 L 112 0 L 112 121 L 8 121 Z M 8 0 "/>
</clipPath>
<clipPath id="clip2">
  <path d="M 127.648438 64 C 127.648438 99.148438 99.148438 127.648438 63.988281 127.648438 C 28.851562 127.648438 0.351562 99.148438 0.351562 64 C 0.351562 28.839844 28.851562 0.351562 63.988281 0.351562 C 99.148438 0.351562 127.648438 28.839844 127.648438 64 Z M 127.648438 64 "/>
</clipPath>
<clipPath id="clip3">
  <path d="M 122 50 L 128 50 L 128 73 L 122 73 Z M 122 50 "/>
</clipPath>
<clipPath id="clip4">
  <path d="M 127.648438 64 C 127.648438 99.148438 99.148438 127.648438 63.988281 127.648438 C 28.851562 127.648438 0.351562 99.148438 0.351562 64 C 0.351562 28.839844 28.851562 0.351562 63.988281 0.351562 C 99.148438 0.351562 127.648438 28.839844 127.648438 64 Z M 127.648438 64 "/>
</clipPath>
<clipPath id="clip5">
  <path d="M 66 54 L 86 54 L 86 63 L 66 63 Z M 66 54 "/>
</clipPath>
<clipPath id="clip6">
  <path d="M 127.648438 64 C 127.648438 99.148438 99.148438 127.648438 63.988281 127.648438 C 28.851562 127.648438 0.351562 99.148438 0.351562 64 C 0.351562 28.839844 28.851562 0.351562 63.988281 0.351562 C 99.148438 0.351562 127.648438 28.839844 127.648438 64 Z M 127.648438 64 "/>
</clipPath>
</defs>
<g id="surface1">
<path style=" stroke:none;fill-rule:nonzero;fill:rgb(0%,42.352942%,63.529414%);fill-opacity:1;" d="M 127.648438 64 C 127.648438 99.148438 99.148438 127.648438 63.988281 127.648438 C 28.851562 127.648438 0.351562 99.148438 0.351562 64 C 0.351562 28.839844 28.851562 0.351562 63.988281 0.351562 C 99.148438 0.351562 127.648438 28.839844 127.648438 64 Z M 127.648438 64 "/>
<g clip-path="url(#clip1)" clip-rule="nonzero">
<g clip-path="url(#clip2)" clip-rule="nonzero">
<path style=" stroke:none;fill-rule:nonzero;fill:rgb(74.117649%,81.176472%,27.450982%);fill-opacity:1;" d="M 108.988281 82.738281 C 107.941406 81.949219 105.800781 80.988281 104.609375 80.808594 C 102.578125 80.5 101.480469 81.210938 100.53125 79.058594 C 99.738281 77.269531 99.148438 76.148438 97.738281 74.671875 C 95.019531 71.828125 92.558594 70.570312 88.871094 69.148438 L 82.589844 69.148438 C 79.949219 68.429688 77.300781 67.488281 74.949219 69.589844 C 74.699219 69.808594 74.488281 70.089844 74.261719 70.339844 C 74 70.621094 72.828125 70.71875 72.449219 70.820312 C 71.921875 70.949219 71.359375 71.109375 70.800781 71.121094 C 69.941406 71.140625 68.761719 70.910156 68.171875 70.230469 C 67.828125 69.839844 67.628906 69.070312 67.578125 68.558594 C 67.519531 67.878906 67.808594 67.289062 67.820312 66.640625 C 67.839844 66.058594 67.871094 65.390625 67.710938 64.839844 C 67.378906 63.691406 66.078125 63.359375 65.070312 63.140625 C 64.46875 63.011719 63.878906 62.921875 63.269531 62.71875 C 61.738281 62.199219 62.53125 60.109375 63.179688 59.179688 C 63.839844 58.230469 64.789062 57.570312 63.199219 56.699219 C 61.921875 56.011719 60.351562 56.121094 59.21875 56.960938 C 58.140625 57.78125 57.429688 59.371094 56.121094 59.78125 C 54.621094 60.261719 52.988281 59.160156 51.570312 58.960938 C 51.710938 57.070312 50.761719 53.589844 50.808594 52.730469 C 50.949219 50.460938 52.621094 48 54.808594 47.398438 C 57 46.800781 59.410156 46.339844 61.679688 46.578125 C 65.191406 46.949219 65.039062 48.828125 66.871094 51.28125 C 67.46875 52.078125 68.621094 53.019531 69.660156 52.46875 C 71.871094 51.308594 71.191406 48.328125 71.261719 46.320312 C 71.371094 43.191406 73.378906 41.300781 75.300781 38.988281 C 76.011719 38.140625 76.730469 37.300781 77.429688 36.441406 C 78.058594 35.660156 78.800781 34.929688 79.859375 34.730469 C 80.601562 34.601562 81.511719 34.738281 82.261719 34.738281 C 83.480469 34.738281 85.808594 35.148438 86.519531 33.898438 C 87.179688 32.71875 86.210938 31.910156 85.230469 31.53125 C 84.828125 31.371094 84.148438 31.289062 84.03125 30.789062 C 83.621094 29.039062 85.5 28.980469 86.671875 28.789062 C 87.730469 28.621094 89.101562 28.269531 89.910156 29.25 C 90.269531 29.691406 90.089844 30.21875 90.5 30.671875 C 91.25 31.480469 93.179688 31.019531 93.988281 30.550781 C 94.929688 30 95.191406 28.460938 95.191406 27.460938 C 95.191406 26.941406 95.109375 26.398438 94.808594 25.96875 C 94.011719 24.828125 91.660156 24.308594 90.480469 23.640625 C 88.761719 22.660156 87.160156 21.5 85.589844 20.308594 C 83.75 18.921875 81.738281 17.800781 79.710938 16.730469 C 77.960938 15.820312 75.789062 14.308594 73.738281 14.671875 C 72.941406 14.800781 72.5 15.378906 72.328125 16.148438 C 72.21875 16.730469 71.949219 17.320312 71.949219 17.921875 C 71.960938 18.648438 72.300781 19.320312 72.511719 20 C 72.769531 20.851562 72.980469 21.71875 72.308594 22.429688 C 71.671875 23.101562 70.25 23.078125 69.511719 22.53125 C 68.609375 21.851562 68.238281 20.761719 67.25 20.238281 C 66.148438 19.660156 65.328125 19.5 64.101562 19.648438 C 62.949219 19.789062 61.570312 19.929688 60.421875 19.640625 C 59.320312 19.371094 58.25 18.039062 58.230469 16.910156 C 58.210938 16.101562 58.390625 14.96875 59.160156 14.519531 C 60.070312 14 61.578125 14.128906 62.601562 14.050781 C 62.808594 14.039062 63.011719 14.019531 63.199219 14 C 63.230469 13.988281 63.261719 13.988281 63.289062 13.988281 C 63.320312 13.980469 63.359375 13.980469 63.390625 13.980469 C 63.679688 13.941406 63.949219 13.910156 64.140625 13.859375 C 64.128906 13.839844 64.101562 13.820312 64.089844 13.800781 C 64.25 14.101562 65.160156 12.78125 65.191406 12.628906 C 65.351562 11.96875 64.859375 11.199219 65.101562 10.578125 C 65.28125 10.121094 65.929688 9.828125 66.359375 9.691406 C 67.03125 9.480469 67.71875 9.601562 68.398438 9.671875 C 68.949219 9.730469 69.539062 9.730469 70.078125 9.839844 C 71.328125 10.101562 71.371094 11.078125 72.148438 11.839844 C 73.269531 12.890625 73.949219 12.429688 75.410156 12.628906 C 76.980469 12.839844 81.101562 15.539062 82.5 13.429688 C 84.058594 11.078125 79.859375 9.351562 78.558594 8.921875 C 76.511719 8.238281 74.46875 6.851562 73.128906 5.148438 C 72.46875 4.308594 71.949219 3.289062 71.96875 2.191406 C 72 1.300781 71.96875 -0.0703125 72.800781 -0.640625 C 73 -0.769531 73.21875 -0.851562 73.449219 -0.859375 C 73.859375 -0.898438 74.308594 -0.921875 74.648438 -0.71875 C 75.148438 -0.410156 75.558594 0.191406 75.820312 0.699219 C 76.371094 1.800781 76.179688 2.851562 76.96875 3.949219 C 77.761719 5.019531 78.789062 5.890625 79.75 6.789062 C 82.238281 9.109375 84.988281 11.171875 88.179688 12.390625 C 89.898438 13.050781 91.710938 13.558594 93.339844 14.460938 C 95.191406 15.5 95.871094 16.839844 97.101562 18.429688 C 100.550781 22.859375 110.671875 21.421875 108.300781 14.429688 C 106.519531 9.191406 103.039062 4.699219 98.398438 1.859375 C 96.171875 0.5 94.171875 -1.390625 91.921875 -2.648438 C 89.101562 -4.21875 85.71875 -4.699219 82.578125 -5.21875 C 78.871094 -5.828125 75.230469 -6.109375 71.480469 -6.28125 C 68.75 -6.398438 65.859375 -6.839844 63.589844 -5 C 62.378906 -4.03125 58.820312 -0.660156 58.75 0.738281 C 58.679688 2.078125 60.441406 2.800781 60.71875 4.03125 C 60.828125 4.558594 60.871094 5.03125 60.460938 5.429688 C 60.011719 5.871094 59.390625 6.011719 59.289062 6.710938 C 59.210938 7.320312 59.441406 7.730469 59.679688 8.25 C 59.871094 8.648438 60.28125 9.421875 59.929688 9.871094 C 59 11.039062 57.75 8.929688 57.671875 8.128906 C 57.550781 6.828125 57.960938 5.699219 56.640625 4.878906 C 55.75 4.328125 53.328125 4.089844 52.960938 5.390625 C 52.78125 6.011719 53.480469 6.609375 53.398438 7.328125 C 53.230469 8.789062 52.261719 8.421875 51.148438 8.609375 C 49.210938 8.941406 48.808594 10.390625 46.730469 9.429688 C 46.53125 8.390625 47.128906 6.710938 46.121094 6.011719 C 45.308594 5.460938 43.488281 5.859375 42.578125 5.5 C 40.300781 4.578125 38.289062 4.289062 35.859375 5.011719 C 33.289062 5.78125 30.71875 7.300781 28.238281 8.53125 C 25.050781 10.109375 20.058594 8.078125 17.460938 10.410156 L 17.410156 10.859375 C 15.269531 10.839844 14.378906 11.179688 12.878906 13.171875 C 11.800781 14.601562 11.25 15.980469 10.601562 17.558594 C 10.109375 18.761719 9.089844 19.859375 8.898438 21.199219 C 8.78125 22.140625 8.851562 23.328125 8.988281 24.261719 C 9.058594 24.78125 13.691406 23.371094 14.28125 23.441406 C 16.429688 23.71875 18.089844 25.800781 19.808594 26.910156 C 21.28125 27.839844 23.058594 28.800781 23.320312 30.589844 C 23.640625 32.75 23.238281 35.160156 23.300781 37.351562 C 23.421875 41.699219 27.921875 45.011719 30.601562 48.019531 C 31.789062 49.359375 31.890625 51.03125 33.058594 52.289062 C 33.710938 53 35.679688 56.53125 37.121094 55.21875 C 38.269531 54.179688 35.261719 51 35.5 49.539062 C 35.628906 48.648438 37.648438 50.429688 37.769531 50.558594 C 38.609375 51.558594 39.050781 53 39.488281 54.210938 C 40.441406 56.820312 41.28125 57.980469 43.46875 59 C 43.339844 60.25 44.621094 61.089844 45.761719 61.738281 C 47.011719 62.449219 48.371094 62.46875 49.699219 63.058594 C 50.960938 63.628906 52.339844 63.621094 53.511719 64.191406 C 55.25 65.03125 54.078125 65.859375 55.058594 67.109375 C 56.148438 68.511719 58.21875 67.648438 59.691406 67.878906 C 62.839844 68.371094 62.308594 71.378906 64.269531 73.191406 C 65.339844 74.199219 67.171875 74.089844 68.519531 74.238281 C 69.050781 74.300781 69.738281 74.308594 70.160156 74.691406 C 71.210938 75.621094 69.980469 76.898438 69.578125 77.808594 C 69.03125 79.03125 68.648438 80.339844 68.410156 81.660156 C 67.738281 85.339844 67.878906 89.449219 70.558594 92.300781 C 73.480469 95.410156 77.050781 96.820312 78.160156 101.261719 C 79.109375 104.96875 78.230469 108.601562 77.550781 112.261719 C 77.128906 114.460938 74.121094 118.28125 77.109375 119.898438 C 79.710938 121.308594 84.128906 117.429688 85.828125 115.949219 C 89.839844 112.449219 95.140625 110.320312 97.78125 105.410156 C 99.03125 103.078125 100.140625 100.621094 102.328125 99.011719 C 103.480469 98.160156 104.808594 97.601562 106.039062 96.890625 C 108.648438 95.398438 110.210938 92.230469 111.378906 89.601562 C 112.761719 86.410156 111.488281 84.609375 108.988281 82.738281 Z M 61.898438 26.460938 C 62.609375 26.289062 63.570312 26.328125 63.871094 26.398438 C 65.019531 26.679688 65.871094 27.578125 66.75 28.300781 C 67.390625 28.808594 67.929688 29.351562 68.5 29.921875 C 68.871094 30.289062 69.21875 30.621094 69.140625 31.230469 C 69.078125 31.761719 68.78125 32.019531 68.300781 32.070312 C 67.429688 32.160156 67.039062 31.589844 66.261719 31.460938 C 64.410156 31.148438 63.640625 34.269531 61.789062 33.421875 C 61.320312 33.199219 61.460938 32.808594 61.460938 32.308594 C 61.449219 31.929688 61.460938 31.589844 61.601562 31.261719 C 61.78125 30.839844 62.070312 30.488281 62.421875 30.179688 C 62.640625 29.988281 63 29.839844 63.171875 29.589844 C 63.578125 28.949219 63 28.269531 62.421875 28.03125 C 62.058594 27.878906 61.53125 27.871094 61.300781 27.550781 C 60.871094 26.941406 61.289062 26.621094 61.898438 26.460938 Z M 61.898438 26.460938 "/>
</g>
</g>
<g clip-path="url(#clip3)" clip-rule="nonzero">
<g clip-path="url(#clip4)" clip-rule="nonzero">
<path style=" stroke:none;fill-rule:nonzero;fill:rgb(74.117649%,81.176472%,27.450982%);fill-opacity:1;" d="M 136.019531 61.078125 C 136 58.078125 136.140625 53.96875 133.640625 51.800781 C 131.328125 49.789062 128.480469 51.011719 126.570312 52.929688 C 122.871094 56.660156 121.371094 63.699219 124.449219 68.230469 C 125.589844 69.910156 127.039062 71.308594 128.941406 71.75 C 130.800781 72.179688 134.351562 72.410156 135.261719 70.511719 C 135.78125 69.421875 135.578125 68.140625 135.578125 66.949219 C 135.570312 64.921875 136.039062 63.089844 136.019531 61.078125 Z M 136.019531 61.078125 "/>
</g>
</g>
<g clip-path="url(#clip5)" clip-rule="nonzero">
<g clip-path="url(#clip6)" clip-rule="nonzero">
<path style=" stroke:none;fill-rule:nonzero;fill:rgb(74.117649%,81.176472%,27.450982%);fill-opacity:1;" d="M 78.148438 57.269531 C 77.230469 56.808594 76.878906 56.03125 76.269531 55.410156 C 75.96875 55.109375 75.609375 54.851562 75.089844 54.691406 C 74.109375 54.410156 72.871094 54.519531 71.859375 54.578125 C 70.371094 54.671875 66.570312 54.921875 66.378906 57.011719 C 66.128906 59.679688 69.800781 59.378906 71.621094 59.351562 C 72.871094 59.328125 74.078125 58.871094 75.328125 59.179688 C 77.160156 59.628906 76.75 61.261719 78.171875 61.878906 C 78.679688 62.101562 80.261719 62.398438 80.75 62.441406 C 82.570312 62.601562 86.941406 61.550781 85.78125 58.949219 C 84.730469 56.558594 80.019531 58.199219 78.148438 57.269531 Z M 78.148438 57.269531 "/>
</g>
</g>
</g>
</svg>
