<?xml version="1.0" encoding="UTF-8"?>
<svg xmlns="http://www.w3.org/2000/svg" xmlns:xlink="http://www.w3.org/1999/xlink" width="128px" height="128px" viewBox="0 0 128 128" version="1.1">
<defs>
<clipPath id="clip1">
  <path d="M 49 95 L 85 95 L 85 126 L 49 126 Z M 49 95 "/>
</clipPath>
<clipPath id="clip2">
  <path d="M 73.558594 88.640625 C 68.511719 88.441406 63.140625 90.738281 59.859375 95.011719 C 56.460938 99.429688 56.558594 105.089844 56.421875 110.390625 C 56.339844 113.269531 56.820312 117.289062 54.730469 119.628906 C 53.789062 120.679688 52.800781 120.898438 51.519531 121.058594 C 51.019531 121.121094 48.578125 120.738281 49.5 122.140625 C 51.25 124.808594 57.761719 125.488281 60.550781 125.609375 C 68.050781 125.949219 75.429688 122.628906 80.378906 117.019531 C 80.890625 116.429688 81.378906 115.820312 81.839844 115.191406 C 85.53125 110.109375 87.691406 102.910156 85.320312 96.859375 C 83.179688 91.410156 78.519531 88.828125 73.558594 88.640625 Z M 73.558594 88.640625 "/>
</clipPath>
<clipPath id="clip3">
  <path d="M 69 78 L 96 78 L 96 99 L 69 99 Z M 69 78 "/>
</clipPath>
<clipPath id="clip4">
  <path d="M 102.539062 68.359375 C 101.578125 66.351562 99.71875 65.21875 98.089844 64.21875 C 97.671875 63.960938 97.25 63.710938 96.871094 63.449219 C 94.289062 61.679688 92.078125 61.25 90.300781 62.101562 C 87.628906 63.378906 85.738281 66.761719 84.210938 69.480469 C 83.789062 70.21875 83.410156 70.898438 83.058594 71.460938 C 80.191406 75.929688 77.421875 79.359375 72.519531 82.660156 L 72.101562 82.929688 C 70.988281 83.640625 69.46875 84.621094 69.351562 86.390625 C 69.300781 87.140625 69.511719 88.269531 70.820312 89.378906 C 72.25 90.589844 73.820312 91.328125 75.339844 92.039062 C 75.878906 92.289062 76.429688 92.550781 76.960938 92.828125 C 78.710938 93.75 80.300781 94.960938 81.988281 96.25 L 82.988281 97 C 83.25 97.191406 83.511719 97.449219 83.789062 97.699219 C 84.570312 98.429688 85.539062 99.351562 86.800781 99.699219 C 87.230469 99.820312 87.609375 99.878906 87.949219 99.878906 C 89.308594 99.878906 89.988281 99.039062 90.359375 98.589844 L 90.511719 98.410156 C 91.96875 96.699219 92.691406 94.410156 93.320312 92.390625 C 93.621094 91.410156 93.910156 90.480469 94.25 89.699219 C 94.789062 88.46875 95.300781 87.230469 95.808594 85.988281 C 96.929688 83.25 97.988281 80.660156 99.359375 78.191406 C 99.679688 77.601562 100.148438 76.988281 100.648438 76.351562 C 102.121094 74.410156 104.148438 71.75 102.539062 68.359375 Z M 102.539062 68.359375 "/>
</clipPath>
</defs>
<g id="surface1">
<path style=" stroke:none;fill-rule:nonzero;fill:rgb(96.862745%,57.647061%,16.078432%);fill-opacity:1;" d="M 103.441406 27.851562 C 101.289062 22.769531 96.648438 16.179688 91.859375 13.25 C 80.71875 6.398438 66.558594 5.078125 53.929688 7.5 C 34.089844 11.300781 15.5 24.128906 6.191406 42.210938 C -0.398438 55.011719 -1.761719 74.519531 7.019531 86.800781 C 12.75 94.808594 24.121094 97.839844 33.140625 94.078125 C 39.269531 91.53125 43.070312 85.851562 48.371094 82.128906 C 55.25 77.289062 62.710938 78.660156 70.691406 78.351562 C 93.601562 77.480469 112.328125 48.960938 103.441406 27.851562 Z M 69.75 60.890625 C 67.929688 61.589844 65.539062 62 63.578125 61.710938 C 61.601562 61.398438 59.5 59.949219 58.449219 58.230469 C 54.800781 52.308594 60.859375 45.460938 66.460938 43.96875 C 69.238281 43.230469 73.320312 43.691406 75.53125 45.601562 C 81.261719 50.550781 75.011719 58.851562 69.75 60.890625 Z M 69.75 60.890625 "/>
<path style=" stroke:none;fill-rule:nonzero;fill:rgb(92.941177%,42.352942%,18.82353%);fill-opacity:1;" d="M 43.46875 21.589844 C 45.039062 20.328125 47.058594 19.539062 48.949219 19.378906 C 52.398438 19.078125 54.839844 22.148438 54.699219 25.550781 C 54.511719 29.851562 49.789062 31.941406 45.851562 31.769531 C 42.789062 31.640625 40.269531 28.878906 40.78125 25.898438 C 41.089844 24.160156 42.109375 22.699219 43.46875 21.589844 Z M 43.46875 21.589844 "/>
<path style=" stroke:none;fill-rule:nonzero;fill:rgb(74.117649%,81.176472%,27.450982%);fill-opacity:1;" d="M 16.488281 53.679688 C 17.679688 48.890625 23.371094 45.859375 27.421875 49.28125 C 31.28125 52.53125 29.46875 58.96875 25.378906 61.328125 C 22.660156 62.898438 18.621094 61.851562 17.050781 58.941406 C 16.179688 57.328125 16.050781 55.441406 16.488281 53.679688 Z M 16.488281 53.679688 "/>
<path style=" stroke:none;fill-rule:nonzero;fill:rgb(0%,42.352942%,63.529414%);fill-opacity:1;" d="M 28.730469 70.019531 C 31 74.320312 29.488281 80.949219 23.960938 81.410156 C 18.429688 81.871094 15.339844 75.359375 16.769531 70.601562 C 18.199219 65.859375 24.058594 65.078125 27.359375 68.199219 C 27.921875 68.730469 28.378906 69.339844 28.730469 70.019531 Z M 28.730469 70.019531 "/>
<path style=" stroke:none;fill-rule:nonzero;fill:rgb(98.823529%,76.078433%,10.588235%);fill-opacity:1;" d="M 38.28125 39.460938 C 36.789062 42.199219 33.320312 44.589844 30.109375 44.191406 C 26.078125 43.691406 24.5 38.890625 26.25 35.460938 C 28.648438 30.761719 36.171875 28.878906 38.691406 34.660156 C 39.378906 36.25 39.109375 37.949219 38.28125 39.460938 Z M 38.28125 39.460938 "/>
<path style=" stroke:none;fill-rule:nonzero;fill:rgb(100%,100%,100%);fill-opacity:1;" d="M 73.558594 88.640625 C 68.511719 88.441406 63.140625 90.738281 59.859375 95.011719 C 56.460938 99.429688 56.558594 105.089844 56.421875 110.390625 C 56.339844 113.269531 56.820312 117.289062 54.730469 119.628906 C 53.789062 120.679688 52.800781 120.898438 51.519531 121.058594 C 51.019531 121.121094 48.578125 120.738281 49.5 122.140625 C 51.25 124.808594 57.761719 125.488281 60.550781 125.609375 C 68.050781 125.949219 75.429688 122.628906 80.378906 117.019531 C 80.890625 116.429688 81.378906 115.820312 81.839844 115.191406 C 85.53125 110.109375 87.691406 102.910156 85.320312 96.859375 C 83.179688 91.410156 78.519531 88.828125 73.558594 88.640625 Z M 73.558594 88.640625 "/>
<g clip-path="url(#clip1)" clip-rule="nonzero">
<g clip-path="url(#clip2)" clip-rule="nonzero">
<path style=" stroke:none;fill-rule:nonzero;fill:rgb(92.941177%,42.352942%,18.82353%);fill-opacity:1;" d="M 65.050781 103.628906 C 65.160156 103.871094 65.261719 104.179688 65.308594 104.570312 C 65.621094 106.949219 67.441406 107.46875 69.601562 107.46875 C 71.789062 107.46875 74.519531 106.988281 74.519531 109.929688 C 74.511719 111.191406 73.910156 112.121094 75.171875 112.890625 C 77.070312 114.050781 80.710938 113.78125 82.550781 112.570312 C 83.691406 111.820312 85.289062 111.148438 84.570312 113.28125 C 84.148438 114.511719 83.328125 115.640625 82.730469 116.800781 C 82.070312 118.070312 81.238281 119.078125 80.238281 120.101562 C 79.511719 120.851562 79.011719 121.75 78.171875 122.390625 C 76.019531 124.019531 73.21875 124.53125 70.710938 125.351562 C 67.351562 126.449219 64.140625 128.410156 60.539062 127.398438 C 56.730469 126.328125 52.578125 126.761719 48.828125 125.53125 C 46.980469 124.921875 45.828125 123.800781 46.109375 121.808594 C 46.359375 120.101562 47.53125 119.460938 49.089844 119.121094 C 50.851562 118.730469 52.289062 118.261719 53.101562 116.5 C 53.800781 115.011719 53.320312 112.839844 53.21875 111.261719 C 53.078125 109.109375 52.839844 106.839844 53.390625 104.730469 C 53.851562 102.988281 54.359375 101.25 55.121094 99.609375 C 55.46875 98.839844 55.839844 97.898438 56.398438 97.261719 C 57.269531 96.261719 58.339844 95.808594 59.519531 95.28125 C 59.890625 96.230469 59.101562 97.738281 58.960938 98.699219 C 58.730469 100.351562 58.78125 102.121094 60.460938 102.789062 C 62.089844 103.410156 64.261719 101.96875 65.050781 103.628906 Z M 65.050781 103.628906 "/>
</g>
</g>
<path style=" stroke:none;fill-rule:nonzero;fill:rgb(52.156866%,36.078432%,32.156864%);fill-opacity:1;" d="M 91.929688 60.628906 C 97.601562 54.109375 101.78125 46.320312 106.890625 39.339844 C 110.03125 35.058594 112.921875 30.539062 115.839844 26.128906 C 117.691406 23.339844 120.351562 18.449219 124.269531 18.519531 C 124.949219 18.53125 125.570312 18.820312 126.121094 19.210938 C 127.328125 20.070312 127.320312 22.140625 126.921875 23.421875 C 125.328125 28.570312 122.351562 33.5 119.851562 38.261719 C 118.898438 40.078125 117.929688 41.898438 116.921875 43.691406 C 113.96875 48.941406 110.890625 54.121094 108.171875 59.5 C 107.109375 61.601562 106.109375 63.71875 105.199219 65.878906 C 104.628906 67.21875 103.75 68.359375 103.398438 69.761719 C 103.039062 71.199219 99.789062 67.148438 99.589844 66.828125 C 98.851562 65.601562 98.171875 64.949219 96.851562 64.511719 C 95.898438 64.199219 90.808594 63.46875 91.21875 61.851562 C 91.328125 61.429688 91.589844 61.019531 91.929688 60.628906 Z M 91.929688 60.628906 "/>
<path style=" stroke:none;fill-rule:nonzero;fill:rgb(47.058824%,63.921571%,67.843139%);fill-opacity:1;" d="M 102.539062 68.359375 C 101.578125 66.351562 99.71875 65.21875 98.089844 64.21875 C 97.671875 63.960938 97.25 63.710938 96.871094 63.449219 C 94.289062 61.679688 92.078125 61.25 90.300781 62.101562 C 87.628906 63.378906 85.738281 66.761719 84.210938 69.480469 C 83.789062 70.21875 83.410156 70.898438 83.058594 71.460938 C 80.191406 75.929688 77.421875 79.359375 72.519531 82.660156 L 72.101562 82.929688 C 70.988281 83.640625 69.46875 84.621094 69.351562 86.390625 C 69.300781 87.140625 69.511719 88.269531 70.820312 89.378906 C 72.25 90.589844 73.820312 91.328125 75.339844 92.039062 C 75.878906 92.289062 76.429688 92.550781 76.960938 92.828125 C 78.710938 93.75 80.300781 94.960938 81.988281 96.25 L 82.988281 97 C 83.25 97.191406 83.511719 97.449219 83.789062 97.699219 C 84.570312 98.429688 85.539062 99.351562 86.800781 99.699219 C 87.230469 99.820312 87.609375 99.878906 87.949219 99.878906 C 89.308594 99.878906 89.988281 99.039062 90.359375 98.589844 L 90.511719 98.410156 C 91.96875 96.699219 92.691406 94.410156 93.320312 92.390625 C 93.621094 91.410156 93.910156 90.480469 94.25 89.699219 C 94.789062 88.46875 95.300781 87.230469 95.808594 85.988281 C 96.929688 83.25 97.988281 80.660156 99.359375 78.191406 C 99.679688 77.601562 100.148438 76.988281 100.648438 76.351562 C 102.121094 74.410156 104.148438 71.75 102.539062 68.359375 Z M 102.539062 68.359375 "/>
<g clip-path="url(#clip3)" clip-rule="nonzero">
<g clip-path="url(#clip4)" clip-rule="nonzero">
<path style=" stroke:none;fill-rule:nonzero;fill:rgb(18.431373%,18.431373%,18.431373%);fill-opacity:1;" d="M 93.710938 98.859375 C 92.988281 98.859375 92.289062 98.511719 91.839844 97.871094 C 91.308594 97.078125 90.988281 96.300781 90.699219 95.609375 C 90.441406 94.980469 90.21875 94.441406 89.890625 94.011719 C 86.820312 90.050781 83.101562 87.308594 77.039062 84.539062 C 75.230469 83.710938 73.578125 83.300781 72.179688 83.300781 C 70.929688 83.300781 69.921875 82.289062 69.921875 81.050781 C 69.921875 79.808594 70.929688 78.800781 72.179688 78.800781 C 74.230469 78.800781 76.5 79.359375 78.910156 80.449219 C 83.621094 82.601562 89.039062 85.570312 93.449219 91.261719 C 94.160156 92.171875 94.539062 93.089844 94.871094 93.910156 C 95.101562 94.46875 95.300781 94.949219 95.578125 95.359375 C 96.28125 96.390625 96 97.789062 94.980469 98.480469 C 94.578125 98.730469 94.140625 98.859375 93.710938 98.859375 Z M 93.710938 98.859375 "/>
</g>
</g>
</g>
</svg>
