<?xml version="1.0" encoding="UTF-8"?>
<svg xmlns="http://www.w3.org/2000/svg" xmlns:xlink="http://www.w3.org/1999/xlink" width="128px" height="128px" viewBox="0 0 128 128" version="1.1">
<g id="surface1">
<path style=" stroke:none;fill-rule:nonzero;fill:rgb(10.196079%,42.352942%,63.529414%);fill-opacity:1;" d="M 112.371094 78.441406 L 85.460938 87.660156 L 85.460938 99.328125 L 112.371094 110.089844 Z M 112.371094 78.441406 "/>
<path style=" stroke:none;fill-rule:nonzero;fill:rgb(25.098041%,75.294119%,90.588236%);fill-opacity:1;" d="M 28.339844 116.640625 C 24.929688 116.640625 22.160156 113.871094 22.160156 110.460938 L 22.160156 60.089844 C 22.160156 56.679688 24.929688 53.910156 28.339844 53.910156 L 88.941406 53.910156 C 92.351562 53.910156 95.121094 56.679688 95.121094 60.089844 L 95.121094 110.460938 C 95.121094 113.871094 92.351562 116.640625 88.941406 116.640625 Z M 28.339844 116.640625 "/>
<path style=" stroke:none;fill-rule:nonzero;fill:rgb(10.196079%,42.352942%,63.529414%);fill-opacity:1;" d="M 116.28125 75.578125 C 118.519531 75.578125 120.339844 77.398438 120.339844 79.640625 L 120.339844 108.890625 C 120.339844 111.128906 118.519531 112.949219 116.28125 112.949219 C 114.039062 112.949219 112.21875 111.128906 112.21875 108.890625 L 112.21875 79.640625 C 112.21875 77.398438 114.039062 75.578125 116.28125 75.578125 Z M 116.28125 75.578125 "/>
<path style=" stroke:none;fill-rule:nonzero;fill:rgb(10.196079%,42.352942%,63.529414%);fill-opacity:1;" d="M 80.929688 121 L 36.351562 121 C 34.28125 121 32.609375 119.320312 32.609375 117.261719 C 32.609375 115.191406 34.289062 113.519531 36.351562 113.519531 L 80.941406 113.519531 C 83.011719 113.519531 84.679688 115.199219 84.679688 117.261719 C 84.679688 119.320312 83 121 80.929688 121 Z M 80.929688 121 "/>
<path style=" stroke:none;fill-rule:nonzero;fill:rgb(10.196079%,42.352942%,63.529414%);fill-opacity:1;" d="M 21.480469 67.53125 L 58.75 67.53125 C 62.890625 67.53125 66.238281 70.878906 66.238281 75.019531 L 66.238281 94.660156 C 66.238281 98.800781 62.890625 102.148438 58.75 102.148438 L 21.480469 102.148438 C 17.339844 102.148438 13.988281 98.800781 13.988281 94.660156 L 13.988281 75.019531 C 13.988281 70.878906 17.339844 67.53125 21.480469 67.53125 Z M 21.480469 67.53125 "/>
<path style=" stroke:none;fill-rule:nonzero;fill:rgb(10.196079%,42.352942%,63.529414%);fill-opacity:1;" d="M 79.738281 74.609375 L 88.699219 74.609375 C 92.238281 74.609375 95.121094 77.238281 95.121094 80.488281 L 95.121094 110.769531 C 95.121094 114.019531 92.25 116.648438 88.699219 116.648438 L 79.738281 116.648438 C 76.199219 116.648438 73.320312 114.019531 73.320312 110.769531 L 73.320312 80.488281 C 73.320312 77.238281 76.191406 74.609375 79.738281 74.609375 Z M 79.738281 74.609375 "/>
<path style=" stroke:none;fill-rule:nonzero;fill:rgb(92.941177%,42.352942%,18.82353%);fill-opacity:1;" d="M 87.21875 105.019531 C 87.21875 103.273438 85.804688 101.859375 84.058594 101.859375 C 82.316406 101.859375 80.898438 103.273438 80.898438 105.019531 C 80.898438 106.765625 82.316406 108.179688 84.058594 108.179688 C 85.804688 108.179688 87.21875 106.765625 87.21875 105.019531 Z M 87.21875 105.019531 "/>
<path style=" stroke:none;fill-rule:nonzero;fill:rgb(25.098041%,75.294119%,90.588236%);fill-opacity:1;" d="M 87.21875 94.539062 C 87.21875 92.792969 85.804688 91.378906 84.058594 91.378906 C 82.316406 91.378906 80.898438 92.792969 80.898438 94.539062 C 80.898438 96.285156 82.316406 97.699219 84.058594 97.699219 C 85.804688 97.699219 87.21875 96.285156 87.21875 94.539062 Z M 87.21875 94.539062 "/>
<path style=" stroke:none;fill-rule:nonzero;fill:rgb(10.196079%,42.352942%,63.529414%);fill-opacity:1;" d="M 94.5 8.121094 C 76.828125 8.121094 62.5 22.449219 62.5 40.121094 C 62.5 57.789062 76.828125 72.121094 94.5 72.121094 C 112.171875 72.121094 126.5 57.789062 126.5 40.121094 C 126.5 22.449219 112.171875 8.121094 94.5 8.121094 Z M 94.5 64.53125 C 81.011719 64.53125 70.078125 53.601562 70.078125 40.109375 C 70.078125 26.621094 81.019531 15.699219 94.5 15.699219 C 107.980469 15.699219 118.921875 26.628906 118.921875 40.121094 C 118.921875 53.609375 107.988281 64.53125 94.5 64.53125 Z M 94.5 64.53125 "/>
<path style=" stroke:none;fill-rule:nonzero;fill:rgb(100%,100%,100%);fill-opacity:1;" d="M 118.921875 40.109375 C 118.921875 26.625 107.988281 15.691406 94.5 15.691406 C 81.011719 15.691406 70.078125 26.625 70.078125 40.109375 C 70.078125 53.597656 81.011719 64.53125 94.5 64.53125 C 107.988281 64.53125 118.921875 53.597656 118.921875 40.109375 Z M 118.921875 40.109375 "/>
<path style=" stroke:none;fill-rule:nonzero;fill:rgb(10.196079%,42.352942%,63.529414%);fill-opacity:1;" d="M 94.5 29.070312 C 88.398438 29.070312 83.449219 34.019531 83.449219 40.121094 C 83.449219 46.21875 88.398438 51.160156 94.5 51.160156 C 100.601562 51.160156 105.550781 46.210938 105.550781 40.109375 C 105.550781 34.011719 100.601562 29.070312 94.5 29.070312 Z M 94.5 45.050781 C 91.78125 45.050781 89.570312 42.839844 89.570312 40.121094 C 89.570312 37.398438 91.78125 35.191406 94.5 35.191406 C 97.21875 35.191406 99.429688 37.398438 99.429688 40.121094 C 99.429688 42.839844 97.230469 45.050781 94.5 45.050781 Z M 94.5 45.050781 "/>
<path style=" stroke:none;fill-rule:nonzero;fill:rgb(100%,100%,100%);fill-opacity:1;" d="M 99.429688 40.109375 C 99.429688 37.386719 97.222656 35.179688 94.5 35.179688 C 91.777344 35.179688 89.570312 37.386719 89.570312 40.109375 C 89.570312 42.832031 91.777344 45.039062 94.5 45.039062 C 97.222656 45.039062 99.429688 42.832031 99.429688 40.109375 Z M 99.429688 40.109375 "/>
<path style=" stroke:none;fill-rule:nonzero;fill:rgb(10.196079%,42.352942%,63.529414%);fill-opacity:1;" d="M 89.570312 12.351562 L 92.671875 32.078125 L 96.621094 32.078125 L 99.441406 12.351562 Z M 89.570312 12.351562 "/>
<path style=" stroke:none;fill-rule:nonzero;fill:rgb(10.196079%,42.352942%,63.529414%);fill-opacity:1;" d="M 119.328125 26.78125 L 101.570312 35.929688 L 102.808594 39.671875 L 122.429688 36.148438 Z M 119.328125 26.78125 "/>
<path style=" stroke:none;fill-rule:nonzero;fill:rgb(10.196079%,42.352942%,63.529414%);fill-opacity:1;" d="M 114.839844 59.710938 L 100.671875 45.621094 L 97.488281 47.960938 L 106.878906 65.539062 Z M 114.839844 59.710938 "/>
<path style=" stroke:none;fill-rule:nonzero;fill:rgb(10.196079%,42.352942%,63.529414%);fill-opacity:1;" d="M 82.101562 65.550781 L 91.160156 47.75 L 87.96875 45.441406 L 74.109375 59.761719 Z M 82.101562 65.550781 "/>
<path style=" stroke:none;fill-rule:nonzero;fill:rgb(10.196079%,42.352942%,63.529414%);fill-opacity:1;" d="M 66.488281 36.25 L 86.21875 39.371094 L 87.429688 35.621094 L 69.53125 26.859375 Z M 66.488281 36.25 "/>
<path style=" stroke:none;fill-rule:nonzero;fill:rgb(10.196079%,42.352942%,63.529414%);fill-opacity:1;" d="M 27.148438 25.300781 C 12.871094 25.300781 1.289062 36.878906 1.289062 51.160156 C 1.289062 65.441406 12.871094 77.019531 27.148438 77.019531 C 41.429688 77.019531 53.011719 65.441406 53.011719 51.160156 C 53.011719 36.878906 41.441406 25.300781 27.148438 25.300781 Z M 27.148438 70.898438 C 16.25 70.898438 7.410156 62.058594 7.410156 51.160156 C 7.410156 40.261719 16.25 31.421875 27.148438 31.421875 C 38.050781 31.421875 46.890625 40.261719 46.890625 51.160156 C 46.890625 62.058594 38.050781 70.898438 27.148438 70.898438 Z M 27.148438 70.898438 "/>
<path style=" stroke:none;fill-rule:nonzero;fill:rgb(100%,100%,100%);fill-opacity:1;" d="M 46.890625 51.160156 C 46.890625 40.257812 38.050781 31.421875 27.148438 31.421875 C 16.246094 31.421875 7.410156 40.257812 7.410156 51.160156 C 7.410156 62.0625 16.246094 70.898438 27.148438 70.898438 C 38.050781 70.898438 46.890625 62.0625 46.890625 51.160156 Z M 46.890625 51.160156 "/>
<path style=" stroke:none;fill-rule:nonzero;fill:rgb(10.196079%,42.352942%,63.529414%);fill-opacity:1;" d="M 27.148438 42.230469 C 22.21875 42.230469 18.21875 46.230469 18.21875 51.160156 C 18.21875 56.089844 22.21875 60.089844 27.148438 60.089844 C 32.078125 60.089844 36.078125 56.089844 36.078125 51.160156 C 36.078125 46.230469 32.089844 42.230469 27.148438 42.230469 Z M 27.148438 55.148438 C 24.949219 55.148438 23.160156 53.359375 23.160156 51.160156 C 23.160156 48.960938 24.949219 47.171875 27.148438 47.171875 C 29.351562 47.171875 31.140625 48.960938 31.140625 51.160156 C 31.140625 53.359375 29.359375 55.148438 27.148438 55.148438 Z M 27.148438 55.148438 "/>
<path style=" stroke:none;fill-rule:nonzero;fill:rgb(100%,100%,100%);fill-opacity:1;" d="M 31.140625 51.160156 C 31.140625 48.957031 29.355469 47.171875 27.148438 47.171875 C 24.945312 47.171875 23.160156 48.957031 23.160156 51.160156 C 23.160156 53.363281 24.945312 55.148438 27.148438 55.148438 C 29.355469 55.148438 31.140625 53.363281 31.140625 51.160156 Z M 31.140625 51.160156 "/>
<path style=" stroke:none;fill-rule:nonzero;fill:rgb(10.196079%,42.352942%,63.529414%);fill-opacity:1;" d="M 23.171875 28.71875 L 25.671875 44.671875 L 28.859375 44.671875 L 31.140625 28.71875 Z M 23.171875 28.71875 "/>
<path style=" stroke:none;fill-rule:nonzero;fill:rgb(10.196079%,42.352942%,63.529414%);fill-opacity:1;" d="M 47.21875 40.378906 L 32.859375 47.78125 L 33.871094 50.800781 L 49.71875 47.960938 Z M 47.21875 40.378906 "/>
<path style=" stroke:none;fill-rule:nonzero;fill:rgb(10.196079%,42.352942%,63.529414%);fill-opacity:1;" d="M 43.589844 67 L 32.140625 55.609375 L 29.570312 57.5 L 37.160156 71.710938 Z M 43.589844 67 "/>
<path style=" stroke:none;fill-rule:nonzero;fill:rgb(10.196079%,42.352942%,63.529414%);fill-opacity:1;" d="M 17.128906 71.71875 L 24.449219 57.328125 L 21.871094 55.460938 L 10.671875 67.039062 Z M 17.128906 71.71875 "/>
<path style=" stroke:none;fill-rule:nonzero;fill:rgb(10.196079%,42.352942%,63.529414%);fill-opacity:1;" d="M 4.511719 48.039062 L 20.460938 50.558594 L 21.441406 47.53125 L 6.96875 40.449219 Z M 4.511719 48.039062 "/>
</g>
</svg>
