<?xml version="1.0" encoding="UTF-8"?>
<svg xmlns="http://www.w3.org/2000/svg" xmlns:xlink="http://www.w3.org/1999/xlink" width="128px" height="128px" viewBox="0 0 128 128" version="1.1">
<g id="surface1">
<path style=" stroke:none;fill-rule:nonzero;fill:rgb(47.058824%,63.921571%,67.843139%);fill-opacity:1;" d="M 127.578125 89.769531 L 126.410156 85.988281 C 126.308594 85.671875 126.070312 85.421875 125.761719 85.308594 C 125.449219 85.199219 125.101562 85.238281 124.820312 85.421875 C 123.699219 86.160156 119.589844 88.730469 113.570312 90.980469 C 109.71875 92.410156 105.851562 93.429688 102.058594 94.011719 C 97.128906 94.761719 93.199219 95.109375 89.679688 95.109375 C 86.511719 95.109375 83.980469 94.828125 81.050781 94.511719 C 77.589844 94.128906 73.671875 93.699219 67.949219 93.699219 C 65.339844 93.699219 62.601562 93.789062 59.570312 93.960938 C 50.480469 94.488281 42.410156 96.910156 35.558594 101.160156 L 31.371094 90.148438 C 36.070312 86.550781 43.910156 82.300781 55.351562 81.441406 C 58.910156 81.171875 62.089844 81.050781 65.078125 81.050781 C 69.988281 81.050781 73.398438 81.398438 76.699219 81.730469 C 79.570312 82.019531 82.261719 82.300781 85.550781 82.300781 C 89.761719 82.300781 94.421875 81.828125 100.171875 80.828125 C 109.308594 79.230469 116.851562 75.691406 121.558594 72.988281 C 121.988281 72.75 122.191406 72.238281 122.039062 71.761719 L 120.878906 68.011719 C 120.789062 67.699219 120.558594 67.449219 120.25 67.339844 C 119.949219 67.230469 119.621094 67.25 119.339844 67.421875 C 114.871094 70.050781 107.75 73.511719 99.148438 75 C 93.730469 75.949219 89.421875 76.390625 85.601562 76.390625 C 82.621094 76.390625 80.160156 76.140625 77.308594 75.851562 C 74.03125 75.511719 70.308594 75.128906 65.121094 75.128906 C 61.980469 75.128906 58.640625 75.269531 54.910156 75.550781 C 45.039062 76.289062 36.371094 79.238281 29.148438 84.339844 L 25.070312 73.621094 C 29.929688 69.421875 38.171875 64.390625 50.550781 63.191406 C 55.050781 62.75 59.019531 62.539062 62.691406 62.539062 C 66.71875 62.539062 69.71875 62.789062 72.640625 63.03125 C 75.238281 63.25 77.691406 63.449219 80.539062 63.449219 C 85.308594 63.449219 90.328125 62.871094 96.839844 61.570312 C 103.28125 60.28125 109.671875 57.910156 115.839844 54.53125 C 116.28125 54.289062 116.488281 53.78125 116.339844 53.300781 L 115.191406 49.558594 C 115.089844 49.25 114.871094 49.011719 114.570312 48.890625 C 114.269531 48.769531 113.941406 48.800781 113.660156 48.949219 C 109.609375 51.230469 103.210938 54.269531 95.679688 55.769531 C 89.558594 56.988281 84.898438 57.539062 80.578125 57.539062 C 77.960938 57.539062 75.609375 57.339844 73.128906 57.140625 C 70.230469 56.898438 66.949219 56.628906 62.699219 56.628906 C 58.851562 56.628906 54.691406 56.851562 49.980469 57.308594 C 39.578125 58.320312 30.21875 61.921875 22.828125 67.738281 L 18.640625 56.75 C 23.941406 51.679688 33.039062 45.578125 47 44.160156 C 51.828125 43.671875 56.101562 43.429688 60.039062 43.429688 C 64.371094 43.429688 67.601562 43.710938 70.761719 43.988281 C 73.539062 44.230469 76.171875 44.460938 79.21875 44.460938 C 84.328125 44.460938 89.730469 43.808594 96.699219 42.351562 C 101.320312 41.390625 105.988281 39.851562 110.609375 37.769531 C 111.089844 37.550781 111.339844 37.011719 111.191406 36.5 L 110.050781 32.808594 C 109.960938 32.519531 109.75 32.28125 109.46875 32.160156 C 109.191406 32.03125 108.871094 32.039062 108.589844 32.160156 C 104.21875 34.179688 99.808594 35.660156 95.5 36.558594 C 88.910156 37.941406 83.898438 38.550781 79.25 38.550781 C 76.441406 38.550781 73.910156 38.328125 71.238281 38.101562 C 68.121094 37.828125 64.601562 37.519531 60.050781 37.519531 C 55.921875 37.519531 51.449219 37.769531 46.398438 38.289062 C 31.96875 39.761719 22.25 45.660156 16.371094 50.75 L 11.789062 38.699219 C 17.410156 33.679688 27.070312 27.621094 41.871094 26.199219 C 47.011719 25.710938 51.550781 25.46875 55.75 25.46875 C 60.320312 25.46875 63.75 25.75 67.148438 26.019531 C 70.101562 26.261719 72.878906 26.480469 76.101562 26.480469 C 81.5 26.480469 87.210938 25.828125 94.578125 24.378906 C 98.148438 23.671875 101.820312 22.640625 105.460938 21.300781 C 105.980469 21.109375 106.269531 20.539062 106.101562 20 L 104.980469 16.351562 C 104.890625 16.070312 104.691406 15.839844 104.429688 15.71875 C 104.171875 15.589844 103.871094 15.578125 103.601562 15.679688 C 100.101562 16.96875 96.769531 17.921875 93.429688 18.578125 C 86.429688 19.960938 81.089844 20.570312 76.140625 20.570312 C 73.148438 20.570312 70.460938 20.351562 67.578125 20.121094 C 64.121094 19.839844 60.539062 19.550781 55.75 19.550781 C 51.371094 19.550781 46.648438 19.800781 41.289062 20.308594 C 25.339844 21.851562 14.710938 28.398438 8.570312 33.691406 C 8.511719 33.71875 8.449219 33.761719 8.410156 33.808594 L 8.058594 34.128906 C 7.640625 34.5 7.21875 34.890625 6.808594 35.28125 L 6.601562 35.46875 C 6.410156 35.648438 6.21875 35.828125 6.050781 36 L 5.261719 36.800781 C 3.398438 38.691406 1.710938 40.578125 0.621094 41.839844 C 0.371094 42.128906 0.300781 42.539062 0.429688 42.910156 L 7.578125 61.679688 C 7.601562 61.730469 7.609375 61.78125 7.628906 61.828125 L 27.378906 113.710938 C 27.539062 114.121094 27.929688 114.390625 28.359375 114.390625 C 28.421875 114.390625 28.480469 114.378906 28.550781 114.371094 C 28.75 114.328125 28.929688 114.238281 29.070312 114.109375 C 29.230469 113.96875 33.941406 109.789062 39.070312 106.519531 C 44.371094 103.128906 49.28125 100.5 59.898438 99.878906 C 62.800781 99.710938 65.429688 99.628906 67.910156 99.628906 C 73.339844 99.628906 77.070312 100.039062 80.410156 100.398438 C 83.371094 100.71875 86.160156 101.03125 89.671875 101.03125 C 93.519531 101.03125 97.738281 100.660156 102.949219 99.859375 C 114.71875 98.070312 123.769531 93.050781 127.109375 90.980469 C 127.53125 90.71875 127.71875 90.21875 127.578125 89.769531 Z M 127.578125 89.769531 "/>
<path style=" stroke:none;fill-rule:nonzero;fill:rgb(0%,42.352942%,63.529414%);fill-opacity:1;" d="M 89.320312 97 C 89.929688 96.320312 90.539062 95.589844 91.058594 94.859375 C 96.171875 88.941406 96.46875 78.410156 92.011719 72.148438 C 86.441406 64.320312 75.671875 64.429688 68.640625 70 C 67.648438 68.738281 66.640625 67.511719 65.671875 66.238281 C 64.53125 64.761719 63.421875 63.269531 62.308594 61.78125 C 62.671875 60.589844 63.011719 59.378906 63.28125 58.171875 C 66.550781 43.628906 65.101562 27.71875 57.5 14.71875 C 56.96875 13.800781 54.148438 8.679688 52.011719 7.558594 C 49.960938 5.808594 47.53125 4.660156 44.550781 4.800781 C 43.800781 4.839844 43.058594 4.941406 42.351562 5.140625 C 40.71875 5.589844 38.871094 6.511719 37.621094 7.730469 C 36.921875 8.410156 36.191406 9.160156 35.589844 9.941406 C 32.601562 13.859375 32.511719 19.96875 33.25 24.589844 C 33.820312 28.21875 34.800781 31.921875 36.039062 35.378906 C 38.359375 41.851562 41.898438 47.941406 45.78125 53.621094 C 45.871094 53.75 45.941406 53.871094 46.03125 53.988281 C 46.21875 54.289062 46.410156 54.589844 46.601562 54.890625 C 45.308594 57.71875 44.019531 60.558594 42.921875 63.460938 C 37.921875 76.578125 38.710938 95.25 51.109375 104.25 C 52.320312 105.179688 53.601562 105.988281 54.859375 106.609375 C 61.191406 109.71875 68.460938 109.511719 74.949219 106.980469 C 77.839844 105.851562 80.558594 104.308594 83.050781 102.480469 C 83.828125 101.910156 84.578125 101.300781 85.308594 100.691406 C 87.558594 103.921875 89.460938 108.050781 89.101562 111.871094 C 88.871094 114.199219 86.238281 116.320312 84.089844 114.230469 C 83.148438 113.308594 82.53125 111.878906 81.128906 111.558594 C 77.769531 110.789062 74.058594 112.929688 73.609375 116.308594 C 72.851562 122 78.988281 125.960938 84.121094 125.160156 C 93.78125 123.648438 95.640625 111.96875 92.789062 104.21875 C 91.988281 101.96875 90.800781 99.148438 89.320312 97 Z M 81.429688 80.890625 C 85.460938 81.761719 87.320312 85.589844 87.011719 89.28125 C 86.78125 90.421875 86.359375 91.460938 85.789062 92.410156 C 85.699219 92.300781 85.601562 92.179688 85.511719 92.058594 C 84.851562 91.21875 84.371094 90.261719 83.761719 89.390625 C 83.160156 88.539062 82.480469 87.71875 81.851562 86.878906 C 80.511719 85.050781 79.140625 83.238281 77.730469 81.46875 C 77.621094 81.320312 77.488281 81.171875 77.371094 81.019531 C 78.769531 80.679688 80.171875 80.621094 81.429688 80.890625 Z M 47.890625 42.121094 C 45.871094 36.261719 44.53125 29.558594 45.679688 23.378906 C 46.058594 21.351562 47.351562 18.589844 49.261719 17.910156 C 49.929688 17.851562 50.519531 17.929688 51.019531 18.160156 C 54.480469 19.769531 54.179688 27.570312 54.050781 30.460938 C 53.890625 34.269531 53.070312 38.128906 51.941406 41.761719 C 51.410156 43.488281 50.78125 45.179688 50.109375 46.851562 C 49.25 45.238281 48.421875 43.660156 47.890625 42.121094 Z M 71.460938 101.171875 C 67.171875 102.210938 64.140625 101.179688 60.789062 98.800781 C 57.910156 95.941406 54.53125 90.449219 56.839844 81.460938 L 56.820312 81.460938 C 57.121094 79.890625 57.390625 78.308594 57.699219 76.738281 C 58.160156 74.378906 58.859375 72.070312 59.609375 69.789062 C 61.148438 71.519531 62.710938 73.21875 64.300781 74.898438 C 62.398438 78.039062 61.261719 81.851562 61.371094 85.488281 C 61.519531 90.738281 63.898438 96.109375 69.5 97.128906 C 70.25 97.269531 71.289062 97.210938 71.578125 96.339844 C 71.851562 95.550781 70.988281 94.898438 70.511719 94.398438 C 69.148438 92.980469 68.488281 91.148438 68.71875 89.179688 C 68.96875 87.050781 70.308594 85.109375 72.128906 83.621094 C 74.898438 86.96875 77.558594 90.429688 80.21875 93.851562 C 80.53125 94.25 80.839844 94.648438 81.140625 95.039062 C 81.488281 95.488281 81.859375 95.921875 82.210938 96.351562 C 79.058594 98.78125 74.949219 100.320312 71.460938 101.171875 Z M 71.460938 101.171875 "/>
</g>
</svg>
