<?xml version="1.0" encoding="UTF-8"?>
<svg xmlns="http://www.w3.org/2000/svg" xmlns:xlink="http://www.w3.org/1999/xlink" width="128px" height="128px" viewBox="0 0 128 128" version="1.1">
<defs>
<clipPath id="clip1">
  <path d="M 70 104 L 90 104 L 90 116 L 70 116 Z M 70 104 "/>
</clipPath>
<clipPath id="clip2">
  <path d="M 114.410156 63.578125 C 113.910156 59.929688 112.78125 56.269531 111.128906 52.820312 C 108.699219 47.738281 105.148438 43.121094 100.949219 39.699219 C 97.460938 36.859375 93.378906 35.101562 89.410156 33.050781 C 85.191406 30.871094 80.910156 29.511719 76.390625 28.570312 C 77.121094 29.851562 77.339844 31.621094 77.449219 32.800781 C 77.710938 35.539062 76.839844 37.199219 75.289062 39.261719 C 73.621094 41.488281 70.660156 45.359375 67.359375 44.160156 C 64.839844 43.238281 63.789062 39.710938 61.378906 38.421875 C 59.96875 37.671875 58.53125 37.398438 57.210938 36.628906 C 55.449219 35.589844 53.859375 33.730469 53.28125 31.761719 C 52.988281 30.808594 53.078125 29.5 53.328125 28.25 C 53.46875 27.550781 53.640625 26.53125 54.058594 25.761719 C 50.949219 25.660156 47.941406 25.71875 45.230469 25.878906 C 40.898438 26.128906 36.550781 27.03125 32.488281 28.691406 C 32.519531 29.25 33.75 32.828125 29.699219 35.230469 C 28.390625 36 26.96875 36.328125 25.578125 37.109375 C 23.671875 38.191406 23.109375 41.511719 21.039062 42.148438 C 18.570312 42.921875 16.789062 41.808594 15.988281 41.550781 C 12.46875 45.75 9.390625 50.371094 6.558594 54.898438 C 0.691406 64.320312 -2.398438 76.949219 3.128906 87.269531 C 7.941406 96.25 17.109375 100.859375 26.851562 103.21875 C 27.238281 104.800781 27.570312 106.390625 27.859375 107.980469 C 28.109375 109.390625 28.511719 110.789062 28.621094 112.21875 C 28.738281 113.828125 28.621094 114.878906 30.28125 115.589844 C 31.621094 116.171875 33.148438 116.210938 34.589844 116.320312 C 37.320312 116.539062 40.808594 116.621094 41.078125 113.191406 C 41.25 110.980469 41.070312 106.398438 43.871094 105.660156 C 44.238281 105.558594 44.660156 105.5 45.078125 105.460938 C 45.679688 105.460938 46.28125 105.46875 46.890625 105.449219 C 48.601562 105.601562 50.320312 106.148438 51.488281 107.011719 C 53.210938 108.289062 53.839844 110.359375 54.449219 112.320312 C 54.71875 113.160156 54.910156 113.96875 55.03125 114.851562 C 55.210938 116.070312 55.210938 117.390625 55.511719 118.570312 C 55.851562 119.929688 57.109375 120.230469 58.328125 120.511719 C 61.578125 121.25 65.691406 121.320312 68.230469 118.808594 C 68.851562 118.191406 68.699219 117.578125 68.699219 116.789062 C 68.699219 114.210938 68.050781 109.300781 69.820312 107.148438 C 70.300781 106.570312 70.988281 106.429688 71.710938 106.429688 C 72.140625 106.488281 72.570312 106.519531 73 106.570312 C 74.710938 107.679688 74.679688 110.398438 75.46875 112.171875 C 75.988281 113.328125 79.011719 113.320312 80.058594 113.371094 C 80.089844 113.371094 80.109375 113.371094 80.128906 113.371094 C 82.011719 113.449219 84.5 113.359375 85.769531 111.730469 C 86.558594 110.730469 86.378906 109.660156 86.480469 108.480469 C 86.558594 107.359375 86.539062 105.851562 87.441406 105.050781 C 87.539062 104.949219 87.671875 104.929688 87.789062 104.871094 C 88.179688 104.78125 88.589844 104.691406 89 104.671875 C 89.261719 104.660156 89.511719 104.671875 89.738281 104.699219 C 91.019531 104.871094 92.039062 105.609375 92.710938 106.710938 C 93.011719 107.21875 93.328125 107.828125 93.410156 108.410156 C 93.519531 109.140625 93.828125 109.761719 93.980469 110.480469 C 94.109375 111.050781 94.21875 111.601562 94.359375 112.171875 C 94.550781 112.890625 94.988281 113.511719 95.570312 113.96875 C 97.609375 115.628906 104.378906 115.800781 106.25 113.640625 C 106.699219 113.109375 106.878906 112.25 106.96875 111.578125 C 107.121094 110.371094 107.078125 109.101562 107.191406 107.871094 C 107.359375 106.210938 107.609375 104.578125 107.878906 102.910156 C 108.128906 101.320312 108.5 99.75 108.921875 98.199219 C 110.660156 91.78125 113.480469 85.570312 114.28125 78.910156 C 114.878906 73.820312 115.101562 68.660156 114.410156 63.578125 Z M 114.410156 63.578125 "/>
</clipPath>
</defs>
<g id="surface1">
<path style=" stroke:none;fill-rule:nonzero;fill:rgb(72.156864%,57.254905%,47.058824%);fill-opacity:1;" d="M 54.058594 25.75 C 54.058594 25.75 65.371094 26.261719 76.378906 28.570312 L 83.828125 33.570312 L 78.28125 46.070312 L 65.878906 49.03125 L 53.378906 41.160156 L 47.640625 31.441406 Z M 54.058594 25.75 "/>
<path style=" stroke:none;fill-rule:nonzero;fill:rgb(72.156864%,57.254905%,47.058824%);fill-opacity:1;" d="M 15.988281 41.550781 L 17.480469 39.671875 L 18.5 33.148438 L 25.390625 28.460938 L 28.070312 30.171875 C 28.070312 30.171875 29.171875 29.839844 32.488281 28.679688 L 37.25 33.421875 L 25.53125 49.148438 L 15.738281 47.628906 Z M 15.988281 41.550781 "/>
<path style=" stroke:none;fill-rule:nonzero;fill:rgb(98.823529%,83.137256%,70.980394%);fill-opacity:1;" d="M 114.410156 63.578125 C 113.910156 59.929688 112.78125 56.269531 111.128906 52.820312 C 108.699219 47.738281 105.148438 43.121094 100.949219 39.699219 C 97.460938 36.859375 93.378906 35.101562 89.410156 33.050781 C 85.191406 30.871094 80.910156 29.511719 76.390625 28.570312 C 77.121094 29.851562 77.339844 31.621094 77.449219 32.800781 C 77.710938 35.539062 76.839844 37.199219 75.289062 39.261719 C 73.621094 41.488281 70.660156 45.359375 67.359375 44.160156 C 64.839844 43.238281 63.789062 39.710938 61.378906 38.421875 C 59.96875 37.671875 58.53125 37.398438 57.210938 36.628906 C 55.449219 35.589844 53.859375 33.730469 53.28125 31.761719 C 52.988281 30.808594 53.078125 29.5 53.328125 28.25 C 53.46875 27.550781 53.640625 26.53125 54.058594 25.761719 C 50.949219 25.660156 47.941406 25.71875 45.230469 25.878906 C 40.898438 26.128906 36.550781 27.03125 32.488281 28.691406 C 32.519531 29.25 33.75 32.828125 29.699219 35.230469 C 28.390625 36 26.96875 36.328125 25.578125 37.109375 C 23.671875 38.191406 23.109375 41.511719 21.039062 42.148438 C 18.570312 42.921875 16.789062 41.808594 15.988281 41.550781 C 12.46875 45.75 9.390625 50.371094 6.558594 54.898438 C 0.691406 64.320312 -2.398438 76.949219 3.128906 87.269531 C 7.941406 96.25 17.109375 100.859375 26.851562 103.21875 C 27.238281 104.800781 27.570312 106.390625 27.859375 107.980469 C 28.109375 109.390625 28.511719 110.789062 28.621094 112.21875 C 28.738281 113.828125 28.621094 114.878906 30.28125 115.589844 C 31.621094 116.171875 33.148438 116.210938 34.589844 116.320312 C 37.320312 116.539062 40.808594 116.621094 41.078125 113.191406 C 41.25 110.980469 41.070312 106.398438 43.871094 105.660156 C 44.238281 105.558594 44.660156 105.5 45.078125 105.460938 C 45.679688 105.460938 46.28125 105.46875 46.890625 105.449219 C 48.601562 105.601562 50.320312 106.148438 51.488281 107.011719 C 53.210938 108.289062 53.839844 110.359375 54.449219 112.320312 C 54.71875 113.160156 54.910156 113.96875 55.03125 114.851562 C 55.210938 116.070312 55.210938 117.390625 55.511719 118.570312 C 55.851562 119.929688 57.109375 120.230469 58.328125 120.511719 C 61.578125 121.25 65.691406 121.320312 68.230469 118.808594 C 68.851562 118.191406 68.699219 117.578125 68.699219 116.789062 C 68.699219 114.210938 68.050781 109.300781 69.820312 107.148438 C 70.300781 106.570312 70.988281 106.429688 71.710938 106.429688 C 72.140625 106.488281 72.570312 106.519531 73 106.570312 C 74.710938 107.679688 74.679688 110.398438 75.46875 112.171875 C 75.988281 113.328125 79.011719 113.320312 80.058594 113.371094 C 80.089844 113.371094 80.109375 113.371094 80.128906 113.371094 C 82.011719 113.449219 84.5 113.359375 85.769531 111.730469 C 86.558594 110.730469 86.378906 109.660156 86.480469 108.480469 C 86.558594 107.359375 86.539062 105.851562 87.441406 105.050781 C 87.539062 104.949219 87.671875 104.929688 87.789062 104.871094 C 88.179688 104.78125 88.589844 104.691406 89 104.671875 C 89.261719 104.660156 89.511719 104.671875 89.738281 104.699219 C 91.019531 104.871094 92.039062 105.609375 92.710938 106.710938 C 93.011719 107.21875 93.328125 107.828125 93.410156 108.410156 C 93.519531 109.140625 93.828125 109.761719 93.980469 110.480469 C 94.109375 111.050781 94.21875 111.601562 94.359375 112.171875 C 94.550781 112.890625 94.988281 113.511719 95.570312 113.96875 C 97.609375 115.628906 104.378906 115.800781 106.25 113.640625 C 106.699219 113.109375 106.878906 112.25 106.96875 111.578125 C 107.121094 110.371094 107.078125 109.101562 107.191406 107.871094 C 107.359375 106.210938 107.609375 104.578125 107.878906 102.910156 C 108.128906 101.320312 108.5 99.75 108.921875 98.199219 C 110.660156 91.78125 113.480469 85.570312 114.28125 78.910156 C 114.878906 73.820312 115.101562 68.660156 114.410156 63.578125 Z M 114.410156 63.578125 "/>
<g clip-path="url(#clip1)" clip-rule="nonzero">
<g clip-path="url(#clip2)" clip-rule="nonzero">
<path style=" stroke:none;fill-rule:nonzero;fill:rgb(72.156864%,57.254905%,47.058824%);fill-opacity:1;" d="M 70.828125 106.550781 C 70.828125 106.550781 76.800781 103.011719 89.730469 104.699219 L 89.28125 113.429688 L 70.671875 115.371094 Z M 70.828125 106.550781 "/>
</g>
</g>
<path style=" stroke:none;fill-rule:nonzero;fill:rgb(96.862745%,57.647061%,16.078432%);fill-opacity:1;" d="M 14.398438 70.191406 C 14.550781 70.019531 14.710938 69.851562 14.859375 69.679688 C 17.511719 67.019531 20.769531 66.230469 24.511719 66.179688 C 24.78125 66.171875 25.058594 66.171875 25.339844 66.179688 C 29.941406 66.339844 35.519531 68.449219 37.691406 72.738281 C 39.691406 76.691406 39.238281 83.550781 34.25 85.199219 C 33.300781 85.511719 32.230469 85.761719 31.128906 85.960938 C 29.160156 86.320312 27.019531 86.5 24.871094 86.429688 C 22.890625 86.359375 20.910156 86.078125 19.070312 85.570312 C 17.238281 85.058594 15.550781 84.320312 14.148438 83.320312 C 9.839844 80.238281 11.421875 73.601562 14.398438 70.191406 Z M 14.398438 70.191406 "/>
<path style=" stroke:none;fill-rule:nonzero;fill:rgb(18.431373%,18.431373%,18.431373%);fill-opacity:1;" d="M 22.621094 76.488281 C 22.71875 73.730469 22.339844 71.46875 20.539062 71.398438 C 18.730469 71.339844 18.199219 73.558594 18.109375 76.328125 C 18.011719 79.089844 18.378906 81.359375 20.191406 81.421875 C 21.988281 81.480469 22.519531 79.25 22.621094 76.488281 Z M 22.621094 76.488281 "/>
<path style=" stroke:none;fill-rule:nonzero;fill:rgb(18.431373%,18.431373%,18.431373%);fill-opacity:1;" d="M 30.03125 81.769531 C 31.839844 81.828125 32.371094 79.601562 32.46875 76.839844 C 32.558594 74.078125 32.191406 71.820312 30.390625 71.75 C 28.578125 71.691406 28.058594 73.910156 27.960938 76.679688 C 27.859375 79.441406 28.230469 81.710938 30.03125 81.769531 Z M 30.03125 81.769531 "/>
<path style=" stroke:none;fill-rule:nonzero;fill:rgb(18.431373%,18.431373%,18.431373%);fill-opacity:1;" d="M 13.738281 59.308594 C 15 56.679688 17.769531 55.421875 19.921875 56.511719 C 22.078125 57.589844 22.808594 60.609375 21.558594 63.238281 C 20.300781 65.878906 17.519531 67.121094 15.378906 66.058594 C 13.21875 64.96875 12.488281 61.941406 13.738281 59.308594 Z M 13.738281 59.308594 "/>
<path style=" stroke:none;fill-rule:nonzero;fill:rgb(18.431373%,18.431373%,18.431373%);fill-opacity:1;" d="M 50.109375 68.371094 C 47.609375 68.898438 45.109375 66.890625 44.511719 63.851562 C 43.921875 60.820312 45.480469 57.898438 47.96875 57.371094 C 50.480469 56.820312 52.980469 58.859375 53.578125 61.878906 C 54.160156 64.929688 52.609375 67.828125 50.109375 68.371094 Z M 50.109375 68.371094 "/>
<path style=" stroke:none;fill-rule:nonzero;fill:rgb(98.823529%,83.137256%,70.980394%);fill-opacity:1;" d="M 56.839844 27.660156 C 58.789062 22.160156 68.53125 24.019531 71.820312 26.929688 C 74.660156 29.429688 75.148438 34.320312 73.089844 37.550781 C 72.390625 38.648438 71.550781 39.980469 70.351562 40.570312 C 67.109375 42.171875 66.058594 38.371094 64.121094 36.78125 C 63.050781 35.898438 61.828125 35.210938 60.589844 34.589844 C 57.820312 33.210938 55.679688 30.960938 56.839844 27.660156 Z M 56.839844 27.660156 "/>
<path style=" stroke:none;fill-rule:nonzero;fill:rgb(98.823529%,83.137256%,70.980394%);fill-opacity:1;" d="M 28.078125 27.679688 C 23.429688 26.339844 17.121094 29.320312 15.578125 33.921875 C 14.960938 35.738281 15.21875 36.839844 16.28125 38.359375 C 16.910156 39.25 18.199219 40.648438 19.441406 40.398438 C 20.738281 40.121094 21.410156 37.851562 22.28125 36.929688 C 23.578125 35.558594 25.148438 34.539062 26.808594 33.660156 C 28.019531 33.019531 30.910156 31.710938 30.378906 29.890625 C 30.039062 28.671875 29.179688 27.988281 28.078125 27.679688 Z M 28.078125 27.679688 "/>
<path style=" stroke:none;fill-rule:nonzero;fill:rgb(98.823529%,83.137256%,70.980394%);fill-opacity:1;" d="M 127.648438 59.730469 C 127.441406 59.378906 126.988281 59.519531 126.671875 59.589844 C 126 59.738281 125.371094 60.03125 124.679688 60.03125 C 124.550781 60.03125 124.289062 60.050781 124.179688 59.980469 C 123.988281 59.859375 124.230469 59.328125 124.261719 59.171875 C 124.328125 58.878906 124.378906 58.570312 124.398438 58.261719 C 124.460938 57.679688 124.398438 57.078125 124.191406 56.519531 C 123.828125 55.550781 123.121094 54.710938 122.238281 54.160156 C 121.109375 53.460938 119.730469 53.21875 118.441406 53.429688 C 116.441406 53.75 114.851562 55.53125 114.46875 57.460938 C 114.378906 57.941406 114.410156 58.449219 114.511719 58.921875 C 114.570312 59.210938 114.738281 59.46875 114.878906 59.71875 C 114.929688 59.820312 115.230469 60.121094 115.148438 60.230469 C 115.070312 60.339844 114.558594 60.28125 114.441406 60.261719 C 113.949219 60.210938 113.480469 60.039062 113.019531 59.828125 C 112.589844 59.628906 112.191406 59.390625 111.808594 59.101562 C 111.449219 58.820312 111.089844 58.289062 110.601562 58.261719 C 110.191406 58.230469 109.78125 58.691406 109.53125 58.96875 C 108.960938 59.609375 108.808594 60.480469 108.699219 61.308594 C 108.601562 62.039062 108.46875 62.820312 108.738281 63.53125 C 108.96875 64.101562 109.359375 64.609375 109.859375 64.96875 C 110.949219 65.738281 112.339844 66.128906 113.800781 66.210938 C 115.78125 66.308594 117.828125 65.871094 119.570312 64.910156 C 119.960938 64.691406 120.339844 64.449219 120.691406 64.160156 C 120.898438 63.988281 121.078125 63.769531 121.308594 63.628906 C 121.660156 63.410156 122.128906 63.511719 122.511719 63.488281 C 123.011719 63.46875 123.511719 63.429688 124.011719 63.339844 C 125.320312 63.101562 126.699219 62.390625 127.421875 61.21875 C 127.660156 60.828125 127.929688 60.191406 127.648438 59.730469 Z M 120.871094 58.410156 C 120.808594 58.621094 120.71875 58.820312 120.640625 59.019531 C 120.25 59.101562 119.589844 58.949219 119.238281 58.761719 C 118.691406 58.46875 118.449219 57.820312 118.800781 57.28125 C 119.210938 56.660156 120.03125 56.558594 120.570312 57.070312 C 120.898438 57.390625 120.988281 57.980469 120.871094 58.410156 Z M 120.871094 58.410156 "/>
</g>
</svg>
