<?xml version="1.0" encoding="UTF-8"?>
<svg xmlns="http://www.w3.org/2000/svg" xmlns:xlink="http://www.w3.org/1999/xlink" width="128px" height="128px" viewBox="0 0 128 128" version="1.1">
<defs>
<clipPath id="clip1">
  <path d="M 60 4 L 121 4 L 121 75 L 60 75 Z M 60 4 "/>
</clipPath>
<clipPath id="clip2">
  <path d="M 104.289062 33.738281 C 107.570312 32.929688 109.539062 34.980469 112.601562 36.101562 C 113.269531 36.339844 114.160156 36.070312 114.480469 35.441406 C 117.03125 30.441406 109.128906 14.539062 109.128906 14.539062 C 109.128906 14.539062 93.761719 21.878906 88.738281 19.371094 C 88.109375 19.050781 87.820312 18.160156 88.050781 17.488281 C 89.128906 14.429688 90.691406 13 89.949219 9.78125 C 89.128906 6.210938 85.679688 3.710938 82.039062 4.121094 C 76.949219 4.699219 72.851562 10.140625 75.378906 15.121094 C 76.070312 16.46875 77.199219 17.511719 78.390625 18.410156 C 79.191406 19.019531 81.078125 19.859375 80.300781 21.179688 C 77.519531 26 60.898438 26.398438 60.898438 26.398438 C 60.898438 26.398438 60.738281 42.25 65.011719 45.96875 C 65.710938 46.578125 66.859375 46.421875 67.460938 45.710938 C 69.289062 43.589844 70.628906 42.238281 73.171875 41.421875 C 77.070312 40.160156 81.421875 41.960938 82.78125 45.828125 C 84.25 49.988281 81.789062 54.410156 77.609375 55.441406 C 74.328125 56.25 72.359375 54.199219 69.300781 53.078125 C 68.628906 52.839844 67.738281 53.109375 67.421875 53.738281 C 64.878906 58.738281 72.761719 74.640625 72.761719 74.640625 L 121 62.78125 C 121 62.78125 121.160156 46.058594 116.929688 42.238281 C 116.230469 41.609375 115.058594 41.75 114.441406 42.46875 C 112.488281 44.699219 111.101562 47.03125 108.210938 47.910156 C 104.519531 49.039062 100.429688 47.019531 99.128906 43.390625 C 97.640625 39.210938 100.101562 34.769531 104.289062 33.738281 Z M 104.289062 33.738281 "/>
</clipPath>
<radialGradient id="radial0" gradientUnits="userSpaceOnUse" cx="94.387001" cy="51.512001" fx="94.387001" fy="51.512001" r="81.556" gradientTransform="matrix(0.8574,0,0,1.2211,-15.199,32.429001)">
<stop offset="0" style="stop-color:rgb(50.588235%,83.137255%,98.039216%);stop-opacity:1;"/>
<stop offset="0.4702" style="stop-color:rgb(50.588235%,83.137255%,98.039216%);stop-opacity:1;"/>
<stop offset="0.5492" style="stop-color:rgb(48.235294%,82.352941%,98.039216%);stop-opacity:1;"/>
<stop offset="0.6502" style="stop-color:rgb(42.352941%,80.392157%,97.647059%);stop-opacity:1;"/>
<stop offset="0.763" style="stop-color:rgb(31.764706%,76.862745%,97.254902%);stop-opacity:1;"/>
<stop offset="0.8836" style="stop-color:rgb(17.647059%,71.764706%,96.470588%);stop-opacity:1;"/>
<stop offset="1" style="stop-color:rgb(1.176471%,66.27451%,95.686275%);stop-opacity:1;"/>
</radialGradient>
<clipPath id="clip3">
  <path d="M 60 19 L 121 19 L 121 75 L 60 75 Z M 60 19 "/>
</clipPath>
<clipPath id="clip4">
  <path d="M 104.289062 33.738281 C 107.570312 32.929688 109.539062 34.980469 112.601562 36.101562 C 113.269531 36.339844 114.160156 36.070312 114.480469 35.441406 C 117.03125 30.441406 109.128906 14.539062 109.128906 14.539062 C 109.128906 14.539062 93.761719 21.878906 88.738281 19.371094 C 88.109375 19.050781 87.820312 18.160156 88.050781 17.488281 C 89.128906 14.429688 90.691406 13 89.949219 9.78125 C 89.128906 6.210938 85.679688 3.710938 82.039062 4.121094 C 76.949219 4.699219 72.851562 10.140625 75.378906 15.121094 C 76.070312 16.46875 77.199219 17.511719 78.390625 18.410156 C 79.191406 19.019531 81.078125 19.859375 80.300781 21.179688 C 77.519531 26 60.898438 26.398438 60.898438 26.398438 C 60.898438 26.398438 60.738281 42.25 65.011719 45.96875 C 65.710938 46.578125 66.859375 46.421875 67.460938 45.710938 C 69.289062 43.589844 70.628906 42.238281 73.171875 41.421875 C 77.070312 40.160156 81.421875 41.960938 82.78125 45.828125 C 84.25 49.988281 81.789062 54.410156 77.609375 55.441406 C 74.328125 56.25 72.359375 54.199219 69.300781 53.078125 C 68.628906 52.839844 67.738281 53.109375 67.421875 53.738281 C 64.878906 58.738281 72.761719 74.640625 72.761719 74.640625 L 121 62.78125 C 121 62.78125 121.160156 46.058594 116.929688 42.238281 C 116.230469 41.609375 115.058594 41.75 114.441406 42.46875 C 112.488281 44.699219 111.101562 47.03125 108.210938 47.910156 C 104.519531 49.039062 100.429688 47.019531 99.128906 43.390625 C 97.640625 39.210938 100.101562 34.769531 104.289062 33.738281 Z M 104.289062 33.738281 "/>
</clipPath>
<linearGradient id="linear0" gradientUnits="userSpaceOnUse" x1="-1736" y1="19.106001" x2="-1736" y2="67.446999" gradientTransform="matrix(-1,0,0,1,-1672,0)">
<stop offset="0" style="stop-color:rgb(56.470588%,64.313725%,68.235294%);stop-opacity:1;"/>
<stop offset="0.3389" style="stop-color:rgb(51.764706%,60.392157%,64.705882%);stop-opacity:1;"/>
<stop offset="0.9575" style="stop-color:rgb(38.823529%,49.803922%,55.294118%);stop-opacity:1;"/>
<stop offset="1" style="stop-color:rgb(37.647059%,49.019608%,54.509804%);stop-opacity:1;"/>
</linearGradient>
<linearGradient id="linear1" gradientUnits="userSpaceOnUse" x1="-1736" y1="19.106001" x2="-1736" y2="67.446999" gradientTransform="matrix(-1,0,0,1,-1672,0)">
<stop offset="0" style="stop-color:rgb(56.470588%,64.313725%,68.235294%);stop-opacity:1;"/>
<stop offset="0.3389" style="stop-color:rgb(51.764706%,60.392157%,64.705882%);stop-opacity:1;"/>
<stop offset="0.9575" style="stop-color:rgb(38.823529%,49.803922%,55.294118%);stop-opacity:1;"/>
<stop offset="1" style="stop-color:rgb(37.647059%,49.019608%,54.509804%);stop-opacity:1;"/>
</linearGradient>
<clipPath id="clip5">
  <path d="M 60 4 L 121 4 L 121 75 L 60 75 Z M 60 4 "/>
</clipPath>
<clipPath id="clip6">
  <path d="M 104.289062 33.738281 C 107.570312 32.929688 109.539062 34.980469 112.601562 36.101562 C 113.269531 36.339844 114.160156 36.070312 114.480469 35.441406 C 117.03125 30.441406 109.128906 14.539062 109.128906 14.539062 C 109.128906 14.539062 93.761719 21.878906 88.738281 19.371094 C 88.109375 19.050781 87.820312 18.160156 88.050781 17.488281 C 89.128906 14.429688 90.691406 13 89.949219 9.78125 C 89.128906 6.210938 85.679688 3.710938 82.039062 4.121094 C 76.949219 4.699219 72.851562 10.140625 75.378906 15.121094 C 76.070312 16.46875 77.199219 17.511719 78.390625 18.410156 C 79.191406 19.019531 81.078125 19.859375 80.300781 21.179688 C 77.519531 26 60.898438 26.398438 60.898438 26.398438 C 60.898438 26.398438 60.738281 42.25 65.011719 45.96875 C 65.710938 46.578125 66.859375 46.421875 67.460938 45.710938 C 69.289062 43.589844 70.628906 42.238281 73.171875 41.421875 C 77.070312 40.160156 81.421875 41.960938 82.78125 45.828125 C 84.25 49.988281 81.789062 54.410156 77.609375 55.441406 C 74.328125 56.25 72.359375 54.199219 69.300781 53.078125 C 68.628906 52.839844 67.738281 53.109375 67.421875 53.738281 C 64.878906 58.738281 72.761719 74.640625 72.761719 74.640625 L 121 62.78125 C 121 62.78125 121.160156 46.058594 116.929688 42.238281 C 116.230469 41.609375 115.058594 41.75 114.441406 42.46875 C 112.488281 44.699219 111.101562 47.03125 108.210938 47.910156 C 104.519531 49.039062 100.429688 47.019531 99.128906 43.390625 C 97.640625 39.210938 100.101562 34.769531 104.289062 33.738281 Z M 104.289062 33.738281 "/>
</clipPath>
<filter id="alpha" filterUnits="objectBoundingBox" x="0%" y="0%" width="100%" height="100%">
  <feColorMatrix type="matrix" in="SourceGraphic" values="0 0 0 0 1 0 0 0 0 1 0 0 0 0 1 0 0 0 1 0"/>
</filter>
<mask id="mask0">
  <g filter="url(#alpha)">
<rect x="0" y="0" width="128" height="128" style="fill:rgb(0%,0%,0%);fill-opacity:0.8;stroke:none;"/>
  </g>
</mask>
<mask id="mask1">
  <g filter="url(#alpha)">
<rect x="0" y="0" width="128" height="128" style="fill:rgb(0%,0%,0%);fill-opacity:0.8;stroke:none;"/>
  </g>
</mask>
<radialGradient id="radial1" gradientUnits="userSpaceOnUse" cx="48.812" cy="30.625" fx="48.812" fy="30.625" r="54.414001" >
<stop offset="0" style="stop-color:rgb(30.196078%,71.372549%,67.45098%);stop-opacity:1;"/>
<stop offset="0.2539" style="stop-color:rgb(29.019608%,70.980392%,66.666667%);stop-opacity:1;"/>
<stop offset="0.4718" style="stop-color:rgb(24.705882%,69.019608%,64.705882%);stop-opacity:1;"/>
<stop offset="0.6765" style="stop-color:rgb(17.647059%,66.27451%,61.568627%);stop-opacity:1;"/>
<stop offset="0.8719" style="stop-color:rgb(8.235294%,62.352941%,57.254902%);stop-opacity:1;"/>
<stop offset="1" style="stop-color:rgb(0%,58.823529%,53.333333%);stop-opacity:1;"/>
</radialGradient>
<clipPath id="clip8">
  <rect x="0" y="0" width="128" height="128"/>
</clipPath>
<g id="surface6" clip-path="url(#clip8)">
<path style=" stroke:none;fill-rule:nonzero;fill:url(#radial1);" d="M 76.71875 46.230469 C 72.378906 39.578125 71.230469 39.761719 67.070312 38.539062 C 62.910156 37.328125 62.910156 27.148438 59.5 27.148438 C 57.871094 27.148438 56.589844 23.820312 54.988281 21.421875 C 54.089844 20.078125 53.101562 19.019531 51.871094 19 C 47.238281 18.921875 37.289062 37.269531 35.28125 38.878906 C 33.371094 40.410156 31.21875 40.101562 29.359375 40.351562 C 27.898438 40.539062 26.550781 41.210938 25.519531 42.269531 C 17.949219 50.070312 4 79 4 79 L 98.800781 79 C 95.851562 77.839844 84.550781 58.230469 76.71875 46.230469 Z M 76.71875 46.230469 "/>
</g>
<clipPath id="clip7">
  <rect x="0" y="0" width="128" height="128"/>
</clipPath>
<g id="surface8" clip-path="url(#clip7)">
<use xlink:href="#surface6" mask="url(#mask1)"/>
</g>
<clipPath id="clip9">
  <path d="M 60 35 L 121 35 L 121 75 L 60 75 Z M 60 35 "/>
</clipPath>
<clipPath id="clip10">
  <path d="M 104.289062 33.738281 C 107.570312 32.929688 109.539062 34.980469 112.601562 36.101562 C 113.269531 36.339844 114.160156 36.070312 114.480469 35.441406 C 117.03125 30.441406 109.128906 14.539062 109.128906 14.539062 C 109.128906 14.539062 93.761719 21.878906 88.738281 19.371094 C 88.109375 19.050781 87.820312 18.160156 88.050781 17.488281 C 89.128906 14.429688 90.691406 13 89.949219 9.78125 C 89.128906 6.210938 85.679688 3.710938 82.039062 4.121094 C 76.949219 4.699219 72.851562 10.140625 75.378906 15.121094 C 76.070312 16.46875 77.199219 17.511719 78.390625 18.410156 C 79.191406 19.019531 81.078125 19.859375 80.300781 21.179688 C 77.519531 26 60.898438 26.398438 60.898438 26.398438 C 60.898438 26.398438 60.738281 42.25 65.011719 45.96875 C 65.710938 46.578125 66.859375 46.421875 67.460938 45.710938 C 69.289062 43.589844 70.628906 42.238281 73.171875 41.421875 C 77.070312 40.160156 81.421875 41.960938 82.78125 45.828125 C 84.25 49.988281 81.789062 54.410156 77.609375 55.441406 C 74.328125 56.25 72.359375 54.199219 69.300781 53.078125 C 68.628906 52.839844 67.738281 53.109375 67.421875 53.738281 C 64.878906 58.738281 72.761719 74.640625 72.761719 74.640625 L 121 62.78125 C 121 62.78125 121.160156 46.058594 116.929688 42.238281 C 116.230469 41.609375 115.058594 41.75 114.441406 42.46875 C 112.488281 44.699219 111.101562 47.03125 108.210938 47.910156 C 104.519531 49.039062 100.429688 47.019531 99.128906 43.390625 C 97.640625 39.210938 100.101562 34.769531 104.289062 33.738281 Z M 104.289062 33.738281 "/>
</clipPath>
<radialGradient id="radial2" gradientUnits="userSpaceOnUse" cx="85.75" cy="39.062" fx="85.75" fy="39.062" r="39.981998" >
<stop offset="0" style="stop-color:rgb(40%,73.333333%,41.568627%);stop-opacity:1;"/>
<stop offset="0.6026" style="stop-color:rgb(32.156863%,67.45098%,33.72549%);stop-opacity:1;"/>
<stop offset="1" style="stop-color:rgb(26.27451%,62.745098%,27.843137%);stop-opacity:1;"/>
</radialGradient>
<clipPath id="clip11">
  <path d="M 60 4 L 121 4 L 121 75 L 60 75 Z M 60 4 "/>
</clipPath>
<clipPath id="clip12">
  <path d="M 104.289062 33.738281 C 107.570312 32.929688 109.539062 34.980469 112.601562 36.101562 C 113.269531 36.339844 114.160156 36.070312 114.480469 35.441406 C 117.03125 30.441406 109.128906 14.539062 109.128906 14.539062 C 109.128906 14.539062 93.761719 21.878906 88.738281 19.371094 C 88.109375 19.050781 87.820312 18.160156 88.050781 17.488281 C 89.128906 14.429688 90.691406 13 89.949219 9.78125 C 89.128906 6.210938 85.679688 3.710938 82.039062 4.121094 C 76.949219 4.699219 72.851562 10.140625 75.378906 15.121094 C 76.070312 16.46875 77.199219 17.511719 78.390625 18.410156 C 79.191406 19.019531 81.078125 19.859375 80.300781 21.179688 C 77.519531 26 60.898438 26.398438 60.898438 26.398438 C 60.898438 26.398438 60.738281 42.25 65.011719 45.96875 C 65.710938 46.578125 66.859375 46.421875 67.460938 45.710938 C 69.289062 43.589844 70.628906 42.238281 73.171875 41.421875 C 77.070312 40.160156 81.421875 41.960938 82.78125 45.828125 C 84.25 49.988281 81.789062 54.410156 77.609375 55.441406 C 74.328125 56.25 72.359375 54.199219 69.300781 53.078125 C 68.628906 52.839844 67.738281 53.109375 67.421875 53.738281 C 64.878906 58.738281 72.761719 74.640625 72.761719 74.640625 L 121 62.78125 C 121 62.78125 121.160156 46.058594 116.929688 42.238281 C 116.230469 41.609375 115.058594 41.75 114.441406 42.46875 C 112.488281 44.699219 111.101562 47.03125 108.210938 47.910156 C 104.519531 49.039062 100.429688 47.019531 99.128906 43.390625 C 97.640625 39.210938 100.101562 34.769531 104.289062 33.738281 Z M 104.289062 33.738281 "/>
</clipPath>
<mask id="mask2">
  <g filter="url(#alpha)">
<rect x="0" y="0" width="128" height="128" style="fill:rgb(0%,0%,0%);fill-opacity:0.2;stroke:none;"/>
  </g>
</mask>
<mask id="mask3">
  <g filter="url(#alpha)">
<rect x="0" y="0" width="128" height="128" style="fill:rgb(0%,0%,0%);fill-opacity:0.2;stroke:none;"/>
  </g>
</mask>
<clipPath id="clip14">
  <rect x="0" y="0" width="128" height="128"/>
</clipPath>
<g id="surface12" clip-path="url(#clip14)">
<path style=" stroke:none;fill-rule:nonzero;fill:rgb(50.588238%,78.039217%,51.764709%);fill-opacity:1;" d="M 80.859375 51.929688 C 80.96875 51.621094 80.570312 51.398438 80.371094 51.660156 C 77.75 55.121094 67.839844 64.808594 64.109375 69.058594 C 63.75 69.46875 64.210938 70.089844 64.710938 69.859375 C 66.230469 69.160156 69.28125 67.421875 69.570312 66.761719 C 69.980469 65.828125 72.359375 63.480469 73.109375 62.738281 C 73.261719 62.601562 73.410156 62.460938 73.570312 62.328125 L 76.570312 59.839844 C 77.160156 59.351562 77.628906 58.738281 77.949219 58.058594 Z M 84.480469 59.390625 C 84.640625 59.179688 84.410156 58.898438 84.179688 59.011719 L 81.308594 60.269531 C 81.089844 60.410156 80.921875 60.621094 80.808594 60.859375 L 77.230469 68.230469 C 77.171875 68.53125 77.578125 68.691406 77.730469 68.410156 Z M 84.480469 59.390625 "/>
</g>
<clipPath id="clip13">
  <rect x="0" y="0" width="128" height="128"/>
</clipPath>
<g id="surface14" clip-path="url(#clip13)">
<use xlink:href="#surface12" mask="url(#mask3)"/>
</g>
<mask id="mask4">
  <g filter="url(#alpha)">
<rect x="0" y="0" width="128" height="128" style="fill:rgb(0%,0%,0%);fill-opacity:0.2;stroke:none;"/>
  </g>
</mask>
<mask id="mask5">
  <g filter="url(#alpha)">
<rect x="0" y="0" width="128" height="128" style="fill:rgb(0%,0%,0%);fill-opacity:0.2;stroke:none;"/>
  </g>
</mask>
<clipPath id="clip16">
  <rect x="0" y="0" width="128" height="128"/>
</clipPath>
<g id="surface18" clip-path="url(#clip16)">
<path style=" stroke:none;fill-rule:nonzero;fill:rgb(30.19608%,71.372551%,67.450982%);fill-opacity:1;" d="M 46.351562 33.550781 C 46.421875 33.121094 45.839844 32.929688 45.648438 33.320312 C 43.128906 38.480469 32.710938 53.550781 28.941406 60 C 28.570312 60.628906 29.328125 61.308594 29.921875 60.878906 C 31.710938 59.589844 35.238281 56.558594 35.441406 55.640625 C 35.730469 54.328125 38.230469 50.679688 39.019531 49.53125 C 39.179688 49.308594 39.339844 49.089844 39.511719 48.878906 L 42.769531 44.890625 C 43.410156 44.109375 43.871094 43.199219 44.121094 42.230469 Z M 33.808594 46.628906 C 34.039062 46.371094 33.78125 45.980469 33.460938 46.089844 L 29.539062 47.410156 C 29.238281 47.570312 28.980469 47.820312 28.808594 48.121094 L 23.21875 57.398438 C 23.101562 57.789062 23.628906 58.039062 23.859375 57.699219 Z M 33.808594 46.628906 "/>
</g>
<clipPath id="clip15">
  <rect x="0" y="0" width="128" height="128"/>
</clipPath>
<g id="surface20" clip-path="url(#clip15)">
<use xlink:href="#surface18" mask="url(#mask5)"/>
</g>
<mask id="mask6">
  <g filter="url(#alpha)">
<rect x="0" y="0" width="128" height="128" style="fill:rgb(0%,0%,0%);fill-opacity:0.2;stroke:none;"/>
  </g>
</mask>
<mask id="mask7">
  <g filter="url(#alpha)">
<rect x="0" y="0" width="128" height="128" style="fill:rgb(0%,0%,0%);fill-opacity:0.2;stroke:none;"/>
  </g>
</mask>
<clipPath id="clip18">
  <rect x="0" y="0" width="128" height="128"/>
</clipPath>
<g id="surface24" clip-path="url(#clip18)">
<path style=" stroke:none;fill-rule:nonzero;fill:rgb(50.588238%,78.039217%,51.764709%);fill-opacity:1;" d="M 101.421875 65.730469 C 101.609375 65.851562 101.820312 65.601562 101.671875 65.429688 C 99.648438 63.171875 94.339844 55.070312 91.929688 51.949219 C 91.699219 51.648438 91.210938 51.878906 91.300781 52.25 C 91.578125 53.378906 92.359375 55.710938 92.769531 56 C 93.359375 56.398438 94.648438 58.351562 95.050781 58.96875 C 95.128906 59.089844 95.199219 59.210938 95.269531 59.339844 L 96.578125 61.730469 C 96.839844 62.199219 97.191406 62.601562 97.621094 62.921875 Z M 100.359375 59.050781 C 100.28125 58.890625 100.421875 58.851562 100.609375 58.980469 L 103.839844 61.378906 C 104.070312 61.488281 104.308594 61.691406 104.449219 61.898438 L 107.78125 66.710938 L 105.261719 64.359375 C 105.140625 64.25 105.011719 64.25 105.050781 64.351562 L 106.539062 68.25 C 106.589844 68.421875 106.308594 68.339844 105.808594 68.25 Z M 100.359375 59.050781 "/>
</g>
<clipPath id="clip17">
  <rect x="0" y="0" width="128" height="128"/>
</clipPath>
<g id="surface26" clip-path="url(#clip17)">
<use xlink:href="#surface24" mask="url(#mask7)"/>
</g>
<mask id="mask8">
  <g filter="url(#alpha)">
<rect x="0" y="0" width="128" height="128" style="fill:rgb(0%,0%,0%);fill-opacity:0.2;stroke:none;"/>
  </g>
</mask>
<mask id="mask9">
  <g filter="url(#alpha)">
<rect x="0" y="0" width="128" height="128" style="fill:rgb(0%,0%,0%);fill-opacity:0.2;stroke:none;"/>
  </g>
</mask>
<clipPath id="clip20">
  <rect x="0" y="0" width="128" height="128"/>
</clipPath>
<g id="surface30" clip-path="url(#clip20)">
<path style=" stroke:none;fill-rule:nonzero;fill:rgb(30.19608%,71.372551%,67.450982%);fill-opacity:1;" d="M 52.890625 34.589844 C 52.820312 34.308594 53.058594 34.308594 53.300781 34.578125 L 57.328125 39.5 C 57.648438 39.769531 57.929688 40.160156 58.070312 40.53125 L 61.328125 49.191406 L 58.359375 44.621094 C 58.21875 44.410156 58.019531 44.351562 58.039062 44.53125 L 58.828125 51.089844 C 58.851562 51.371094 58.441406 51.140625 57.710938 50.808594 Z M 52.890625 34.589844 "/>
</g>
<clipPath id="clip19">
  <rect x="0" y="0" width="128" height="128"/>
</clipPath>
<g id="surface32" clip-path="url(#clip19)">
<use xlink:href="#surface30" mask="url(#mask9)"/>
</g>
<clipPath id="clip21">
  <path d="M 60 65 L 91 65 L 91 75 L 60 75 Z M 60 65 "/>
</clipPath>
<clipPath id="clip22">
  <path d="M 104.289062 33.738281 C 107.570312 32.929688 109.539062 34.980469 112.601562 36.101562 C 113.269531 36.339844 114.160156 36.070312 114.480469 35.441406 C 117.03125 30.441406 109.128906 14.539062 109.128906 14.539062 C 109.128906 14.539062 93.761719 21.878906 88.738281 19.371094 C 88.109375 19.050781 87.820312 18.160156 88.050781 17.488281 C 89.128906 14.429688 90.691406 13 89.949219 9.78125 C 89.128906 6.210938 85.679688 3.710938 82.039062 4.121094 C 76.949219 4.699219 72.851562 10.140625 75.378906 15.121094 C 76.070312 16.46875 77.199219 17.511719 78.390625 18.410156 C 79.191406 19.019531 81.078125 19.859375 80.300781 21.179688 C 77.519531 26 60.898438 26.398438 60.898438 26.398438 C 60.898438 26.398438 60.738281 42.25 65.011719 45.96875 C 65.710938 46.578125 66.859375 46.421875 67.460938 45.710938 C 69.289062 43.589844 70.628906 42.238281 73.171875 41.421875 C 77.070312 40.160156 81.421875 41.960938 82.78125 45.828125 C 84.25 49.988281 81.789062 54.410156 77.609375 55.441406 C 74.328125 56.25 72.359375 54.199219 69.300781 53.078125 C 68.628906 52.839844 67.738281 53.109375 67.421875 53.738281 C 64.878906 58.738281 72.761719 74.640625 72.761719 74.640625 L 121 62.78125 C 121 62.78125 121.160156 46.058594 116.929688 42.238281 C 116.230469 41.609375 115.058594 41.75 114.441406 42.46875 C 112.488281 44.699219 111.101562 47.03125 108.210938 47.910156 C 104.519531 49.039062 100.429688 47.019531 99.128906 43.390625 C 97.640625 39.210938 100.101562 34.769531 104.289062 33.738281 Z M 104.289062 33.738281 "/>
</clipPath>
<linearGradient id="linear2" gradientUnits="userSpaceOnUse" x1="64.912003" y1="61" x2="64.912003" y2="83.75" >
<stop offset="0" style="stop-color:rgb(26.27451%,62.745098%,27.843137%);stop-opacity:1;"/>
<stop offset="0.6026" style="stop-color:rgb(21.568627%,54.901961%,23.137255%);stop-opacity:1;"/>
<stop offset="1" style="stop-color:rgb(18.039216%,49.019608%,19.607843%);stop-opacity:1;"/>
</linearGradient>
<clipPath id="clip23">
  <path d="M 102 70 L 118 70 L 118 75 L 102 75 Z M 102 70 "/>
</clipPath>
<clipPath id="clip24">
  <path d="M 104.289062 33.738281 C 107.570312 32.929688 109.539062 34.980469 112.601562 36.101562 C 113.269531 36.339844 114.160156 36.070312 114.480469 35.441406 C 117.03125 30.441406 109.128906 14.539062 109.128906 14.539062 C 109.128906 14.539062 93.761719 21.878906 88.738281 19.371094 C 88.109375 19.050781 87.820312 18.160156 88.050781 17.488281 C 89.128906 14.429688 90.691406 13 89.949219 9.78125 C 89.128906 6.210938 85.679688 3.710938 82.039062 4.121094 C 76.949219 4.699219 72.851562 10.140625 75.378906 15.121094 C 76.070312 16.46875 77.199219 17.511719 78.390625 18.410156 C 79.191406 19.019531 81.078125 19.859375 80.300781 21.179688 C 77.519531 26 60.898438 26.398438 60.898438 26.398438 C 60.898438 26.398438 60.738281 42.25 65.011719 45.96875 C 65.710938 46.578125 66.859375 46.421875 67.460938 45.710938 C 69.289062 43.589844 70.628906 42.238281 73.171875 41.421875 C 77.070312 40.160156 81.421875 41.960938 82.78125 45.828125 C 84.25 49.988281 81.789062 54.410156 77.609375 55.441406 C 74.328125 56.25 72.359375 54.199219 69.300781 53.078125 C 68.628906 52.839844 67.738281 53.109375 67.421875 53.738281 C 64.878906 58.738281 72.761719 74.640625 72.761719 74.640625 L 121 62.78125 C 121 62.78125 121.160156 46.058594 116.929688 42.238281 C 116.230469 41.609375 115.058594 41.75 114.441406 42.46875 C 112.488281 44.699219 111.101562 47.03125 108.210938 47.910156 C 104.519531 49.039062 100.429688 47.019531 99.128906 43.390625 C 97.640625 39.210938 100.101562 34.769531 104.289062 33.738281 Z M 104.289062 33.738281 "/>
</clipPath>
<linearGradient id="linear3" gradientUnits="userSpaceOnUse" x1="109.739998" y1="61" x2="109.739998" y2="83.75" >
<stop offset="0" style="stop-color:rgb(26.27451%,62.745098%,27.843137%);stop-opacity:1;"/>
<stop offset="0.6026" style="stop-color:rgb(21.568627%,54.901961%,23.137255%);stop-opacity:1;"/>
<stop offset="1" style="stop-color:rgb(18.039216%,49.019608%,19.607843%);stop-opacity:1;"/>
</linearGradient>
<clipPath id="clip25">
  <path d="M 88 67 L 115 67 L 115 75 L 88 75 Z M 88 67 "/>
</clipPath>
<clipPath id="clip26">
  <path d="M 104.289062 33.738281 C 107.570312 32.929688 109.539062 34.980469 112.601562 36.101562 C 113.269531 36.339844 114.160156 36.070312 114.480469 35.441406 C 117.03125 30.441406 109.128906 14.539062 109.128906 14.539062 C 109.128906 14.539062 93.761719 21.878906 88.738281 19.371094 C 88.109375 19.050781 87.820312 18.160156 88.050781 17.488281 C 89.128906 14.429688 90.691406 13 89.949219 9.78125 C 89.128906 6.210938 85.679688 3.710938 82.039062 4.121094 C 76.949219 4.699219 72.851562 10.140625 75.378906 15.121094 C 76.070312 16.46875 77.199219 17.511719 78.390625 18.410156 C 79.191406 19.019531 81.078125 19.859375 80.300781 21.179688 C 77.519531 26 60.898438 26.398438 60.898438 26.398438 C 60.898438 26.398438 60.738281 42.25 65.011719 45.96875 C 65.710938 46.578125 66.859375 46.421875 67.460938 45.710938 C 69.289062 43.589844 70.628906 42.238281 73.171875 41.421875 C 77.070312 40.160156 81.421875 41.960938 82.78125 45.828125 C 84.25 49.988281 81.789062 54.410156 77.609375 55.441406 C 74.328125 56.25 72.359375 54.199219 69.300781 53.078125 C 68.628906 52.839844 67.738281 53.109375 67.421875 53.738281 C 64.878906 58.738281 72.761719 74.640625 72.761719 74.640625 L 121 62.78125 C 121 62.78125 121.160156 46.058594 116.929688 42.238281 C 116.230469 41.609375 115.058594 41.75 114.441406 42.46875 C 112.488281 44.699219 111.101562 47.03125 108.210938 47.910156 C 104.519531 49.039062 100.429688 47.019531 99.128906 43.390625 C 97.640625 39.210938 100.101562 34.769531 104.289062 33.738281 Z M 104.289062 33.738281 "/>
</clipPath>
<radialGradient id="radial3" gradientUnits="userSpaceOnUse" cx="100.75" cy="63.625" fx="100.75" fy="63.625" r="34.792" >
<stop offset="0" style="stop-color:rgb(26.27451%,62.745098%,27.843137%);stop-opacity:1;"/>
<stop offset="0.6026" style="stop-color:rgb(21.568627%,54.901961%,23.137255%);stop-opacity:1;"/>
<stop offset="1" style="stop-color:rgb(18.039216%,49.019608%,19.607843%);stop-opacity:1;"/>
</radialGradient>
<clipPath id="clip27">
  <path d="M 5 51 L 76 51 L 76 123 L 5 123 Z M 5 51 "/>
</clipPath>
<clipPath id="clip28">
  <path d="M 70.210938 94.910156 C 67.050781 93.898438 65.421875 94.828125 62.328125 95.78125 C 61.519531 96.03125 60.578125 95.589844 60.300781 94.789062 C 58.429688 89.460938 66.648438 75.429688 66.648438 75.429688 C 66.648438 75.429688 49.261719 73.941406 46.640625 69.019531 C 46.351562 68.480469 46.550781 67.730469 47.03125 67.359375 C 49.25 65.628906 51.648438 64.46875 52.691406 61.648438 C 53.628906 59.089844 53.289062 56 51.289062 54.050781 C 48.359375 51.191406 43.519531 50.941406 40.570312 53.941406 C 37.628906 56.929688 38.28125 60.648438 39.398438 64.238281 C 39.601562 64.871094 39.300781 65.671875 38.699219 65.949219 C 33.660156 68.320312 19.320312 60.371094 19.320312 60.371094 C 19.320312 60.371094 11.550781 75.269531 13.46875 80.589844 C 13.738281 81.328125 14.589844 81.789062 15.359375 81.578125 C 18.949219 80.601562 19.890625 78.390625 24.078125 80.328125 C 26.101562 81.269531 27.589844 83.140625 27.921875 85.339844 C 28.839844 91.441406 23.410156 95.460938 18.421875 93.871094 C 15.148438 92.828125 15.148438 90.148438 12.96875 87.539062 C 12.570312 87.058594 11.78125 86.878906 11.238281 87.179688 C 6.390625 89.921875 4.261719 107.710938 4.261719 107.710938 L 51.601562 122.769531 C 51.601562 122.769531 53.070312 106.210938 57.960938 103.511719 C 58.5 103.210938 59.269531 103.398438 59.660156 103.878906 C 61.789062 106.539062 62.488281 107.851562 65.738281 108.921875 C 68.320312 109.769531 71.898438 108.851562 73.589844 106.730469 C 77.109375 102.320312 74.96875 96.421875 70.210938 94.910156 Z M 70.210938 94.910156 "/>
</clipPath>
<radialGradient id="radial4" gradientUnits="userSpaceOnUse" cx="94.387001" cy="51.512001" fx="94.387001" fy="51.512001" r="81.556" gradientTransform="matrix(0.8574,0,0,1.2211,-15.199,32.429001)">
<stop offset="0" style="stop-color:rgb(50.588235%,83.137255%,98.039216%);stop-opacity:1;"/>
<stop offset="0.4702" style="stop-color:rgb(50.588235%,83.137255%,98.039216%);stop-opacity:1;"/>
<stop offset="0.5492" style="stop-color:rgb(48.235294%,82.352941%,98.039216%);stop-opacity:1;"/>
<stop offset="0.6502" style="stop-color:rgb(42.352941%,80.392157%,97.647059%);stop-opacity:1;"/>
<stop offset="0.763" style="stop-color:rgb(31.764706%,76.862745%,97.254902%);stop-opacity:1;"/>
<stop offset="0.8836" style="stop-color:rgb(17.647059%,71.764706%,96.470588%);stop-opacity:1;"/>
<stop offset="1" style="stop-color:rgb(1.176471%,66.27451%,95.686275%);stop-opacity:1;"/>
</radialGradient>
<clipPath id="clip29">
  <path d="M 4 51 L 76 51 L 76 79 L 4 79 Z M 4 51 "/>
</clipPath>
<clipPath id="clip30">
  <path d="M 70.210938 94.910156 C 67.050781 93.898438 65.421875 94.828125 62.328125 95.78125 C 61.519531 96.03125 60.578125 95.589844 60.300781 94.789062 C 58.429688 89.460938 66.648438 75.429688 66.648438 75.429688 C 66.648438 75.429688 49.261719 73.941406 46.640625 69.019531 C 46.351562 68.480469 46.550781 67.730469 47.03125 67.359375 C 49.25 65.628906 51.648438 64.46875 52.691406 61.648438 C 53.628906 59.089844 53.289062 56 51.289062 54.050781 C 48.359375 51.191406 43.519531 50.941406 40.570312 53.941406 C 37.628906 56.929688 38.28125 60.648438 39.398438 64.238281 C 39.601562 64.871094 39.300781 65.671875 38.699219 65.949219 C 33.660156 68.320312 19.320312 60.371094 19.320312 60.371094 C 19.320312 60.371094 11.550781 75.269531 13.46875 80.589844 C 13.738281 81.328125 14.589844 81.789062 15.359375 81.578125 C 18.949219 80.601562 19.890625 78.390625 24.078125 80.328125 C 26.101562 81.269531 27.589844 83.140625 27.921875 85.339844 C 28.839844 91.441406 23.410156 95.460938 18.421875 93.871094 C 15.148438 92.828125 15.148438 90.148438 12.96875 87.539062 C 12.570312 87.058594 11.78125 86.878906 11.238281 87.179688 C 6.390625 89.921875 4.261719 107.710938 4.261719 107.710938 L 51.601562 122.769531 C 51.601562 122.769531 53.070312 106.210938 57.960938 103.511719 C 58.5 103.210938 59.269531 103.398438 59.660156 103.878906 C 61.789062 106.539062 62.488281 107.851562 65.738281 108.921875 C 68.320312 109.769531 71.898438 108.851562 73.589844 106.730469 C 77.109375 102.320312 74.96875 96.421875 70.210938 94.910156 Z M 70.210938 94.910156 "/>
</clipPath>
<linearGradient id="linear4" gradientUnits="userSpaceOnUse" x1="-1736" y1="19.106001" x2="-1736" y2="67.446999" gradientTransform="matrix(-1,0,0,1,-1672,0)">
<stop offset="0" style="stop-color:rgb(56.470588%,64.313725%,68.235294%);stop-opacity:1;"/>
<stop offset="0.3389" style="stop-color:rgb(51.764706%,60.392157%,64.705882%);stop-opacity:1;"/>
<stop offset="0.9575" style="stop-color:rgb(38.823529%,49.803922%,55.294118%);stop-opacity:1;"/>
<stop offset="1" style="stop-color:rgb(37.647059%,49.019608%,54.509804%);stop-opacity:1;"/>
</linearGradient>
<linearGradient id="linear5" gradientUnits="userSpaceOnUse" x1="-1736" y1="19.106001" x2="-1736" y2="67.446999" gradientTransform="matrix(-1,0,0,1,-1672,0)">
<stop offset="0" style="stop-color:rgb(56.470588%,64.313725%,68.235294%);stop-opacity:1;"/>
<stop offset="0.3389" style="stop-color:rgb(51.764706%,60.392157%,64.705882%);stop-opacity:1;"/>
<stop offset="0.9575" style="stop-color:rgb(38.823529%,49.803922%,55.294118%);stop-opacity:1;"/>
<stop offset="1" style="stop-color:rgb(37.647059%,49.019608%,54.509804%);stop-opacity:1;"/>
</linearGradient>
<clipPath id="clip31">
  <path d="M 4 51 L 76 51 L 76 123 L 4 123 Z M 4 51 "/>
</clipPath>
<clipPath id="clip32">
  <path d="M 70.210938 94.910156 C 67.050781 93.898438 65.421875 94.828125 62.328125 95.78125 C 61.519531 96.03125 60.578125 95.589844 60.300781 94.789062 C 58.429688 89.460938 66.648438 75.429688 66.648438 75.429688 C 66.648438 75.429688 49.261719 73.941406 46.640625 69.019531 C 46.351562 68.480469 46.550781 67.730469 47.03125 67.359375 C 49.25 65.628906 51.648438 64.46875 52.691406 61.648438 C 53.628906 59.089844 53.289062 56 51.289062 54.050781 C 48.359375 51.191406 43.519531 50.941406 40.570312 53.941406 C 37.628906 56.929688 38.28125 60.648438 39.398438 64.238281 C 39.601562 64.871094 39.300781 65.671875 38.699219 65.949219 C 33.660156 68.320312 19.320312 60.371094 19.320312 60.371094 C 19.320312 60.371094 11.550781 75.269531 13.46875 80.589844 C 13.738281 81.328125 14.589844 81.789062 15.359375 81.578125 C 18.949219 80.601562 19.890625 78.390625 24.078125 80.328125 C 26.101562 81.269531 27.589844 83.140625 27.921875 85.339844 C 28.839844 91.441406 23.410156 95.460938 18.421875 93.871094 C 15.148438 92.828125 15.148438 90.148438 12.96875 87.539062 C 12.570312 87.058594 11.78125 86.878906 11.238281 87.179688 C 6.390625 89.921875 4.261719 107.710938 4.261719 107.710938 L 51.601562 122.769531 C 51.601562 122.769531 53.070312 106.210938 57.960938 103.511719 C 58.5 103.210938 59.269531 103.398438 59.660156 103.878906 C 61.789062 106.539062 62.488281 107.851562 65.738281 108.921875 C 68.320312 109.769531 71.898438 108.851562 73.589844 106.730469 C 77.109375 102.320312 74.96875 96.421875 70.210938 94.910156 Z M 70.210938 94.910156 "/>
</clipPath>
<mask id="mask10">
  <g filter="url(#alpha)">
<rect x="0" y="0" width="128" height="128" style="fill:rgb(0%,0%,0%);fill-opacity:0.8;stroke:none;"/>
  </g>
</mask>
<mask id="mask11">
  <g filter="url(#alpha)">
<rect x="0" y="0" width="128" height="128" style="fill:rgb(0%,0%,0%);fill-opacity:0.8;stroke:none;"/>
  </g>
</mask>
<radialGradient id="radial5" gradientUnits="userSpaceOnUse" cx="48.812" cy="30.625" fx="48.812" fy="30.625" r="54.414001" >
<stop offset="0" style="stop-color:rgb(30.196078%,71.372549%,67.45098%);stop-opacity:1;"/>
<stop offset="0.2539" style="stop-color:rgb(29.019608%,70.980392%,66.666667%);stop-opacity:1;"/>
<stop offset="0.4718" style="stop-color:rgb(24.705882%,69.019608%,64.705882%);stop-opacity:1;"/>
<stop offset="0.6765" style="stop-color:rgb(17.647059%,66.27451%,61.568627%);stop-opacity:1;"/>
<stop offset="0.8719" style="stop-color:rgb(8.235294%,62.352941%,57.254902%);stop-opacity:1;"/>
<stop offset="1" style="stop-color:rgb(0%,58.823529%,53.333333%);stop-opacity:1;"/>
</radialGradient>
<clipPath id="clip34">
  <rect x="0" y="0" width="128" height="128"/>
</clipPath>
<g id="surface36" clip-path="url(#clip34)">
<path style=" stroke:none;fill-rule:nonzero;fill:url(#radial5);" d="M 76.71875 46.230469 C 72.378906 39.578125 71.230469 39.761719 67.070312 38.539062 C 62.910156 37.328125 62.910156 27.148438 59.5 27.148438 C 57.871094 27.148438 56.589844 23.820312 54.988281 21.421875 C 54.089844 20.078125 53.101562 19.019531 51.871094 19 C 47.238281 18.921875 37.289062 37.269531 35.28125 38.878906 C 33.371094 40.410156 31.21875 40.101562 29.359375 40.351562 C 27.898438 40.539062 26.550781 41.210938 25.519531 42.269531 C 17.949219 50.070312 4 79 4 79 L 98.800781 79 C 95.851562 77.839844 84.550781 58.230469 76.71875 46.230469 Z M 76.71875 46.230469 "/>
</g>
<clipPath id="clip33">
  <rect x="0" y="0" width="128" height="128"/>
</clipPath>
<g id="surface38" clip-path="url(#clip33)">
<use xlink:href="#surface36" mask="url(#mask11)"/>
</g>
<clipPath id="clip35">
  <path d="M 51 51 L 76 51 L 76 79 L 51 79 Z M 51 51 "/>
</clipPath>
<clipPath id="clip36">
  <path d="M 70.210938 94.910156 C 67.050781 93.898438 65.421875 94.828125 62.328125 95.78125 C 61.519531 96.03125 60.578125 95.589844 60.300781 94.789062 C 58.429688 89.460938 66.648438 75.429688 66.648438 75.429688 C 66.648438 75.429688 49.261719 73.941406 46.640625 69.019531 C 46.351562 68.480469 46.550781 67.730469 47.03125 67.359375 C 49.25 65.628906 51.648438 64.46875 52.691406 61.648438 C 53.628906 59.089844 53.289062 56 51.289062 54.050781 C 48.359375 51.191406 43.519531 50.941406 40.570312 53.941406 C 37.628906 56.929688 38.28125 60.648438 39.398438 64.238281 C 39.601562 64.871094 39.300781 65.671875 38.699219 65.949219 C 33.660156 68.320312 19.320312 60.371094 19.320312 60.371094 C 19.320312 60.371094 11.550781 75.269531 13.46875 80.589844 C 13.738281 81.328125 14.589844 81.789062 15.359375 81.578125 C 18.949219 80.601562 19.890625 78.390625 24.078125 80.328125 C 26.101562 81.269531 27.589844 83.140625 27.921875 85.339844 C 28.839844 91.441406 23.410156 95.460938 18.421875 93.871094 C 15.148438 92.828125 15.148438 90.148438 12.96875 87.539062 C 12.570312 87.058594 11.78125 86.878906 11.238281 87.179688 C 6.390625 89.921875 4.261719 107.710938 4.261719 107.710938 L 51.601562 122.769531 C 51.601562 122.769531 53.070312 106.210938 57.960938 103.511719 C 58.5 103.210938 59.269531 103.398438 59.660156 103.878906 C 61.789062 106.539062 62.488281 107.851562 65.738281 108.921875 C 68.320312 109.769531 71.898438 108.851562 73.589844 106.730469 C 77.109375 102.320312 74.96875 96.421875 70.210938 94.910156 Z M 70.210938 94.910156 "/>
</clipPath>
<radialGradient id="radial6" gradientUnits="userSpaceOnUse" cx="85.75" cy="39.062" fx="85.75" fy="39.062" r="39.981998" >
<stop offset="0" style="stop-color:rgb(40%,73.333333%,41.568627%);stop-opacity:1;"/>
<stop offset="0.6026" style="stop-color:rgb(32.156863%,67.45098%,33.72549%);stop-opacity:1;"/>
<stop offset="1" style="stop-color:rgb(26.27451%,62.745098%,27.843137%);stop-opacity:1;"/>
</radialGradient>
<clipPath id="clip37">
  <path d="M 4 51 L 76 51 L 76 123 L 4 123 Z M 4 51 "/>
</clipPath>
<clipPath id="clip38">
  <path d="M 70.210938 94.910156 C 67.050781 93.898438 65.421875 94.828125 62.328125 95.78125 C 61.519531 96.03125 60.578125 95.589844 60.300781 94.789062 C 58.429688 89.460938 66.648438 75.429688 66.648438 75.429688 C 66.648438 75.429688 49.261719 73.941406 46.640625 69.019531 C 46.351562 68.480469 46.550781 67.730469 47.03125 67.359375 C 49.25 65.628906 51.648438 64.46875 52.691406 61.648438 C 53.628906 59.089844 53.289062 56 51.289062 54.050781 C 48.359375 51.191406 43.519531 50.941406 40.570312 53.941406 C 37.628906 56.929688 38.28125 60.648438 39.398438 64.238281 C 39.601562 64.871094 39.300781 65.671875 38.699219 65.949219 C 33.660156 68.320312 19.320312 60.371094 19.320312 60.371094 C 19.320312 60.371094 11.550781 75.269531 13.46875 80.589844 C 13.738281 81.328125 14.589844 81.789062 15.359375 81.578125 C 18.949219 80.601562 19.890625 78.390625 24.078125 80.328125 C 26.101562 81.269531 27.589844 83.140625 27.921875 85.339844 C 28.839844 91.441406 23.410156 95.460938 18.421875 93.871094 C 15.148438 92.828125 15.148438 90.148438 12.96875 87.539062 C 12.570312 87.058594 11.78125 86.878906 11.238281 87.179688 C 6.390625 89.921875 4.261719 107.710938 4.261719 107.710938 L 51.601562 122.769531 C 51.601562 122.769531 53.070312 106.210938 57.960938 103.511719 C 58.5 103.210938 59.269531 103.398438 59.660156 103.878906 C 61.789062 106.539062 62.488281 107.851562 65.738281 108.921875 C 68.320312 109.769531 71.898438 108.851562 73.589844 106.730469 C 77.109375 102.320312 74.96875 96.421875 70.210938 94.910156 Z M 70.210938 94.910156 "/>
</clipPath>
<mask id="mask12">
  <g filter="url(#alpha)">
<rect x="0" y="0" width="128" height="128" style="fill:rgb(0%,0%,0%);fill-opacity:0.2;stroke:none;"/>
  </g>
</mask>
<mask id="mask13">
  <g filter="url(#alpha)">
<rect x="0" y="0" width="128" height="128" style="fill:rgb(0%,0%,0%);fill-opacity:0.2;stroke:none;"/>
  </g>
</mask>
<clipPath id="clip40">
  <rect x="0" y="0" width="128" height="128"/>
</clipPath>
<g id="surface42" clip-path="url(#clip40)">
<path style=" stroke:none;fill-rule:nonzero;fill:rgb(50.588238%,78.039217%,51.764709%);fill-opacity:1;" d="M 80.859375 51.929688 C 80.96875 51.621094 80.570312 51.398438 80.371094 51.660156 C 77.75 55.121094 67.839844 64.808594 64.109375 69.058594 C 63.75 69.46875 64.210938 70.089844 64.710938 69.859375 C 66.230469 69.160156 69.28125 67.421875 69.570312 66.761719 C 69.980469 65.828125 72.359375 63.480469 73.109375 62.738281 C 73.261719 62.601562 73.410156 62.460938 73.570312 62.328125 L 76.570312 59.839844 C 77.160156 59.351562 77.628906 58.738281 77.949219 58.058594 Z M 84.480469 59.390625 C 84.640625 59.179688 84.410156 58.898438 84.179688 59.011719 L 81.308594 60.269531 C 81.089844 60.410156 80.921875 60.621094 80.808594 60.859375 L 77.230469 68.230469 C 77.171875 68.53125 77.578125 68.691406 77.730469 68.410156 Z M 84.480469 59.390625 "/>
</g>
<clipPath id="clip39">
  <rect x="0" y="0" width="128" height="128"/>
</clipPath>
<g id="surface44" clip-path="url(#clip39)">
<use xlink:href="#surface42" mask="url(#mask13)"/>
</g>
<mask id="mask14">
  <g filter="url(#alpha)">
<rect x="0" y="0" width="128" height="128" style="fill:rgb(0%,0%,0%);fill-opacity:0.2;stroke:none;"/>
  </g>
</mask>
<mask id="mask15">
  <g filter="url(#alpha)">
<rect x="0" y="0" width="128" height="128" style="fill:rgb(0%,0%,0%);fill-opacity:0.2;stroke:none;"/>
  </g>
</mask>
<clipPath id="clip42">
  <rect x="0" y="0" width="128" height="128"/>
</clipPath>
<g id="surface48" clip-path="url(#clip42)">
<path style=" stroke:none;fill-rule:nonzero;fill:rgb(30.19608%,71.372551%,67.450982%);fill-opacity:1;" d="M 46.351562 33.550781 C 46.421875 33.121094 45.839844 32.929688 45.648438 33.320312 C 43.128906 38.480469 32.710938 53.550781 28.941406 60 C 28.570312 60.628906 29.328125 61.308594 29.921875 60.878906 C 31.710938 59.589844 35.238281 56.558594 35.441406 55.640625 C 35.730469 54.328125 38.230469 50.679688 39.019531 49.53125 C 39.179688 49.308594 39.339844 49.089844 39.511719 48.878906 L 42.769531 44.890625 C 43.410156 44.109375 43.871094 43.199219 44.121094 42.230469 Z M 33.808594 46.628906 C 34.039062 46.371094 33.78125 45.980469 33.460938 46.089844 L 29.539062 47.410156 C 29.238281 47.570312 28.980469 47.820312 28.808594 48.121094 L 23.21875 57.398438 C 23.101562 57.789062 23.628906 58.039062 23.859375 57.699219 Z M 33.808594 46.628906 "/>
</g>
<clipPath id="clip41">
  <rect x="0" y="0" width="128" height="128"/>
</clipPath>
<g id="surface50" clip-path="url(#clip41)">
<use xlink:href="#surface48" mask="url(#mask15)"/>
</g>
<mask id="mask16">
  <g filter="url(#alpha)">
<rect x="0" y="0" width="128" height="128" style="fill:rgb(0%,0%,0%);fill-opacity:0.2;stroke:none;"/>
  </g>
</mask>
<mask id="mask17">
  <g filter="url(#alpha)">
<rect x="0" y="0" width="128" height="128" style="fill:rgb(0%,0%,0%);fill-opacity:0.2;stroke:none;"/>
  </g>
</mask>
<clipPath id="clip44">
  <rect x="0" y="0" width="128" height="128"/>
</clipPath>
<g id="surface54" clip-path="url(#clip44)">
<path style=" stroke:none;fill-rule:nonzero;fill:rgb(50.588238%,78.039217%,51.764709%);fill-opacity:1;" d="M 101.421875 65.730469 C 101.609375 65.851562 101.820312 65.601562 101.671875 65.429688 C 99.648438 63.171875 94.339844 55.070312 91.929688 51.949219 C 91.699219 51.648438 91.210938 51.878906 91.300781 52.25 C 91.578125 53.378906 92.359375 55.710938 92.769531 56 C 93.359375 56.398438 94.648438 58.351562 95.050781 58.96875 C 95.128906 59.089844 95.199219 59.210938 95.269531 59.339844 L 96.578125 61.730469 C 96.839844 62.199219 97.191406 62.601562 97.621094 62.921875 Z M 100.359375 59.050781 C 100.28125 58.890625 100.421875 58.851562 100.609375 58.980469 L 103.839844 61.378906 C 104.070312 61.488281 104.308594 61.691406 104.449219 61.898438 L 107.78125 66.710938 L 105.261719 64.359375 C 105.140625 64.25 105.011719 64.25 105.050781 64.351562 L 106.539062 68.25 C 106.589844 68.421875 106.308594 68.339844 105.808594 68.25 Z M 100.359375 59.050781 "/>
</g>
<clipPath id="clip43">
  <rect x="0" y="0" width="128" height="128"/>
</clipPath>
<g id="surface56" clip-path="url(#clip43)">
<use xlink:href="#surface54" mask="url(#mask17)"/>
</g>
<mask id="mask18">
  <g filter="url(#alpha)">
<rect x="0" y="0" width="128" height="128" style="fill:rgb(0%,0%,0%);fill-opacity:0.2;stroke:none;"/>
  </g>
</mask>
<mask id="mask19">
  <g filter="url(#alpha)">
<rect x="0" y="0" width="128" height="128" style="fill:rgb(0%,0%,0%);fill-opacity:0.2;stroke:none;"/>
  </g>
</mask>
<clipPath id="clip46">
  <rect x="0" y="0" width="128" height="128"/>
</clipPath>
<g id="surface60" clip-path="url(#clip46)">
<path style=" stroke:none;fill-rule:nonzero;fill:rgb(30.19608%,71.372551%,67.450982%);fill-opacity:1;" d="M 52.890625 34.589844 C 52.820312 34.308594 53.058594 34.308594 53.300781 34.578125 L 57.328125 39.5 C 57.648438 39.769531 57.929688 40.160156 58.070312 40.53125 L 61.328125 49.191406 L 58.359375 44.621094 C 58.21875 44.410156 58.019531 44.351562 58.039062 44.53125 L 58.828125 51.089844 C 58.851562 51.371094 58.441406 51.140625 57.710938 50.808594 Z M 52.890625 34.589844 "/>
</g>
<clipPath id="clip45">
  <rect x="0" y="0" width="128" height="128"/>
</clipPath>
<g id="surface62" clip-path="url(#clip45)">
<use xlink:href="#surface60" mask="url(#mask19)"/>
</g>
<clipPath id="clip47">
  <path d="M 39 65 L 76 65 L 76 87 L 39 87 Z M 39 65 "/>
</clipPath>
<clipPath id="clip48">
  <path d="M 70.210938 94.910156 C 67.050781 93.898438 65.421875 94.828125 62.328125 95.78125 C 61.519531 96.03125 60.578125 95.589844 60.300781 94.789062 C 58.429688 89.460938 66.648438 75.429688 66.648438 75.429688 C 66.648438 75.429688 49.261719 73.941406 46.640625 69.019531 C 46.351562 68.480469 46.550781 67.730469 47.03125 67.359375 C 49.25 65.628906 51.648438 64.46875 52.691406 61.648438 C 53.628906 59.089844 53.289062 56 51.289062 54.050781 C 48.359375 51.191406 43.519531 50.941406 40.570312 53.941406 C 37.628906 56.929688 38.28125 60.648438 39.398438 64.238281 C 39.601562 64.871094 39.300781 65.671875 38.699219 65.949219 C 33.660156 68.320312 19.320312 60.371094 19.320312 60.371094 C 19.320312 60.371094 11.550781 75.269531 13.46875 80.589844 C 13.738281 81.328125 14.589844 81.789062 15.359375 81.578125 C 18.949219 80.601562 19.890625 78.390625 24.078125 80.328125 C 26.101562 81.269531 27.589844 83.140625 27.921875 85.339844 C 28.839844 91.441406 23.410156 95.460938 18.421875 93.871094 C 15.148438 92.828125 15.148438 90.148438 12.96875 87.539062 C 12.570312 87.058594 11.78125 86.878906 11.238281 87.179688 C 6.390625 89.921875 4.261719 107.710938 4.261719 107.710938 L 51.601562 122.769531 C 51.601562 122.769531 53.070312 106.210938 57.960938 103.511719 C 58.5 103.210938 59.269531 103.398438 59.660156 103.878906 C 61.789062 106.539062 62.488281 107.851562 65.738281 108.921875 C 68.320312 109.769531 71.898438 108.851562 73.589844 106.730469 C 77.109375 102.320312 74.96875 96.421875 70.210938 94.910156 Z M 70.210938 94.910156 "/>
</clipPath>
<linearGradient id="linear6" gradientUnits="userSpaceOnUse" x1="64.912003" y1="61" x2="64.912003" y2="83.75" >
<stop offset="0" style="stop-color:rgb(26.27451%,62.745098%,27.843137%);stop-opacity:1;"/>
<stop offset="0.6026" style="stop-color:rgb(21.568627%,54.901961%,23.137255%);stop-opacity:1;"/>
<stop offset="1" style="stop-color:rgb(18.039216%,49.019608%,19.607843%);stop-opacity:1;"/>
</linearGradient>
<clipPath id="clip49">
  <path d="M 33 74 L 41 74 L 41 82 L 33 82 Z M 33 74 "/>
</clipPath>
<clipPath id="clip50">
  <path d="M 70.210938 94.910156 C 67.050781 93.898438 65.421875 94.828125 62.328125 95.78125 C 61.519531 96.03125 60.578125 95.589844 60.300781 94.789062 C 58.429688 89.460938 66.648438 75.429688 66.648438 75.429688 C 66.648438 75.429688 49.261719 73.941406 46.640625 69.019531 C 46.351562 68.480469 46.550781 67.730469 47.03125 67.359375 C 49.25 65.628906 51.648438 64.46875 52.691406 61.648438 C 53.628906 59.089844 53.289062 56 51.289062 54.050781 C 48.359375 51.191406 43.519531 50.941406 40.570312 53.941406 C 37.628906 56.929688 38.28125 60.648438 39.398438 64.238281 C 39.601562 64.871094 39.300781 65.671875 38.699219 65.949219 C 33.660156 68.320312 19.320312 60.371094 19.320312 60.371094 C 19.320312 60.371094 11.550781 75.269531 13.46875 80.589844 C 13.738281 81.328125 14.589844 81.789062 15.359375 81.578125 C 18.949219 80.601562 19.890625 78.390625 24.078125 80.328125 C 26.101562 81.269531 27.589844 83.140625 27.921875 85.339844 C 28.839844 91.441406 23.410156 95.460938 18.421875 93.871094 C 15.148438 92.828125 15.148438 90.148438 12.96875 87.539062 C 12.570312 87.058594 11.78125 86.878906 11.238281 87.179688 C 6.390625 89.921875 4.261719 107.710938 4.261719 107.710938 L 51.601562 122.769531 C 51.601562 122.769531 53.070312 106.210938 57.960938 103.511719 C 58.5 103.210938 59.269531 103.398438 59.660156 103.878906 C 61.789062 106.539062 62.488281 107.851562 65.738281 108.921875 C 68.320312 109.769531 71.898438 108.851562 73.589844 106.730469 C 77.109375 102.320312 74.96875 96.421875 70.210938 94.910156 Z M 70.210938 94.910156 "/>
</clipPath>
<linearGradient id="linear7" gradientUnits="userSpaceOnUse" x1="37.014" y1="61" x2="37.014" y2="83.75" >
<stop offset="0" style="stop-color:rgb(26.27451%,62.745098%,27.843137%);stop-opacity:1;"/>
<stop offset="0.6026" style="stop-color:rgb(21.568627%,54.901961%,23.137255%);stop-opacity:1;"/>
<stop offset="1" style="stop-color:rgb(18.039216%,49.019608%,19.607843%);stop-opacity:1;"/>
</linearGradient>
<clipPath id="clip51">
  <path d="M 4 79 L 76 79 L 76 123 L 4 123 Z M 4 79 "/>
</clipPath>
<clipPath id="clip52">
  <path d="M 70.210938 94.910156 C 67.050781 93.898438 65.421875 94.828125 62.328125 95.78125 C 61.519531 96.03125 60.578125 95.589844 60.300781 94.789062 C 58.429688 89.460938 66.648438 75.429688 66.648438 75.429688 C 66.648438 75.429688 49.261719 73.941406 46.640625 69.019531 C 46.351562 68.480469 46.550781 67.730469 47.03125 67.359375 C 49.25 65.628906 51.648438 64.46875 52.691406 61.648438 C 53.628906 59.089844 53.289062 56 51.289062 54.050781 C 48.359375 51.191406 43.519531 50.941406 40.570312 53.941406 C 37.628906 56.929688 38.28125 60.648438 39.398438 64.238281 C 39.601562 64.871094 39.300781 65.671875 38.699219 65.949219 C 33.660156 68.320312 19.320312 60.371094 19.320312 60.371094 C 19.320312 60.371094 11.550781 75.269531 13.46875 80.589844 C 13.738281 81.328125 14.589844 81.789062 15.359375 81.578125 C 18.949219 80.601562 19.890625 78.390625 24.078125 80.328125 C 26.101562 81.269531 27.589844 83.140625 27.921875 85.339844 C 28.839844 91.441406 23.410156 95.460938 18.421875 93.871094 C 15.148438 92.828125 15.148438 90.148438 12.96875 87.539062 C 12.570312 87.058594 11.78125 86.878906 11.238281 87.179688 C 6.390625 89.921875 4.261719 107.710938 4.261719 107.710938 L 51.601562 122.769531 C 51.601562 122.769531 53.070312 106.210938 57.960938 103.511719 C 58.5 103.210938 59.269531 103.398438 59.660156 103.878906 C 61.789062 106.539062 62.488281 107.851562 65.738281 108.921875 C 68.320312 109.769531 71.898438 108.851562 73.589844 106.730469 C 77.109375 102.320312 74.96875 96.421875 70.210938 94.910156 Z M 70.210938 94.910156 "/>
</clipPath>
<radialGradient id="radial7" gradientUnits="userSpaceOnUse" cx="63" cy="557.75" fx="63" fy="557.75" r="78.387001" gradientTransform="matrix(1,0,0,0.8,0,-366.399994)">
<stop offset="0" style="stop-color:rgb(54.509804%,76.470588%,29.019608%);stop-opacity:1;"/>
<stop offset="0.2466" style="stop-color:rgb(51.764706%,73.72549%,27.843137%);stop-opacity:1;"/>
<stop offset="0.5981" style="stop-color:rgb(44.705882%,66.666667%,23.921569%);stop-opacity:1;"/>
<stop offset="0.7526" style="stop-color:rgb(40.784314%,62.352941%,21.960784%);stop-opacity:1;"/>
<stop offset="1" style="stop-color:rgb(40.784314%,62.352941%,21.960784%);stop-opacity:1;"/>
</radialGradient>
<clipPath id="clip53">
  <path d="M 8 79 L 76 79 L 76 123 L 8 123 Z M 8 79 "/>
</clipPath>
<clipPath id="clip54">
  <path d="M 70.210938 94.910156 C 67.050781 93.898438 65.421875 94.828125 62.328125 95.78125 C 61.519531 96.03125 60.578125 95.589844 60.300781 94.789062 C 58.429688 89.460938 66.648438 75.429688 66.648438 75.429688 C 66.648438 75.429688 49.261719 73.941406 46.640625 69.019531 C 46.351562 68.480469 46.550781 67.730469 47.03125 67.359375 C 49.25 65.628906 51.648438 64.46875 52.691406 61.648438 C 53.628906 59.089844 53.289062 56 51.289062 54.050781 C 48.359375 51.191406 43.519531 50.941406 40.570312 53.941406 C 37.628906 56.929688 38.28125 60.648438 39.398438 64.238281 C 39.601562 64.871094 39.300781 65.671875 38.699219 65.949219 C 33.660156 68.320312 19.320312 60.371094 19.320312 60.371094 C 19.320312 60.371094 11.550781 75.269531 13.46875 80.589844 C 13.738281 81.328125 14.589844 81.789062 15.359375 81.578125 C 18.949219 80.601562 19.890625 78.390625 24.078125 80.328125 C 26.101562 81.269531 27.589844 83.140625 27.921875 85.339844 C 28.839844 91.441406 23.410156 95.460938 18.421875 93.871094 C 15.148438 92.828125 15.148438 90.148438 12.96875 87.539062 C 12.570312 87.058594 11.78125 86.878906 11.238281 87.179688 C 6.390625 89.921875 4.261719 107.710938 4.261719 107.710938 L 51.601562 122.769531 C 51.601562 122.769531 53.070312 106.210938 57.960938 103.511719 C 58.5 103.210938 59.269531 103.398438 59.660156 103.878906 C 61.789062 106.539062 62.488281 107.851562 65.738281 108.921875 C 68.320312 109.769531 71.898438 108.851562 73.589844 106.730469 C 77.109375 102.320312 74.96875 96.421875 70.210938 94.910156 Z M 70.210938 94.910156 "/>
</clipPath>
<linearGradient id="linear8" gradientUnits="userSpaceOnUse" x1="42.143002" y1="76.75" x2="42.143002" y2="115.379997" >
<stop offset="0" style="stop-color:rgb(1.176471%,60.784314%,89.803922%);stop-opacity:1;"/>
<stop offset="0.401" style="stop-color:rgb(1.176471%,60.784314%,89.803922%);stop-opacity:1;"/>
<stop offset="0.6491" style="stop-color:rgb(3.921569%,52.941176%,84.705882%);stop-opacity:1;"/>
<stop offset="1" style="stop-color:rgb(8.235294%,39.607843%,75.294118%);stop-opacity:1;"/>
</linearGradient>
<clipPath id="clip55">
  <path d="M 17 88 L 21 88 L 21 96 L 17 96 Z M 17 88 "/>
</clipPath>
<clipPath id="clip56">
  <path d="M 70.210938 94.910156 C 67.050781 93.898438 65.421875 94.828125 62.328125 95.78125 C 61.519531 96.03125 60.578125 95.589844 60.300781 94.789062 C 58.429688 89.460938 66.648438 75.429688 66.648438 75.429688 C 66.648438 75.429688 49.261719 73.941406 46.640625 69.019531 C 46.351562 68.480469 46.550781 67.730469 47.03125 67.359375 C 49.25 65.628906 51.648438 64.46875 52.691406 61.648438 C 53.628906 59.089844 53.289062 56 51.289062 54.050781 C 48.359375 51.191406 43.519531 50.941406 40.570312 53.941406 C 37.628906 56.929688 38.28125 60.648438 39.398438 64.238281 C 39.601562 64.871094 39.300781 65.671875 38.699219 65.949219 C 33.660156 68.320312 19.320312 60.371094 19.320312 60.371094 C 19.320312 60.371094 11.550781 75.269531 13.46875 80.589844 C 13.738281 81.328125 14.589844 81.789062 15.359375 81.578125 C 18.949219 80.601562 19.890625 78.390625 24.078125 80.328125 C 26.101562 81.269531 27.589844 83.140625 27.921875 85.339844 C 28.839844 91.441406 23.410156 95.460938 18.421875 93.871094 C 15.148438 92.828125 15.148438 90.148438 12.96875 87.539062 C 12.570312 87.058594 11.78125 86.878906 11.238281 87.179688 C 6.390625 89.921875 4.261719 107.710938 4.261719 107.710938 L 51.601562 122.769531 C 51.601562 122.769531 53.070312 106.210938 57.960938 103.511719 C 58.5 103.210938 59.269531 103.398438 59.660156 103.878906 C 61.789062 106.539062 62.488281 107.851562 65.738281 108.921875 C 68.320312 109.769531 71.898438 108.851562 73.589844 106.730469 C 77.109375 102.320312 74.96875 96.421875 70.210938 94.910156 Z M 70.210938 94.910156 "/>
</clipPath>
<clipPath id="clip57">
  <path d="M 7 65 L 31 65 L 31 92 L 7 92 Z M 7 65 "/>
</clipPath>
<clipPath id="clip58">
  <path d="M 70.210938 94.910156 C 67.050781 93.898438 65.421875 94.828125 62.328125 95.78125 C 61.519531 96.03125 60.578125 95.589844 60.300781 94.789062 C 58.429688 89.460938 66.648438 75.429688 66.648438 75.429688 C 66.648438 75.429688 49.261719 73.941406 46.640625 69.019531 C 46.351562 68.480469 46.550781 67.730469 47.03125 67.359375 C 49.25 65.628906 51.648438 64.46875 52.691406 61.648438 C 53.628906 59.089844 53.289062 56 51.289062 54.050781 C 48.359375 51.191406 43.519531 50.941406 40.570312 53.941406 C 37.628906 56.929688 38.28125 60.648438 39.398438 64.238281 C 39.601562 64.871094 39.300781 65.671875 38.699219 65.949219 C 33.660156 68.320312 19.320312 60.371094 19.320312 60.371094 C 19.320312 60.371094 11.550781 75.269531 13.46875 80.589844 C 13.738281 81.328125 14.589844 81.789062 15.359375 81.578125 C 18.949219 80.601562 19.890625 78.390625 24.078125 80.328125 C 26.101562 81.269531 27.589844 83.140625 27.921875 85.339844 C 28.839844 91.441406 23.410156 95.460938 18.421875 93.871094 C 15.148438 92.828125 15.148438 90.148438 12.96875 87.539062 C 12.570312 87.058594 11.78125 86.878906 11.238281 87.179688 C 6.390625 89.921875 4.261719 107.710938 4.261719 107.710938 L 51.601562 122.769531 C 51.601562 122.769531 53.070312 106.210938 57.960938 103.511719 C 58.5 103.210938 59.269531 103.398438 59.660156 103.878906 C 61.789062 106.539062 62.488281 107.851562 65.738281 108.921875 C 68.320312 109.769531 71.898438 108.851562 73.589844 106.730469 C 77.109375 102.320312 74.96875 96.421875 70.210938 94.910156 Z M 70.210938 94.910156 "/>
</clipPath>
<radialGradient id="radial8" gradientUnits="userSpaceOnUse" cx="12.625" cy="58.375" fx="12.625" fy="58.375" r="34.23" >
<stop offset="0" style="stop-color:rgb(26.27451%,62.745098%,27.843137%);stop-opacity:1;"/>
<stop offset="0.6026" style="stop-color:rgb(21.568627%,54.901961%,23.137255%);stop-opacity:1;"/>
<stop offset="1" style="stop-color:rgb(18.039216%,49.019608%,19.607843%);stop-opacity:1;"/>
</radialGradient>
<mask id="mask20">
  <g filter="url(#alpha)">
<rect x="0" y="0" width="128" height="128" style="fill:rgb(0%,0%,0%);fill-opacity:0.2;stroke:none;"/>
  </g>
</mask>
<clipPath id="clip59">
  <rect x="0" y="0" width="128" height="128"/>
</clipPath>
<g id="surface65" clip-path="url(#clip59)">
<path style=" stroke:none;fill-rule:nonzero;fill:rgb(25.882354%,25.882354%,25.882354%);fill-opacity:1;" d="M 82.839844 6.078125 C 85.238281 6.078125 87.46875 7.859375 88.011719 10.230469 C 88.390625 11.871094 87.96875 12.75 87.21875 14.351562 C 86.890625 15.058594 86.511719 15.859375 86.171875 16.828125 C 85.589844 18.46875 86.351562 20.410156 87.851562 21.160156 C 88.839844 21.648438 90.039062 21.890625 91.519531 21.890625 C 96.75 21.890625 104.628906 18.71875 108.171875 17.171875 C 110.828125 22.941406 113.660156 31.03125 112.871094 34.050781 C 112.230469 33.789062 111.609375 33.46875 111.011719 33.171875 C 109.441406 32.371094 107.828125 31.550781 105.75 31.550781 C 105.109375 31.550781 104.460938 31.628906 103.800781 31.789062 C 101.230469 32.421875 99.039062 34.121094 97.789062 36.449219 C 96.539062 38.78125 96.339844 41.550781 97.230469 44.050781 C 98.550781 47.738281 102.109375 50.210938 106.089844 50.210938 C 107 50.210938 107.910156 50.078125 108.78125 49.808594 C 111.691406 48.921875 113.308594 46.941406 114.890625 45.019531 C 115.179688 44.660156 115.480469 44.300781 115.789062 43.941406 C 117.910156 46.339844 118.890625 54.890625 118.980469 61.210938 L 73.851562 72.308594 C 71.148438 66.519531 68.210938 58.199219 69.011719 55.128906 C 69.648438 55.390625 70.269531 55.710938 70.871094 56.011719 C 72.441406 56.808594 74.050781 57.628906 76.128906 57.628906 C 76.769531 57.628906 77.421875 57.550781 78.078125 57.390625 C 80.640625 56.761719 82.820312 55.070312 84.078125 52.75 C 85.328125 50.429688 85.550781 47.671875 84.671875 45.171875 C 83.359375 41.441406 79.828125 39.03125 75.691406 39.03125 C 74.628906 39.03125 73.570312 39.199219 72.558594 39.519531 C 69.558594 40.488281 67.960938 42.089844 66.101562 44.238281 C 64.039062 41.96875 63.050781 34.230469 62.921875 28.320312 C 67.988281 28.039062 79.308594 26.898438 82.058594 22.199219 C 83.121094 20.390625 82.429688 18.671875 80.019531 17.089844 C 79.871094 16.988281 79.738281 16.910156 79.628906 16.828125 C 78.789062 16.191406 77.738281 15.308594 77.191406 14.21875 C 76.160156 12.199219 76.800781 10.410156 77.28125 9.519531 C 78.269531 7.679688 80.230469 6.351562 82.289062 6.109375 C 82.46875 6.089844 82.660156 6.078125 82.839844 6.078125 M 82.839844 4.078125 C 82.578125 4.078125 82.320312 4.089844 82.050781 4.121094 C 76.960938 4.699219 72.859375 10.140625 75.390625 15.121094 C 76.078125 16.46875 77.210938 17.511719 78.398438 18.410156 C 79.199219 19.019531 81.089844 19.859375 80.308594 21.179688 C 77.519531 26 60.898438 26.398438 60.898438 26.398438 C 60.898438 26.398438 60.738281 42.25 65.011719 45.96875 C 65.308594 46.230469 65.679688 46.351562 66.058594 46.351562 C 66.578125 46.351562 67.109375 46.121094 67.460938 45.71875 C 69.289062 43.601562 70.628906 42.25 73.171875 41.429688 C 74 41.160156 74.851562 41.03125 75.691406 41.03125 C 78.789062 41.03125 81.710938 42.789062 82.78125 45.839844 C 84.25 50 81.789062 54.421875 77.609375 55.449219 C 77.089844 55.578125 76.609375 55.628906 76.140625 55.628906 C 73.679688 55.628906 71.871094 54.03125 69.289062 53.089844 C 69.128906 53.03125 68.949219 53 68.769531 53 C 68.21875 53 67.660156 53.269531 67.410156 53.75 C 64.871094 58.75 72.75 74.648438 72.75 74.648438 L 121 62.78125 C 121 62.78125 121.160156 46.058594 116.929688 42.238281 C 116.628906 41.96875 116.238281 41.839844 115.839844 41.839844 C 115.320312 41.839844 114.789062 42.058594 114.441406 42.46875 C 112.488281 44.699219 111.101562 47.03125 108.210938 47.910156 C 107.519531 48.121094 106.808594 48.21875 106.109375 48.21875 C 103.078125 48.21875 100.191406 46.339844 99.128906 43.378906 C 97.640625 39.210938 100.101562 34.769531 104.289062 33.738281 C 104.808594 33.609375 105.300781 33.558594 105.761719 33.558594 C 108.21875 33.558594 110.03125 35.160156 112.609375 36.101562 C 112.769531 36.160156 112.949219 36.191406 113.128906 36.191406 C 113.679688 36.191406 114.238281 35.921875 114.488281 35.441406 C 117.03125 30.441406 109.140625 14.539062 109.140625 14.539062 C 109.140625 14.539062 97.929688 19.898438 91.53125 19.898438 C 90.441406 19.898438 89.480469 19.738281 88.75 19.378906 C 88.121094 19.058594 87.828125 18.171875 88.058594 17.5 C 89.140625 14.441406 90.699219 13.011719 89.960938 9.789062 C 89.199219 6.480469 86.179688 4.078125 82.839844 4.078125 Z M 45.761719 53.78125 C 47.289062 53.78125 48.789062 54.398438 49.890625 55.46875 C 51.378906 56.921875 51.429688 59.269531 50.808594 60.949219 C 50.199219 62.601562 48.910156 63.519531 47.269531 64.691406 C 46.789062 65.03125 46.300781 65.378906 45.800781 65.769531 C 44.53125 66.761719 44.128906 68.550781 44.871094 69.949219 C 47.261719 74.460938 57.800781 76.378906 63.429688 77.089844 C 60.921875 81.808594 56.761719 90.75 58.398438 95.449219 C 58.898438 96.878906 60.289062 97.851562 61.839844 97.851562 C 62.199219 97.851562 62.558594 97.800781 62.898438 97.691406 C 63.398438 97.539062 63.871094 97.378906 64.308594 97.238281 C 65.648438 96.800781 66.609375 96.480469 67.628906 96.480469 C 68.230469 96.480469 68.859375 96.589844 69.589844 96.820312 C 71.269531 97.351562 72.578125 98.679688 73.089844 100.371094 C 73.609375 102.101562 73.21875 103.960938 72.011719 105.480469 C 71.171875 106.53125 69.480469 107.238281 67.800781 107.238281 C 67.269531 107.238281 66.769531 107.171875 66.351562 107.03125 C 64.058594 106.28125 63.46875 105.53125 61.921875 103.550781 C 61.699219 103.269531 61.460938 102.960938 61.199219 102.640625 C 60.570312 101.851562 59.570312 101.378906 58.53125 101.378906 C 57.980469 101.378906 57.441406 101.519531 56.980469 101.769531 C 52.398438 104.300781 50.519531 114.878906 49.859375 120.128906 L 6.460938 106.300781 C 7.480469 99.109375 9.628906 91.28125 11.78125 89.25 C 12.230469 89.859375 12.570312 90.488281 12.921875 91.148438 C 13.851562 92.878906 14.910156 94.839844 17.808594 95.761719 C 18.730469 96.050781 19.691406 96.199219 20.648438 96.199219 C 23.378906 96.199219 25.960938 95.011719 27.738281 92.941406 C 29.578125 90.800781 30.339844 87.988281 29.898438 85.019531 C 29.46875 82.179688 27.609375 79.738281 24.929688 78.5 C 23.539062 77.859375 22.300781 77.539062 21.148438 77.539062 C 19.539062 77.539062 18.359375 78.121094 17.210938 78.679688 C 16.609375 78.96875 15.988281 79.28125 15.261719 79.519531 C 14.609375 76.421875 17.480469 68.710938 20.210938 63.078125 C 23.691406 64.839844 31.289062 68.378906 36.339844 68.378906 C 37.589844 68.378906 38.679688 68.171875 39.570312 67.75 C 41.058594 67.050781 41.828125 65.238281 41.328125 63.628906 C 40.21875 60.058594 39.949219 57.429688 42.019531 55.328125 C 42.980469 54.328125 44.320312 53.78125 45.761719 53.78125 M 45.761719 51.78125 C 43.878906 51.78125 42 52.46875 40.570312 53.929688 C 37.628906 56.921875 38.28125 60.640625 39.398438 64.230469 C 39.601562 64.859375 39.300781 65.660156 38.699219 65.941406 C 38.050781 66.25 37.238281 66.378906 36.320312 66.378906 C 30.179688 66.378906 19.320312 60.359375 19.320312 60.359375 C 19.320312 60.359375 11.550781 75.261719 13.46875 80.578125 C 13.699219 81.199219 14.328125 81.621094 14.96875 81.621094 C 15.101562 81.621094 15.230469 81.601562 15.351562 81.570312 C 17.910156 80.871094 19.128906 79.539062 21.128906 79.539062 C 21.941406 79.539062 22.871094 79.75 24.070312 80.308594 C 26.089844 81.25 27.578125 83.121094 27.910156 85.320312 C 28.691406 90.519531 24.871094 94.199219 20.640625 94.199219 C 19.898438 94.199219 19.148438 94.089844 18.410156 93.851562 C 15.140625 92.808594 15.140625 90.128906 12.960938 87.519531 C 12.691406 87.199219 12.261719 87.011719 11.839844 87.011719 C 11.628906 87.011719 11.421875 87.058594 11.230469 87.160156 C 6.378906 89.898438 4.25 107.691406 4.25 107.691406 L 51.589844 122.75 C 51.589844 122.75 53.058594 106.191406 57.949219 103.488281 C 58.128906 103.390625 58.328125 103.351562 58.539062 103.351562 C 58.960938 103.351562 59.390625 103.539062 59.648438 103.859375 C 61.78125 106.519531 62.480469 107.828125 65.730469 108.898438 C 66.378906 109.109375 67.078125 109.210938 67.808594 109.210938 C 69.980469 109.210938 72.308594 108.300781 73.578125 106.699219 C 77.101562 102.300781 74.960938 96.398438 70.199219 94.878906 C 69.230469 94.570312 68.398438 94.441406 67.640625 94.441406 C 65.910156 94.441406 64.46875 95.089844 62.328125 95.75 C 62.179688 95.800781 62.019531 95.820312 61.859375 95.820312 C 61.191406 95.820312 60.53125 95.410156 60.300781 94.761719 C 58.429688 89.429688 66.648438 75.398438 66.648438 75.398438 C 66.648438 75.398438 49.261719 73.910156 46.640625 68.988281 C 46.351562 68.449219 46.550781 67.699219 47.03125 67.328125 C 49.25 65.601562 51.648438 64.441406 52.691406 61.621094 C 53.628906 59.058594 53.289062 55.96875 51.289062 54.019531 C 49.78125 52.558594 47.769531 51.78125 45.761719 51.78125 Z M 45.761719 51.78125 "/>
</g>
</defs>
<g id="surface1">
<g clip-path="url(#clip1)" clip-rule="nonzero">
<g clip-path="url(#clip2)" clip-rule="nonzero">
<path style=" stroke:none;fill-rule:nonzero;fill:url(#radial0);" d="M 5.121094 1 L 123.441406 1 L 123.441406 125.550781 L 5.121094 125.550781 Z M 5.121094 1 "/>
</g>
</g>
<g clip-path="url(#clip3)" clip-rule="nonzero">
<g clip-path="url(#clip4)" clip-rule="nonzero">
<path style=" stroke:none;fill-rule:nonzero;fill:url(#linear0);" d="M 25.511719 42.269531 C 26.539062 41.210938 27.890625 40.550781 29.351562 40.351562 C 31.210938 40.109375 33.359375 40.410156 35.269531 38.878906 C 37.28125 37.269531 47.238281 18.921875 51.859375 19 C 53.078125 19.019531 54.078125 20.078125 54.980469 21.421875 C 56.589844 23.820312 57.859375 27.148438 59.488281 27.148438 C 62.898438 27.148438 62.898438 37.320312 67.058594 38.539062 C 70.910156 39.660156 72.191406 39.609375 75.789062 44.859375 C 79.839844 39.929688 83.390625 36.199219 85.480469 35.261719 C 85.828125 35.101562 86.140625 35 86.398438 35 C 89.421875 35 92.53125 43.050781 95.640625 47.988281 C 98.75 52.929688 100.210938 51.648438 103.140625 51.28125 C 106.070312 50.921875 124 79 124 79 L 4 79 C 4 79 17.949219 50.070312 25.511719 42.269531 Z M 25.511719 42.269531 "/>
<path style=" stroke:none;fill-rule:nonzero;fill:url(#linear1);" d="M 25.511719 42.269531 C 26.539062 41.210938 27.890625 40.550781 29.351562 40.351562 C 31.210938 40.109375 33.359375 40.410156 35.269531 38.878906 C 37.28125 37.269531 47.238281 18.921875 51.859375 19 C 53.078125 19.019531 54.078125 20.078125 54.980469 21.421875 C 56.589844 23.820312 57.859375 27.148438 59.488281 27.148438 C 62.898438 27.148438 62.898438 37.320312 67.058594 38.539062 C 70.910156 39.660156 72.191406 39.609375 75.789062 44.859375 C 79.839844 39.929688 83.390625 36.199219 85.480469 35.261719 C 85.828125 35.101562 86.140625 35 86.398438 35 C 89.421875 35 92.53125 43.050781 95.640625 47.988281 C 98.75 52.929688 100.210938 51.648438 103.140625 51.28125 C 106.070312 50.921875 124 79 124 79 L 4 79 C 4 79 17.949219 50.070312 25.511719 42.269531 Z M 25.511719 42.269531 "/>
</g>
</g>
<g clip-path="url(#clip5)" clip-rule="nonzero">
<g clip-path="url(#clip6)" clip-rule="nonzero">
<use xlink:href="#surface8" mask="url(#mask0)"/>
</g>
</g>
<g clip-path="url(#clip9)" clip-rule="nonzero">
<g clip-path="url(#clip10)" clip-rule="nonzero">
<path style=" stroke:none;fill-rule:nonzero;fill:url(#radial2);" d="M 103.140625 51.28125 C 100.210938 51.648438 98.75 52.929688 95.640625 47.988281 C 92.53125 43.050781 89.421875 35 86.398438 35 C 86.140625 35 85.828125 35.101562 85.488281 35.261719 C 78.640625 38.328125 56.269531 71.070312 51.730469 79 L 124 79 C 124 79 106.070312 50.921875 103.140625 51.28125 Z M 103.140625 51.28125 "/>
</g>
</g>
<g clip-path="url(#clip11)" clip-rule="nonzero">
<g clip-path="url(#clip12)" clip-rule="nonzero">
<use xlink:href="#surface14" mask="url(#mask2)"/>
<use xlink:href="#surface20" mask="url(#mask4)"/>
<use xlink:href="#surface26" mask="url(#mask6)"/>
<use xlink:href="#surface32" mask="url(#mask8)"/>
</g>
</g>
<g clip-path="url(#clip21)" clip-rule="nonzero">
<g clip-path="url(#clip22)" clip-rule="nonzero">
<path style=" stroke:none;fill-rule:nonzero;fill:url(#linear2);" d="M 90.691406 79.101562 C 90.691406 79.101562 89.359375 78.230469 88.671875 76.980469 C 89.390625 77.070312 90.558594 77.128906 90.230469 76.441406 C 90.230469 76.441406 88.769531 75.441406 88.230469 74.039062 C 88.449219 74.058594 88.691406 74.03125 88.910156 73.890625 C 88.910156 73.890625 89.21875 73.679688 88.378906 72.890625 C 88.378906 72.890625 87.660156 72.289062 86.539062 69.570312 C 86.351562 69.109375 85.738281 69.101562 85.53125 69.539062 C 85.03125 70.601562 84.25 72.121094 83.449219 73.070312 C 83.449219 73.070312 82.390625 74.320312 84.128906 73.859375 C 83.828125 74.269531 82.671875 75.789062 81.949219 76.179688 C 81.949219 76.179688 81.789062 76.351562 81.808594 76.539062 C 81.390625 76.101562 80.941406 75.53125 80.660156 74.878906 C 81.378906 74.96875 82.539062 75.019531 82.210938 74.371094 C 82.210938 74.371094 81.011719 73.589844 80.390625 72.46875 C 81.039062 72.550781 82.089844 72.601562 81.789062 71.988281 C 81.789062 71.988281 80.480469 71.089844 80 69.839844 C 80.199219 69.859375 80.410156 69.828125 80.609375 69.710938 C 80.609375 69.710938 80.878906 69.519531 80.140625 68.808594 C 80.140625 68.808594 79.5 68.269531 78.480469 65.828125 C 78.308594 65.421875 77.761719 65.398438 77.570312 65.800781 C 77.121094 66.75 76.421875 68.121094 75.699219 68.980469 C 75.699219 68.980469 74.75 70.101562 76.308594 69.691406 C 76.039062 70.058594 75 71.429688 74.351562 71.78125 C 74.351562 71.78125 73.609375 72.589844 75.691406 72.480469 C 75.199219 73.058594 74.460938 73.890625 73.941406 74.148438 C 73.941406 74.148438 73.089844 75.03125 75.53125 74.878906 C 75.230469 75.28125 74.761719 75.859375 74.289062 76.359375 C 74.28125 76.308594 74.28125 76.269531 74.25 76.21875 C 74.25 76.21875 73.050781 75.441406 72.429688 74.320312 C 73.078125 74.398438 74.128906 74.449219 73.828125 73.839844 C 73.828125 73.839844 72.519531 72.941406 72.039062 71.691406 C 72.238281 71.710938 72.449219 71.679688 72.648438 71.558594 C 72.648438 71.558594 72.921875 71.371094 72.179688 70.660156 C 72.179688 70.660156 71.539062 70.121094 70.519531 67.679688 C 70.351562 67.269531 69.800781 67.25 69.609375 67.648438 C 69.160156 68.601562 68.460938 69.96875 67.738281 70.828125 C 67.738281 70.828125 66.789062 71.949219 68.351562 71.539062 C 68.078125 71.910156 67.039062 73.28125 66.390625 73.628906 C 66.390625 73.628906 65.648438 74.441406 67.730469 74.328125 C 67.269531 74.878906 66.570312 75.648438 66.058594 75.949219 C 65.890625 75.691406 65.738281 75.421875 65.621094 75.121094 C 65.878906 75.148438 66.148438 75.109375 66.410156 74.949219 C 66.410156 74.949219 66.769531 74.699219 65.789062 73.78125 C 65.789062 73.78125 64.960938 73.078125 63.640625 69.910156 C 63.421875 69.378906 62.699219 69.359375 62.460938 69.878906 C 61.878906 71.109375 60.960938 72.890625 60.039062 74 C 60.039062 74 58.808594 75.460938 60.828125 74.929688 C 60.609375 75.21875 60.019531 76.011719 59.390625 76.679688 C 59.011719 76.308594 58.558594 75.78125 58.289062 75.160156 C 58.871094 75.230469 59.800781 75.269531 59.53125 74.75 C 59.53125 74.75 58.570312 74.128906 58.070312 73.230469 C 58.589844 73.300781 59.429688 73.328125 59.191406 72.839844 C 59.191406 72.839844 58.140625 72.121094 57.75 71.121094 C 57.910156 71.140625 58.078125 71.109375 58.238281 71.011719 C 58.238281 71.011719 58.460938 70.859375 57.859375 70.289062 C 57.859375 70.289062 57.339844 69.859375 56.53125 67.898438 C 56.390625 67.570312 55.949219 67.558594 55.800781 67.878906 C 55.441406 68.640625 54.878906 69.738281 54.300781 70.421875 C 54.300781 70.421875 53.539062 71.320312 54.789062 70.988281 C 54.570312 71.28125 53.738281 72.378906 53.21875 72.660156 C 53.21875 72.660156 52.628906 73.308594 54.289062 73.21875 C 53.898438 73.691406 53.300781 74.351562 52.890625 74.558594 C 52.890625 74.558594 52.210938 75.261719 54.160156 75.148438 C 53.730469 75.710938 52.898438 76.730469 52.339844 77.039062 C 52.339844 77.039062 51.570312 77.878906 53.730469 77.769531 C 53.21875 78.378906 52.449219 79.230469 51.910156 79.511719 C 51.910156 79.511719 51.820312 79.609375 51.78125 79.730469 C 51.53125 79.488281 51.28125 79.179688 51.089844 78.839844 C 51.609375 78.910156 52.449219 78.941406 52.210938 78.449219 C 52.210938 78.449219 51.160156 77.730469 50.769531 76.730469 C 50.929688 76.75 51.101562 76.71875 51.261719 76.621094 C 51.261719 76.621094 51.480469 76.46875 50.878906 75.898438 C 50.878906 75.898438 50.359375 75.46875 49.550781 73.511719 C 49.410156 73.179688 48.96875 73.171875 48.820312 73.488281 C 48.460938 74.25 47.898438 75.351562 47.320312 76.03125 C 47.320312 76.03125 46.558594 76.929688 47.808594 76.601562 C 47.589844 76.890625 46.761719 77.988281 46.238281 78.269531 C 46.238281 78.269531 45.648438 78.921875 47.308594 78.828125 C 47.179688 78.988281 47.019531 79.171875 46.851562 79.351562 C 46.851562 79.308594 46.839844 79.269531 46.808594 79.210938 C 46.808594 79.210938 45.851562 78.589844 45.351562 77.691406 C 45.871094 77.761719 46.710938 77.789062 46.46875 77.300781 C 46.46875 77.300781 45.421875 76.578125 45.03125 75.578125 C 45.191406 75.601562 45.359375 75.570312 45.519531 75.46875 C 45.519531 75.46875 45.738281 75.320312 45.140625 74.75 C 45.140625 74.75 44.621094 74.320312 43.808594 72.359375 C 43.671875 72.03125 43.230469 72.019531 43.078125 72.339844 C 42.71875 73.101562 42.160156 74.199219 41.578125 74.878906 C 41.578125 74.878906 40.820312 75.78125 42.070312 75.449219 C 41.851562 75.738281 41.019531 76.839844 40.5 77.121094 C 40.5 77.121094 39.910156 77.769531 41.570312 77.679688 C 41.179688 78.148438 40.578125 78.808594 40.171875 79.019531 C 40.171875 79.019531 39.488281 79.71875 41.441406 79.609375 C 41.011719 80.171875 40.179688 81.191406 39.621094 81.5 C 39.621094 81.5 38.851562 82.339844 41.011719 82.230469 C 40.5 82.839844 39.730469 83.691406 39.191406 83.96875 C 39.191406 83.96875 38.179688 85.011719 41.410156 84.679688 C 41.410156 84.679688 41.578125 85.71875 43.628906 84.800781 C 43.628906 84.800781 44.289062 85.148438 44.859375 85.179688 C 44.699219 85.398438 44.398438 86.101562 47.128906 85.828125 C 47.128906 85.828125 47.300781 86.871094 49.351562 85.949219 C 49.351562 85.949219 51.140625 86.898438 51.339844 85.800781 C 51.339844 85.800781 53.988281 86.308594 53.5 85.351562 C 53.5 85.351562 52.261719 84.539062 51.609375 83.371094 C 52.28125 83.460938 53.378906 83.511719 53.058594 82.871094 C 53.058594 82.871094 51.800781 81.988281 51.261719 80.761719 C 51.839844 80.828125 52.769531 80.871094 52.5 80.351562 C 52.5 80.351562 52.429688 80.300781 52.320312 80.21875 C 52.679688 80.28125 53.230469 80.289062 54.089844 80.210938 C 54.089844 80.210938 54.261719 81.25 56.308594 80.328125 C 56.308594 80.328125 57.101562 80.75 57.691406 80.710938 C 57.648438 80.75 56.488281 82 60.46875 81.601562 C 60.46875 81.601562 60.691406 82.898438 63.238281 81.75 C 63.238281 81.75 63.980469 82.140625 64.648438 82.210938 C 64.46875 82.441406 63.890625 83.410156 67.460938 83.050781 C 67.460938 83.050781 67.679688 84.351562 70.230469 83.199219 C 70.230469 83.199219 72.460938 84.390625 72.710938 83.011719 C 72.710938 83.011719 76.019531 83.640625 75.410156 82.449219 C 75.410156 82.449219 74.730469 82 74.039062 81.28125 C 74.410156 81.28125 74.859375 81.261719 75.421875 81.199219 C 75.421875 81.199219 75.640625 82.5 78.191406 81.351562 C 78.191406 81.351562 80.421875 82.539062 80.671875 81.160156 C 80.671875 81.160156 83.980469 81.789062 83.371094 80.601562 C 83.371094 80.601562 82.820312 80.230469 82.199219 79.640625 C 82.578125 79.671875 83.089844 79.660156 83.800781 79.589844 C 83.800781 79.589844 83.988281 80.710938 86.179688 79.71875 C 86.179688 79.71875 88.101562 80.738281 88.308594 79.558594 C 88.371094 79.578125 91.210938 80.121094 90.691406 79.101562 Z M 45.910156 80.179688 L 45.890625 80.199219 C 45.769531 80.019531 45.660156 79.828125 45.570312 79.628906 C 45.898438 79.671875 46.328125 79.699219 46.601562 79.621094 C 46.359375 79.859375 46.121094 80.078125 45.910156 80.179688 Z M 46.800781 81.25 C 46.648438 81.109375 46.480469 80.941406 46.308594 80.75 C 46.519531 80.78125 46.800781 80.789062 47.179688 80.769531 C 47.078125 80.910156 46.949219 81.070312 46.800781 81.25 Z M 58.300781 80.320312 C 58.308594 80.28125 58.328125 80.238281 58.339844 80.191406 C 58.339844 80.191406 58.378906 80.199219 58.429688 80.210938 C 58.378906 80.238281 58.339844 80.28125 58.300781 80.320312 Z M 73.128906 80.039062 C 73.121094 80.019531 73.109375 80.011719 73.101562 79.988281 C 73.121094 79.988281 73.148438 80 73.179688 80 C 73.160156 80.019531 73.148438 80.03125 73.128906 80.039062 Z M 73.128906 80.039062 "/>
</g>
</g>
<g clip-path="url(#clip23)" clip-rule="nonzero">
<g clip-path="url(#clip24)" clip-rule="nonzero">
<path style=" stroke:none;fill-rule:nonzero;fill:url(#linear3);" d="M 117.261719 80.960938 C 117.261719 80.960938 115.898438 80.070312 115.191406 78.789062 C 115.929688 78.878906 117.128906 78.941406 116.789062 78.238281 C 116.789062 78.238281 115.289062 77.210938 114.75 75.78125 C 114.980469 75.800781 115.21875 75.769531 115.441406 75.628906 C 115.441406 75.628906 115.75 75.410156 114.898438 74.601562 C 114.898438 74.601562 114.171875 73.980469 113.011719 71.199219 C 112.820312 70.730469 112.191406 70.710938 111.96875 71.171875 C 111.460938 72.261719 110.660156 73.820312 109.839844 74.789062 C 109.839844 74.789062 108.761719 76.070312 110.53125 75.601562 C 110.359375 75.828125 109.921875 76.398438 109.449219 76.941406 L 109.398438 76.890625 C 109.398438 76.890625 108.671875 76.269531 107.511719 73.488281 C 107.320312 73.019531 106.691406 73 106.46875 73.460938 C 105.960938 74.550781 105.160156 76.109375 104.339844 77.078125 C 104.339844 77.078125 103.261719 78.359375 105.03125 77.890625 C 104.71875 78.308594 103.539062 79.871094 102.800781 80.269531 C 102.800781 80.269531 101.949219 81.199219 104.328125 81.070312 C 103.769531 81.730469 102.921875 82.671875 102.328125 82.980469 C 102.328125 82.980469 101.21875 84.121094 104.769531 83.761719 C 104.769531 83.761719 104.960938 84.898438 107.210938 83.890625 C 107.210938 83.890625 109.171875 84.929688 109.390625 83.730469 C 109.390625 83.730469 112.300781 84.28125 111.761719 83.238281 C 111.761719 83.238281 110.691406 82.539062 109.960938 81.5 C 110.058594 81.488281 110.160156 81.488281 110.269531 81.46875 C 110.269531 81.46875 110.460938 82.609375 112.710938 81.601562 C 112.710938 81.601562 114.671875 82.640625 114.890625 81.441406 C 114.878906 81.449219 117.789062 82 117.261719 80.960938 Z M 109.609375 78.789062 C 109.679688 78.789062 109.738281 78.789062 109.820312 78.78125 C 109.78125 78.828125 109.738281 78.871094 109.699219 78.921875 C 109.671875 78.890625 109.640625 78.839844 109.609375 78.789062 Z M 109.609375 78.789062 "/>
</g>
</g>
<g clip-path="url(#clip25)" clip-rule="nonzero">
<g clip-path="url(#clip26)" clip-rule="nonzero">
<path style=" stroke:none;fill-rule:nonzero;fill:url(#radial3);" d="M 114.011719 94.410156 C 114.011719 94.410156 110.308594 92 108.390625 88.53125 C 110.390625 88.78125 113.640625 88.929688 112.71875 87.039062 C 112.71875 87.039062 108.671875 84.25 107.179688 80.390625 C 107.800781 80.460938 108.449219 80.371094 109.050781 79.980469 C 109.050781 79.980469 109.898438 79.390625 107.578125 77.199219 C 107.578125 77.199219 105.589844 75.519531 102.460938 67.980469 C 101.929688 66.71875 100.230469 66.660156 99.648438 67.898438 C 98.269531 70.839844 96.089844 75.070312 93.871094 77.710938 C 93.871094 77.710938 90.941406 81.179688 95.75 79.910156 C 94.921875 81.039062 91.710938 85.269531 89.710938 86.359375 C 89.710938 86.359375 87.421875 88.871094 93.859375 88.53125 C 92.351562 90.328125 90.050781 92.871094 88.449219 93.699219 C 88.449219 93.699219 85.449219 96.800781 95.050781 95.820312 C 95.050781 95.820312 95.558594 98.921875 101.648438 96.171875 C 101.648438 96.171875 106.96875 99 107.570312 95.730469 C 107.570312 95.738281 115.460938 97.25 114.011719 94.410156 Z M 114.011719 94.410156 "/>
</g>
</g>
<g clip-path="url(#clip27)" clip-rule="nonzero">
<g clip-path="url(#clip28)" clip-rule="nonzero">
<path style=" stroke:none;fill-rule:nonzero;fill:url(#radial4);" d="M 5.121094 1 L 123.441406 1 L 123.441406 125.550781 L 5.121094 125.550781 Z M 5.121094 1 "/>
</g>
</g>
<g clip-path="url(#clip29)" clip-rule="nonzero">
<g clip-path="url(#clip30)" clip-rule="nonzero">
<path style=" stroke:none;fill-rule:nonzero;fill:url(#linear4);" d="M 25.511719 42.269531 C 26.539062 41.210938 27.890625 40.550781 29.351562 40.351562 C 31.210938 40.109375 33.359375 40.410156 35.269531 38.878906 C 37.28125 37.269531 47.238281 18.921875 51.859375 19 C 53.078125 19.019531 54.078125 20.078125 54.980469 21.421875 C 56.589844 23.820312 57.859375 27.148438 59.488281 27.148438 C 62.898438 27.148438 62.898438 37.320312 67.058594 38.539062 C 70.910156 39.660156 72.191406 39.609375 75.789062 44.859375 C 79.839844 39.929688 83.390625 36.199219 85.480469 35.261719 C 85.828125 35.101562 86.140625 35 86.398438 35 C 89.421875 35 92.53125 43.050781 95.640625 47.988281 C 98.75 52.929688 100.210938 51.648438 103.140625 51.28125 C 106.070312 50.921875 124 79 124 79 L 4 79 C 4 79 17.949219 50.070312 25.511719 42.269531 Z M 25.511719 42.269531 "/>
<path style=" stroke:none;fill-rule:nonzero;fill:url(#linear5);" d="M 25.511719 42.269531 C 26.539062 41.210938 27.890625 40.550781 29.351562 40.351562 C 31.210938 40.109375 33.359375 40.410156 35.269531 38.878906 C 37.28125 37.269531 47.238281 18.921875 51.859375 19 C 53.078125 19.019531 54.078125 20.078125 54.980469 21.421875 C 56.589844 23.820312 57.859375 27.148438 59.488281 27.148438 C 62.898438 27.148438 62.898438 37.320312 67.058594 38.539062 C 70.910156 39.660156 72.191406 39.609375 75.789062 44.859375 C 79.839844 39.929688 83.390625 36.199219 85.480469 35.261719 C 85.828125 35.101562 86.140625 35 86.398438 35 C 89.421875 35 92.53125 43.050781 95.640625 47.988281 C 98.75 52.929688 100.210938 51.648438 103.140625 51.28125 C 106.070312 50.921875 124 79 124 79 L 4 79 C 4 79 17.949219 50.070312 25.511719 42.269531 Z M 25.511719 42.269531 "/>
</g>
</g>
<g clip-path="url(#clip31)" clip-rule="nonzero">
<g clip-path="url(#clip32)" clip-rule="nonzero">
<use xlink:href="#surface38" mask="url(#mask10)"/>
</g>
</g>
<g clip-path="url(#clip35)" clip-rule="nonzero">
<g clip-path="url(#clip36)" clip-rule="nonzero">
<path style=" stroke:none;fill-rule:nonzero;fill:url(#radial6);" d="M 103.140625 51.28125 C 100.210938 51.648438 98.75 52.929688 95.640625 47.988281 C 92.53125 43.050781 89.421875 35 86.398438 35 C 86.140625 35 85.828125 35.101562 85.488281 35.261719 C 78.640625 38.328125 56.269531 71.070312 51.730469 79 L 124 79 C 124 79 106.070312 50.921875 103.140625 51.28125 Z M 103.140625 51.28125 "/>
</g>
</g>
<g clip-path="url(#clip37)" clip-rule="nonzero">
<g clip-path="url(#clip38)" clip-rule="nonzero">
<use xlink:href="#surface44" mask="url(#mask12)"/>
<use xlink:href="#surface50" mask="url(#mask14)"/>
<use xlink:href="#surface56" mask="url(#mask16)"/>
<use xlink:href="#surface62" mask="url(#mask18)"/>
</g>
</g>
<g clip-path="url(#clip47)" clip-rule="nonzero">
<g clip-path="url(#clip48)" clip-rule="nonzero">
<path style=" stroke:none;fill-rule:nonzero;fill:url(#linear6);" d="M 90.691406 79.101562 C 90.691406 79.101562 89.359375 78.230469 88.671875 76.980469 C 89.390625 77.070312 90.558594 77.128906 90.230469 76.441406 C 90.230469 76.441406 88.769531 75.441406 88.230469 74.039062 C 88.449219 74.058594 88.691406 74.03125 88.910156 73.890625 C 88.910156 73.890625 89.21875 73.679688 88.378906 72.890625 C 88.378906 72.890625 87.660156 72.289062 86.539062 69.570312 C 86.351562 69.109375 85.738281 69.101562 85.53125 69.539062 C 85.03125 70.601562 84.25 72.121094 83.449219 73.070312 C 83.449219 73.070312 82.390625 74.320312 84.128906 73.859375 C 83.828125 74.269531 82.671875 75.789062 81.949219 76.179688 C 81.949219 76.179688 81.789062 76.351562 81.808594 76.539062 C 81.390625 76.101562 80.941406 75.53125 80.660156 74.878906 C 81.378906 74.96875 82.539062 75.019531 82.210938 74.371094 C 82.210938 74.371094 81.011719 73.589844 80.390625 72.46875 C 81.039062 72.550781 82.089844 72.601562 81.789062 71.988281 C 81.789062 71.988281 80.480469 71.089844 80 69.839844 C 80.199219 69.859375 80.410156 69.828125 80.609375 69.710938 C 80.609375 69.710938 80.878906 69.519531 80.140625 68.808594 C 80.140625 68.808594 79.5 68.269531 78.480469 65.828125 C 78.308594 65.421875 77.761719 65.398438 77.570312 65.800781 C 77.121094 66.75 76.421875 68.121094 75.699219 68.980469 C 75.699219 68.980469 74.75 70.101562 76.308594 69.691406 C 76.039062 70.058594 75 71.429688 74.351562 71.78125 C 74.351562 71.78125 73.609375 72.589844 75.691406 72.480469 C 75.199219 73.058594 74.460938 73.890625 73.941406 74.148438 C 73.941406 74.148438 73.089844 75.03125 75.53125 74.878906 C 75.230469 75.28125 74.761719 75.859375 74.289062 76.359375 C 74.28125 76.308594 74.28125 76.269531 74.25 76.21875 C 74.25 76.21875 73.050781 75.441406 72.429688 74.320312 C 73.078125 74.398438 74.128906 74.449219 73.828125 73.839844 C 73.828125 73.839844 72.519531 72.941406 72.039062 71.691406 C 72.238281 71.710938 72.449219 71.679688 72.648438 71.558594 C 72.648438 71.558594 72.921875 71.371094 72.179688 70.660156 C 72.179688 70.660156 71.539062 70.121094 70.519531 67.679688 C 70.351562 67.269531 69.800781 67.25 69.609375 67.648438 C 69.160156 68.601562 68.460938 69.96875 67.738281 70.828125 C 67.738281 70.828125 66.789062 71.949219 68.351562 71.539062 C 68.078125 71.910156 67.039062 73.28125 66.390625 73.628906 C 66.390625 73.628906 65.648438 74.441406 67.730469 74.328125 C 67.269531 74.878906 66.570312 75.648438 66.058594 75.949219 C 65.890625 75.691406 65.738281 75.421875 65.621094 75.121094 C 65.878906 75.148438 66.148438 75.109375 66.410156 74.949219 C 66.410156 74.949219 66.769531 74.699219 65.789062 73.78125 C 65.789062 73.78125 64.960938 73.078125 63.640625 69.910156 C 63.421875 69.378906 62.699219 69.359375 62.460938 69.878906 C 61.878906 71.109375 60.960938 72.890625 60.039062 74 C 60.039062 74 58.808594 75.460938 60.828125 74.929688 C 60.609375 75.21875 60.019531 76.011719 59.390625 76.679688 C 59.011719 76.308594 58.558594 75.78125 58.289062 75.160156 C 58.871094 75.230469 59.800781 75.269531 59.53125 74.75 C 59.53125 74.75 58.570312 74.128906 58.070312 73.230469 C 58.589844 73.300781 59.429688 73.328125 59.191406 72.839844 C 59.191406 72.839844 58.140625 72.121094 57.75 71.121094 C 57.910156 71.140625 58.078125 71.109375 58.238281 71.011719 C 58.238281 71.011719 58.460938 70.859375 57.859375 70.289062 C 57.859375 70.289062 57.339844 69.859375 56.53125 67.898438 C 56.390625 67.570312 55.949219 67.558594 55.800781 67.878906 C 55.441406 68.640625 54.878906 69.738281 54.300781 70.421875 C 54.300781 70.421875 53.539062 71.320312 54.789062 70.988281 C 54.570312 71.28125 53.738281 72.378906 53.21875 72.660156 C 53.21875 72.660156 52.628906 73.308594 54.289062 73.21875 C 53.898438 73.691406 53.300781 74.351562 52.890625 74.558594 C 52.890625 74.558594 52.210938 75.261719 54.160156 75.148438 C 53.730469 75.710938 52.898438 76.730469 52.339844 77.039062 C 52.339844 77.039062 51.570312 77.878906 53.730469 77.769531 C 53.21875 78.378906 52.449219 79.230469 51.910156 79.511719 C 51.910156 79.511719 51.820312 79.609375 51.78125 79.730469 C 51.53125 79.488281 51.28125 79.179688 51.089844 78.839844 C 51.609375 78.910156 52.449219 78.941406 52.210938 78.449219 C 52.210938 78.449219 51.160156 77.730469 50.769531 76.730469 C 50.929688 76.75 51.101562 76.71875 51.261719 76.621094 C 51.261719 76.621094 51.480469 76.46875 50.878906 75.898438 C 50.878906 75.898438 50.359375 75.46875 49.550781 73.511719 C 49.410156 73.179688 48.96875 73.171875 48.820312 73.488281 C 48.460938 74.25 47.898438 75.351562 47.320312 76.03125 C 47.320312 76.03125 46.558594 76.929688 47.808594 76.601562 C 47.589844 76.890625 46.761719 77.988281 46.238281 78.269531 C 46.238281 78.269531 45.648438 78.921875 47.308594 78.828125 C 47.179688 78.988281 47.019531 79.171875 46.851562 79.351562 C 46.851562 79.308594 46.839844 79.269531 46.808594 79.210938 C 46.808594 79.210938 45.851562 78.589844 45.351562 77.691406 C 45.871094 77.761719 46.710938 77.789062 46.46875 77.300781 C 46.46875 77.300781 45.421875 76.578125 45.03125 75.578125 C 45.191406 75.601562 45.359375 75.570312 45.519531 75.46875 C 45.519531 75.46875 45.738281 75.320312 45.140625 74.75 C 45.140625 74.75 44.621094 74.320312 43.808594 72.359375 C 43.671875 72.03125 43.230469 72.019531 43.078125 72.339844 C 42.71875 73.101562 42.160156 74.199219 41.578125 74.878906 C 41.578125 74.878906 40.820312 75.78125 42.070312 75.449219 C 41.851562 75.738281 41.019531 76.839844 40.5 77.121094 C 40.5 77.121094 39.910156 77.769531 41.570312 77.679688 C 41.179688 78.148438 40.578125 78.808594 40.171875 79.019531 C 40.171875 79.019531 39.488281 79.71875 41.441406 79.609375 C 41.011719 80.171875 40.179688 81.191406 39.621094 81.5 C 39.621094 81.5 38.851562 82.339844 41.011719 82.230469 C 40.5 82.839844 39.730469 83.691406 39.191406 83.96875 C 39.191406 83.96875 38.179688 85.011719 41.410156 84.679688 C 41.410156 84.679688 41.578125 85.71875 43.628906 84.800781 C 43.628906 84.800781 44.289062 85.148438 44.859375 85.179688 C 44.699219 85.398438 44.398438 86.101562 47.128906 85.828125 C 47.128906 85.828125 47.300781 86.871094 49.351562 85.949219 C 49.351562 85.949219 51.140625 86.898438 51.339844 85.800781 C 51.339844 85.800781 53.988281 86.308594 53.5 85.351562 C 53.5 85.351562 52.261719 84.539062 51.609375 83.371094 C 52.28125 83.460938 53.378906 83.511719 53.058594 82.871094 C 53.058594 82.871094 51.800781 81.988281 51.261719 80.761719 C 51.839844 80.828125 52.769531 80.871094 52.5 80.351562 C 52.5 80.351562 52.429688 80.300781 52.320312 80.21875 C 52.679688 80.28125 53.230469 80.289062 54.089844 80.210938 C 54.089844 80.210938 54.261719 81.25 56.308594 80.328125 C 56.308594 80.328125 57.101562 80.75 57.691406 80.710938 C 57.648438 80.75 56.488281 82 60.46875 81.601562 C 60.46875 81.601562 60.691406 82.898438 63.238281 81.75 C 63.238281 81.75 63.980469 82.140625 64.648438 82.210938 C 64.46875 82.441406 63.890625 83.410156 67.460938 83.050781 C 67.460938 83.050781 67.679688 84.351562 70.230469 83.199219 C 70.230469 83.199219 72.460938 84.390625 72.710938 83.011719 C 72.710938 83.011719 76.019531 83.640625 75.410156 82.449219 C 75.410156 82.449219 74.730469 82 74.039062 81.28125 C 74.410156 81.28125 74.859375 81.261719 75.421875 81.199219 C 75.421875 81.199219 75.640625 82.5 78.191406 81.351562 C 78.191406 81.351562 80.421875 82.539062 80.671875 81.160156 C 80.671875 81.160156 83.980469 81.789062 83.371094 80.601562 C 83.371094 80.601562 82.820312 80.230469 82.199219 79.640625 C 82.578125 79.671875 83.089844 79.660156 83.800781 79.589844 C 83.800781 79.589844 83.988281 80.710938 86.179688 79.71875 C 86.179688 79.71875 88.101562 80.738281 88.308594 79.558594 C 88.371094 79.578125 91.210938 80.121094 90.691406 79.101562 Z M 45.910156 80.179688 L 45.890625 80.199219 C 45.769531 80.019531 45.660156 79.828125 45.570312 79.628906 C 45.898438 79.671875 46.328125 79.699219 46.601562 79.621094 C 46.359375 79.859375 46.121094 80.078125 45.910156 80.179688 Z M 46.800781 81.25 C 46.648438 81.109375 46.480469 80.941406 46.308594 80.75 C 46.519531 80.78125 46.800781 80.789062 47.179688 80.769531 C 47.078125 80.910156 46.949219 81.070312 46.800781 81.25 Z M 58.300781 80.320312 C 58.308594 80.28125 58.328125 80.238281 58.339844 80.191406 C 58.339844 80.191406 58.378906 80.199219 58.429688 80.210938 C 58.378906 80.238281 58.339844 80.28125 58.300781 80.320312 Z M 73.128906 80.039062 C 73.121094 80.019531 73.109375 80.011719 73.101562 79.988281 C 73.121094 79.988281 73.148438 80 73.179688 80 C 73.160156 80.019531 73.148438 80.03125 73.128906 80.039062 Z M 73.128906 80.039062 "/>
</g>
</g>
<g clip-path="url(#clip49)" clip-rule="nonzero">
<g clip-path="url(#clip50)" clip-rule="nonzero">
<path style=" stroke:none;fill-rule:nonzero;fill:url(#linear7);" d="M 40.078125 80.5 C 40.078125 80.5 39.199219 79.929688 38.75 79.109375 C 39.21875 79.171875 40 79.210938 39.78125 78.761719 C 39.78125 78.761719 38.820312 78.101562 38.46875 77.179688 C 38.621094 77.199219 38.769531 77.171875 38.910156 77.078125 C 38.910156 77.078125 39.109375 76.941406 38.558594 76.421875 C 38.558594 76.421875 38.089844 76.019531 37.351562 74.230469 C 37.230469 73.929688 36.820312 73.921875 36.679688 74.210938 C 36.351562 74.910156 35.839844 75.910156 35.308594 76.539062 C 35.308594 76.539062 34.609375 77.359375 35.761719 77.058594 C 35.558594 77.328125 34.800781 78.328125 34.328125 78.589844 C 34.328125 78.589844 33.789062 79.179688 35.308594 79.101562 C 34.949219 79.53125 34.410156 80.128906 34.03125 80.328125 C 34.03125 80.328125 33.320312 81.058594 35.601562 80.828125 C 35.601562 80.828125 35.71875 81.558594 37.171875 80.910156 C 37.171875 80.910156 38.429688 81.578125 38.570312 80.808594 C 38.550781 80.808594 40.421875 81.171875 40.078125 80.5 Z M 40.078125 80.5 "/>
</g>
</g>
<g clip-path="url(#clip51)" clip-rule="nonzero">
<g clip-path="url(#clip52)" clip-rule="nonzero">
<path style=" stroke:none;fill-rule:nonzero;fill:url(#radial7);" d="M 4 79 L 124 79 L 124 127 L 4 127 Z M 4 79 "/>
</g>
</g>
<g clip-path="url(#clip53)" clip-rule="nonzero">
<g clip-path="url(#clip54)" clip-rule="nonzero">
<path style=" stroke:none;fill-rule:nonzero;fill:url(#linear8);" d="M 58.378906 108.5 C 72.660156 101.789062 82 95.300781 49.128906 88.5 C 23.449219 83.191406 22.53125 79 22.53125 79 L 12.589844 79 C 12 84.5 24.191406 88.378906 35.738281 92.148438 C 47.25 95.898438 57 99 32.511719 105.898438 C 14.648438 110.929688 6.398438 118.300781 8.269531 127 L 76.269531 127 C 51.269531 122.871094 46.25 114.199219 58.378906 108.5 Z M 58.378906 108.5 "/>
</g>
</g>
<g clip-path="url(#clip55)" clip-rule="nonzero">
<g clip-path="url(#clip56)" clip-rule="nonzero">
<path style=" stroke:none;fill-rule:nonzero;fill:rgb(47.450981%,33.333334%,28.235295%);fill-opacity:1;" d="M 19.640625 95.800781 L 18.46875 95.800781 C 17.820312 95.800781 17.300781 95.28125 17.300781 94.628906 L 17.300781 88.789062 L 20.800781 88.789062 L 20.800781 94.628906 C 20.808594 95.28125 20.289062 95.800781 19.640625 95.800781 Z M 19.640625 95.800781 "/>
</g>
</g>
<g clip-path="url(#clip57)" clip-rule="nonzero">
<g clip-path="url(#clip58)" clip-rule="nonzero">
<path style=" stroke:none;fill-rule:nonzero;fill:url(#radial8);" d="M 30 88.660156 C 30 88.660156 26.871094 86.621094 25.238281 83.679688 C 26.941406 83.898438 29.691406 84.019531 28.910156 82.410156 C 28.910156 82.410156 25.46875 80.050781 24.21875 76.769531 C 24.738281 76.828125 25.300781 76.75 25.808594 76.421875 C 25.808594 76.421875 26.53125 75.921875 24.570312 74.070312 C 24.570312 74.070312 22.890625 72.648438 20.230469 66.261719 C 19.789062 65.191406 18.339844 65.140625 17.851562 66.191406 C 16.679688 68.679688 14.828125 72.269531 12.949219 74.511719 C 12.949219 74.511719 10.46875 77.449219 14.539062 76.378906 C 13.828125 77.339844 11.109375 80.921875 9.421875 81.851562 C 9.421875 81.851562 7.480469 83.980469 12.929688 83.691406 C 11.648438 85.21875 9.699219 87.371094 8.339844 88.070312 C 8.339844 88.070312 5.800781 90.691406 13.941406 89.871094 C 13.941406 89.871094 14.378906 92.488281 19.539062 90.171875 C 19.539062 90.171875 24.050781 92.570312 24.558594 89.800781 C 24.550781 89.789062 31.238281 91.058594 30 88.660156 Z M 30 88.660156 "/>
</g>
</g>
<use xlink:href="#surface65" mask="url(#mask20)"/>
</g>
</svg>
