<?xml version="1.0" encoding="UTF-8"?>
<svg xmlns="http://www.w3.org/2000/svg" xmlns:xlink="http://www.w3.org/1999/xlink" width="128px" height="128px" viewBox="0 0 128 128" version="1.1">
<g id="surface1">
<path style=" stroke:none;fill-rule:nonzero;fill:rgb(24.313726%,26.274511%,27.843139%);fill-opacity:1;" d="M 97 68.199219 L 106.398438 62.601562 C 109.601562 60.199219 115.199219 62.601562 118.800781 68 C 122.199219 73.398438 122.398438 79.601562 119.199219 82 C 119 82.199219 118.800781 82.398438 118.398438 82.398438 L 109.601562 87.601562 L 97 68.199219 "/>
<path style=" stroke:none;fill-rule:nonzero;fill:rgb(38.431373%,41.176471%,42.745098%);fill-opacity:1;" d="M 98.199219 82 C 101.601562 87.398438 106.398438 90 109.800781 87.601562 C 113 85.199219 113 79 109.398438 73.601562 C 106 68.199219 100.398438 65.800781 97 68.199219 C 94 70.398438 95.601562 78.199219 98.199219 82 "/>
<path style=" stroke:none;fill-rule:nonzero;fill:rgb(24.313726%,26.274511%,27.843139%);fill-opacity:1;" d="M 100.800781 80.199219 C 102.601562 83 105 84.398438 106.800781 83 C 108.601562 81.800781 108.398438 78.398438 106.601562 75.601562 C 104.800781 72.800781 101.800781 71.398438 100 72.800781 C 98.398438 74 99 77.398438 100.800781 80.199219 "/>
<path style=" stroke:none;fill-rule:nonzero;fill:rgb(69.803923%,75.686276%,75.294119%);fill-opacity:1;" d="M 102.398438 76 C 104.199219 75 106.601562 77.601562 105.398438 79.398438 L 97.601562 84.199219 L 95.199219 80 L 102.398438 76 "/>
<path style=" stroke:none;fill-rule:nonzero;fill:rgb(61.176473%,17.254902%,10.588235%);fill-opacity:1;" d="M 95.398438 66.800781 L 95.398438 77.601562 L 87.199219 70 Z M 95.398438 66.800781 "/>
<path style=" stroke:none;fill-rule:nonzero;fill:rgb(24.313726%,26.274511%,27.843139%);fill-opacity:1;" d="M 57 33.199219 L 67.800781 26.800781 C 71.601562 24 78 26.800781 82 33 C 86 39.199219 86.199219 46.398438 82.398438 49.199219 C 82.199219 49.398438 81.800781 49.601562 81.601562 49.601562 L 71.601562 55.601562 L 57 33.199219 "/>
<path style=" stroke:none;fill-rule:nonzero;fill:rgb(38.431373%,41.176471%,42.745098%);fill-opacity:1;" d="M 58.199219 49 C 62.199219 55.199219 67.800781 58.199219 71.601562 55.398438 C 75.398438 52.601562 75.199219 45.398438 71.199219 39.199219 C 67.199219 33 60.800781 30.199219 57 33 C 53.398438 35.601562 55.398438 44.601562 58.199219 49 "/>
<path style=" stroke:none;fill-rule:nonzero;fill:rgb(61.176473%,17.254902%,10.588235%);fill-opacity:1;" d="M 102.199219 97.800781 L 79.398438 85.199219 L 73.601562 88.601562 L 50.398438 83.398438 L 21.800781 61.800781 L 21.800781 51.601562 L 50.398438 71.601562 L 73.601562 80 L 79.398438 75.800781 L 102.199219 94.199219 Z M 102.199219 97.800781 "/>
<path style=" stroke:none;fill-rule:nonzero;fill:rgb(82.745099%,23.137255%,13.725491%);fill-opacity:1;" d="M 110.601562 88.800781 L 102.199219 94.199219 L 79.398438 75.800781 L 73.601562 80 L 50.398438 71.601562 L 21.800781 51.601562 L 29 47.398438 L 33.800781 48.601562 L 50.398438 39.398438 L 50.199219 37.199219 L 56.800781 33.199219 L 86.601562 53 L 95.398438 66.800781 L 89.199219 69.800781 Z M 110.601562 88.800781 "/>
<path style=" stroke:none;fill-rule:nonzero;fill:rgb(94.509804%,34.117648%,26.666668%);fill-opacity:1;" d="M 31.199219 31.601562 L 31.199219 40.398438 L 52.398438 50.601562 L 61.800781 46.199219 L 37 36.601562 L 37 31.601562 Z M 31.199219 31.601562 "/>
<path style=" stroke:none;fill-rule:nonzero;fill:rgb(61.176473%,17.254902%,10.588235%);fill-opacity:1;" d="M 61.800781 53.800781 L 61.800781 46.199219 L 52.398438 50.601562 L 31.199219 40.398438 L 31.199219 31.601562 L 30 31.601562 L 30 41.199219 L 52.398438 58 Z M 61.800781 53.800781 "/>
<path style=" stroke:none;fill-rule:nonzero;fill:rgb(94.509804%,34.117648%,26.666668%);fill-opacity:1;" d="M 86.601562 53 L 95.398438 66.800781 L 73.601562 80 L 50.398438 71.601562 Z M 86.601562 53 "/>
<path style=" stroke:none;fill-rule:nonzero;fill:rgb(100%,90.196079%,18.039216%);fill-opacity:1;" d="M 86.601562 53 L 95.398438 66.800781 L 93 68.199219 L 84 54.199219 Z M 86.601562 53 "/>
<path style=" stroke:none;fill-rule:nonzero;fill:rgb(100%,90.196079%,18.039216%);fill-opacity:1;" d="M 57 33.199219 L 86.601562 53 L 84 54.199219 L 54.601562 34.601562 Z M 57 33.199219 "/>
<path style=" stroke:none;fill-rule:nonzero;fill:rgb(100%,90.196079%,18.039216%);fill-opacity:1;" d="M 55 69.199219 L 76.800781 78 L 73.601562 80 L 50.398438 71.601562 Z M 55 69.199219 "/>
<path style=" stroke:none;fill-rule:nonzero;fill:rgb(100%,90.196079%,18.039216%);fill-opacity:1;" d="M 25.398438 49.398438 L 55 69.199219 L 50.398438 71.601562 L 21.800781 51.601562 Z M 25.398438 49.398438 "/>
<path style=" stroke:none;fill-rule:nonzero;fill:rgb(61.176473%,17.254902%,10.588235%);fill-opacity:1;" d="M 52.398438 58 C 51.800781 62.199219 58.199219 67.601562 64.398438 68.398438 C 75.199219 70 80.199219 63.800781 77 57.398438 C 74 51.601562 62 52.800781 62 52.800781 L 52.398438 58 "/>
<path style=" stroke:none;fill-rule:nonzero;fill:rgb(24.313726%,26.274511%,27.843139%);fill-opacity:1;" d="M 10 59.800781 L 22.398438 52.398438 C 26.800781 49.199219 34 52.398438 38.398438 59.398438 C 43 66.398438 43.199219 74.601562 38.800781 77.601562 C 38.601562 77.800781 38.199219 78 37.800781 78.199219 L 26.398438 85 L 10 59.800781 "/>
<path style=" stroke:none;fill-rule:nonzero;fill:rgb(38.431373%,41.176471%,42.745098%);fill-opacity:1;" d="M 11.398438 77.800781 C 16 84.800781 22.199219 88.199219 26.601562 85 C 31 81.800781 30.601562 73.800781 26.199219 66.800781 C 21.601562 59.800781 14.398438 56.601562 10.199219 59.800781 C 6 62.800781 8.199219 72.800781 11.398438 77.800781 "/>
<path style=" stroke:none;fill-rule:nonzero;fill:rgb(24.313726%,26.274511%,27.843139%);fill-opacity:1;" d="M 15 75.398438 C 17.398438 79.199219 20.398438 80.800781 22.800781 79.199219 C 25 77.601562 25 73.199219 22.601562 69.398438 C 20 65.800781 16.199219 64 13.800781 65.800781 C 11.601562 67.398438 12.601562 71.601562 15 75.398438 "/>
<path style=" stroke:none;fill-rule:nonzero;fill:rgb(69.803923%,75.686276%,75.294119%);fill-opacity:1;" d="M 87 85 C 88.800781 84 91.199219 86.601562 90 88.398438 L 82.199219 93.199219 L 79.800781 89 L 87 85 "/>
<path style=" stroke:none;fill-rule:nonzero;fill:rgb(24.313726%,26.274511%,27.843139%);fill-opacity:1;" d="M 63 86.601562 L 73.800781 80.199219 C 77.601562 77.398438 84 80.199219 88 86.398438 C 92 92.601562 92.199219 99.800781 88.398438 102.601562 C 88.199219 102.800781 87.800781 103 87.601562 103 L 77.601562 109 L 63 86.601562 "/>
<path style=" stroke:none;fill-rule:nonzero;fill:rgb(38.431373%,41.176471%,42.745098%);fill-opacity:1;" d="M 64.199219 102.601562 C 68.199219 108.800781 73.800781 111.800781 77.601562 109 C 81.398438 106.199219 81.199219 99 77.199219 92.800781 C 73.199219 86.601562 66.800781 83.800781 63 86.601562 C 59.398438 89.199219 61.398438 98.199219 64.199219 102.601562 "/>
<path style=" stroke:none;fill-rule:nonzero;fill:rgb(24.313726%,26.274511%,27.843139%);fill-opacity:1;" d="M 67.398438 100.398438 C 69.601562 103.601562 72.199219 105.199219 74.199219 103.800781 C 76.199219 102.398438 76.199219 98.398438 74 95.199219 C 71.800781 92 68.398438 90.398438 66.398438 92 C 64.398438 93.398438 65.199219 97.199219 67.398438 100.398438 "/>
<path style=" stroke:none;fill-rule:nonzero;fill:rgb(82.745099%,23.137255%,13.725491%);fill-opacity:1;" d="M 45.398438 18 L 53.398438 25.199219 L 16.199219 44.800781 L 4 33.601562 Z M 45.398438 18 "/>
<path style=" stroke:none;fill-rule:nonzero;fill:rgb(25.882354%,67.843139%,88.627452%);fill-opacity:1;" d="M 55.199219 57.398438 C 55.199219 63.398438 62.398438 66.398438 68 66.398438 C 73.800781 66.398438 75.800781 63.398438 75.800781 57.398438 C 75.800781 51.398438 71.199219 46.601562 65.398438 46.601562 C 59.800781 46.601562 55.199219 51.398438 55.199219 57.398438 "/>
<path style=" stroke:none;fill-rule:nonzero;fill:rgb(24.313726%,26.274511%,27.843139%);fill-opacity:1;" d="M 61.398438 57.199219 C 61.601562 55 69.199219 55 75 54.601562 C 76.800781 54.398438 76.601562 61.199219 75 61.398438 C 65.800781 62.199219 61.199219 59.398438 61.398438 57.199219 "/>
<path style=" stroke:none;fill-rule:nonzero;fill:rgb(94.509804%,34.117648%,26.666668%);fill-opacity:1;" d="M 120 81.800781 L 124 90.601562 L 97.800781 108.199219 L 86 102.800781 L 109.601562 88.199219 Z M 120 81.800781 "/>
<path style=" stroke:none;fill-rule:nonzero;fill:rgb(100%,90.196079%,18.039216%);fill-opacity:1;" d="M 9.601562 31.398438 L 22.398438 41.601562 L 26 39.800781 L 14.398438 29.601562 Z M 9.601562 31.398438 "/>
<path style=" stroke:none;fill-rule:nonzero;fill:rgb(100%,90.196079%,18.039216%);fill-opacity:1;" d="M 38.398438 20.601562 L 47 28.601562 L 49.601562 27.199219 L 41.601562 19.398438 Z M 38.398438 20.601562 "/>
<path style=" stroke:none;fill-rule:nonzero;fill:rgb(100%,90.196079%,18.039216%);fill-opacity:1;" d="M 114.398438 85.398438 L 118.800781 94 L 121 92.601562 L 117 83.800781 Z M 114.398438 85.398438 "/>
<path style=" stroke:none;fill-rule:nonzero;fill:rgb(100%,90.196079%,18.039216%);fill-opacity:1;" d="M 91.199219 99.601562 L 101 106 L 103.199219 104.398438 L 94 98 Z M 91.199219 99.601562 "/>
</g>
</svg>
