<?xml version="1.0" encoding="UTF-8"?>
<svg xmlns="http://www.w3.org/2000/svg" xmlns:xlink="http://www.w3.org/1999/xlink" width="128px" height="128px" viewBox="0 0 128 128" version="1.1">
<g id="surface1">
<path style=" stroke:none;fill-rule:nonzero;fill:rgb(82.745099%,82.745099%,82.745099%);fill-opacity:1;" d="M 38.371094 80.097656 L 36.0625 70.011719 C 35.023438 67.894531 36.679688 65.441406 38.878906 64.558594 L 60.359375 55.921875 C 63.039062 54.839844 64.921875 52.441406 65.398438 49.640625 L 72 8 L 69.085938 9.03125 L 66.171875 8 L 52.789062 8 L 46.4375 9.773438 L 40.058594 8 L 8 8 L 8 59.464844 L 11.765625 72.496094 L 8 86.359375 L 8 92.175781 L 15.117188 115.160156 L 41.855469 120 L 55.878906 120 L 36.238281 101.640625 C 35.078125 100.558594 35.078125 98.71875 36.238281 97.640625 L 40.078125 94 C 43.015625 91.167969 44.058594 86.992188 42.914062 83.179688 C 42.746094 82.628906 38.628906 80.625 38.371094 80.097656 Z M 38.371094 80.097656 "/>
<path style=" stroke:none;fill-rule:nonzero;fill:rgb(60.784316%,60.784316%,60.784316%);fill-opacity:1;" d="M 64 22.160156 L 66.160156 8 L 72.015625 8 L 66.480469 49.921875 C 66.042969 53.640625 63.519531 56.800781 60 58.039062 L 37.921875 65.878906 L 24.640625 70.519531 C 20.882812 71.839844 8 76.121094 8 76.121094 L 8 59.398438 L 37.359375 50.921875 C 42.320312 49.480469 45.921875 45.238281 46.5625 40.121094 L 47.640625 31.441406 C 47.882812 29.519531 47.640625 27.601562 46.960938 25.800781 L 40.121094 8 L 52.800781 8 L 55.960938 23.640625 C 56.082031 24.238281 56.082031 24.839844 56 25.441406 L 54.320312 37.640625 C 54.160156 38.679688 55.359375 39.320312 56.160156 38.640625 L 59.203125 36 C 59.722656 35.519531 60.121094 34.960938 60.359375 34.28125 L 63.402344 24.800781 C 63.640625 23.921875 63.882812 23.039062 64 22.160156 Z M 17.558594 96.320312 L 8 92 L 8 120 L 42.238281 120 C 42.359375 120 31.71875 114.28125 27.320312 111.921875 C 26.121094 111.28125 25.160156 110.238281 24.640625 109 L 20.519531 99.359375 C 19.921875 98 18.878906 96.921875 17.558594 96.320312 Z M 17.558594 96.320312 "/>
<path style=" stroke:none;fill-rule:nonzero;fill:rgb(38.82353%,38.82353%,38.82353%);fill-opacity:1;" d="M 38 65.828125 L 37.078125 68.921875 C 36.839844 69.679688 36.921875 70.519531 37.28125 71.28125 L 42.921875 83.160156 L 31.078125 79.558594 C 28.160156 78.679688 25.039062 78.878906 22.28125 80.078125 L 8 86.398438 L 8 76.121094 Z M 38 65.828125 "/>
<path style=" stroke:none;fill-rule:nonzero;fill:rgb(38.82353%,34.901962%,58.039218%);fill-opacity:1;" d="M 104.960938 78.398438 L 97.359375 75.519531 L 97.359375 81.320312 C 97.359375 83.441406 99.078125 85.121094 101.160156 85.121094 C 103.277344 85.121094 104.960938 83.398438 104.960938 81.320312 Z M 104.960938 78.398438 "/>
<path style=" stroke:none;fill-rule:nonzero;fill:rgb(26.274511%,23.137255%,41.960785%);fill-opacity:1;" d="M 98.421875 72.519531 C 98.421875 72.128906 98.109375 71.8125 97.71875 71.8125 C 97.328125 71.8125 97.011719 72.128906 97.011719 72.519531 L 97.011719 75.953125 C 96.953125 76.296875 97.148438 76.640625 97.484375 76.757812 L 104.683594 79.238281 C 105.058594 79.367188 105.46875 79.167969 105.59375 78.792969 C 105.722656 78.417969 105.527344 78.011719 105.152344 77.882812 L 98.421875 75.566406 Z M 98.421875 72.519531 "/>
<path style=" stroke:none;fill-rule:nonzero;fill:rgb(100%,84.313726%,76.078433%);fill-opacity:1;" d="M 79.667969 31.035156 C 79.898438 30.683594 81.328125 28.371094 80.480469 26.597656 C 79.878906 25.359375 78.878906 25.71875 78.878906 25.71875 C 78.878906 25.71875 79.078125 24.320312 77.878906 24.039062 C 76.28125 23.640625 74.441406 24.199219 74.441406 24.199219 C 72.960938 24.679688 71.679688 26.160156 71.480469 27.199219 C 71.320312 28.078125 71.480469 29.398438 71.757812 30.28125 L 73.050781 33.097656 L 73.019531 33.109375 C 77.390625 46.136719 88.535156 54.054688 99.097656 57.875 L 101.464844 51.324219 C 92.152344 47.957031 83.171875 41.285156 79.667969 31.035156 Z M 79.667969 31.035156 "/>
<path style=" stroke:none;fill-rule:nonzero;fill:rgb(100%,84.313726%,76.078433%);fill-opacity:1;" d="M 75.925781 62.746094 L 72.699219 71.875 L 68.238281 69.441406 L 46.953125 80.28125 L 46.109375 77.390625 L 46.953125 74.671875 L 64.398438 62.679688 C 66.960938 60.921875 70.160156 60.441406 73.121094 61.359375 L 73.160156 61.359375 Z M 75.925781 62.746094 "/>
<path style=" stroke:none;fill-rule:nonzero;fill:rgb(100%,84.313726%,76.078433%);fill-opacity:1;" d="M 86.1875 87.230469 L 78.570312 82.179688 L 76.160156 85.839844 C 74.839844 87.839844 74.839844 90.480469 76.199219 92.480469 L 86.921875 108.441406 L 91.082031 104.839844 L 83.722656 90 Z M 86.1875 87.230469 "/>
<path style=" stroke:none;fill-rule:nonzero;fill:rgb(94.509804%,72.549021%,60.784316%);fill-opacity:1;" d="M 76.109375 26.847656 C 76.3125 26.71875 76.375 26.453125 76.246094 26.25 C 76.121094 26.046875 75.851562 25.984375 75.648438 26.109375 C 75.257812 26.355469 75.003906 26.667969 74.875 27.015625 C 74.75 27.363281 74.761719 27.707031 74.847656 28.003906 C 74.925781 28.300781 75.082031 28.5625 75.273438 28.753906 C 75.441406 28.921875 75.710938 29.105469 76.03125 29.074219 C 75.855469 29.289062 75.667969 29.546875 75.476562 29.84375 C 75.34375 30.042969 75.402344 30.3125 75.601562 30.441406 C 75.804688 30.574219 76.070312 30.519531 76.203125 30.316406 C 76.820312 29.371094 77.296875 28.96875 77.582031 28.796875 L 77.609375 28.78125 C 77.742188 28.746094 77.84375 28.71875 77.917969 28.695312 C 77.964844 28.683594 78 28.671875 78.023438 28.664062 L 78.050781 28.652344 L 78.058594 28.652344 L 78.0625 28.648438 C 78.253906 28.582031 78.371094 28.398438 78.351562 28.199219 C 78.3125 27.796875 77.976562 27.765625 77.6875 27.824219 C 77.578125 27.847656 77.449219 27.890625 77.300781 27.960938 C 76.992188 28.039062 76.546875 28.128906 75.96875 28.207031 C 75.957031 28.199219 75.929688 28.179688 75.890625 28.140625 C 75.808594 28.058594 75.726562 27.929688 75.683594 27.773438 C 75.640625 27.621094 75.640625 27.460938 75.691406 27.3125 C 75.746094 27.167969 75.863281 27.003906 76.109375 26.847656 Z M 76.109375 26.847656 "/>
<path style=" stroke:none;fill-rule:nonzero;fill:rgb(95.686275%,77.64706%,67.843139%);fill-opacity:1;" d="M 100.359375 42.640625 L 99.917969 49.640625 L 92.757812 49.28125 L 93.238281 42.160156 Z M 100.359375 42.640625 "/>
<path style=" stroke:none;fill-rule:nonzero;fill:rgb(100%,40.392157%,13.725491%);fill-opacity:1;" d="M 102.078125 53.078125 C 101.878906 51.800781 101.320312 50.039062 99.757812 48.800781 C 95.839844 45.679688 92.757812 47 92.757812 47 C 92.757812 47 88.757812 48.441406 88.160156 55.078125 C 88.160156 55.121094 86.636719 60.71875 82.558594 65.839844 L 96.957031 74.199219 C 102.558594 64.558594 102.679688 54.558594 102.078125 53.078125 Z M 102.078125 53.078125 "/>
<path style=" stroke:none;fill-rule:nonzero;fill:rgb(38.82353%,38.82353%,38.82353%);fill-opacity:1;" d="M 83.242188 72.039062 L 76.800781 83.199219 L 83.480469 87.640625 C 85.121094 88.71875 87.320312 88.320312 88.441406 86.679688 L 94.878906 77.398438 Z M 83.242188 72.039062 "/>
<path style=" stroke:none;fill-rule:nonzero;fill:rgb(60.784316%,60.784316%,60.784316%);fill-opacity:1;" d="M 71.800781 72.398438 L 75.480469 62.519531 L 82.578125 65.816406 L 83.679688 64.359375 L 97.957031 72.402344 L 96.960938 74.199219 C 96.960938 74.199219 95.679688 76.878906 93.519531 78.800781 C 91.359375 80.71875 86.242188 79.878906 86.242188 79.878906 L 74.601562 77.480469 C 72.28125 77.039062 70.960938 74.597656 71.800781 72.398438 Z M 71.800781 72.398438 "/>
<path style=" stroke:none;fill-rule:nonzero;fill:rgb(100%,84.313726%,76.078433%);fill-opacity:1;" d="M 90.5625 43.082031 C 92.761719 44.363281 96.84375 45.324219 99.324219 43.324219 L 102.28125 40.363281 L 105.441406 37.363281 C 107.003906 34.722656 106.082031 31.285156 103.441406 29.722656 L 100.324219 27.882812 C 97.683594 26.324219 94.242188 27.242188 92.683594 29.882812 L 91.5 31.882812 C 90.65625 32.398438 90.109375 32.636719 89.730469 32.800781 C 89.289062 32.992188 89.074219 33.082031 88.882812 33.402344 C 88.527344 33.996094 88.914062 34.867188 89.503906 35.269531 C 87.734375 38.414062 86.914062 40.929688 90.5625 43.082031 Z M 90.5625 43.082031 "/>
<path style=" stroke:none;fill-rule:nonzero;fill:rgb(12.941177%,12.941177%,12.941177%);fill-opacity:1;" d="M 97.757812 31.28125 C 101.839844 33.679688 100.398438 36.160156 100.398438 36.160156 C 100.398438 36.160156 102.320312 36.71875 99.359375 41.761719 C 97.839844 44.359375 100.160156 44.960938 101.039062 45.480469 C 102.558594 46.359375 104.28125 43.921875 102.28125 42.71875 C 102.28125 42.71875 104.839844 44.160156 109 37.121094 C 112.039062 31.960938 107.679688 28.640625 103.960938 27.640625 C 101.28125 26.921875 101.960938 26.121094 99.238281 24.519531 C 98.320312 24 96.398438 23.519531 95.199219 25.558594 C 94.039062 27.480469 94.28125 29.242188 97.757812 31.28125 Z M 97.757812 31.28125 "/>
<path style=" stroke:none;fill-rule:nonzero;fill:rgb(95.686275%,77.64706%,67.843139%);fill-opacity:1;" d="M 101.636719 38.140625 C 101.636719 39.34375 100.660156 40.320312 99.457031 40.320312 C 98.253906 40.320312 97.277344 39.34375 97.277344 38.140625 C 97.277344 36.9375 98.253906 35.960938 99.457031 35.960938 C 100.660156 35.960938 101.636719 36.9375 101.636719 38.140625 Z M 101.636719 38.140625 "/>
<path style=" stroke:none;fill-rule:nonzero;fill:rgb(38.82353%,34.901962%,58.039218%);fill-opacity:1;" d="M 101.558594 34.753906 C 101.886719 34.335938 101.8125 33.734375 101.394531 33.40625 C 100.980469 33.074219 100.375 33.148438 100.046875 33.566406 L 92.046875 43.726562 C 91.71875 44.140625 91.789062 44.746094 92.207031 45.074219 C 92.625 45.402344 93.226562 45.332031 93.558594 44.914062 Z M 46.949219 74.640625 C 46.949219 74.640625 42.339844 71.28125 39.199219 68.972656 C 38.59375 68.507812 37.480469 69.554688 37.03125 69.992188 C 36.707031 70.308594 36.824219 70.59375 36.824219 70.59375 L 41.578125 80.570312 C 41.578125 80.570312 42.488281 82.546875 43.421875 82.074219 L 44.203125 81.691406 C 44.242188 81.679688 44.28125 81.660156 44.316406 81.644531 L 47.054688 80.285156 Z M 86.199219 107.441406 C 86.199219 107.441406 85.640625 113.121094 85.28125 117 C 85.234375 117.46875 85.960938 117.925781 86.648438 118.109375 L 86.640625 118.121094 C 86.640625 118.121094 86.960938 118.320312 87.039062 118.28125 C 87.480469 118.398438 87.761719 118.039062 87.761719 118.039062 L 94.402344 108.480469 C 94.402344 108.480469 95.242188 107.199219 94.359375 106.640625 L 93.359375 106 L 93.355469 106.011719 L 90.921875 104.441406 Z M 86.199219 107.441406 "/>
<path style=" stroke:none;fill-rule:nonzero;fill:rgb(100%,100%,100%);fill-opacity:1;" d="M 92.277344 33.363281 C 92.078125 33.242188 92.019531 33.011719 92.140625 32.773438 C 92.140625 32.773438 92.152344 32.75 92.164062 32.734375 C 92.679688 31.859375 93.714844 31.820312 94.46875 32.214844 C 95.222656 32.613281 95.6875 33.570312 95.171875 34.445312 C 95.171875 34.445312 95.160156 34.460938 95.144531 34.484375 C 95.027344 34.683594 94.804688 34.757812 94.625 34.667969 Z M 92.277344 33.363281 "/>
<path style=" stroke:none;fill-rule:nonzero;fill:rgb(49.019608%,27.058825%,20%);fill-opacity:1;" d="M 92.003906 33.207031 C 92.042969 33.046875 92.078125 32.875 92.152344 32.738281 C 92.511719 32.101562 93.277344 31.855469 93.792969 32.132812 C 94.308594 32.410156 94.390625 33.167969 94.03125 33.804688 C 93.953125 33.960938 93.832031 34.082031 93.714844 34.160156 Z M 92.003906 33.207031 "/>
<path style=" stroke:none;fill-rule:nonzero;fill:rgb(49.019608%,27.058825%,20%);fill-opacity:1;" d="M 92.296875 33.375 C 92.296875 33.214844 92.339844 33.054688 92.417969 32.898438 C 92.617188 32.539062 93.054688 32.378906 93.332031 32.539062 C 93.609375 32.699219 93.691406 33.136719 93.453125 33.492188 C 93.371094 33.652344 93.238281 33.753906 93.121094 33.832031 Z M 92.296875 33.375 "/>
<path style=" stroke:none;fill-rule:nonzero;fill:rgb(100%,100%,100%);fill-opacity:1;" d="M 93.046875 32.695312 C 93.113281 32.582031 93.089844 32.445312 92.996094 32.390625 C 92.902344 32.332031 92.769531 32.378906 92.703125 32.492188 C 92.636719 32.605469 92.660156 32.746094 92.753906 32.800781 C 92.847656 32.855469 92.980469 32.808594 93.046875 32.695312 Z M 93.046875 32.695312 "/>
<path style=" stroke:none;fill-rule:nonzero;fill:rgb(60.000002%,3.137255%,21.960784%);fill-opacity:1;" d="M 89.597656 37.042969 C 89.753906 36.90625 89.988281 36.921875 90.125 37.074219 C 90.59375 37.605469 91.398438 37.660156 91.917969 37.203125 C 92.070312 37.066406 92.308594 37.082031 92.445312 37.234375 C 92.582031 37.390625 92.566406 37.625 92.410156 37.761719 C 91.574219 38.503906 90.296875 38.402344 89.5625 37.570312 C 89.425781 37.414062 89.441406 37.179688 89.597656 37.042969 Z M 89.597656 37.042969 "/>
<path style=" stroke:none;fill-rule:nonzero;fill:rgb(0%,65.098041%,92.941177%);fill-opacity:1;" d="M 109.757812 27.082031 L 105.121094 23.480469 C 102.078125 21.082031 97.640625 21.640625 95.277344 24.71875 L 93.199219 27.402344 C 92.71875 28.039062 92.800781 28.960938 93.4375 29.441406 L 106.839844 39.878906 C 107.480469 40.359375 108.398438 40.28125 108.878906 39.640625 L 111 36.921875 C 113.359375 33.878906 112.800781 29.441406 109.757812 27.082031 Z M 109.757812 27.082031 "/>
<path style=" stroke:none;fill-rule:nonzero;fill:rgb(0%,45.490196%,72.941178%);fill-opacity:1;" d="M 105.160156 32.398438 L 101.082031 29.242188 C 100.5625 28.839844 99.800781 28.921875 99.402344 29.441406 C 99 29.960938 99.082031 30.71875 99.601562 31.121094 L 103.679688 34.28125 C 104.203125 34.679688 104.960938 34.601562 105.363281 34.082031 C 105.761719 33.558594 105.679688 32.800781 105.160156 32.398438 Z M 105.160156 32.398438 "/>
<path style=" stroke:none;fill-rule:nonzero;fill:rgb(26.666668%,56.862748%,10.588235%);fill-opacity:1;" d="M 77.039062 49.71875 L 83.160156 64 L 83.167969 63.996094 C 83.246094 64.191406 83.394531 64.359375 83.597656 64.480469 L 98 72.640625 C 98.160156 72.71875 98.320312 72.761719 98.480469 72.761719 C 98.800781 72.761719 99.121094 72.601562 99.320312 72.28125 C 99.597656 71.800781 99.4375 71.238281 98.960938 70.960938 L 84.785156 62.929688 L 78.800781 48.960938 C 78.121094 47.359375 77.761719 45.640625 77.761719 43.878906 L 77.761719 8 L 75.839844 8 L 75.839844 43.878906 C 75.839844 45.878906 76.238281 47.878906 77.039062 49.71875 Z M 77.039062 49.71875 "/>
<path style=" stroke:none;fill-rule:nonzero;fill:rgb(100%,84.313726%,76.078433%);fill-opacity:1;" d="M 75.277344 27.71875 C 75.398438 28.320312 76 28.71875 76.597656 28.601562 L 78.960938 28.160156 L 78.558594 25.960938 L 76.199219 26.398438 C 75.558594 26.519531 75.160156 27.078125 75.277344 27.71875 Z M 75.277344 27.71875 "/>
<path style=" stroke:none;fill-rule:nonzero;fill:rgb(100%,84.313726%,76.078433%);fill-opacity:1;" d="M 89.601562 49.601562 L 79.28125 52.359375 L 79.199219 52.402344 C 78.402344 52.640625 77.519531 52.402344 76.878906 51.839844 L 69.160156 44.28125 C 68.960938 43.71875 68.839844 43.121094 68.800781 42.519531 C 68.679688 41.320312 68.722656 40.359375 68.722656 40.359375 C 68.761719 39.800781 68.28125 39.320312 67.722656 39.28125 C 67.160156 39.242188 66.679688 39.71875 66.640625 40.28125 C 66.640625 40.320312 66.601562 40.921875 66.640625 41.71875 C 66.640625 41.839844 66.519531 41.878906 66.441406 41.800781 C 65.28125 40.640625 64.160156 39 63.722656 38.320312 C 63.441406 37.878906 62.839844 37.761719 62.402344 38.039062 C 61.960938 38.320312 61.839844 38.921875 62.121094 39.359375 C 62.160156 39.398438 62.722656 40.28125 63.519531 41.320312 C 63.601562 41.441406 63.722656 41.558594 63.800781 41.679688 C 63.839844 41.71875 63.800781 41.761719 63.800781 41.800781 C 63.761719 41.800781 63.722656 41.800781 63.722656 41.800781 C 62.441406 40.441406 61.5625 39.199219 61.519531 39.160156 C 61.199219 38.71875 60.640625 38.640625 60.199219 38.960938 C 59.761719 39.28125 59.679688 39.839844 60 40.28125 C 60 40.28125 60.960938 41.558594 62 42.71875 C 62.039062 42.761719 62 42.800781 61.960938 42.761719 L 60.199219 41.199219 C 59.800781 40.878906 59.199219 40.921875 58.878906 41.320312 C 58.519531 41.71875 58.601562 42.359375 59 42.679688 L 61 44.320312 C 61.039062 44.359375 61 44.441406 60.921875 44.402344 C 60.28125 43.960938 59.839844 43.640625 59.839844 43.640625 C 59.402344 43.320312 58.839844 43.441406 58.519531 43.878906 C 58.199219 44.320312 58.320312 44.878906 58.761719 45.199219 C 60.640625 46.519531 63.722656 48.71875 64.082031 49 L 72 56.761719 C 73.761719 58.480469 76.121094 59.402344 78.519531 59.402344 C 79.359375 59.402344 80.242188 59.28125 81.082031 59.039062 L 91.402344 56.28125 Z M 89.601562 49.601562 "/>
<path style=" stroke:none;fill-rule:nonzero;fill:rgb(100%,50.588238%,0.392157%);fill-opacity:1;" d="M 97.160156 52.238281 C 97.761719 54.519531 96.398438 56.878906 94.121094 57.480469 L 87.921875 59.121094 C 86.480469 59.519531 84.960938 58.679688 84.601562 57.199219 L 83.078125 51.359375 L 91.640625 48.71875 C 94 48 96.441406 49.359375 97.078125 51.761719 Z M 97.160156 52.238281 "/>
</g>
</svg>
