<?xml version="1.0" encoding="UTF-8"?>
<svg xmlns="http://www.w3.org/2000/svg" xmlns:xlink="http://www.w3.org/1999/xlink" width="128px" height="128px" viewBox="0 0 128 128" version="1.1">
<g id="surface1">
<path style=" stroke:none;fill-rule:nonzero;fill:rgb(83.137256%,43.529412%,11.764706%);fill-opacity:1;" d="M 120.828125 78.78125 C 119.828125 80.890625 106.210938 92.589844 97.699219 99.929688 C 89.191406 107.269531 79.511719 113.71875 79.511719 113.71875 L 72.03125 113.28125 L 73.351562 50.929688 L 119.558594 66.039062 C 119.558594 66.039062 120.941406 66.96875 121.089844 69.171875 C 121.230469 71.371094 121.671875 77.011719 120.828125 78.78125 Z M 120.828125 78.78125 "/>
<path style=" stroke:none;fill-rule:nonzero;fill:rgb(89.411765%,50.980395%,8.627451%);fill-opacity:1;" d="M 12.160156 81.738281 C 11.28125 81.890625 9.671875 82.03125 9.078125 85.261719 C 8.488281 88.488281 9.089844 95.011719 11.441406 97.359375 C 16.449219 102.371094 23.28125 103.941406 28.589844 104.480469 C 33.289062 104.960938 35.96875 104.5 37.28125 105.25 C 39.558594 106.570312 39.609375 109.21875 45.539062 112.671875 C 50.019531 115.28125 57.820312 117.730469 63.238281 117.730469 C 72.261719 117.730469 79.488281 113.71875 79.488281 113.71875 L 79.339844 101.25 L 74.058594 72.640625 Z M 12.160156 81.738281 "/>
<path style=" stroke:none;fill-rule:nonzero;fill:rgb(98.039216%,87.450981%,69.411767%);fill-opacity:1;" d="M 18.179688 92.449219 C 28.070312 96.21875 40.328125 94.800781 40.328125 94.800781 C 40.328125 94.800781 43.121094 100.960938 52.949219 104.191406 C 62.78125 107.421875 74.808594 105.800781 82.589844 100.378906 C 90.371094 94.960938 103.71875 82.480469 108.261719 78.671875 C 112.800781 74.859375 119.121094 69.128906 119.261719 67.671875 C 119.398438 66.210938 93.878906 46.238281 93.878906 46.238281 C 93.878906 46.238281 13.570312 82.820312 11.828125 83.949219 C 10.53125 84.808594 12.019531 90.101562 18.179688 92.449219 Z M 18.179688 92.449219 "/>
<path style=" stroke:none;fill-rule:nonzero;fill:rgb(92.54902%,54.509807%,47.843137%);fill-opacity:1;" d="M 14.800781 74.699219 C 14.800781 74.699219 9.671875 74.988281 9.671875 78.511719 C 9.671875 82.03125 11.578125 84.96875 16.421875 87.171875 C 21.261719 89.371094 31.679688 92.160156 39.890625 94.070312 C 48.210938 96 60.871094 103.171875 68.351562 103.898438 C 75.648438 104.621094 81.410156 98.320312 84.78125 95.238281 C 88.148438 92.160156 104.878906 79.25 108.691406 75.429688 C 112.5 71.621094 120.570312 62.960938 120.570312 62.960938 L 65.410156 42.859375 Z M 14.800781 74.699219 "/>
<path style=" stroke:none;fill-rule:nonzero;fill:rgb(83.137256%,36.862746%,31.764707%);fill-opacity:1;" d="M 19.019531 80.03125 C 19.019531 80.03125 17 79.941406 15.710938 79.660156 C 14.421875 79.378906 12.121094 78.460938 12.398438 79.480469 C 12.679688 80.5 14.839844 82.640625 19.019531 84.539062 C 23.53125 86.578125 29.371094 86.96875 29.289062 86.78125 C 29.289062 86.78125 32.25 89.128906 35.570312 90.191406 C 39.621094 91.480469 43.851562 92.691406 47.058594 92.96875 C 50.109375 93.238281 50.660156 92.628906 49.558594 91.519531 C 48.460938 90.410156 45.511719 88.578125 45.511719 88.578125 L 29.871094 79.289062 Z M 19.019531 80.03125 "/>
<path style=" stroke:none;fill-rule:nonzero;fill:rgb(83.137256%,36.862746%,31.764707%);fill-opacity:1;" d="M 53.519531 93.640625 C 53.398438 94.679688 58.210938 97.230469 61.710938 98.699219 C 65.210938 100.171875 71.351562 102.089844 71 97.691406 C 70.761719 94.679688 66.980469 94.351562 62.71875 93.921875 C 58.238281 93.46875 53.621094 92.789062 53.519531 93.640625 Z M 53.519531 93.640625 "/>
<path style=" stroke:none;fill-rule:nonzero;fill:rgb(71.764708%,81.568629%,9.803922%);fill-opacity:1;" d="M 12.671875 57.578125 C 12.671875 57.578125 7.789062 66.78125 6.140625 66.410156 C 4.488281 66.039062 3.75 64.941406 3.011719 65.859375 C 2.269531 66.78125 2.179688 73.769531 6.050781 74.878906 C 9.921875 75.988281 10.441406 74.640625 12.738281 75.648438 C 15.039062 76.660156 17.988281 78.339844 17.988281 78.339844 C 17.988281 78.339844 16.191406 79.898438 16.460938 80.359375 C 16.730469 80.820312 19.660156 82.261719 21.039062 83.550781 C 22.421875 84.839844 22.679688 86.261719 28.941406 87.269531 C 35.199219 88.28125 36.691406 88.210938 38.988281 87.941406 C 41.289062 87.671875 42.210938 86.558594 42.210938 86.558594 C 42.210938 86.558594 45.519531 90.980469 48.828125 91.160156 C 52.140625 91.339844 53.058594 90.238281 54.171875 90.238281 C 55.28125 90.238281 53.621094 91.339844 57.109375 91.339844 C 60.601562 91.339844 64.601562 91.660156 69.238281 92.921875 C 72.511719 93.808594 75.601562 97.128906 77.71875 97.871094 C 79.839844 98.609375 82.960938 97.960938 83.878906 96.949219 C 84.800781 95.941406 84.78125 93.511719 86.519531 91.679688 C 88.261719 89.851562 92.800781 87.519531 94.359375 85.859375 C 95.921875 84.199219 96.941406 79.011719 96.941406 79.011719 C 96.941406 79.011719 99.058594 80.671875 100.898438 80.300781 C 102.738281 79.929688 104.859375 76.710938 106.511719 76.441406 C 108.160156 76.171875 109.820312 75.699219 111.390625 74.140625 C 112.960938 72.578125 112.308594 68.441406 113.320312 67.699219 C 114.328125 66.960938 118.199219 69.261719 120.21875 68.710938 C 122.238281 68.160156 124.179688 65.210938 123.71875 63.28125 C 123.261719 61.351562 122.800781 61.070312 122.800781 59.96875 C 122.800781 58.871094 124 57.03125 122.519531 55.191406 C 121.039062 53.351562 95.828125 43.320312 95.828125 43.320312 Z M 12.671875 57.578125 "/>
<path style=" stroke:none;fill-rule:nonzero;fill:rgb(58.823532%,65.882355%,9.803922%);fill-opacity:1;" d="M 21.039062 72.851562 C 21.039062 72.851562 19.839844 75.519531 20.300781 76.070312 C 20.761719 76.621094 27.570312 82.230469 29.21875 82.421875 C 30.871094 82.609375 42.839844 82.140625 42.839844 82.140625 L 37.691406 72.851562 Z M 21.039062 72.851562 "/>
<path style=" stroke:none;fill-rule:nonzero;fill:rgb(58.823532%,65.882355%,9.803922%);fill-opacity:1;" d="M 64.28125 74.511719 C 64.28125 74.511719 59.039062 86.011719 59.679688 87.019531 C 60.320312 88.03125 65.480469 88.21875 69.890625 89.410156 C 74.300781 90.601562 75.589844 91.25 77.070312 91.160156 C 78.550781 91.070312 84.609375 87.660156 84.710938 86.558594 C 84.808594 85.460938 80.019531 79.941406 80.019531 79.941406 Z M 64.28125 74.511719 "/>
<path style=" stroke:none;fill-rule:nonzero;fill:rgb(58.823532%,65.882355%,9.803922%);fill-opacity:1;" d="M 94.730469 71.011719 L 92.890625 75.789062 C 92.890625 75.789062 101.449219 76.339844 105.308594 74.5 C 109.171875 72.660156 111.96875 65.988281 113.171875 63.96875 C 114.828125 61.191406 117.171875 58.789062 116.980469 57.78125 C 116.789062 56.769531 110.921875 52.878906 110.921875 52.878906 Z M 94.730469 71.011719 "/>
<path style=" stroke:none;fill-rule:nonzero;fill:rgb(86.274511%,5.098039%,16.470589%);fill-opacity:1;" d="M 95.46875 72.019531 C 95.46875 72.019531 86.179688 74.410156 85.988281 74.960938 C 85.800781 75.511719 77.339844 84.800781 77.339844 84.800781 C 77.339844 84.800781 83.601562 87.839844 90.589844 83.878906 C 97.578125 79.941406 95.46875 72.019531 95.46875 72.019531 Z M 95.46875 72.019531 "/>
<path style=" stroke:none;fill-rule:nonzero;fill:rgb(86.274511%,5.098039%,16.470589%);fill-opacity:1;" d="M 118.191406 44.609375 C 118.191406 44.609375 123.25 45.988281 122.421875 52.25 C 121.449219 59.570312 109.078125 59.238281 109.078125 59.238281 C 109.078125 59.238281 105.769531 50.410156 106.320312 49.949219 C 106.871094 49.488281 118.191406 44.609375 118.191406 44.609375 Z M 118.191406 44.609375 "/>
<path style=" stroke:none;fill-rule:nonzero;fill:rgb(86.274511%,5.098039%,16.470589%);fill-opacity:1;" d="M 44.78125 72.761719 L 37.328125 76.621094 C 37.328125 76.621094 38.53125 84.441406 50.949219 86.558594 C 63.371094 88.679688 70.269531 77.910156 70.269531 77.910156 Z M 44.78125 72.761719 "/>
<path style=" stroke:none;fill-rule:nonzero;fill:rgb(86.274511%,5.098039%,16.470589%);fill-opacity:1;" d="M 22.421875 64.761719 L 14.230469 65.128906 C 14.230469 65.128906 13.929688 70.441406 18.191406 73.5 C 23.5 77.308594 31.25 75.519531 31.25 75.519531 Z M 22.421875 64.761719 "/>
<path style=" stroke:none;fill-rule:nonzero;fill:rgb(99.607843%,87.450981%,39.215687%);fill-opacity:1;" d="M 37.601562 63.101562 L 21.960938 67.058594 C 21.960938 67.058594 29.871094 77.550781 33 77.820312 C 36.128906 78.089844 51.578125 74.878906 51.578125 74.878906 Z M 37.601562 63.101562 "/>
<path style=" stroke:none;fill-rule:nonzero;fill:rgb(99.607843%,87.450981%,39.215687%);fill-opacity:1;" d="M 61.148438 78.921875 C 61.148438 78.921875 70.820312 86.730469 75.230469 86.371094 C 78.628906 86.089844 82.929688 80.128906 88.550781 77.089844 C 94.171875 74.050781 102.660156 71.820312 104.121094 70.730469 C 107.011719 68.570312 111.019531 56.75 112.949219 53.988281 C 114.878906 51.230469 119.671875 44.878906 119.761719 43.871094 C 119.851562 42.859375 118.929688 39.640625 118.929688 39.640625 L 82.398438 68.621094 Z M 61.148438 78.921875 "/>
<path style=" stroke:none;fill-rule:nonzero;fill:rgb(83.137256%,43.529412%,11.764706%);fill-opacity:1;" d="M 68.96875 77.449219 C 69.429688 77.359375 78.351562 78.371094 78.351562 78.371094 C 78.351562 78.371094 85.558594 72.789062 96.601562 63.679688 C 107.640625 54.570312 117.929688 44.730469 120.230469 40.730469 C 120.890625 39.589844 121.179688 32.570312 121.210938 30.808594 C 121.269531 27.75 119.570312 27.179688 119.570312 27.179688 L 69.96875 62.730469 Z M 68.96875 77.449219 "/>
<path style=" stroke:none;fill-rule:nonzero;fill:rgb(89.019608%,50.980395%,6.666667%);fill-opacity:1;" d="M 78.449219 64.660156 C 78.449219 65.578125 79.058594 77.78125 78.359375 78.371094 C 76.699219 79.75 62.171875 83.800781 49.839844 78.191406 C 37.988281 72.800781 35.941406 67.980469 35.941406 67.980469 C 35.941406 67.980469 20.921875 69.691406 12.019531 64.671875 C 6.320312 61.449219 6.039062 55.191406 6.128906 51.96875 C 6.21875 48.75 6.589844 45.710938 7.878906 44.328125 C 9.171875 42.949219 26.011719 28.878906 29.601562 26.03125 C 33.191406 23.179688 49.191406 11.398438 51.679688 10.941406 C 54.171875 10.480469 75.511719 14.621094 82.679688 16.28125 C 89.851562 17.941406 110.738281 23.359375 114.328125 24.738281 C 117.921875 26.121094 120.128906 26.949219 120.21875 27.960938 C 120.308594 28.96875 119.210938 30.539062 117.921875 31.640625 C 116.628906 32.738281 88.941406 31.269531 88.210938 36.328125 C 87.480469 41.390625 78.449219 64.660156 78.449219 64.660156 Z M 78.449219 64.660156 "/>
<path style=" stroke:none;fill-rule:nonzero;fill:rgb(98.039216%,87.450981%,69.411767%);fill-opacity:1;" d="M 52.140625 13.28125 C 49.351562 13.769531 33.621094 26.171875 29.179688 29.738281 C 24.738281 33.308594 13.261719 42.628906 11.308594 44.359375 C 9.359375 46.089844 7.191406 52.480469 16.71875 56.160156 C 26.25 59.839844 39.570312 58.109375 39.570312 58.109375 C 39.570312 58.109375 44.339844 67.421875 55.710938 68.621094 C 67.078125 69.820312 74.878906 69.378906 79.859375 65.371094 C 84.839844 61.359375 101.410156 47.28125 105.199219 43.820312 C 108.988281 40.351562 118.710938 31.699219 118.519531 30.5 C 117.980469 27.03125 91.339844 21.191406 79.96875 18.589844 C 69.71875 16.238281 54.628906 12.851562 52.140625 13.28125 Z M 52.140625 13.28125 "/>
</g>
</svg>
