<?xml version="1.0" encoding="UTF-8"?>
<svg xmlns="http://www.w3.org/2000/svg" xmlns:xlink="http://www.w3.org/1999/xlink" width="128px" height="128px" viewBox="0 0 128 128" version="1.1">
<defs>
<clipPath id="clip1">
  <path d="M 64 34 L 88 34 L 88 44 L 64 44 Z M 64 34 "/>
</clipPath>
<clipPath id="clip2">
  <path d="M 66.25 32.589844 C 66.339844 32.160156 66.488281 31.738281 66.628906 31.320312 C 67.050781 30 68.449219 28.898438 69.769531 28.308594 C 71.308594 27.648438 73.121094 27.550781 74.789062 27.550781 C 77.839844 27.558594 80.320312 28.070312 82.988281 29.320312 C 85.519531 30.5 87.070312 32.199219 87.050781 35 C 87.011719 42.070312 86.441406 60.058594 86.53125 61.988281 C 86.578125 63.179688 86.628906 64.371094 86.640625 65.550781 C 86.660156 67.710938 85.570312 69.078125 83.410156 69.21875 C 79.988281 69.449219 76.898438 69.210938 73.609375 68.5 C 70.078125 67.730469 66.308594 66.699219 62.691406 66.449219 C 62.5 64.441406 62.710938 60.328125 62.710938 60.328125 C 62.710938 60.328125 65.550781 35.96875 66.25 32.589844 Z M 66.25 32.589844 "/>
</clipPath>
</defs>
<g id="surface1">
<path style=" stroke:none;fill-rule:nonzero;fill:rgb(100%,100%,100%);fill-opacity:1;" d="M 51.949219 73.261719 L 51.871094 73.261719 C 48.578125 73.210938 45.941406 70.5 45.980469 67.210938 C 46.019531 63.960938 48.699219 61.328125 51.949219 61.328125 C 55.328125 61.371094 57.96875 64.089844 57.929688 67.378906 C 57.871094 70.621094 55.199219 73.261719 51.949219 73.261719 Z M 52.011719 62.589844 C 49.378906 62.589844 47.269531 64.671875 47.238281 67.230469 C 47.199219 69.820312 49.289062 71.960938 51.890625 72 L 51.949219 72.628906 L 51.949219 72 C 54.511719 72 56.621094 69.921875 56.660156 67.359375 C 56.699219 64.761719 54.609375 62.621094 52.011719 62.589844 Z M 52.011719 62.589844 "/>
<path style=" stroke:none;fill-rule:nonzero;fill:rgb(100%,100%,100%);fill-opacity:1;" d="M 71.238281 75.550781 L 71.160156 75.550781 C 69.570312 75.53125 68.070312 74.890625 66.960938 73.75 C 65.851562 72.609375 65.25 71.109375 65.269531 69.511719 C 65.308594 66.269531 67.988281 63.628906 71.238281 63.628906 C 72.910156 63.648438 74.398438 64.289062 75.511719 65.429688 C 76.621094 66.570312 77.21875 68.078125 77.199219 69.671875 C 77.148438 72.921875 74.46875 75.550781 71.238281 75.550781 Z M 71.300781 64.878906 C 68.671875 64.878906 66.558594 66.960938 66.53125 69.519531 C 66.511719 70.78125 66.980469 71.960938 67.859375 72.871094 C 68.738281 73.769531 69.910156 74.269531 71.171875 74.289062 L 71.238281 74.921875 L 71.238281 74.289062 C 73.800781 74.289062 75.898438 72.210938 75.941406 69.648438 C 75.949219 68.390625 75.480469 67.199219 74.609375 66.300781 C 73.730469 65.410156 72.558594 64.898438 71.300781 64.878906 Z M 71.300781 64.878906 "/>
<path style=" stroke:none;fill-rule:nonzero;fill:rgb(100%,100%,100%);fill-opacity:1;" d="M 90.511719 77.851562 C 90.511719 77.851562 90.429688 77.851562 90.421875 77.851562 C 88.828125 77.828125 87.339844 77.191406 86.230469 76.039062 C 85.128906 74.898438 84.53125 73.390625 84.539062 71.800781 C 84.601562 68.558594 87.269531 65.921875 90.511719 65.921875 C 93.890625 65.960938 96.53125 68.671875 96.488281 71.960938 C 96.449219 75.210938 93.769531 77.851562 90.511719 77.851562 Z M 90.570312 67.191406 C 87.949219 67.191406 85.839844 69.269531 85.808594 71.828125 C 85.789062 73.089844 86.261719 74.269531 87.140625 75.179688 C 88.011719 76.078125 89.191406 76.589844 90.441406 76.601562 L 90.511719 77.230469 L 90.511719 76.601562 C 93.070312 76.601562 95.191406 74.519531 95.230469 71.960938 C 95.261719 69.359375 93.171875 67.21875 90.570312 67.191406 Z M 90.570312 67.191406 "/>
<path style=" stroke:none;fill-rule:nonzero;fill:rgb(100%,100%,100%);fill-opacity:1;" d="M 74.128906 22.921875 C 74.230469 22.859375 74.328125 22.789062 74.429688 22.730469 C 75.148438 22.28125 75.988281 21.871094 76.109375 21.011719 C 76.421875 18.78125 77.660156 16.648438 79.421875 15.261719 C 80.828125 14.140625 82.550781 13.421875 84.328125 13.148438 C 85.050781 13.039062 85.878906 13.121094 86.609375 13.140625 C 87.480469 13.179688 88.449219 13.761719 89.140625 13.011719 C 89.410156 12.710938 89.558594 12.140625 89.820312 11.789062 C 92.519531 8.191406 97.871094 7.570312 101.851562 9.171875 C 102.230469 9.320312 102.601562 9.640625 102.960938 9.761719 C 103.53125 9.949219 103.421875 9.859375 104.03125 9.578125 C 105.5 8.878906 106.75 7.78125 108.269531 7.179688 C 110.070312 6.46875 112 6.078125 113.929688 6.148438 C 117.191406 6.261719 120.328125 7.699219 122.460938 10.191406 C 126.730469 15.210938 125.019531 21.910156 119.660156 25.300781 C 118.089844 26.289062 116.300781 26.941406 114.449219 27.160156 C 112.171875 27.441406 109.160156 27.589844 106.921875 27.019531 C 105.53125 26.660156 104.179688 26.199219 102.839844 25.730469 C 102.511719 25.621094 102.140625 25.390625 101.769531 25.550781 C 101.5 25.660156 101.210938 26.058594 100.949219 26.238281 C 100.601562 26.5 100.25 26.738281 99.871094 26.949219 C 98.738281 27.578125 97.449219 28.101562 96.171875 28.371094 C 95.371094 28.539062 94.570312 28.789062 93.761719 28.808594 C 92.941406 28.828125 92.128906 28.820312 91.320312 28.738281 C 90.238281 28.628906 89.238281 28.351562 88.210938 28.050781 C 87.308594 27.789062 86.300781 27.179688 85.371094 27.121094 C 85.078125 28.609375 85.398438 30.148438 85.121094 31.640625 C 84.859375 33.058594 83.929688 34.320312 82.828125 35.238281 C 80.871094 36.890625 77.910156 37.019531 75.519531 36.398438 C 73.480469 35.878906 71.800781 35.550781 70.988281 33.390625 C 70.390625 31.78125 70.320312 29.871094 70.648438 28.191406 C 71.140625 25.910156 72.289062 24.160156 74.128906 22.921875 Z M 74.128906 22.921875 "/>
<path style=" stroke:none;fill-rule:nonzero;fill:rgb(47.058824%,63.921571%,67.843139%);fill-opacity:1;" d="M 78.199219 39.261719 C 77.109375 39.261719 76 39.121094 74.921875 38.839844 L 74.628906 38.761719 C 72.519531 38.21875 69.890625 37.550781 68.660156 34.261719 C 67.929688 32.300781 67.761719 29.910156 68.210938 27.691406 C 68.789062 24.75 70.308594 22.441406 72.730469 20.820312 L 73.371094 20.410156 C 73.46875 20.339844 73.578125 20.289062 73.679688 20.230469 C 74.160156 17.519531 75.671875 15 77.859375 13.261719 C 79.589844 11.890625 81.699219 10.980469 83.949219 10.628906 C 84.679688 10.519531 85.5 10.539062 86.289062 10.578125 L 86.710938 10.601562 C 86.980469 10.609375 87.25 10.648438 87.519531 10.699219 C 87.609375 10.550781 87.699219 10.398438 87.808594 10.261719 C 89.929688 7.429688 93.460938 5.800781 97.46875 5.800781 C 99.300781 5.800781 101.148438 6.148438 102.800781 6.808594 C 102.980469 6.890625 103.171875 6.96875 103.351562 7.078125 C 103.761719 6.851562 104.160156 6.601562 104.550781 6.351562 C 105.359375 5.828125 106.28125 5.25 107.359375 4.820312 C 109.410156 4.011719 111.46875 3.601562 113.519531 3.601562 L 114.03125 3.609375 C 118.058594 3.75 121.839844 5.539062 124.378906 8.539062 C 126.761719 11.328125 127.78125 14.769531 127.261719 18.230469 C 126.699219 21.921875 124.421875 25.261719 121.019531 27.410156 C 119.128906 28.601562 116.980469 29.371094 114.78125 29.640625 C 111.441406 30.050781 108.46875 29.988281 106.320312 29.441406 C 105.011719 29.109375 103.789062 28.699219 102.46875 28.238281 C 102.039062 28.570312 101.601562 28.871094 101.121094 29.128906 C 99.691406 29.921875 98.160156 30.511719 96.71875 30.808594 L 96.160156 30.941406 C 95.488281 31.101562 94.730469 31.28125 93.859375 31.308594 L 93.050781 31.320312 C 92.390625 31.320312 91.730469 31.289062 91.070312 31.21875 C 89.878906 31.101562 88.800781 30.808594 87.78125 30.519531 C 87.761719 31.011719 87.730469 31.53125 87.628906 32.058594 C 87.289062 33.910156 86.171875 35.710938 84.480469 37.140625 C 82.859375 38.539062 80.679688 39.261719 78.199219 39.261719 Z M 85.21875 15.601562 C 85.050781 15.601562 84.878906 15.601562 84.71875 15.628906 C 83.339844 15.839844 82.019531 16.410156 80.988281 17.230469 C 79.710938 18.238281 78.828125 19.78125 78.609375 21.339844 C 78.328125 23.308594 76.800781 24.238281 75.960938 24.738281 L 75.53125 25.011719 C 74.230469 25.890625 73.46875 27.058594 73.140625 28.691406 C 72.878906 30 72.96875 31.421875 73.371094 32.511719 C 73.640625 33.230469 73.949219 33.398438 75.871094 33.890625 L 76.160156 33.960938 C 78.089844 34.460938 80.160156 34.210938 81.21875 33.308594 C 82 32.640625 82.519531 31.871094 82.648438 31.179688 C 82.738281 30.679688 82.730469 30.078125 82.71875 29.441406 C 82.71875 28.601562 82.691406 27.648438 82.898438 26.640625 C 83.140625 25.390625 84.269531 24.511719 85.53125 24.601562 C 86.539062 24.660156 87.441406 25.03125 88.171875 25.328125 C 88.429688 25.441406 88.679688 25.550781 88.929688 25.628906 C 89.828125 25.890625 90.71875 26.140625 91.601562 26.230469 C 92.070312 26.28125 92.558594 26.300781 93.039062 26.300781 L 93.699219 26.289062 C 94.039062 26.28125 94.5 26.171875 94.980469 26.050781 L 95.660156 25.898438 C 96.609375 25.699219 97.671875 25.289062 98.671875 24.738281 C 98.941406 24.578125 99.199219 24.410156 99.460938 24.21875 C 99.769531 23.898438 100.191406 23.488281 100.800781 23.21875 C 101.851562 22.78125 103.121094 23.121094 103.601562 23.308594 C 105.058594 23.828125 106.308594 24.25 107.558594 24.570312 C 109.070312 24.949219 111.488281 24.980469 114.160156 24.648438 C 115.628906 24.46875 117.070312 23.949219 118.328125 23.160156 C 120.5 21.789062 121.929688 19.71875 122.269531 17.480469 C 122.578125 15.460938 121.980469 13.511719 120.550781 11.820312 C 118.910156 9.898438 116.480469 8.75 113.859375 8.660156 L 113.519531 8.660156 C 112.121094 8.660156 110.671875 8.949219 109.210938 9.53125 C 108.589844 9.769531 107.949219 10.179688 107.269531 10.609375 C 106.570312 11.058594 105.871094 11.5 105.121094 11.851562 C 104.640625 12.101562 104.140625 12.378906 103.390625 12.378906 C 102.921875 12.378906 102.539062 12.269531 102.191406 12.160156 C 101.710938 12 101.328125 11.761719 101.050781 11.601562 C 97.460938 10.050781 93.589844 10.980469 91.851562 13.308594 C 91.640625 13.789062 91.421875 14.269531 91 14.71875 C 90.511719 15.261719 89.609375 15.910156 88.25 15.910156 C 87.710938 15.910156 87.25 15.808594 86.871094 15.730469 C 86.75 15.699219 86.628906 15.671875 86.519531 15.660156 L 86.039062 15.640625 C 85.769531 15.621094 85.488281 15.601562 85.21875 15.601562 Z M 85.21875 15.601562 "/>
<path style=" stroke:none;fill-rule:nonzero;fill:rgb(0%,74.901962%,93.725491%);fill-opacity:1;" d="M 57.289062 67.359375 C 57.25 70.308594 54.820312 72.660156 51.878906 72.621094 C 48.929688 72.570312 46.570312 70.160156 46.609375 67.210938 C 46.648438 64.261719 49.078125 61.910156 52.03125 61.949219 C 54.96875 62 57.328125 64.421875 57.289062 67.359375 Z M 71.308594 64.25 C 68.359375 64.210938 65.941406 66.558594 65.898438 69.511719 C 65.859375 72.460938 68.210938 74.878906 71.160156 74.910156 C 74.109375 74.949219 76.53125 72.601562 76.558594 69.648438 C 76.609375 66.710938 74.25 64.289062 71.308594 64.25 Z M 90.578125 66.558594 C 87.640625 66.519531 85.21875 68.871094 85.179688 71.820312 C 85.140625 74.769531 87.488281 77.191406 90.429688 77.230469 C 93.378906 77.269531 95.808594 74.910156 95.859375 71.96875 C 95.898438 69.011719 93.53125 66.601562 90.578125 66.558594 Z M 90.578125 66.558594 "/>
<path style=" stroke:none;fill-rule:nonzero;fill:rgb(100%,100%,100%);fill-opacity:1;" d="M 74.128906 22.921875 C 74.230469 22.859375 74.328125 22.789062 74.429688 22.730469 C 75.148438 22.28125 75.988281 21.871094 76.109375 21.011719 C 76.421875 18.78125 77.660156 16.648438 79.421875 15.261719 C 80.828125 14.140625 82.550781 13.421875 84.328125 13.148438 C 85.050781 13.039062 85.878906 13.121094 86.609375 13.140625 C 87.480469 13.179688 88.449219 13.761719 89.140625 13.011719 C 89.410156 12.710938 89.558594 12.140625 89.820312 11.789062 C 92.519531 8.191406 97.871094 7.570312 101.851562 9.171875 C 102.230469 9.320312 102.601562 9.640625 102.960938 9.761719 C 103.53125 9.949219 103.421875 9.859375 104.03125 9.578125 C 105.5 8.878906 106.75 7.78125 108.269531 7.179688 C 110.070312 6.46875 112 6.078125 113.929688 6.148438 C 117.191406 6.261719 120.328125 7.699219 122.460938 10.191406 C 126.730469 15.210938 125.019531 21.910156 119.660156 25.300781 C 118.089844 26.289062 116.300781 26.941406 114.449219 27.160156 C 112.171875 27.441406 109.160156 27.589844 106.921875 27.019531 C 105.53125 26.660156 104.179688 26.199219 102.839844 25.730469 C 102.511719 25.621094 102.140625 25.390625 101.769531 25.550781 C 101.5 25.660156 101.210938 26.058594 100.949219 26.238281 C 100.601562 26.5 100.25 26.738281 99.871094 26.949219 C 98.738281 27.578125 97.449219 28.101562 96.171875 28.371094 C 95.371094 28.539062 94.570312 28.789062 93.761719 28.808594 C 92.941406 28.828125 92.128906 28.820312 91.320312 28.738281 C 90.238281 28.628906 89.238281 28.351562 88.210938 28.050781 C 87.308594 27.789062 86.300781 27.179688 85.371094 27.121094 C 85.078125 28.609375 85.398438 30.148438 85.121094 31.640625 C 84.859375 33.058594 83.929688 34.320312 82.828125 35.238281 C 80.871094 36.890625 77.910156 37.019531 75.519531 36.398438 C 73.480469 35.878906 71.800781 35.550781 70.988281 33.390625 C 70.390625 31.78125 70.320312 29.871094 70.648438 28.191406 C 71.140625 25.910156 72.289062 24.160156 74.128906 22.921875 Z M 74.128906 22.921875 "/>
<path style=" stroke:none;fill-rule:nonzero;fill:rgb(47.058824%,63.921571%,67.843139%);fill-opacity:1;" d="M 78.199219 39.261719 C 77.109375 39.261719 76 39.121094 74.921875 38.839844 L 74.628906 38.761719 C 72.519531 38.21875 69.890625 37.550781 68.660156 34.261719 C 67.929688 32.300781 67.761719 29.910156 68.210938 27.691406 C 68.789062 24.75 70.308594 22.441406 72.730469 20.820312 L 73.371094 20.410156 C 73.46875 20.339844 73.578125 20.289062 73.679688 20.230469 C 74.160156 17.519531 75.671875 15 77.859375 13.261719 C 79.589844 11.890625 81.699219 10.980469 83.949219 10.628906 C 84.679688 10.519531 85.5 10.539062 86.289062 10.578125 L 86.710938 10.601562 C 86.980469 10.609375 87.25 10.648438 87.519531 10.699219 C 87.609375 10.550781 87.699219 10.398438 87.808594 10.261719 C 89.929688 7.429688 93.460938 5.800781 97.46875 5.800781 C 99.300781 5.800781 101.148438 6.148438 102.800781 6.808594 C 102.980469 6.890625 103.171875 6.96875 103.351562 7.078125 C 103.761719 6.851562 104.160156 6.601562 104.550781 6.351562 C 105.359375 5.828125 106.28125 5.25 107.359375 4.820312 C 109.410156 4.011719 111.46875 3.601562 113.519531 3.601562 L 114.03125 3.609375 C 118.058594 3.75 121.839844 5.539062 124.378906 8.539062 C 126.761719 11.328125 127.78125 14.769531 127.261719 18.230469 C 126.699219 21.921875 124.421875 25.261719 121.019531 27.410156 C 119.128906 28.601562 116.980469 29.371094 114.78125 29.640625 C 111.441406 30.050781 108.46875 29.988281 106.320312 29.441406 C 105.011719 29.109375 103.789062 28.699219 102.46875 28.238281 C 102.039062 28.570312 101.601562 28.871094 101.121094 29.128906 C 99.691406 29.921875 98.160156 30.511719 96.71875 30.808594 L 96.160156 30.941406 C 95.488281 31.101562 94.730469 31.28125 93.859375 31.308594 L 93.050781 31.320312 C 92.390625 31.320312 91.730469 31.289062 91.070312 31.21875 C 89.878906 31.101562 88.800781 30.808594 87.78125 30.519531 C 87.761719 31.011719 87.730469 31.53125 87.628906 32.058594 C 87.289062 33.910156 86.171875 35.710938 84.480469 37.140625 C 82.859375 38.539062 80.679688 39.261719 78.199219 39.261719 Z M 85.21875 15.601562 C 85.050781 15.601562 84.878906 15.601562 84.71875 15.628906 C 83.339844 15.839844 82.019531 16.410156 80.988281 17.230469 C 79.710938 18.238281 78.828125 19.78125 78.609375 21.339844 C 78.328125 23.308594 76.800781 24.238281 75.960938 24.738281 L 75.53125 25.011719 C 74.230469 25.890625 73.46875 27.058594 73.140625 28.691406 C 72.878906 30 72.96875 31.421875 73.371094 32.511719 C 73.640625 33.230469 73.949219 33.398438 75.871094 33.890625 L 76.160156 33.960938 C 78.089844 34.460938 80.160156 34.210938 81.21875 33.308594 C 82 32.640625 82.519531 31.871094 82.648438 31.179688 C 82.738281 30.679688 82.730469 30.078125 82.71875 29.441406 C 82.71875 28.601562 82.691406 27.648438 82.898438 26.640625 C 83.140625 25.390625 84.269531 24.511719 85.53125 24.601562 C 86.539062 24.660156 87.441406 25.03125 88.171875 25.328125 C 88.429688 25.441406 88.679688 25.550781 88.929688 25.628906 C 89.828125 25.890625 90.71875 26.140625 91.601562 26.230469 C 92.070312 26.28125 92.558594 26.300781 93.039062 26.300781 L 93.699219 26.289062 C 94.039062 26.28125 94.5 26.171875 94.980469 26.050781 L 95.660156 25.898438 C 96.609375 25.699219 97.671875 25.289062 98.671875 24.738281 C 98.941406 24.578125 99.199219 24.410156 99.460938 24.21875 C 99.769531 23.898438 100.191406 23.488281 100.800781 23.21875 C 101.851562 22.78125 103.121094 23.121094 103.601562 23.308594 C 105.058594 23.828125 106.308594 24.25 107.558594 24.570312 C 109.070312 24.949219 111.488281 24.980469 114.160156 24.648438 C 115.628906 24.46875 117.070312 23.949219 118.328125 23.160156 C 120.5 21.789062 121.929688 19.71875 122.269531 17.480469 C 122.578125 15.460938 121.980469 13.511719 120.550781 11.820312 C 118.910156 9.898438 116.480469 8.75 113.859375 8.660156 L 113.519531 8.660156 C 112.121094 8.660156 110.671875 8.949219 109.210938 9.53125 C 108.589844 9.769531 107.949219 10.179688 107.269531 10.609375 C 106.570312 11.058594 105.871094 11.5 105.121094 11.851562 C 104.640625 12.101562 104.140625 12.378906 103.390625 12.378906 C 102.921875 12.378906 102.539062 12.269531 102.191406 12.160156 C 101.710938 12 101.328125 11.761719 101.050781 11.601562 C 97.460938 10.050781 93.589844 10.980469 91.851562 13.308594 C 91.640625 13.789062 91.421875 14.269531 91 14.71875 C 90.511719 15.261719 89.609375 15.910156 88.25 15.910156 C 87.710938 15.910156 87.25 15.808594 86.871094 15.730469 C 86.75 15.699219 86.628906 15.671875 86.519531 15.660156 L 86.039062 15.640625 C 85.769531 15.621094 85.488281 15.601562 85.21875 15.601562 Z M 85.21875 15.601562 "/>
<path style=" stroke:none;fill-rule:nonzero;fill:rgb(92.941177%,42.352942%,18.82353%);fill-opacity:1;" d="M 66.25 32.589844 C 66.339844 32.160156 66.488281 31.738281 66.628906 31.320312 C 67.050781 30 68.449219 28.898438 69.769531 28.308594 C 71.308594 27.648438 73.121094 27.550781 74.789062 27.550781 C 77.839844 27.558594 80.320312 28.070312 82.988281 29.320312 C 85.519531 30.5 87.070312 32.199219 87.050781 35 C 87.011719 42.070312 86.441406 60.058594 86.53125 61.988281 C 86.578125 63.179688 86.628906 64.371094 86.640625 65.550781 C 86.660156 67.710938 85.570312 69.078125 83.410156 69.21875 C 79.988281 69.449219 76.898438 69.210938 73.609375 68.5 C 70.078125 67.730469 66.308594 66.699219 62.691406 66.449219 C 62.5 64.441406 62.710938 60.328125 62.710938 60.328125 C 62.710938 60.328125 65.550781 35.96875 66.25 32.589844 Z M 66.25 32.589844 "/>
<g clip-path="url(#clip1)" clip-rule="nonzero">
<g clip-path="url(#clip2)" clip-rule="nonzero">
<path style=" stroke:none;fill-rule:nonzero;fill:rgb(100%,100%,100%);fill-opacity:1;" d="M 65 37.628906 C 65.308594 36.78125 65.828125 36.199219 66.898438 35.671875 C 69.699219 34.269531 74.75 34.308594 75.699219 34.398438 C 82.921875 35.03125 86.21875 37.691406 86.921875 38.441406 C 87.851562 39.421875 87.511719 40.238281 87.480469 41.460938 C 87.460938 42.101562 87.558594 42.789062 87.441406 43.398438 C 87.03125 42.898438 84.828125 40.019531 79.160156 38.761719 C 76.371094 38.140625 73.351562 37.808594 70.25 38.351562 C 68.378906 38.679688 65.910156 39.621094 64.390625 41.070312 C 64.269531 40.25 64.550781 39.671875 64.679688 38.898438 C 64.761719 38.421875 64.859375 38 65 37.628906 Z M 65 37.628906 "/>
</g>
</g>
<path style=" stroke:none;fill-rule:nonzero;fill:rgb(98.823529%,76.078433%,10.588235%);fill-opacity:1;" d="M 29.449219 77.371094 C 28.949219 76.828125 29.011719 75.71875 29.269531 74.558594 C 29.578125 73.179688 33.339844 58.890625 33.980469 57.5 C 35.820312 53.5 39.621094 53.800781 40.648438 53.800781 C 44.71875 53.78125 48.851562 54.488281 52.808594 54.921875 C 60.828125 55.808594 89.308594 59.988281 95.761719 61.160156 C 97.398438 61.460938 102.28125 62.28125 103.488281 62.539062 C 105.710938 63.011719 107.480469 63.859375 108.300781 65.390625 C 109.03125 66.761719 109.238281 68.238281 109.300781 68.71875 C 109.941406 73.828125 110.699219 85.78125 110.699219 85.78125 C 110.699219 85.78125 109.75 85.871094 109.390625 85.488281 Z M 29.449219 77.371094 "/>
<path style=" stroke:none;fill-rule:nonzero;fill:rgb(100%,100%,100%);fill-opacity:1;" d="M 57.289062 67.359375 C 57.25 70.308594 54.820312 72.660156 51.878906 72.621094 C 48.929688 72.570312 46.570312 70.160156 46.609375 67.210938 C 46.648438 64.261719 49.078125 61.910156 52.03125 61.949219 C 54.96875 62 57.328125 64.421875 57.289062 67.359375 Z M 71.308594 64.25 C 68.359375 64.210938 65.941406 66.558594 65.898438 69.511719 C 65.859375 72.460938 68.210938 74.878906 71.160156 74.910156 C 74.109375 74.949219 76.53125 72.601562 76.558594 69.648438 C 76.609375 66.710938 74.25 64.289062 71.308594 64.25 Z M 90.578125 66.558594 C 87.640625 66.519531 85.21875 68.871094 85.179688 71.820312 C 85.140625 74.769531 87.488281 77.191406 90.429688 77.230469 C 93.378906 77.269531 95.808594 74.910156 95.859375 71.96875 C 95.898438 69.011719 93.53125 66.601562 90.578125 66.558594 Z M 90.578125 66.558594 "/>
<path style=" stroke:none;fill-rule:nonzero;fill:rgb(0%,42.352942%,63.529414%);fill-opacity:1;" d="M 15.480469 100.148438 C 16.488281 102.488281 19.171875 106.488281 18.351562 109.148438 C 17.738281 111.128906 16.289062 111.859375 15.128906 112.871094 L 115.179688 112.871094 C 115.210938 110.039062 115.46875 106.949219 115.558594 106.628906 C 117.03125 100.859375 123.988281 92.78125 122.308594 86.839844 C 121.789062 85.039062 120.089844 84.460938 118.230469 84.199219 C 116.851562 84.011719 90.628906 80.488281 82.578125 79.488281 C 70.078125 77.929688 57.511719 76.851562 45.039062 74.921875 C 40 74.140625 29.519531 72.699219 20.761719 71.710938 C 16.128906 71.191406 10.328125 70.71875 6.25 70.378906 C 4.539062 70.238281 2.75 70.308594 1.671875 71.269531 C -0.78125 73.46875 1.640625 78.28125 3.03125 80.421875 C 4.179688 82.210938 5.199219 84.019531 6.441406 85.738281 C 9.738281 90.378906 13.160156 94.820312 15.480469 100.148438 Z M 15.480469 100.148438 "/>
<path style=" stroke:none;fill-rule:nonzero;fill:rgb(25.098041%,75.294119%,90.588236%);fill-opacity:1;" d="M 123.308594 109.710938 L 7.261719 109.710938 C 5.511719 109.710938 4.109375 111.121094 4.109375 112.859375 C 4.109375 114.601562 5.519531 116.011719 7.261719 116.011719 C 12.171875 116.011719 17.078125 116.011719 21.988281 116.011719 C 22.96875 116.011719 23.941406 116.011719 24.921875 116.011719 C 25.421875 116.019531 25.679688 116.128906 26.121094 116.261719 C 26.390625 116.328125 26.609375 116.238281 26.839844 116.441406 C 27.488281 117.039062 26.441406 118.398438 26.441406 119.171875 C 26.441406 120.921875 27.859375 122.320312 29.589844 122.320312 C 31.53125 122.320312 33.460938 122.320312 35.398438 122.320312 C 37.03125 122.320312 38.640625 122.320312 40.269531 122.320312 C 41.949219 122.320312 44.46875 122.359375 44.589844 124.511719 C 44.691406 126.339844 45.691406 128 47.738281 128 L 87.238281 128 C 88.980469 128 90.390625 126.589844 90.390625 124.851562 C 90.390625 122.191406 92.199219 122.328125 94.371094 122.328125 C 96.019531 122.328125 97.691406 122.328125 99.351562 122.328125 C 101.371094 122.328125 103.378906 122.328125 105.398438 122.328125 C 107.140625 122.328125 108.550781 120.921875 108.550781 119.179688 C 108.550781 118.179688 107.5 117.359375 108.511719 116.660156 C 109.230469 116.148438 110.308594 116.03125 111.179688 116.03125 C 113 116.03125 114.828125 116.03125 116.648438 116.03125 C 118.878906 116.03125 121.089844 116.03125 123.308594 116.03125 C 125.050781 116.03125 126.460938 114.621094 126.460938 112.878906 C 126.460938 111.121094 125.050781 109.710938 123.308594 109.710938 Z M 123.308594 109.710938 "/>
</g>
</svg>
