<?xml version="1.0" encoding="UTF-8"?>
<svg xmlns="http://www.w3.org/2000/svg" xmlns:xlink="http://www.w3.org/1999/xlink" width="128px" height="128px" viewBox="0 0 128 128" version="1.1">
<g id="surface1">
<path style=" stroke:none;fill-rule:nonzero;fill:rgb(47.058824%,56.470591%,61.176473%);fill-opacity:1;" d="M 49.238281 24.949219 L 50.941406 16.421875 C 52.070312 10.828125 52.738281 6.921875 55.839844 5.101562 C 57.878906 3.910156 60.191406 3.679688 62.53125 4.441406 C 68.441406 6.351562 68.949219 17.46875 69.53125 32.300781 L 65.191406 29.160156 C 64.890625 18.378906 64.789062 9.589844 61.238281 8.441406 C 60.03125 8.050781 58.960938 8.148438 57.960938 8.730469 C 55.949219 9.910156 55.929688 12.929688 55.058594 17.25 L 53.359375 25.769531 Z M 49.238281 24.949219 "/>
<path style=" stroke:none;fill-rule:nonzero;fill:rgb(47.058824%,56.470591%,61.176473%);fill-opacity:1;" d="M 116.921875 115.53125 C 116.921875 115.53125 116.589844 116.589844 114.820312 116.589844 C 113.050781 116.589844 112.71875 115.53125 112.71875 115.53125 L 112.71875 103.980469 L 116.921875 106.070312 Z M 116.921875 115.53125 "/>
<path style=" stroke:none;fill-rule:nonzero;fill:rgb(47.058824%,56.470591%,61.176473%);fill-opacity:1;" d="M 64.738281 113.859375 C 64.738281 113.859375 64.191406 115.101562 62.640625 115.101562 C 61.089844 115.101562 60.539062 113.859375 60.539062 113.859375 L 60.539062 94.011719 L 64.738281 99.890625 Z M 64.738281 113.859375 "/>
<path style=" stroke:none;fill-rule:nonzero;fill:rgb(50.980395%,68.235296%,75.294119%);fill-opacity:1;" d="M 89.839844 113.550781 L 117.898438 106.519531 C 117.898438 106.519531 117.121094 104.371094 115.691406 103.96875 L 86.761719 111.539062 Z M 89.839844 113.550781 "/>
<path style=" stroke:none;fill-rule:nonzero;fill:rgb(47.058824%,56.470591%,61.176473%);fill-opacity:1;" d="M 87.488281 122.941406 C 87.488281 122.941406 87.160156 124 85.390625 124 C 83.621094 124 83.289062 122.941406 83.289062 122.941406 L 83.289062 111.921875 L 87.488281 114.011719 Z M 87.488281 122.941406 "/>
<path style=" stroke:none;fill-rule:nonzero;fill:rgb(50.980395%,68.235296%,75.294119%);fill-opacity:1;" d="M 119.230469 106.148438 L 118.898438 97.660156 C 118.898438 95.671875 117.820312 94.660156 116.570312 93.949219 C 115.320312 93.238281 112.53125 92.550781 112.53125 92.550781 C 104.179688 89.660156 99.769531 84.71875 96.871094 76.070312 C 94.660156 69.480469 86.339844 46.601562 81.5 34.558594 C 79.148438 28.699219 74.980469 24.371094 69.75 22.351562 C 65.75 20.808594 55.601562 19.28125 54.46875 19.039062 L 50.351562 19.371094 L 48.761719 27.351562 C 52.738281 28.171875 63.820312 30.398438 66.28125 31.351562 C 68.980469 32.390625 71.199219 34.808594 72.550781 38.148438 C 77.328125 50.050781 85.550781 72.628906 87.71875 79.128906 C 91.660156 90.890625 99.480469 98.460938 111.011719 101.640625 L 116.03125 103.460938 L 116.109375 107.03125 Z M 119.230469 106.148438 "/>
<path style=" stroke:none;fill-rule:nonzero;fill:rgb(18.431373%,47.058824%,53.725493%);fill-opacity:1;" d="M 116.769531 98.628906 C 116.671875 96.730469 115.378906 95.101562 113.550781 94.570312 L 110.601562 93.570312 C 102.25 90.679688 97.839844 85.789062 94.941406 77.140625 C 92.730469 70.550781 84.410156 47.671875 79.570312 35.628906 C 77.21875 29.769531 73.050781 25.441406 67.820312 23.421875 C 63.820312 21.878906 51.480469 19.601562 50.339844 19.359375 L 48.519531 28.519531 C 52.5 29.339844 61.890625 31.46875 64.351562 32.410156 C 67.050781 33.449219 69.269531 35.871094 70.621094 39.210938 C 75.398438 51.109375 83.621094 73.691406 85.789062 80.191406 C 89.730469 91.949219 97.550781 99.519531 109.078125 102.699219 L 116.910156 103.96875 Z M 116.769531 98.628906 "/>
<path style=" stroke:none;fill-rule:nonzero;fill:rgb(32.941177%,43.137255%,47.843137%);fill-opacity:1;" d="M 60.539062 94.011719 L 60.539062 100.488281 C 61.78125 102.441406 63.179688 104.199219 64.738281 105.789062 L 64.738281 99.890625 Z M 60.539062 94.011719 "/>
<path style=" stroke:none;fill-rule:nonzero;fill:rgb(32.941177%,43.137255%,47.843137%);fill-opacity:1;" d="M 83.289062 111.921875 L 83.289062 115.28125 L 87.488281 116.339844 L 87.488281 114.019531 Z M 83.289062 111.921875 "/>
<path style=" stroke:none;fill-rule:nonzero;fill:rgb(72.549021%,89.411765%,91.764706%);fill-opacity:1;" d="M 73.71875 105.519531 C 73.941406 105.191406 95.679688 99.148438 95.679688 99.148438 C 96.96875 98.851562 98.308594 99.019531 99.480469 99.648438 C 101.140625 100.539062 104.570312 101.691406 108.730469 102.941406 C 109.421875 103.148438 109.398438 104.128906 108.710938 104.320312 L 85.988281 110.769531 Z M 73.71875 105.519531 "/>
<path style=" stroke:none;fill-rule:nonzero;fill:rgb(47.058824%,56.470591%,61.176473%);fill-opacity:1;" d="M 41.230469 86.230469 C 41.230469 86.230469 40.988281 87.210938 39.308594 87.328125 C 37.398438 87.46875 36.910156 86.449219 37.058594 85.691406 L 48.460938 27.550781 L 52.578125 28.371094 Z M 41.230469 86.230469 "/>
<path style=" stroke:none;fill-rule:nonzero;fill:rgb(47.058824%,56.470591%,61.176473%);fill-opacity:1;" d="M 46.960938 39.691406 L 20.300781 46.320312 L 19.710938 49.300781 L 46.238281 42.699219 C 46.238281 42.699219 47.890625 42.449219 48.089844 41.179688 C 48.261719 40.050781 47.558594 39.519531 46.960938 39.691406 Z M 46.960938 39.691406 "/>
<path style=" stroke:none;fill-rule:nonzero;fill:rgb(47.058824%,56.470591%,61.176473%);fill-opacity:1;" d="M 44.71875 51.660156 L 17.941406 58.320312 L 17.351562 61.300781 L 44 54.671875 C 44 54.671875 45.648438 54.421875 45.851562 53.148438 C 46.03125 52.019531 45.320312 51.5 44.71875 51.660156 Z M 44.71875 51.660156 "/>
<path style=" stroke:none;fill-rule:nonzero;fill:rgb(47.058824%,56.470591%,61.176473%);fill-opacity:1;" d="M 42.488281 63.628906 L 15.589844 70.308594 L 15 73.289062 L 41.769531 66.628906 C 41.769531 66.628906 43.421875 66.378906 43.621094 65.109375 C 43.789062 63.988281 43.089844 63.46875 42.488281 63.628906 Z M 42.488281 63.628906 "/>
<path style=" stroke:none;fill-rule:nonzero;fill:rgb(47.058824%,56.470591%,61.176473%);fill-opacity:1;" d="M 40.25 75.601562 L 13.21875 82.308594 L 12.628906 85.289062 L 39.53125 78.609375 C 39.53125 78.609375 41.179688 78.359375 41.378906 77.089844 C 41.558594 75.96875 40.851562 75.441406 40.25 75.601562 Z M 40.25 75.601562 "/>
<path style=" stroke:none;fill-rule:nonzero;fill:rgb(32.941177%,43.137255%,47.843137%);fill-opacity:1;" d="M 46.039062 39.921875 L 28.539062 44.328125 C 29.96875 44.710938 31.171875 45.058594 31.890625 45.339844 C 32.410156 45.539062 32.929688 45.738281 33.429688 45.941406 L 45.449219 42.890625 L 43.679688 51.921875 L 39.589844 52.941406 C 39.898438 53.769531 40.21875 54.628906 40.550781 55.53125 L 43.089844 54.890625 L 42.261719 59.171875 C 43.148438 61.609375 44.078125 64.21875 45.019531 66.890625 L 52.570312 28.378906 L 48.449219 27.558594 Z M 46.039062 39.921875 "/>
<path style=" stroke:none;fill-rule:nonzero;fill:rgb(58.039218%,81.960785%,87.843138%);fill-opacity:1;" d="M 87.5 111.648438 C 87.5 111.648438 77.789062 112.019531 69.21875 103.449219 C 59.351562 93.578125 42.738281 45.300781 37.828125 42.53125 C 30.140625 38.191406 23.511719 33.828125 23.511719 33.828125 L 48.199219 27.550781 C 48.199219 27.550781 58.648438 29.101562 64.621094 31.621094 C 66.109375 32.25 68.988281 33.640625 71.488281 40.058594 C 75.601562 50.640625 81.519531 68.179688 86.71875 80.21875 C 89.71875 87.171875 92.199219 91.609375 94.699219 93.539062 C 105.820312 102.101562 116.761719 103.980469 116.761719 103.980469 Z M 87.5 111.648438 "/>
<path style=" stroke:none;fill-rule:nonzero;fill:rgb(40.000001%,71.764708%,76.862746%);fill-opacity:1;" d="M 97.128906 95.328125 C 96.78125 95.070312 95.199219 93.820312 94.851562 93.550781 C 92.351562 91.628906 89.878906 87.179688 86.871094 80.230469 C 81.671875 68.199219 75.75 50.648438 71.640625 40.070312 C 70.921875 38.210938 70.03125 36.820312 69.28125 35.699219 L 44.238281 42.039062 L 66.699219 100.121094 C 67.398438 101.140625 68.070312 102.019531 68.730469 102.761719 Z M 97.128906 95.328125 "/>
<path style=" stroke:none;fill-rule:nonzero;fill:rgb(69.01961%,94.901961%,96.862745%);fill-opacity:1;" d="M 90.140625 113.441406 L 89.820312 104.949219 C 89.761719 103.238281 88.539062 101.78125 86.871094 101.410156 L 84.589844 100.898438 C 76.28125 98.609375 70.828125 94.261719 67.929688 85.609375 C 65.71875 79.011719 57.398438 56.128906 52.558594 44.101562 C 50.210938 38.238281 46.039062 33.910156 40.808594 31.890625 C 36.808594 30.351562 26.808594 28.269531 25.558594 28.011719 L 22.191406 28.53125 L 22.519531 37.21875 C 26.949219 38.140625 34.890625 39.941406 37.339844 40.890625 C 40.039062 41.929688 42.261719 44.351562 43.609375 47.691406 C 48.390625 59.578125 56.609375 82.160156 58.78125 88.671875 C 62.71875 100.429688 70.539062 108 82.070312 111.171875 L 87.460938 112.03125 L 87.539062 114.199219 Z M 90.140625 113.441406 "/>
<path style=" stroke:none;fill-rule:nonzero;fill:rgb(58.039218%,81.960785%,87.843138%);fill-opacity:1;" d="M 87.25 107.269531 C 87.171875 105.308594 85.820312 103.621094 83.921875 103.121094 L 82.300781 102.691406 C 73.988281 100.398438 68.539062 95.078125 65.640625 86.429688 C 63.429688 79.828125 55.109375 56.949219 50.269531 44.921875 C 47.921875 39.058594 43.75 34.730469 38.519531 32.710938 C 34.519531 31.171875 23.441406 28.851562 22.179688 28.589844 L 20.21875 38.03125 C 24.648438 38.949219 32.589844 40.75 35.039062 41.699219 C 37.738281 42.738281 40.320312 43.648438 41.089844 45.609375 C 45.808594 57.519531 54.300781 82.980469 56.480469 89.480469 C 60.421875 101.238281 68.238281 108.808594 79.769531 111.980469 L 87.53125 114.179688 Z M 87.25 107.269531 "/>
<path style=" stroke:none;fill-rule:nonzero;fill:rgb(47.058824%,56.470591%,61.176473%);fill-opacity:1;" d="M 12.980469 93.46875 C 12.980469 93.46875 12.699219 94.539062 10.851562 94.671875 C 10.300781 94.710938 9.871094 94.621094 9.550781 94.480469 C 8.96875 94.238281 8.679688 93.578125 8.800781 92.96875 L 21.96875 25.558594 C 23.101562 19.96875 23.769531 16.058594 26.871094 14.238281 C 28.910156 13.050781 31.21875 12.820312 33.558594 13.578125 C 39.71875 15.570312 40.160156 30.109375 40.789062 45.988281 C 40.789062 45.988281 39.28125 46.359375 38.101562 45.761719 C 36.921875 45.160156 36.910156 43.871094 36.910156 43.871094 C 36.421875 32.03125 36.378906 18.910156 32.269531 17.578125 C 31.058594 17.191406 29.988281 17.289062 28.988281 17.871094 C 26.980469 19.050781 26.960938 22.070312 26.089844 26.390625 Z M 12.980469 93.46875 "/>
<path style=" stroke:none;fill-rule:nonzero;fill:rgb(32.941177%,43.137255%,47.843137%);fill-opacity:1;" d="M 112.789062 107.808594 L 112.789062 109.660156 L 116.921875 108.769531 L 116.921875 106.800781 Z M 112.789062 107.808594 "/>
<path style=" stroke:none;fill-rule:nonzero;fill:rgb(81.176472%,84.705883%,86.274511%);fill-opacity:1;" d="M 25.449219 18.789062 C 24.96875 18.550781 24.96875 17.78125 25.210938 17.320312 C 26.070312 15.691406 27.808594 14.640625 29.640625 14.460938 C 30.539062 14.371094 30.691406 14.558594 30.808594 14.890625 C 30.980469 15.371094 30.460938 15.710938 29.960938 15.839844 C 28.488281 16.25 27.410156 17.121094 26.859375 18.191406 C 26.488281 18.921875 25.929688 19.03125 25.449219 18.789062 Z M 25.449219 18.789062 "/>
</g>
</svg>
