<?xml version="1.0" encoding="UTF-8"?>
<svg xmlns="http://www.w3.org/2000/svg" xmlns:xlink="http://www.w3.org/1999/xlink" width="128px" height="128px" viewBox="0 0 128 128" version="1.1">
<g id="surface1">
<path style=" stroke:none;fill-rule:nonzero;fill:rgb(100%,61.56863%,15.294118%);fill-opacity:1;" d="M 21.800781 97.398438 C 29.800781 89.398438 30.601562 87.398438 35.601562 92.398438 C 40.601562 97.398438 38.601562 98 30.601562 106.199219 C 24.601562 112.199219 17 111 17 111 C 17 111 15.800781 103.398438 21.800781 97.398438 "/>
<path style=" stroke:none;fill-rule:nonzero;fill:rgb(100%,61.56863%,15.294118%);fill-opacity:1;" d="M 37 105.601562 C 40.199219 97.199219 41.199219 96.199219 36.601562 93.601562 C 32 91 32 92.800781 29 101.199219 C 26.601562 107.398438 29.398438 113 29.398438 113 C 29.398438 113 34.800781 112 37 105.601562 "/>
<path style=" stroke:none;fill-rule:nonzero;fill:rgb(99.215686%,96.078432%,8.627451%);fill-opacity:1;" d="M 32.398438 97.800781 C 34.199219 93.199219 34.199219 92.199219 36.601562 93.601562 C 39.199219 95 38.601562 95.601562 36.800781 100.199219 C 35.601562 103.601562 32.601562 104.398438 32.601562 104.398438 C 32.601562 104.398438 31.199219 101.398438 32.398438 97.800781 "/>
<path style=" stroke:none;fill-rule:nonzero;fill:rgb(100%,61.56863%,15.294118%);fill-opacity:1;" d="M 34.199219 91.398438 C 31.601562 86.800781 30.601562 87.800781 22.199219 91 C 16 93.398438 14.800781 98.601562 14.800781 98.601562 C 14.800781 98.601562 20.398438 101.398438 26.601562 99 C 35 95.800781 36.800781 95.800781 34.199219 91.398438 "/>
<path style=" stroke:none;fill-rule:nonzero;fill:rgb(99.215686%,96.078432%,8.627451%);fill-opacity:1;" d="M 30 95.601562 C 34.601562 93.800781 35.601562 93.800781 34.199219 91.398438 C 32.800781 88.800781 32.199219 89.398438 27.601562 91.199219 C 24.199219 92.398438 23.398438 95.398438 23.398438 95.398438 C 23.398438 95.398438 26.601562 96.800781 30 95.601562 "/>
<path style=" stroke:none;fill-rule:nonzero;fill:rgb(99.215686%,96.078432%,8.627451%);fill-opacity:1;" d="M 27.800781 95.199219 C 32.199219 90.800781 32.601562 89.601562 35.398438 92.398438 C 38.199219 95.199219 37 95.601562 32.601562 100 C 29.199219 103.398438 25 102.601562 25 102.601562 C 25 102.601562 24.601562 98.601562 27.800781 95.199219 "/>
<path style=" stroke:none;fill-rule:nonzero;fill:rgb(23.137255%,66.666669%,81.176472%);fill-opacity:1;" d="M 37 76 C 24.601562 55.199219 4 63.800781 4 63.800781 C 4 63.800781 33.398438 34.398438 53.199219 54.199219 Z M 37 76 "/>
<path style=" stroke:none;fill-rule:nonzero;fill:rgb(25.882354%,54.509807%,75.686276%);fill-opacity:1;" d="M 46.601562 60.601562 L 53 54.199219 C 33.398438 34.398438 4 63.800781 4 63.800781 C 4 63.800781 29.800781 45.398438 46.601562 60.601562 "/>
<path style=" stroke:none;fill-rule:nonzero;fill:rgb(23.137255%,66.666669%,81.176472%);fill-opacity:1;" d="M 52 91 C 72.800781 103.398438 64.199219 124 64.199219 124 C 64.199219 124 93.601562 94.601562 73.800781 74.800781 Z M 52 91 "/>
<path style=" stroke:none;fill-rule:nonzero;fill:rgb(25.882354%,54.509807%,75.686276%);fill-opacity:1;" d="M 67.398438 81.398438 L 73.800781 75 C 93.601562 94.800781 64.199219 124.199219 64.199219 124.199219 C 64.199219 124.199219 82.601562 98.199219 67.398438 81.398438 "/>
<path style=" stroke:none;fill-rule:nonzero;fill:rgb(77.254903%,81.568629%,84.705883%);fill-opacity:1;" d="M 97.601562 61.800781 C 74.199219 85 48.398438 97.601562 39.398438 88.601562 C 30.398438 79.601562 43 53.800781 66.199219 30.398438 C 93.398438 3.199219 123.601562 4.398438 123.601562 4.398438 C 123.601562 4.398438 124.601562 34.601562 97.601562 61.800781 "/>
<path style=" stroke:none;fill-rule:nonzero;fill:rgb(85.490197%,89.019608%,91.764706%);fill-opacity:1;" d="M 91.601562 55.199219 C 68.398438 78.398438 45.199219 93.601562 39.800781 88.199219 C 34.398438 82.800781 49.601562 59.601562 72.800781 36.398438 C 100 9.199219 124 4 124 4 C 124 4 118.800781 28 91.601562 55.199219 Z M 91.601562 55.199219 "/>
<path style=" stroke:none;fill-rule:nonzero;fill:rgb(78.823531%,27.843139%,27.843139%);fill-opacity:1;" d="M 48.601562 95 C 47.601562 96 46 96 45 95 L 33 83 C 32 82 32 80.199219 33 79.199219 L 36.601562 75.601562 L 52.199219 91.199219 L 48.601562 95 "/>
<path style=" stroke:none;fill-rule:nonzero;fill:rgb(94.509804%,34.117648%,26.666668%);fill-opacity:1;" d="M 45.199219 91.398438 C 44.199219 92.398438 43 92.800781 42.398438 92.199219 L 35.601562 85.398438 C 35 84.800781 35.398438 83.601562 36.398438 82.601562 L 40 79 L 48.800781 87.800781 L 45.199219 91.398438 "/>
<path style=" stroke:none;fill-rule:nonzero;fill:rgb(24.313726%,26.274511%,27.843139%);fill-opacity:1;" d="M 41.800781 96.398438 C 41.199219 97 39.800781 97 39.199219 96.398438 L 31.398438 88.601562 C 30.800781 88 31 86.800781 31.601562 86.199219 L 34 83.800781 L 44.199219 94 L 41.800781 96.398438 "/>
<path style=" stroke:none;fill-rule:nonzero;fill:rgb(38.431373%,44.705883%,47.843137%);fill-opacity:1;" d="M 40.199219 94.800781 C 39.601562 95.398438 38.398438 95.601562 38 95.199219 L 32.601562 89.800781 C 32.199219 89.398438 32.398438 88.398438 33.199219 87.800781 L 35.601562 85.398438 L 42.601562 92.398438 L 40.199219 94.800781 "/>
<path style=" stroke:none;fill-rule:nonzero;fill:rgb(78.823531%,27.843139%,27.843139%);fill-opacity:1;" d="M 123.601562 4.398438 C 123.601562 4.398438 112.800781 4 98.199219 9.601562 L 118.398438 29.800781 C 124 15.199219 123.601562 4.398438 123.601562 4.398438 "/>
<path style=" stroke:none;fill-rule:nonzero;fill:rgb(94.509804%,34.117648%,26.666668%);fill-opacity:1;" d="M 123.601562 4.398438 C 123.601562 4.398438 115 6.199219 102 13.601562 L 114.398438 26 C 121.800781 13 123.601562 4.398438 123.601562 4.398438 "/>
<path style=" stroke:none;fill-rule:nonzero;fill:rgb(92.941177%,95.686275%,97.647059%);fill-opacity:1;" d="M 97 41 C 97 35.476562 92.523438 31 87 31 C 81.476562 31 77 35.476562 77 41 C 77 46.523438 81.476562 51 87 51 C 92.523438 51 97 46.523438 97 41 Z M 97 41 "/>
<path style=" stroke:none;fill-rule:nonzero;fill:rgb(23.137255%,66.666669%,81.176472%);fill-opacity:1;" d="M 93.601562 41 C 93.601562 37.355469 90.644531 34.398438 87 34.398438 C 83.355469 34.398438 80.398438 37.355469 80.398438 41 C 80.398438 44.644531 83.355469 47.601562 87 47.601562 C 90.644531 47.601562 93.601562 44.644531 93.601562 41 Z M 93.601562 41 "/>
<path style=" stroke:none;fill-rule:nonzero;fill:rgb(92.941177%,95.686275%,97.647059%);fill-opacity:1;" d="M 77 61 C 77 55.476562 72.523438 51 67 51 C 61.476562 51 57 55.476562 57 61 C 57 66.523438 61.476562 71 67 71 C 72.523438 71 77 66.523438 77 61 Z M 77 61 "/>
<path style=" stroke:none;fill-rule:nonzero;fill:rgb(23.137255%,66.666669%,81.176472%);fill-opacity:1;" d="M 73.601562 61 C 73.601562 57.355469 70.644531 54.398438 67 54.398438 C 63.355469 54.398438 60.398438 57.355469 60.398438 61 C 60.398438 64.644531 63.355469 67.601562 67 67.601562 C 70.644531 67.601562 73.601562 64.644531 73.601562 61 Z M 73.601562 61 "/>
<path style=" stroke:none;fill-rule:nonzero;fill:rgb(100%,100%,100%);fill-opacity:1;" d="M 97.800781 13.800781 C 97.199219 14.398438 96 14.398438 95.398438 13.800781 C 94.800781 13.199219 94.800781 12 95.398438 11.398438 C 96 10.800781 97.199219 10.800781 97.800781 11.398438 C 98.398438 12 98.398438 13.199219 97.800781 13.800781 "/>
<path style=" stroke:none;fill-rule:nonzero;fill:rgb(100%,100%,100%);fill-opacity:1;" d="M 102.800781 17.199219 C 102.800781 16.316406 102.082031 15.601562 101.199219 15.601562 C 100.316406 15.601562 99.601562 16.316406 99.601562 17.199219 C 99.601562 18.082031 100.316406 18.800781 101.199219 18.800781 C 102.082031 18.800781 102.800781 18.082031 102.800781 17.199219 Z M 102.800781 17.199219 "/>
<path style=" stroke:none;fill-rule:nonzero;fill:rgb(100%,100%,100%);fill-opacity:1;" d="M 107.601562 22 C 107.601562 21.117188 106.882812 20.398438 106 20.398438 C 105.117188 20.398438 104.398438 21.117188 104.398438 22 C 104.398438 22.882812 105.117188 23.601562 106 23.601562 C 106.882812 23.601562 107.601562 22.882812 107.601562 22 Z M 107.601562 22 "/>
<path style=" stroke:none;fill-rule:nonzero;fill:rgb(100%,100%,100%);fill-opacity:1;" d="M 112.199219 26.800781 C 112.199219 25.917969 111.484375 25.199219 110.601562 25.199219 C 109.714844 25.199219 109 25.917969 109 26.800781 C 109 27.683594 109.714844 28.398438 110.601562 28.398438 C 111.484375 28.398438 112.199219 27.683594 112.199219 26.800781 Z M 112.199219 26.800781 "/>
<path style=" stroke:none;fill-rule:nonzero;fill:rgb(100%,100%,100%);fill-opacity:1;" d="M 117 31.398438 C 117 30.515625 116.285156 29.800781 115.398438 29.800781 C 114.515625 29.800781 113.800781 30.515625 113.800781 31.398438 C 113.800781 32.285156 114.515625 33 115.398438 33 C 116.285156 33 117 32.285156 117 31.398438 Z M 117 31.398438 "/>
</g>
</svg>
