<?xml version="1.0" encoding="UTF-8"?>
<svg xmlns="http://www.w3.org/2000/svg" xmlns:xlink="http://www.w3.org/1999/xlink" width="128px" height="128px" viewBox="0 0 128 128" version="1.1">
<g id="surface1">
<path style=" stroke:none;fill-rule:nonzero;fill:rgb(45.882353%,49.803922%,24.705882%);fill-opacity:1;" d="M 84.769531 8.410156 C 84.769531 8.410156 92.871094 13.609375 100.621094 19.691406 C 107.050781 24.730469 113.179688 30.628906 114.738281 32.429688 L 116.351562 41.679688 L 107.890625 51.320312 L 88.101562 48.441406 L 72.699219 33.730469 L 67.960938 22.058594 L 71.339844 13.429688 Z M 84.769531 8.410156 "/>
<path style=" stroke:none;fill-rule:nonzero;fill:rgb(85.882354%,26.666668%,21.568628%);fill-opacity:1;" d="M 117.628906 49.730469 C 112.789062 52.339844 107.261719 53.820312 101.390625 53.820312 C 82.449219 53.820312 67.101562 38.46875 67.101562 19.53125 C 67.101562 16.289062 67.578125 13.171875 68.421875 10.199219 C 62.941406 9.140625 57.359375 8.601562 51.878906 8.859375 C 17.511719 10.488281 1.46875 47.570312 1.308594 77.609375 C 1.210938 94.699219 1.679688 119.859375 22.289062 125 C 39.941406 129.410156 59.378906 128.789062 76.589844 122.820312 C 100.679688 114.46875 122.640625 91.898438 120.949219 64.898438 C 120.648438 60.109375 119.488281 54.679688 117.628906 49.730469 Z M 117.628906 49.730469 "/>
<path style=" stroke:none;fill-rule:nonzero;fill:rgb(100%,100%,100%);fill-opacity:1;" d="M 33.859375 38.261719 C 30.878906 40.078125 27.480469 39.789062 26.210938 37.699219 C 24.96875 35.570312 26.371094 32.378906 29.320312 30.558594 C 32.28125 28.769531 35.699219 29.019531 36.941406 31.140625 C 38.199219 33.261719 36.789062 36.46875 33.859375 38.261719 Z M 33.859375 38.261719 "/>
<path style=" stroke:none;fill-rule:nonzero;fill:rgb(100%,100%,100%);fill-opacity:1;" d="M 26.660156 63.230469 C 25.648438 66.570312 22.898438 68.609375 20.570312 67.878906 C 18.21875 67.109375 17.148438 63.789062 18.171875 60.46875 C 19.191406 57.171875 21.929688 55.089844 24.269531 55.859375 C 26.601562 56.621094 27.691406 59.941406 26.660156 63.230469 Z M 26.660156 63.230469 "/>
<path style=" stroke:none;fill-rule:nonzero;fill:rgb(100%,100%,100%);fill-opacity:1;" d="M 50.941406 62.121094 C 48.808594 64.878906 45.53125 65.828125 43.609375 64.320312 C 41.691406 62.761719 41.859375 59.28125 43.980469 56.539062 C 46.101562 53.808594 49.390625 52.828125 51.308594 54.371094 C 53.21875 55.898438 53.050781 59.398438 50.941406 62.121094 Z M 50.941406 62.121094 "/>
<path style=" stroke:none;fill-rule:nonzero;fill:rgb(100%,100%,100%);fill-opacity:1;" d="M 24.429688 92.730469 C 24.03125 96.199219 21.699219 98.699219 19.28125 98.398438 C 16.828125 98.058594 15.191406 94.988281 15.578125 91.550781 C 15.988281 88.109375 18.300781 85.578125 20.75 85.921875 C 23.179688 86.230469 24.828125 89.308594 24.429688 92.730469 Z M 24.429688 92.730469 "/>
<path style=" stroke:none;fill-rule:nonzero;fill:rgb(100%,100%,100%);fill-opacity:1;" d="M 95.269531 83.398438 C 94.058594 86.671875 95 89.960938 97.300781 90.789062 C 99.621094 91.601562 102.5 89.621094 103.710938 86.371094 C 104.890625 83.109375 103.988281 79.808594 101.660156 78.988281 C 99.328125 78.179688 96.460938 80.160156 95.269531 83.398438 Z M 95.269531 83.398438 "/>
<path style=" stroke:none;fill-rule:nonzero;fill:rgb(100%,100%,100%);fill-opacity:1;" d="M 73.359375 99.089844 C 70.160156 100.480469 68.441406 103.429688 69.429688 105.671875 C 70.460938 107.910156 73.890625 108.601562 77.070312 107.230469 C 80.238281 105.839844 82 102.890625 80.960938 100.648438 C 79.941406 98.398438 76.519531 97.699219 73.359375 99.089844 Z M 73.359375 99.089844 "/>
<path style=" stroke:none;fill-rule:nonzero;fill:rgb(100%,100%,100%);fill-opacity:1;" d="M 68.710938 74.058594 C 66.210938 76.488281 65.640625 79.859375 67.359375 81.589844 C 69.121094 83.328125 72.558594 82.769531 75.050781 80.359375 C 77.519531 77.941406 78.128906 74.558594 76.371094 72.828125 C 74.628906 71.089844 71.179688 71.660156 68.710938 74.058594 Z M 68.710938 74.058594 "/>
<path style=" stroke:none;fill-rule:nonzero;fill:rgb(100%,100%,100%);fill-opacity:1;" d="M 41.53125 81.398438 C 39.230469 84.019531 38.921875 87.421875 40.78125 89.019531 C 42.660156 90.609375 46.058594 89.789062 48.351562 87.179688 C 50.628906 84.570312 50.96875 81.160156 49.070312 79.570312 C 47.210938 77.980469 43.808594 78.808594 41.53125 81.398438 Z M 41.53125 81.398438 "/>
<path style=" stroke:none;fill-rule:nonzero;fill:rgb(100%,100%,100%);fill-opacity:1;" d="M 41.660156 106.28125 C 38.261719 107.058594 36.03125 109.648438 36.601562 112.03125 C 37.210938 114.421875 40.441406 115.71875 43.820312 114.941406 C 47.191406 114.148438 49.449219 111.570312 48.839844 109.179688 C 48.261719 106.789062 45.011719 105.488281 41.660156 106.28125 Z M 41.660156 106.28125 "/>
<path style=" stroke:none;fill-rule:nonzero;fill:rgb(74.117649%,81.176472%,27.450982%);fill-opacity:1;" d="M 114.730469 32.429688 C 114.121094 32.839844 113.511719 33.230469 112.949219 33.640625 C 110.46875 35.371094 108.441406 37.449219 106.191406 39.460938 C 105.351562 40.199219 104.351562 41.078125 103.320312 41.5 C 101.679688 42.179688 99.679688 40.960938 99.628906 39.191406 C 99.601562 37.730469 100.550781 36.351562 101.339844 35.191406 C 102.351562 33.71875 103.53125 32.53125 104.71875 31.25 C 106.140625 29.738281 107.609375 28.488281 109.140625 27.300781 C 109.121094 27.28125 109.089844 27.269531 109.070312 27.25 C 110.371094 26.160156 111.898438 25.171875 113.410156 24.148438 C 114.738281 23.199219 116.039062 22.21875 117.199219 21 C 117.46875 20.71875 117.859375 20.308594 118.289062 19.921875 C 118.96875 19.050781 119.53125 18.089844 119.871094 16.980469 C 121.269531 12.238281 118.410156 6.96875 114.789062 3.980469 C 109.628906 -0.269531 102.890625 1.730469 98.148438 5.628906 C 96.308594 7.148438 94.511719 8.828125 92.761719 10.570312 C 90.03125 13.511719 87.488281 16.628906 84.738281 19.570312 C 83.589844 20.820312 82.070312 22.871094 80.171875 22.671875 C 78.820312 22.53125 77.898438 21.789062 77.601562 20.398438 C 77.089844 18.101562 78.890625 15.601562 80.160156 13.851562 C 81.511719 12.011719 83.101562 10.378906 84.558594 8.640625 C 84.628906 8.570312 84.679688 8.488281 84.75 8.429688 C 78.839844 4.390625 72.460938 1.269531 64.738281 0.410156 C 59.800781 -0.140625 52.929688 0.121094 48.210938 1.800781 C 45.421875 2.789062 45.949219 4.121094 47.519531 6.078125 C 49.210938 8.179688 60.308594 17.210938 58.800781 20.21875 C 57.71875 22.378906 55.398438 23.488281 53.210938 24.539062 C 52.269531 24.988281 51.359375 25.429688 50.550781 25.941406 C 47.980469 27.570312 44.539062 29.441406 43.53125 32.550781 C 42.550781 35.578125 49.910156 36.21875 51.578125 36.421875 C 55.378906 36.898438 59.398438 36.730469 63.121094 37.769531 C 67.660156 39.03125 67.558594 40.441406 66.640625 44.75 C 66.140625 47.109375 65.359375 49.589844 65.121094 51.988281 C 64.910156 54.230469 64.648438 57.171875 65.421875 59.289062 C 67.511719 64.988281 82.339844 53.328125 85.859375 54.761719 C 90.171875 56.519531 90.859375 74.089844 96.648438 72.699219 C 98.078125 72.359375 99.671875 70 100.378906 68.808594 C 102.121094 65.878906 103.269531 62.730469 104.328125 59.511719 C 105.261719 56.660156 106.921875 56.058594 109.570312 57.460938 C 112.519531 59.03125 115.171875 61.019531 117.609375 63.269531 C 119.808594 65.28125 121.21875 68.359375 124.148438 69.46875 C 125.289062 68.269531 125.800781 65.589844 126.121094 63.988281 C 128.550781 52.171875 122.839844 40.921875 114.730469 32.429688 Z M 114.730469 32.429688 "/>
</g>
</svg>
