<?xml version="1.0" encoding="UTF-8"?>
<svg xmlns="http://www.w3.org/2000/svg" xmlns:xlink="http://www.w3.org/1999/xlink" width="128px" height="128px" viewBox="0 0 128 128" version="1.1">
<defs>
<clipPath id="clip1">
  <path d="M 34 77 L 40 77 L 40 85 L 34 85 Z M 34 77 "/>
</clipPath>
<clipPath id="clip2">
  <path d="M 38.699219 77.859375 C 40.050781 78.769531 40.421875 80.570312 38.941406 82.761719 C 37.480469 84.921875 35.640625 85.289062 34.289062 84.378906 C 32.941406 83.46875 32.511719 81.75 34.050781 79.480469 C 35.539062 77.269531 37.351562 76.949219 38.699219 77.859375 Z M 38.699219 77.859375 "/>
</clipPath>
<clipPath id="clip3">
  <path d="M 42 65 L 49 65 L 49 73 L 42 73 Z M 42 65 "/>
</clipPath>
<clipPath id="clip4">
  <path d="M 46.921875 65.691406 C 48.269531 66.601562 48.640625 68.398438 47.160156 70.589844 C 45.699219 72.75 43.859375 73.121094 42.511719 72.210938 C 41.160156 71.300781 40.730469 69.578125 42.269531 67.308594 C 43.769531 65.101562 45.570312 64.78125 46.921875 65.691406 Z M 46.921875 65.691406 "/>
</clipPath>
</defs>
<g id="surface1">
<path style=" stroke:none;fill-rule:nonzero;fill:rgb(98.431373%,75.686276%,10.588235%);fill-opacity:1;" d="M 46.910156 44.300781 L 57.769531 36.808594 L 80.550781 65.96875 L 62.910156 76.320312 Z M 46.910156 44.300781 "/>
<path style=" stroke:none;fill-rule:nonzero;fill:rgb(98.431373%,75.686276%,10.588235%);fill-opacity:1;" d="M 53.832031 34.074219 C 50.238281 33.226562 46.636719 35.457031 45.789062 39.054688 C 44.941406 42.648438 47.171875 46.25 50.769531 47.097656 C 54.367188 47.941406 57.96875 45.714844 58.8125 42.117188 C 59.660156 38.519531 57.429688 34.917969 53.832031 34.074219 Z M 53.832031 34.074219 "/>
<path style=" stroke:none;fill-rule:nonzero;fill:rgb(98.431373%,75.686276%,10.588235%);fill-opacity:1;" d="M 23.898438 40.140625 L 24.878906 30.628906 L 53.160156 33.929688 L 51.820312 47.050781 Z M 23.898438 40.140625 "/>
<path style=" stroke:none;fill-rule:nonzero;fill:rgb(98.431373%,75.686276%,10.588235%);fill-opacity:1;" d="M 80.5625 65.976562 C 77.703125 61.101562 71.4375 59.46875 66.5625 62.328125 C 61.6875 65.1875 60.054688 71.453125 62.914062 76.328125 C 65.773438 81.203125 72.042969 82.835938 76.914062 79.976562 C 81.789062 77.117188 83.421875 70.847656 80.5625 65.976562 Z M 80.5625 65.976562 "/>
<path style=" stroke:none;fill-rule:nonzero;fill:rgb(98.431373%,75.686276%,10.588235%);fill-opacity:1;" d="M 9.21875 43.839844 L 9.289062 44.039062 C 10.691406 47.871094 14.941406 49.839844 18.769531 48.441406 L 27.578125 45.21875 C 31.410156 43.820312 33.378906 39.570312 31.980469 35.738281 L 31.910156 35.539062 C 30.511719 31.710938 26.261719 29.738281 22.429688 31.140625 L 13.621094 34.359375 C 9.789062 35.769531 7.820312 40.011719 9.21875 43.839844 Z M 9.21875 43.839844 "/>
<path style=" stroke:none;fill-rule:nonzero;fill:rgb(98.431373%,75.686276%,10.588235%);fill-opacity:1;" d="M 19.25 40.28125 L 22.109375 48.078125 C 22.570312 49.339844 23.96875 49.988281 25.230469 49.53125 L 28.578125 48.300781 C 32.480469 46.871094 34.480469 42.558594 33.050781 38.660156 L 31.941406 35.628906 Z M 19.25 40.28125 "/>
<path style=" stroke:none;fill-rule:nonzero;fill:rgb(98.431373%,75.686276%,10.588235%);fill-opacity:1;" d="M 68.710938 88 L 78.738281 66.75 L 113.589844 83.210938 L 93.570312 125.589844 L 58.730469 109.128906 Z M 68.710938 88 "/>
<path style=" stroke:none;fill-rule:nonzero;fill:rgb(98.431373%,75.686276%,10.588235%);fill-opacity:1;" d="M 48.601562 87.53125 C 49.371094 84.808594 53.96875 75.070312 55.578125 72.75 C 60.671875 65.410156 66.511719 61.03125 73.078125 64.140625 L 95.480469 74.71875 L 85.480469 95.910156 L 75.460938 117.101562 L 53.058594 106.519531 C 46.488281 103.421875 46.160156 96.121094 48.601562 87.53125 Z M 48.601562 87.53125 "/>
<path style=" stroke:none;fill-rule:nonzero;fill:rgb(90.588236%,63.137257%,23.921569%);fill-opacity:1;" d="M 61.109375 88.710938 C 63 85.859375 62.21875 82.019531 59.371094 80.128906 L 54.960938 77.210938 L 48.128906 87.53125 L 52.539062 90.449219 C 55.378906 92.339844 59.21875 91.558594 61.109375 88.710938 Z M 61.109375 88.710938 "/>
<path style=" stroke:none;fill-rule:nonzero;fill:rgb(90.588236%,63.137257%,23.921569%);fill-opacity:1;" d="M 52.101562 90.171875 C 52.101562 90.171875 54.199219 88.730469 56.320312 85.539062 C 58.429688 82.351562 59.039062 79.898438 59.039062 79.898438 L 53.96875 76.539062 C 52.609375 75.640625 50.550781 75.570312 49.648438 76.921875 L 45.78125 82.761719 C 44.878906 84.109375 45.671875 85.910156 47.019531 86.808594 Z M 52.101562 90.171875 "/>
<path style=" stroke:none;fill-rule:nonzero;fill:rgb(42.745098%,29.803923%,25.490198%);fill-opacity:1;" d="M 18.75 60.960938 C 18.75 60.960938 18.878906 60.75 18.941406 60.660156 C 19 60.570312 19.140625 60.359375 19.140625 60.359375 C 27.140625 49.78125 34.921875 51.511719 39.660156 53.671875 C 44.800781 56 48.371094 58.089844 48.371094 58.089844 C 48.371094 58.089844 48.058594 58.148438 47.558594 58.308594 C 47.039062 58.488281 46.609375 58.78125 46.609375 58.78125 L 50.148438 61.96875 L 39.511719 60.488281 C 39.441406 60.480469 39.378906 60.511719 39.351562 60.570312 L 38.089844 63.03125 C 36.820312 65.5 35.410156 67.898438 33.890625 70.21875 C 33.820312 70.320312 33.75 70.421875 33.691406 70.519531 C 33.621094 70.621094 33.558594 70.71875 33.488281 70.820312 C 31.949219 73.128906 30.289062 75.359375 28.511719 77.5 L 26.738281 79.621094 C 26.699219 79.671875 26.691406 79.738281 26.730469 79.800781 L 32.25 89.019531 L 27.929688 87 C 27.929688 87 27.820312 87.511719 27.871094 88.058594 C 27.910156 88.578125 27.980469 88.890625 27.980469 88.890625 C 27.980469 88.890625 24.300781 86.539062 20.359375 82.5 C 16.609375 78.671875 12.289062 72.140625 18.75 60.960938 Z M 18.75 60.960938 "/>
<path style=" stroke:none;fill-rule:nonzero;fill:rgb(89.411765%,58.431375%,0%);fill-opacity:1;" d="M 28.101562 86.371094 C 28.101562 86.371094 26.878906 89.148438 29.570312 90.929688 C 31.941406 92.5 34.078125 91.300781 35.289062 89.480469 L 28.859375 85.21875 Z M 28.101562 86.371094 "/>
<path style=" stroke:none;fill-rule:nonzero;fill:rgb(89.411765%,58.431375%,0%);fill-opacity:1;" d="M 46.121094 59.140625 C 46.121094 59.140625 48.210938 56.929688 50.890625 58.710938 C 53.261719 60.28125 52.988281 62.71875 51.789062 64.539062 L 45.359375 60.28125 Z M 46.121094 59.140625 "/>
<path style=" stroke:none;fill-rule:nonzero;fill:rgb(98.431373%,75.686276%,10.588235%);fill-opacity:1;" d="M 19.5 61.101562 C 26.621094 50.339844 36.828125 53.050781 48.539062 60.808594 C 60.691406 68.851562 58.660156 78.738281 54.839844 84.511719 C 51.078125 90.191406 42.800781 96.058594 30.558594 87.960938 C 18.859375 80.191406 12.378906 71.859375 19.5 61.101562 Z M 19.5 61.101562 "/>
<path style=" stroke:none;fill-rule:nonzero;fill:rgb(75.294119%,48.235294%,27.843139%);fill-opacity:1;" d="M 43.609375 70.628906 C 44.820312 71.429688 46.339844 71.269531 47 70.269531 C 47.660156 69.269531 47.21875 67.800781 46.011719 67 C 44.800781 66.199219 43.28125 66.359375 42.609375 67.359375 C 41.949219 68.371094 42.390625 69.820312 43.609375 70.628906 "/>
<path style=" stroke:none;fill-rule:nonzero;fill:rgb(75.294119%,48.235294%,27.843139%);fill-opacity:1;" d="M 37.691406 79.558594 C 38.898438 80.359375 39.339844 81.820312 38.679688 82.828125 C 38.019531 83.828125 36.5 84 35.289062 83.191406 C 34.078125 82.390625 33.640625 80.921875 34.300781 79.921875 C 34.960938 78.921875 36.480469 78.761719 37.691406 79.558594 "/>
<path style=" stroke:none;fill-rule:nonzero;fill:rgb(89.411765%,58.431375%,0%);fill-opacity:1;" d="M 43.449219 79.679688 C 44.078125 79.140625 44.628906 78.5 44.988281 77.96875 C 45.351562 77.441406 45.710938 76.679688 45.960938 75.890625 C 46.070312 75.550781 46.410156 75.621094 46.53125 75.839844 C 46.761719 76.300781 46.949219 77.648438 46.199219 78.78125 C 45.449219 79.910156 44.140625 80.261719 43.621094 80.230469 C 43.378906 80.210938 43.179688 79.921875 43.449219 79.679688 Z M 43.449219 79.679688 "/>
<path style=" stroke:none;fill-rule:nonzero;fill:rgb(0.392157%,34.117648%,60.784316%);fill-opacity:1;" d="M 39.660156 76.441406 C 41.5 77.679688 41.960938 80.21875 39.828125 83.371094 C 37.730469 86.480469 35.171875 87.050781 33.328125 85.808594 C 31.488281 84.570312 30.949219 82.140625 33.160156 78.878906 C 35.300781 75.710938 37.808594 75.199219 39.660156 76.441406 Z M 39.660156 76.441406 "/>
<path style=" stroke:none;fill-rule:nonzero;fill:rgb(70.19608%,89.803922%,98.823529%);fill-opacity:1;" d="M 38.699219 77.859375 C 40.050781 78.769531 40.421875 80.570312 38.941406 82.761719 C 37.480469 84.921875 35.640625 85.289062 34.289062 84.378906 C 32.941406 83.46875 32.511719 81.75 34.050781 79.480469 C 35.539062 77.269531 37.351562 76.949219 38.699219 77.859375 Z M 38.699219 77.859375 "/>
<g clip-path="url(#clip1)" clip-rule="nonzero">
<g clip-path="url(#clip2)" clip-rule="nonzero">
<path style=" stroke:none;fill-rule:nonzero;fill:rgb(100%,100%,100%);fill-opacity:1;" d="M 39.421875 85.96875 L 34.691406 77.859375 L 35.261719 74.800781 L 39.988281 82.910156 Z M 39.421875 85.96875 "/>
</g>
</g>
<path style=" stroke:none;fill-rule:nonzero;fill:rgb(0.392157%,34.117648%,60.784316%);fill-opacity:1;" d="M 47.878906 64.269531 C 49.71875 65.511719 50.179688 68.050781 48.050781 71.199219 C 45.949219 74.308594 43.390625 74.878906 41.550781 73.640625 C 39.710938 72.398438 39.171875 69.96875 41.378906 66.710938 C 43.519531 63.53125 46.039062 63.03125 47.878906 64.269531 Z M 47.878906 64.269531 "/>
<path style=" stroke:none;fill-rule:nonzero;fill:rgb(70.19608%,89.803922%,98.823529%);fill-opacity:1;" d="M 46.921875 65.691406 C 48.269531 66.601562 48.640625 68.398438 47.160156 70.589844 C 45.699219 72.75 43.859375 73.121094 42.511719 72.210938 C 41.160156 71.300781 40.730469 69.578125 42.269531 67.308594 C 43.769531 65.101562 45.570312 64.78125 46.921875 65.691406 Z M 46.921875 65.691406 "/>
<g clip-path="url(#clip3)" clip-rule="nonzero">
<g clip-path="url(#clip4)" clip-rule="nonzero">
<path style=" stroke:none;fill-rule:nonzero;fill:rgb(100%,100%,100%);fill-opacity:1;" d="M 47.640625 73.800781 L 42.910156 65.691406 L 43.488281 62.621094 L 48.21875 70.730469 Z M 47.640625 73.800781 "/>
</g>
</g>
<path style=" stroke:none;fill-rule:nonzero;fill:rgb(0.392157%,34.117648%,60.784316%);fill-opacity:1;" d="M 42.929688 73.859375 L 40.378906 77.628906 L 38.5 76.359375 L 41.050781 72.589844 Z M 42.929688 73.859375 "/>
<path style=" stroke:none;fill-rule:nonzero;fill:rgb(0.392157%,34.117648%,60.784316%);fill-opacity:1;" d="M 47.671875 60.121094 C 48.929688 61.621094 49.03125 63.5 48.628906 65.421875 L 46.75 64.148438 C 47.460938 62.589844 47.320312 60.820312 45.789062 58.851562 Z M 47.671875 60.121094 "/>
<path style=" stroke:none;fill-rule:nonzero;fill:rgb(0.392157%,34.117648%,60.784316%);fill-opacity:1;" d="M 29.398438 87.171875 C 31.269531 87.769531 33.050781 87.160156 34.691406 86.058594 L 32.800781 84.800781 C 31.621094 86.050781 29.921875 86.578125 27.519531 85.910156 Z M 29.398438 87.171875 "/>
<path style=" stroke:none;fill-rule:nonzero;fill:rgb(93.725491%,42.352942%,0%);fill-opacity:1;" d="M 18.160156 59.808594 C 18.160156 59.808594 18.011719 60.019531 17.960938 60.109375 C 17.898438 60.199219 17.769531 60.410156 17.769531 60.410156 C 10.78125 72.121094 15.949219 80.179688 19.820312 83.5 C 24.101562 87.171875 27.988281 88.898438 27.988281 88.898438 C 27.988281 88.898438 27.921875 88.589844 27.878906 88.070312 C 27.839844 87.519531 27.941406 87.011719 27.941406 87.011719 C 27.941406 87.011719 26.691406 81.578125 27.480469 77.058594 C 28.289062 72.449219 33.308594 64.871094 36.730469 62.601562 C 40.351562 60.191406 42.441406 59.128906 46.628906 58.78125 C 46.628906 58.78125 47.058594 58.480469 47.578125 58.308594 C 48.070312 58.140625 48.390625 58.089844 48.390625 58.089844 C 48.390625 58.089844 45.191406 55.371094 40.230469 52.679688 C 36.449219 50.640625 26.578125 48.628906 18.160156 59.808594 Z M 18.160156 59.808594 "/>
<path style=" stroke:none;fill-rule:nonzero;fill:rgb(1.176471%,60.784316%,89.803922%);fill-opacity:1;" d="M 96.011719 89.160156 C 89.949219 89.160156 86.578125 81.96875 80.011719 81.96875 C 73.441406 81.96875 70.078125 89.160156 64.011719 89.160156 C 57.941406 89.160156 54.578125 81.96875 48.011719 81.96875 C 41.441406 81.96875 38.078125 89.160156 32.011719 89.160156 C 25.941406 89.160156 22.578125 81.96875 16.011719 81.96875 C 9.441406 81.96875 6.078125 89.160156 0.0117188 89.160156 L 0.0117188 81.96875 L 0 81.96875 L 0 128 L 127.929688 128 L 127.929688 89.160156 C 121.921875 89.101562 118.550781 81.980469 112.011719 81.980469 C 105.441406 81.980469 102.070312 89.160156 96.011719 89.160156 Z M 96.011719 89.160156 "/>
<path style=" stroke:none;fill-rule:nonzero;fill:rgb(16.078432%,71.372551%,96.470588%);fill-opacity:1;" d="M 127.96875 98.5 C 121.910156 98.5 118.539062 105.691406 111.96875 105.691406 L 127.96875 105.691406 Z M 127.96875 98.5 "/>
<path style=" stroke:none;fill-rule:nonzero;fill:rgb(16.078432%,71.372551%,96.470588%);fill-opacity:1;" d="M 111.96875 105.691406 C 105.398438 105.691406 102.039062 98.5 95.96875 98.5 C 89.910156 98.5 86.539062 105.691406 79.96875 105.691406 Z M 111.96875 105.691406 "/>
<path style=" stroke:none;fill-rule:nonzero;fill:rgb(16.078432%,71.372551%,96.470588%);fill-opacity:1;" d="M 79.980469 105.691406 C 73.410156 105.691406 70.050781 98.5 63.980469 98.5 C 57.910156 98.5 54.550781 105.691406 47.980469 105.691406 Z M 79.980469 105.691406 "/>
<path style=" stroke:none;fill-rule:nonzero;fill:rgb(16.078432%,71.372551%,96.470588%);fill-opacity:1;" d="M 47.988281 105.691406 C 41.421875 105.691406 38.058594 98.5 31.988281 98.5 C 25.921875 98.5 22.558594 105.691406 15.988281 105.691406 Z M 47.988281 105.691406 "/>
<path style=" stroke:none;fill-rule:nonzero;fill:rgb(16.078432%,71.372551%,96.470588%);fill-opacity:1;" d="M 16 105.691406 C 9.429688 105.691406 6.070312 98.5 0 98.5 L 0 105.691406 Z M 16 105.691406 "/>
<path style=" stroke:none;fill-rule:nonzero;fill:rgb(16.078432%,71.372551%,96.470588%);fill-opacity:1;" d="M 128 128 L 0 128 L 0 105.6875 L 128 105.6875 Z M 128 128 "/>
</g>
</svg>
