<?xml version="1.0" encoding="UTF-8"?>
<svg xmlns="http://www.w3.org/2000/svg" xmlns:xlink="http://www.w3.org/1999/xlink" width="128px" height="128px" viewBox="0 0 128 128" version="1.1">
<g id="surface1">
<path style=" stroke:none;fill-rule:nonzero;fill:rgb(98.823529%,76.078433%,10.588235%);fill-opacity:1;" d="M 113.191406 61.050781 L 115.949219 70.441406 C 115.949219 70.441406 123.660156 68.730469 124.078125 73.839844 C 124.488281 78.960938 116.878906 82.378906 116.878906 82.378906 L 119.28125 93.648438 C 119.28125 93.648438 127.679688 86.851562 127.808594 77.101562 C 127.808594 77.101562 128.550781 65.109375 121.351562 62.300781 C 116.828125 60.550781 113.191406 61.050781 113.191406 61.050781 Z M 113.191406 61.050781 "/>
<path style=" stroke:none;fill-rule:nonzero;fill:rgb(98.823529%,76.078433%,10.588235%);fill-opacity:1;" d="M 69 96.851562 C 69 96.851562 57.210938 91.851562 51.449219 98.910156 C 50.660156 99.878906 49.910156 100.878906 49.160156 101.878906 C 48.558594 102.671875 47.96875 103.46875 47.320312 104.21875 C 46.789062 104.828125 46.210938 105.410156 45.539062 105.859375 C 44.878906 106.300781 44.148438 106.601562 43.378906 106.769531 C 42.410156 106.96875 41.398438 106.96875 40.421875 106.890625 C 39.011719 106.769531 37.609375 106.5 36.230469 106.179688 C 35.78125 106.078125 35.328125 105.96875 34.890625 105.851562 C 34.78125 105.820312 34.660156 105.789062 34.539062 105.761719 C 34.46875 105.738281 34.320312 105.671875 34.25 105.679688 C 33.828125 105.769531 34.5 106.5 34.621094 106.640625 C 34.898438 106.988281 35.199219 107.320312 35.519531 107.628906 C 36.378906 108.46875 37.351562 109.179688 38.410156 109.730469 C 39.769531 110.429688 41.269531 110.851562 42.800781 110.960938 C 42.941406 110.96875 43.179688 110.960938 43.261719 111.089844 C 43.429688 111.339844 42.980469 111.570312 42.789062 111.679688 C 42.53125 111.839844 42.261719 111.980469 41.980469 112.101562 C 41.070312 112.488281 40.101562 112.730469 39.128906 112.910156 C 38.261719 113.070312 37.371094 113.171875 36.488281 113.238281 C 36.039062 113.269531 35.601562 113.300781 35.160156 113.320312 C 34.878906 113.328125 34.539062 113.261719 34.269531 113.359375 C 33.921875 113.480469 34.390625 113.820312 34.539062 113.921875 C 34.921875 114.171875 35.320312 114.398438 35.71875 114.621094 C 36.871094 115.238281 38.089844 115.71875 39.351562 116.050781 C 40.941406 116.460938 42.609375 116.609375 44.25 116.429688 C 45.671875 116.28125 47.050781 115.878906 48.351562 115.289062 C 55.589844 111.980469 54.96875 105.050781 61.601562 104.53125 C 66.46875 104.148438 73.378906 106.710938 73.378906 106.710938 Z M 69 96.851562 "/>
<path style=" stroke:none;fill-rule:nonzero;fill:rgb(98.823529%,76.078433%,10.588235%);fill-opacity:1;" d="M 16.980469 36.449219 C 16.980469 36.449219 4.03125 38.578125 0.730469 50.089844 C -3.480469 64.800781 17.429688 69.710938 17.429688 69.710938 L 18.738281 59.71875 C 18.738281 59.71875 4.808594 58.328125 5.621094 52.988281 C 6.621094 46.410156 18.191406 47.019531 18.191406 47.019531 Z M 16.980469 36.449219 "/>
<path style=" stroke:none;fill-rule:nonzero;fill:rgb(98.823529%,76.078433%,10.588235%);fill-opacity:1;" d="M 18.03125 71.25 C 18.03125 71.25 16.039062 71.851562 13.089844 73.898438 C 11.070312 75.308594 8.390625 77.089844 5.808594 80.160156 C 4.519531 81.691406 3.46875 83.429688 2.820312 85.328125 C 2.371094 86.621094 2.109375 87.96875 2.089844 89.328125 C 2.089844 89.621094 2.089844 89.910156 2.101562 90.191406 C 2.109375 90.320312 2.109375 91.050781 2.429688 90.859375 C 2.539062 90.800781 2.640625 90.46875 2.699219 90.359375 C 2.949219 89.898438 3.230469 89.449219 3.539062 89.03125 C 4.410156 87.800781 5.5 86.71875 6.738281 85.871094 C 7.128906 85.601562 7.539062 85.351562 7.960938 85.128906 C 8.160156 85.03125 8.699219 84.578125 8.851562 84.96875 C 8.921875 85.160156 8.75 85.511719 8.691406 85.699219 C 8.601562 86.03125 8.519531 86.351562 8.441406 86.679688 C 8.070312 88.25 7.800781 89.851562 7.691406 91.460938 C 7.628906 92.328125 7.621094 93.21875 7.671875 94.089844 C 7.691406 94.53125 7.738281 94.96875 7.800781 95.410156 C 7.828125 95.621094 7.871094 95.828125 7.910156 96.039062 C 7.949219 96.261719 8.160156 96.5 8.308594 96.21875 C 8.371094 96.101562 8.429688 95.96875 8.488281 95.839844 C 8.648438 95.511719 8.808594 95.179688 8.980469 94.851562 C 9.460938 93.910156 9.980469 93 10.53125 92.101562 C 11.25 90.949219 12.019531 89.828125 12.851562 88.761719 C 13.800781 87.539062 14.839844 86.378906 15.949219 85.320312 C 17.148438 84.179688 18.449219 83.148438 19.851562 82.269531 C 20.679688 81.738281 21.558594 81.269531 22.46875 80.878906 Z M 18.03125 71.25 "/>
<path style=" stroke:none;fill-rule:nonzero;fill:rgb(0%,42.352942%,63.529414%);fill-opacity:1;" d="M 119.710938 80.078125 C 118.480469 74.160156 116.789062 68.339844 114.871094 62.609375 C 113.230469 57.710938 111.609375 52.75 108.691406 48.441406 C 107.421875 46.578125 105.441406 45.28125 103.140625 44.371094 C 98.511719 42.550781 92.589844 42.289062 88.570312 42.25 C 82.578125 42.199219 76.339844 43.550781 70.730469 46.191406 C 68.769531 52.199219 63.179688 67.421875 54.941406 74.21875 C 55.449219 77.070312 56.078125 79.898438 56.859375 82.691406 C 58.230469 87.628906 60.058594 92.488281 61.738281 97.339844 C 63.359375 102 65.289062 106.730469 68.730469 110.378906 C 69.628906 111.339844 70.691406 112.128906 71.699219 112.96875 C 74.089844 114.960938 76.96875 116.199219 79.910156 117.128906 C 82.640625 118 85.429688 118.71875 88.21875 119.351562 C 93.230469 120.480469 100.429688 122.320312 105.308594 120.03125 C 107.980469 118.78125 110.191406 116.960938 112 114.621094 C 113.871094 112.199219 115.378906 109.511719 116.710938 106.75 C 118.71875 102.539062 120.820312 97.808594 121.140625 93.101562 C 121.449219 88.71875 120.601562 84.351562 119.710938 80.078125 Z M 93.601562 63.730469 C 98.101562 66.671875 103.890625 67.449219 109.089844 67.160156 C 110.628906 67.078125 111.460938 67.238281 111.058594 68.988281 C 110.28125 72.460938 106.96875 74.519531 103.761719 75.238281 C 102.949219 75.421875 102.160156 75.460938 101.390625 75.398438 C 99.851562 75.269531 98.359375 74.660156 97.089844 73.769531 C 94.320312 71.839844 92.21875 68.578125 91.601562 65.238281 C 91.269531 63.480469 91.921875 62.640625 93.601562 63.730469 Z M 65.300781 81.691406 C 64.011719 80.351562 64.660156 79.761719 66.089844 79.011719 C 70.910156 76.480469 75.671875 72.691406 78.148438 67.671875 C 79.070312 65.808594 80.101562 66.210938 80.738281 67.929688 C 81.960938 71.230469 81.800781 75.25 80.351562 78.441406 C 79.679688 79.921875 78.679688 81.25 77.359375 82.191406 C 76.699219 82.660156 75.96875 83.039062 75.148438 83.308594 C 71.898438 84.410156 67.851562 84.351562 65.300781 81.691406 Z M 112.878906 98.339844 C 112.441406 98.308594 111.878906 97.980469 111.351562 97.621094 C 110.859375 97.300781 110.378906 96.941406 110.019531 96.761719 C 108.769531 96.128906 107.46875 95.589844 106.140625 95.148438 C 102.148438 93.828125 97.78125 93.871094 93.789062 95.179688 C 90.96875 96.109375 88.28125 97.761719 86.140625 99.808594 C 83.761719 102.089844 81.988281 104.929688 79.679688 107.269531 C 79.421875 107.53125 79.101562 107.890625 78.769531 108.039062 C 78.171875 108.328125 77.519531 107.960938 77.371094 107.351562 C 76.339844 103.160156 79.179688 97.210938 81.269531 93.699219 C 83.640625 89.730469 87.128906 86.5 91.628906 85.160156 C 93.851562 84.5 96.21875 84.441406 98.488281 84.800781 C 105.179688 85.839844 112.078125 91.148438 113.429688 97.171875 C 113.511719 97.558594 113.398438 98.378906 112.878906 98.339844 Z M 112.878906 98.339844 "/>
<path style=" stroke:none;fill-rule:nonzero;fill:rgb(84.313726%,34.901962%,54.509807%);fill-opacity:1;" d="M 78.539062 31.480469 C 78.25 30.328125 77.421875 29.300781 76.839844 28.289062 C 70.121094 16.589844 55.511719 10.949219 42.539062 11.808594 C 38.53125 12.070312 32.628906 12.660156 28.121094 14.75 C 25.871094 15.789062 23.96875 17.199219 22.808594 19.128906 C 20.128906 23.601562 18.800781 28.648438 17.441406 33.628906 C 15.839844 39.460938 14.480469 45.371094 13.589844 51.351562 C 12.820312 56.550781 12.101562 62.289062 13.488281 67.449219 C 14.589844 71.511719 16.988281 77.261719 19.609375 80.539062 C 22.46875 84.121094 26.570312 88.300781 30.960938 89.949219 C 31.800781 90.269531 32.691406 90.480469 33.570312 90.648438 C 35.269531 90.988281 37.070312 91.179688 38.800781 90.898438 C 39.839844 90.730469 40.890625 90.621094 41.898438 90.351562 C 43.898438 89.820312 45.78125 89.171875 47.691406 88.398438 C 55.730469 85.191406 62.21875 80.539062 66.480469 72.898438 C 68.328125 69.589844 69.808594 66.101562 71.140625 62.550781 C 71.21875 62.339844 71.289062 62.140625 71.371094 61.929688 C 73.5 56.121094 74.851562 50.070312 76.320312 44.070312 C 77.039062 41.128906 77.859375 38.210938 78.25 35.199219 C 78.421875 33.960938 78.851562 32.730469 78.539062 31.480469 Z M 20.511719 38.910156 C 22.320312 35.601562 26.621094 33.050781 30.441406 33.46875 C 31.078125 33.539062 31.710938 33.699219 32.308594 33.941406 C 36.089844 35.5 38.390625 39.21875 37.5 43.058594 C 37.308594 43.871094 36.769531 43.988281 36.171875 43.480469 C 34.101562 41.710938 32.390625 40.328125 29.558594 39.601562 C 27.261719 39.011719 24.710938 39.308594 22.449219 39.910156 C 21.960938 40.039062 21.121094 40.5 20.621094 40.28125 C 20.050781 40.039062 20.28125 39.320312 20.511719 38.910156 Z M 62.078125 64.851562 C 60.960938 66.578125 59.488281 68.070312 57.988281 69.449219 C 57.628906 69.78125 57.269531 70.101562 56.898438 70.410156 C 50.949219 75.410156 42.828125 77.898438 35.089844 76.03125 C 32.980469 75.519531 30.699219 74.449219 28.988281 73.121094 C 27.648438 72.078125 26.378906 70.808594 25.28125 69.511719 C 23.269531 67.148438 21.789062 64.320312 20.820312 61.390625 C 20.339844 59.941406 20 58.449219 19.828125 56.941406 C 19.78125 56.460938 19.171875 51.191406 20.738281 51.839844 C 21.109375 51.988281 21.429688 52.300781 21.699219 52.648438 C 22 53.019531 22.25 53.429688 22.5 53.75 C 23.199219 54.640625 23.921875 55.53125 24.660156 56.390625 C 27.191406 59.300781 30.269531 61.621094 33.789062 63.199219 C 36.179688 64.269531 38.78125 64.878906 41.378906 65.128906 C 42.839844 65.269531 44.308594 65.300781 45.769531 65.21875 C 51.179688 64.941406 56.671875 63.359375 61.609375 61.171875 C 62.019531 60.988281 62.519531 60.671875 62.980469 60.679688 C 64.660156 60.699219 62.390625 64.371094 62.078125 64.851562 Z M 67.820312 50.160156 C 67.78125 50.621094 67.601562 51.351562 67.039062 51.238281 C 66.558594 51.140625 66.160156 50.289062 65.859375 49.910156 C 64.460938 48.140625 61.730469 46.121094 59.078125 45.46875 C 55.828125 44.671875 53.480469 46.039062 50.28125 46.390625 C 49.351562 46.488281 48.898438 46.089844 49.25 45.308594 C 50.941406 41.609375 55.441406 38.738281 60.179688 39.511719 C 60.929688 39.628906 61.648438 39.851562 62.328125 40.140625 C 66.371094 41.878906 68.109375 46.410156 67.820312 50.160156 Z M 67.820312 50.160156 "/>
</g>
</svg>
