<?xml version="1.0" encoding="UTF-8"?>
<svg xmlns="http://www.w3.org/2000/svg" xmlns:xlink="http://www.w3.org/1999/xlink" width="128px" height="128px" viewBox="0 0 128 128" version="1.1">
<g id="surface1">
<path style=" stroke:none;fill-rule:nonzero;fill:rgb(87.843138%,37.64706%,33.333334%);fill-opacity:1;" d="M 127.800781 43.5 L 127.800781 35 C 122.851562 35 118.800781 30.949219 118.800781 26 L 9.199219 26 L 9.199219 26.289062 C 9.039062 31.109375 5.058594 35 0.210938 35 L 0.210938 43.5 C 3.730469 44.730469 6.269531 48.070312 6.269531 52 C 6.269531 55.929688 3.71875 59.269531 0.210938 60.5 L 0.210938 69.511719 C 3.730469 70.738281 6.269531 74.078125 6.269531 78.011719 C 6.269531 81.929688 3.71875 85.28125 0.210938 86.511719 L 0.210938 95 C 5.078125 95 9.039062 98.871094 9.191406 103.710938 L 9.191406 104 L 118.789062 104 C 118.789062 104 118.789062 104 118.789062 103.988281 C 118.789062 99.019531 122.820312 95 127.789062 95 L 127.789062 86.5 C 124.269531 85.269531 121.730469 81.929688 121.730469 78 C 121.730469 74.078125 124.28125 70.730469 127.789062 69.5 L 127.789062 60.5 C 124.269531 59.269531 121.730469 55.929688 121.730469 52 C 121.730469 48.070312 124.28125 44.730469 127.800781 43.5 Z M 127.800781 43.5 "/>
<path style="fill:none;stroke-width:4.9471;stroke-linecap:butt;stroke-linejoin:miter;stroke:rgb(85.882354%,26.666668%,21.568628%);stroke-opacity:1;stroke-miterlimit:10;" d="M 107.628906 95.328125 L 20.371094 95.328125 C 18.789062 95.328125 17.5 94.039062 17.5 92.460938 L 17.5 38.199219 C 17.5 36.621094 18.789062 35.328125 20.371094 35.328125 L 107.621094 35.328125 C 109.199219 35.328125 110.488281 36.621094 110.488281 38.199219 L 110.488281 92.449219 C 110.5 94.03125 109.210938 95.328125 107.628906 95.328125 Z M 107.628906 95.328125 "/>
<path style="fill:none;stroke-width:4.9471;stroke-linecap:butt;stroke-linejoin:miter;stroke:rgb(85.882354%,26.666668%,21.568628%);stroke-opacity:1;stroke-miterlimit:10;" d="M 42.808594 35.710938 L 42.808594 95.710938 "/>
<path style="fill:none;stroke-width:4.9471;stroke-linecap:butt;stroke-linejoin:miter;stroke:rgb(85.882354%,26.666668%,21.568628%);stroke-opacity:1;stroke-miterlimit:10;" d="M 84.761719 35.328125 L 84.761719 95.328125 "/>
</g>
</svg>
