<?xml version="1.0" encoding="UTF-8"?>
<svg xmlns="http://www.w3.org/2000/svg" xmlns:xlink="http://www.w3.org/1999/xlink" width="128px" height="128px" viewBox="0 0 128 128" version="1.1">
<g id="surface1">
<path style=" stroke:none;fill-rule:nonzero;fill:rgb(38.039216%,38.039216%,38.039216%);fill-opacity:1;" d="M 31.980469 46.210938 L 31.980469 38.550781 C 31.980469 35.070312 34.800781 32.25 38.28125 32.25 L 104.679688 32.25 C 108.160156 32.25 110.980469 35.070312 110.980469 38.550781 L 110.980469 46.210938 C 110.980469 49.691406 108.160156 52.511719 104.679688 52.511719 L 38.28125 52.511719 C 34.800781 52.511719 31.980469 49.691406 31.980469 46.210938 Z M 31.980469 46.210938 "/>
<path style=" stroke:none;fill-rule:nonzero;fill:rgb(38.039216%,38.039216%,38.039216%);fill-opacity:1;" d="M 31.980469 94.421875 L 31.980469 86.761719 C 31.980469 83.28125 34.800781 80.460938 38.28125 80.460938 L 104.679688 80.460938 C 108.160156 80.460938 110.980469 83.28125 110.980469 86.761719 L 110.980469 94.421875 C 110.980469 97.898438 108.160156 100.71875 104.679688 100.71875 L 38.28125 100.71875 C 34.800781 100.710938 31.980469 97.890625 31.980469 94.421875 Z M 31.980469 94.421875 "/>
<path style=" stroke:none;fill-rule:nonzero;fill:rgb(45.882353%,45.882353%,46.27451%);fill-opacity:1;" d="M 74.058594 99.460938 L 74.058594 31.25 C 74.058594 16.851562 62.390625 5.179688 48 5.179688 C 33.609375 5.179688 21.941406 16.851562 21.941406 31.238281 L 21.941406 99.449219 C 21.941406 113.839844 33.609375 125.511719 48 125.511719 C 62.390625 125.519531 74.058594 113.851562 74.058594 99.460938 Z M 74.058594 99.460938 "/>
<path style=" stroke:none;fill-rule:nonzero;fill:rgb(92.941177%,92.54902%,89.411765%);fill-opacity:1;" d="M 68.761719 96.75 L 68.761719 28.539062 C 68.761719 14.148438 57.089844 2.480469 42.699219 2.480469 C 28.308594 2.480469 16.640625 14.148438 16.640625 28.539062 L 16.640625 96.75 C 16.640625 111.140625 28.308594 122.808594 42.699219 122.808594 C 57.089844 122.820312 68.761719 111.148438 68.761719 96.75 Z M 68.761719 96.75 "/>
<path style=" stroke:none;fill-rule:nonzero;fill:rgb(29.803923%,68.627453%,31.37255%);fill-opacity:1;" d="M 57.039062 97.929688 C 57.039062 90.011719 50.621094 83.589844 42.699219 83.589844 C 34.78125 83.589844 28.359375 90.011719 28.359375 97.929688 C 28.359375 105.851562 34.78125 112.269531 42.699219 112.269531 C 50.621094 112.269531 57.039062 105.851562 57.039062 97.929688 Z M 57.039062 97.929688 "/>
<path style=" stroke:none;fill-rule:nonzero;fill:rgb(98.823529%,76.078433%,10.588235%);fill-opacity:1;" d="M 57.039062 62.648438 C 57.039062 54.730469 50.621094 48.308594 42.699219 48.308594 C 34.78125 48.308594 28.359375 54.730469 28.359375 62.648438 C 28.359375 70.570312 34.78125 76.988281 42.699219 76.988281 C 50.621094 76.988281 57.039062 70.570312 57.039062 62.648438 Z M 57.039062 62.648438 "/>
<path style=" stroke:none;fill-rule:nonzero;fill:rgb(89.411765%,24.705882%,6.666667%);fill-opacity:1;" d="M 57.039062 27.371094 C 57.039062 19.449219 50.621094 13.03125 42.699219 13.03125 C 34.78125 13.03125 28.359375 19.449219 28.359375 27.371094 C 28.359375 35.289062 34.78125 41.710938 42.699219 41.710938 C 50.621094 41.710938 57.039062 35.289062 57.039062 27.371094 Z M 57.039062 27.371094 "/>
</g>
</svg>
