<?xml version="1.0" encoding="UTF-8"?>
<svg xmlns="http://www.w3.org/2000/svg" xmlns:xlink="http://www.w3.org/1999/xlink" width="128px" height="128px" viewBox="0 0 128 128" version="1.1">
<defs>
<clipPath id="clip1">
  <path d="M 40 1 L 73 1 L 73 49 L 40 49 Z M 40 1 "/>
</clipPath>
<clipPath id="clip2">
  <path d="M 41.160156 18.550781 C 41.710938 15 47.230469 1.921875 55.671875 1.378906 C 61.460938 1.011719 68.261719 6.300781 69.96875 14.488281 C 71.621094 22.390625 73.800781 30.609375 70.03125 38.039062 C 66.910156 44.21875 59.789062 51.511719 52.21875 46.988281 C 43.730469 41.921875 39.511719 29.121094 41.160156 18.550781 Z M 41.160156 18.550781 "/>
</clipPath>
<clipPath id="clip3">
  <path d="M 45 8 L 69 8 L 69 44 L 45 44 Z M 45 8 "/>
</clipPath>
<clipPath id="clip4">
  <path d="M 41.160156 18.550781 C 41.710938 15 47.230469 1.921875 55.671875 1.378906 C 61.460938 1.011719 68.261719 6.300781 69.96875 14.488281 C 71.621094 22.390625 73.800781 30.609375 70.03125 38.039062 C 66.910156 44.21875 59.789062 51.511719 52.21875 46.988281 C 43.730469 41.921875 39.511719 29.121094 41.160156 18.550781 Z M 41.160156 18.550781 "/>
</clipPath>
<clipPath id="clip5">
  <path d="M 24 4 L 69 4 L 69 81 L 24 81 Z M 24 4 "/>
</clipPath>
<clipPath id="clip6">
  <path d="M 25.800781 49.140625 C 22.429688 23.550781 27.238281 11.351562 31.078125 6.929688 C 32.839844 4.898438 35.101562 4.109375 37.660156 5.089844 C 49.328125 9.570312 61.558594 34.421875 64.828125 43.199219 C 65.921875 46.128906 73.601562 72.339844 62.199219 79.398438 C 59.75 80.910156 56.890625 80.789062 54.089844 80.789062 C 51.558594 80.789062 37.46875 79.46875 30.679688 65.699219 C 29.730469 63.789062 27 58.308594 25.800781 49.140625 Z M 25.800781 49.140625 "/>
</clipPath>
<clipPath id="clip7">
  <path d="M 24 13 L 69 13 L 69 81 L 24 81 Z M 24 13 "/>
</clipPath>
<clipPath id="clip8">
  <path d="M 25.800781 49.140625 C 22.429688 23.550781 27.238281 11.351562 31.078125 6.929688 C 32.839844 4.898438 35.101562 4.109375 37.660156 5.089844 C 49.328125 9.570312 61.558594 34.421875 64.828125 43.199219 C 65.921875 46.128906 73.601562 72.339844 62.199219 79.398438 C 59.75 80.910156 56.890625 80.789062 54.089844 80.789062 C 51.558594 80.789062 37.46875 79.46875 30.679688 65.699219 C 29.730469 63.789062 27 58.308594 25.800781 49.140625 Z M 25.800781 49.140625 "/>
</clipPath>
<clipPath id="clip9">
  <path d="M 53 0 L 95 0 L 95 80 L 53 80 Z M 53 0 "/>
</clipPath>
<clipPath id="clip10">
  <path d="M 94.648438 41.390625 C 92.238281 15.699219 84.828125 4.871094 80.109375 1.410156 C 77.941406 -0.179688 75.558594 -0.441406 73.289062 1.078125 C 62.898438 8.050781 55.761719 27.070312 54 44.039062 C 53.679688 47.140625 53.199219 74.648438 65.878906 78.988281 C 68.601562 79.921875 71.371094 79.160156 74.109375 78.53125 C 76.570312 77.96875 90.019531 73.550781 93.578125 58.609375 C 94.058594 56.550781 95.511719 50.589844 94.648438 41.390625 Z M 94.648438 41.390625 "/>
</clipPath>
<clipPath id="clip11">
  <path d="M 53 4 L 95 4 L 95 80 L 53 80 Z M 53 4 "/>
</clipPath>
<clipPath id="clip12">
  <path d="M 94.648438 41.390625 C 92.238281 15.699219 84.828125 4.871094 80.109375 1.410156 C 77.941406 -0.179688 75.558594 -0.441406 73.289062 1.078125 C 62.898438 8.050781 55.761719 27.070312 54 44.039062 C 53.679688 47.140625 53.199219 74.648438 65.878906 78.988281 C 68.601562 79.921875 71.371094 79.160156 74.109375 78.53125 C 76.570312 77.96875 90.019531 73.550781 93.578125 58.609375 C 94.058594 56.550781 95.511719 50.589844 94.648438 41.390625 Z M 94.648438 41.390625 "/>
</clipPath>
<clipPath id="clip13">
  <path d="M 48 77 L 104 77 L 104 128 L 48 128 Z M 48 77 "/>
</clipPath>
<clipPath id="clip14">
  <path d="M 48.898438 121.960938 C 50.75 116.269531 66.46875 100 91.480469 83.058594 C 92.449219 82.398438 97.949219 78.960938 101.089844 78.109375 C 102.96875 77.601562 104.03125 78.058594 102.808594 80.699219 C 96.808594 93.710938 88.21875 114.929688 73.578125 123.96875 C 67.429688 127.769531 61.640625 127.519531 57.78125 127.878906 C 55.398438 128.101562 46.949219 127.949219 48.898438 121.960938 Z M 48.898438 121.960938 "/>
</clipPath>
</defs>
<g id="surface1">
<g clip-path="url(#clip1)" clip-rule="nonzero">
<g clip-path="url(#clip2)" clip-rule="nonzero">
<path style=" stroke:none;fill-rule:nonzero;fill:rgb(96.862745%,57.647061%,16.078432%);fill-opacity:1;" d="M 37.539062 21.328125 C 38.21875 16.871094 45.171875 0.421875 55.789062 -0.261719 C 63.078125 -0.730469 71.621094 5.929688 73.769531 16.230469 C 75.839844 26.160156 78.589844 36.5 73.859375 45.839844 C 69.921875 53.609375 60.980469 62.78125 51.460938 57.101562 C 40.78125 50.71875 35.46875 34.628906 37.539062 21.328125 Z M 37.539062 21.328125 "/>
</g>
</g>
<g clip-path="url(#clip3)" clip-rule="nonzero">
<g clip-path="url(#clip4)" clip-rule="nonzero">
<path style=" stroke:none;fill-rule:nonzero;fill:rgb(92.941177%,42.352942%,18.82353%);fill-opacity:1;" d="M 45.261719 21.648438 C 45.671875 19.011719 49.78125 9.28125 56.058594 8.871094 C 60.378906 8.589844 65.429688 12.53125 66.699219 18.628906 C 67.929688 24.511719 69.550781 30.628906 66.75 36.160156 C 64.421875 40.761719 59.121094 46.191406 53.488281 42.828125 C 47.171875 39.039062 44.039062 29.519531 45.261719 21.648438 Z M 45.261719 21.648438 "/>
</g>
</g>
<path style=" stroke:none;fill-rule:nonzero;fill:rgb(45.882353%,49.803922%,24.705882%);fill-opacity:1;" d="M 64.128906 114.199219 C 64 114.671875 63.828125 115.128906 63.648438 115.578125 C 63.320312 116.410156 62.988281 117.238281 62.640625 118.070312 C 62.339844 118.75 62.039062 119.589844 61.269531 119.878906 C 60.300781 120.25 59.078125 120.078125 58.109375 119.800781 C 54.078125 118.621094 55.5 114.839844 56.148438 111.910156 C 57.449219 106 58.691406 100.019531 59.109375 93.988281 C 59.550781 87.761719 59.128906 81.519531 59.128906 75.28125 C 59.128906 75.160156 59.140625 72.628906 59.039062 72.628906 L 66.988281 72.628906 C 66.988281 73.601562 66.988281 74.578125 66.988281 75.550781 C 66.988281 80.070312 67 84.578125 66.898438 89.089844 C 66.710938 97.441406 66.539062 106.089844 64.128906 114.199219 Z M 64.128906 114.199219 "/>
<g clip-path="url(#clip5)" clip-rule="nonzero">
<g clip-path="url(#clip6)" clip-rule="nonzero">
<path style=" stroke:none;fill-rule:nonzero;fill:rgb(96.862745%,57.647061%,16.078432%);fill-opacity:1;" d="M 20.46875 46.359375 C 16.78125 14.058594 24.488281 -1.671875 30.371094 -7.46875 C 33.078125 -10.140625 36.449219 -11.25 40.179688 -10.128906 C 57.191406 -5.03125 74.011719 25.890625 78.378906 36.871094 C 79.851562 40.53125 89.890625 73.421875 72.710938 82.941406 C 69.019531 84.980469 64.789062 84.960938 60.648438 85.101562 C 56.929688 85.230469 36.191406 84.25 26.839844 67.109375 C 25.558594 64.761719 21.789062 57.929688 20.46875 46.359375 Z M 20.46875 46.359375 "/>
</g>
</g>
<g clip-path="url(#clip7)" clip-rule="nonzero">
<g clip-path="url(#clip8)" clip-rule="nonzero">
<path style=" stroke:none;fill-rule:nonzero;fill:rgb(92.941177%,42.352942%,18.82353%);fill-opacity:1;" d="M 25.238281 52.890625 C 21.761719 32.761719 25.109375 21.878906 28.070312 17.398438 C 31 12.949219 34 13.5 36.5 14.050781 C 47.949219 16.570312 62.140625 40.128906 65.398438 46.851562 C 66.480469 49.089844 74.21875 72.871094 63.148438 79.550781 C 60.761719 80.96875 57.960938 81.140625 55.21875 81.390625 C 52.761719 81.628906 38.988281 81.851562 32.25 71.46875 C 31.308594 70.039062 26.480469 60.101562 25.238281 52.890625 Z M 25.238281 52.890625 "/>
</g>
</g>
<g clip-path="url(#clip9)" clip-rule="nonzero">
<g clip-path="url(#clip10)" clip-rule="nonzero">
<path style=" stroke:none;fill-rule:nonzero;fill:rgb(96.862745%,57.647061%,16.078432%);fill-opacity:1;" d="M 99.21875 37.5 C 95.628906 5.191406 84.621094 -8.429688 77.601562 -12.789062 C 74.371094 -14.789062 70.828125 -15.121094 67.449219 -13.199219 C 52 -4.429688 42.46875 29.449219 40.648438 41.128906 C 40.039062 45.019531 37.558594 79.320312 56.429688 84.78125 C 60.488281 85.949219 64.601562 84.988281 68.671875 84.210938 C 72.320312 83.511719 92.328125 77.949219 97.628906 59.160156 C 98.339844 56.570312 100.5 49.078125 99.21875 37.5 Z M 99.21875 37.5 "/>
</g>
</g>
<g clip-path="url(#clip11)" clip-rule="nonzero">
<g clip-path="url(#clip12)" clip-rule="nonzero">
<path style=" stroke:none;fill-rule:nonzero;fill:rgb(92.941177%,42.352942%,18.82353%);fill-opacity:1;" d="M 99.058594 46.589844 C 97.828125 26.191406 91.019531 17.5 89.160156 13.421875 C 82.578125 -1.070312 75.378906 5.28125 72.011719 8.738281 C 66.71875 14.171875 60.160156 23.878906 56.71875 34.011719 C 56.089844 35.878906 53.828125 44.238281 53.378906 52.921875 C 52.738281 65.28125 55.371094 78.640625 63.609375 81.019531 C 66.621094 81.878906 69.78125 81.410156 72.898438 81.050781 C 75.699219 80.730469 91.089844 77.890625 95.960938 66.269531 C 96.648438 64.671875 99.511719 53.890625 99.058594 46.589844 Z M 99.058594 46.589844 "/>
</g>
</g>
<path style=" stroke:none;fill-rule:nonzero;fill:rgb(45.882353%,49.803922%,24.705882%);fill-opacity:1;" d="M 48.898438 121.960938 C 50.75 116.269531 66.46875 100 91.480469 83.058594 C 92.449219 82.398438 97.949219 78.960938 101.089844 78.109375 C 102.96875 77.601562 104.03125 78.058594 102.808594 80.699219 C 96.808594 93.710938 88.21875 114.929688 73.578125 123.96875 C 67.429688 127.769531 61.640625 127.519531 57.78125 127.878906 C 55.398438 128.101562 46.949219 127.949219 48.898438 121.960938 Z M 48.898438 121.960938 "/>
<g clip-path="url(#clip13)" clip-rule="nonzero">
<g clip-path="url(#clip14)" clip-rule="nonzero">
<path style=" stroke:none;fill-rule:nonzero;fill:rgb(74.117649%,81.176472%,27.450982%);fill-opacity:1;" d="M 54.109375 127.789062 C 54.109375 127.789062 54.75 124.5 58.109375 119.800781 C 66.75 107.691406 98.371094 79.160156 104.460938 78.941406 L 104.191406 73.140625 C 104.191406 73.140625 76.238281 81.839844 52.488281 110.859375 C 52.488281 110.859375 45.109375 114.820312 45.109375 129.320312 Z M 54.109375 127.789062 "/>
</g>
</g>
<path style=" stroke:none;fill-rule:nonzero;fill:rgb(92.941177%,42.352942%,18.82353%);fill-opacity:1;" d="M 74.101562 78.53125 C 74.101562 78.53125 66.101562 82.238281 54.089844 80.789062 C 54.089844 80.789062 39.449219 52.328125 53.890625 47.789062 L 75.890625 50.28125 Z M 74.101562 78.53125 "/>
</g>
</svg>
