<?xml version="1.0" encoding="UTF-8"?>
<svg xmlns="http://www.w3.org/2000/svg" xmlns:xlink="http://www.w3.org/1999/xlink" width="128px" height="128px" viewBox="0 0 128 128" version="1.1">
<g id="surface1">
<path style=" stroke:none;fill-rule:nonzero;fill:rgb(90.588236%,29.411766%,54.901963%);fill-opacity:1;" d="M 51.089844 24.808594 C 51.089844 24.808594 40.109375 22.300781 31.191406 26.050781 C 22.828125 29.570312 21.640625 36.28125 22.390625 40.128906 C 23.140625 43.980469 25.558594 47.351562 30.410156 47.660156 C 33.71875 47.871094 34.839844 45.96875 34.378906 45.171875 C 34.140625 44.761719 30.628906 42.539062 32.238281 39.769531 C 33.589844 37.460938 38.140625 39.589844 39.441406 41.601562 C 40.660156 43.480469 42.261719 46.199219 42.261719 46.199219 C 42.261719 46.199219 56.058594 40.289062 55.769531 39.910156 C 55.480469 39.53125 51.089844 24.808594 51.089844 24.808594 Z M 51.089844 24.808594 "/>
<path style=" stroke:none;fill-rule:nonzero;fill:rgb(98.823529%,84.705883%,9.019608%);fill-opacity:1;" d="M 50.429688 32.511719 L 46.109375 28.660156 L 39.03125 37.25 L 43.058594 43.53125 L 53.339844 39.03125 Z M 50.429688 32.511719 "/>
<path style=" stroke:none;fill-rule:nonzero;fill:rgb(93.725491%,49.803922%,67.843139%);fill-opacity:1;" d="M 28.851562 36.261719 C 28.308594 37.851562 28.789062 40.398438 26.789062 40.621094 C 24.730469 40.851562 23.238281 38.359375 24.488281 34.378906 C 25.570312 30.949219 29.828125 28.910156 31.480469 31.710938 C 32.691406 33.769531 29.828125 33.351562 28.851562 36.261719 Z M 28.851562 36.261719 "/>
<path style=" stroke:none;fill-rule:nonzero;fill:rgb(73.333335%,81.568629%,27.843139%);fill-opacity:1;" d="M 38.839844 21.011719 C 38.558594 21.480469 33.679688 28.660156 33.679688 28.660156 L 38.371094 36.121094 L 44 33.261719 L 45.171875 27.578125 Z M 38.839844 21.011719 "/>
<path style=" stroke:none;fill-rule:nonzero;fill:rgb(38.431373%,64.705884%,65.882355%);fill-opacity:1;" d="M 33.488281 15.519531 L 29.21875 20.910156 L 33.398438 28.191406 L 37.289062 26.261719 L 39.078125 21.148438 Z M 33.488281 15.519531 "/>
<path style=" stroke:none;fill-rule:nonzero;fill:rgb(21.960784%,69.803923%,90.980393%);fill-opacity:1;" d="M 27.671875 9.648438 L 24.71875 12.75 L 29.078125 20.589844 L 31.570312 18.761719 L 33.300781 15.28125 Z M 27.671875 9.648438 "/>
<path style=" stroke:none;fill-rule:nonzero;fill:rgb(63.921571%,48.235294%,79.607844%);fill-opacity:1;" d="M 22.039062 5.761719 C 21.03125 6.769531 24.710938 12.710938 24.710938 12.710938 C 24.710938 12.710938 27.429688 9.609375 27.429688 9.429688 C 27.441406 9.230469 23.210938 4.578125 22.039062 5.761719 Z M 22.039062 5.761719 "/>
<path style=" stroke:none;fill-rule:nonzero;fill:rgb(63.921571%,39.215687%,69.803923%);fill-opacity:1;" d="M 45.179688 27.199219 C 46.539062 26.820312 47.480469 29.359375 46.261719 31.941406 C 45.171875 34.238281 43.589844 36.019531 41.46875 37.199219 C 40.421875 37.78125 38.839844 38.421875 38.230469 37.289062 C 37.570312 36.078125 38.320312 35.460938 39.640625 34.519531 C 40.851562 33.648438 42.078125 32.359375 42.78125 31.140625 C 43.480469 29.921875 44.160156 27.480469 45.179688 27.199219 Z M 45.179688 27.199219 "/>
<path style=" stroke:none;fill-rule:nonzero;fill:rgb(63.921571%,39.215687%,69.803923%);fill-opacity:1;" d="M 38.699219 20.398438 C 39.800781 20.078125 40.621094 22.28125 39.628906 24.488281 C 38.75 26.460938 37.660156 28.03125 35.960938 29.039062 C 35.121094 29.539062 33.839844 30.089844 33.351562 29.121094 C 32.820312 28.078125 33.320312 27.351562 34.378906 26.539062 C 35.359375 25.800781 36.210938 24.441406 36.769531 23.398438 C 37.339844 22.359375 37.878906 20.640625 38.699219 20.398438 Z M 38.699219 20.398438 "/>
<path style=" stroke:none;fill-rule:nonzero;fill:rgb(63.921571%,39.215687%,69.803923%);fill-opacity:1;" d="M 33.089844 14.398438 C 34 14.648438 34.640625 16.261719 33.820312 17.910156 C 33.089844 19.378906 32.378906 20.160156 30.960938 20.910156 C 30.25 21.28125 29.429688 21.75 28.980469 21.191406 C 28.410156 20.488281 28.199219 19.488281 29.089844 18.890625 C 29.910156 18.339844 30.828125 17.671875 31.441406 16.5 C 31.851562 15.691406 32.25 14.171875 33.089844 14.398438 Z M 33.089844 14.398438 "/>
<path style=" stroke:none;fill-rule:nonzero;fill:rgb(63.921571%,39.215687%,69.803923%);fill-opacity:1;" d="M 27.070312 8.839844 C 27.691406 8.691406 28.449219 9.988281 27.898438 11.03125 C 27.410156 11.960938 26.78125 12.550781 25.820312 13.03125 C 25.351562 13.269531 24.820312 13.410156 24.539062 12.960938 C 24.238281 12.46875 23.960938 12.128906 24.558594 11.75 C 25.109375 11.398438 25.878906 10.609375 26.199219 10.109375 C 26.519531 9.621094 26.609375 8.960938 27.070312 8.839844 Z M 27.070312 8.839844 "/>
<path style=" stroke:none;fill-rule:nonzero;fill:rgb(87.450981%,87.450981%,87.450981%);fill-opacity:1;" d="M 50.28125 119.898438 C 49.269531 119.230469 54.28125 101.808594 56.25 97.171875 C 58.21875 92.519531 59.390625 88.628906 59.390625 88.628906 C 59.390625 88.628906 49.960938 90.078125 43.859375 90.128906 C 39.210938 90.171875 32.460938 89.570312 32.460938 89.570312 L 18.941406 71.828125 C 18.941406 71.828125 22.738281 64.929688 24.988281 62.121094 C 27.238281 59.300781 34 50.148438 37.378906 46.921875 C 40.761719 43.679688 45.398438 40.300781 47.378906 39.460938 C 49.351562 38.621094 50.621094 38.050781 50.621094 38.050781 C 50.621094 38.050781 49.628906 32 50.058594 28.199219 C 50.480469 24.398438 55.871094 13.789062 56.71875 13.789062 C 57.851562 13.789062 62.730469 21.019531 63.710938 25.941406 C 64.699219 30.859375 75.398438 44.660156 75.398438 44.660156 L 106.648438 103.789062 C 106.648438 103.789062 107.210938 119.558594 107.070312 120.121094 C 106.929688 120.679688 89.609375 123.078125 79.050781 123.078125 C 68.488281 123.078125 51.128906 120.46875 50.28125 119.898438 Z M 50.28125 119.898438 "/>
<path style=" stroke:none;fill-rule:nonzero;fill:rgb(69.01961%,69.01961%,69.01961%);fill-opacity:1;" d="M 71.570312 69.378906 C 70.53125 69.328125 67.558594 75.28125 64.578125 79.660156 C 62.070312 83.339844 59.128906 85.109375 55.988281 86.75 C 52.75 88.441406 47.941406 89.539062 49.578125 89.871094 C 51.21875 90.199219 61.011719 89.109375 64.289062 87.730469 C 66.140625 86.960938 68.71875 83.148438 70.039062 80.621094 C 71.359375 78.089844 73.730469 69.46875 71.570312 69.378906 Z M 71.570312 69.378906 "/>
<path style=" stroke:none;fill-rule:nonzero;fill:rgb(18.82353%,18.82353%,18.82353%);fill-opacity:1;" d="M 53.789062 57.941406 C 54 61.039062 52.871094 63.710938 49.640625 63.921875 C 47.359375 64.070312 45.648438 61.761719 45.359375 58.941406 C 45.128906 56.738281 46.050781 53.898438 49.058594 53.480469 C 51.890625 53.078125 53.589844 55.109375 53.789062 57.941406 Z M 53.789062 57.941406 "/>
<path style=" stroke:none;fill-rule:nonzero;fill:rgb(90.588236%,29.411766%,54.901963%);fill-opacity:1;" d="M 63.570312 25.980469 C 63.570312 25.980469 72.058594 29.800781 75.328125 29.078125 C 77.859375 28.519531 78.738281 26.691406 78.851562 24.859375 C 78.988281 22.398438 76.808594 22.679688 76.460938 21.691406 C 76.109375 20.699219 78.710938 18.941406 81.738281 19.511719 C 84.769531 20.070312 88.378906 22.871094 88.308594 27.371094 C 88.238281 31.871094 85.46875 34.289062 85.46875 34.289062 C 85.46875 34.289062 92.769531 33.941406 97.648438 38.941406 C 103.140625 44.570312 101.941406 53.789062 101.941406 53.789062 C 101.941406 53.789062 104.828125 54.210938 105.878906 52.730469 C 106.929688 51.25 106.648438 49.558594 105.949219 48.578125 C 105.25 47.589844 107.289062 46.960938 108.621094 47.519531 C 109.960938 48.078125 116.140625 52.511719 112.78125 59.660156 C 110.699219 64.101562 105.449219 64.769531 105.449219 64.769531 C 105.449219 64.769531 114.25 68.660156 117.46875 78.46875 C 121.011719 89.269531 117.140625 96.449219 113.128906 103.339844 C 109.121094 110.238281 109.480469 110.648438 109.261719 112.910156 C 108.980469 115.730469 108.128906 119.25 107.078125 119.171875 C 106.019531 119.101562 104.761719 116.140625 104.121094 112.910156 C 103.488281 109.671875 99.539062 106.5 96.378906 103.621094 C 93.21875 100.738281 85.28125 93.128906 83 86.171875 C 80.109375 77.371094 81.589844 65.121094 81.589844 65.121094 C 81.589844 65.121094 72.859375 61.109375 68 53.078125 C 62.738281 44.390625 63.210938 38.019531 63.210938 38.019531 C 63.210938 38.019531 64.550781 34.21875 64.621094 31.609375 C 64.691406 29 63.570312 25.980469 63.570312 25.980469 Z M 63.570312 25.980469 "/>
<path style=" stroke:none;fill-rule:nonzero;fill:rgb(94.117647%,50.588238%,68.627453%);fill-opacity:1;" d="M 77.300781 32.039062 C 77.910156 34.660156 82.71875 33.308594 83.640625 28.871094 C 84.558594 24.429688 82.019531 22.460938 80.539062 23.308594 C 79.058594 24.148438 80.890625 26.410156 79.910156 28.308594 C 78.929688 30.210938 76.800781 29.921875 77.300781 32.039062 Z M 77.300781 32.039062 "/>
<path style=" stroke:none;fill-rule:nonzero;fill:rgb(94.117647%,50.588238%,68.627453%);fill-opacity:1;" d="M 101.699219 57.601562 C 100.859375 60.160156 105.25 61.050781 108.691406 58.289062 C 112.21875 55.449219 111.21875 51.25 109.179688 51.460938 C 106.589844 51.730469 107.691406 54.660156 105.859375 55.769531 C 104.03125 56.890625 102.378906 55.550781 101.699219 57.601562 Z M 101.699219 57.601562 "/>
<path style=" stroke:none;fill-rule:nonzero;fill:rgb(94.117647%,50.588238%,68.627453%);fill-opacity:1;" d="M 71.738281 35.339844 C 68.359375 34.921875 67.890625 41.511719 69.980469 46.039062 C 73.289062 53.21875 78.78125 51.878906 82.578125 56.53125 C 85.519531 60.128906 84.828125 64.769531 87.859375 64.699219 C 90.890625 64.628906 91.660156 59.558594 87.019531 53.371094 C 82.371094 47.179688 76.53125 47.179688 74.769531 43.449219 C 73 39.710938 75.679688 35.839844 71.738281 35.339844 Z M 71.738281 35.339844 "/>
<path style=" stroke:none;fill-rule:nonzero;fill:rgb(94.117647%,50.588238%,68.627453%);fill-opacity:1;" d="M 88.910156 67.230469 C 85.039062 69.441406 87.800781 74.449219 89.898438 74.898438 C 92.859375 75.53125 94.191406 73.558594 94.550781 71.589844 C 94.910156 69.621094 92.851562 64.980469 88.910156 67.230469 Z M 88.910156 67.230469 "/>
<path style=" stroke:none;fill-rule:nonzero;fill:rgb(94.117647%,50.588238%,68.627453%);fill-opacity:1;" d="M 91.871094 79.128906 C 88.808594 79.628906 89.148438 82.699219 89.691406 85.820312 C 90.609375 91.171875 93.421875 96.308594 96.730469 99.050781 C 99.929688 101.699219 101.730469 100.878906 102.640625 99.820312 C 103.71875 98.578125 102.710938 96.371094 101.441406 94.890625 C 100.171875 93.410156 98.53125 91.511719 97.429688 89.890625 C 96.089844 87.921875 95.929688 85.359375 95.671875 83.910156 C 95.179688 81.101562 94.890625 78.628906 91.871094 79.128906 Z M 91.871094 79.128906 "/>
<path style=" stroke:none;fill-rule:nonzero;fill:rgb(100%,100%,100%);fill-opacity:1;" d="M 11.339844 93.28125 C 14.441406 99.128906 21.691406 97.640625 21.691406 97.640625 C 21.691406 97.640625 28.519531 94.539062 28.519531 94.328125 C 28.519531 94.121094 33.019531 88.421875 33.019531 88.421875 C 33.019531 88.421875 31.820312 83.28125 27.179688 77.648438 C 23.511719 73.210938 19.648438 71.03125 19.648438 71.03125 L 11.199219 78.628906 C 11.199219 78.628906 6.980469 85.039062 11.339844 93.28125 Z M 11.339844 93.28125 "/>
<path style=" stroke:none;fill-rule:nonzero;fill:rgb(56.470591%,56.470591%,60.784316%);fill-opacity:1;" d="M 16.898438 77.859375 C 16.410156 79.691406 18.03125 80.390625 18.589844 81.03125 C 19.148438 81.660156 17.820312 84.339844 19.71875 85.039062 C 21.621094 85.738281 23.800781 82.578125 23.101562 79.828125 C 22.339844 76.890625 17.640625 75.121094 16.898438 77.859375 Z M 16.898438 77.859375 "/>
<path style=" stroke:none;fill-rule:nonzero;fill:rgb(68.627453%,68.627453%,68.627453%);fill-opacity:1;" d="M 20.488281 70.800781 C 20 69.859375 18.921875 70.328125 17.859375 71.320312 C 16.800781 72.308594 10.820312 76.671875 9.128906 80.660156 C 7.890625 83.589844 7 89.238281 10.21875 93.839844 C 13.558594 98.621094 16.558594 99.078125 21.128906 98.699219 C 27.820312 98.140625 31.519531 92.648438 32.230469 91.730469 C 32.941406 90.808594 34.480469 88.820312 33.640625 87.839844 C 32.800781 86.851562 32.011719 88.28125 30.921875 89.761719 C 29.511719 91.660156 28.390625 92.808594 26.980469 94.078125 C 26.160156 94.820312 23.808594 96.101562 22.828125 96.308594 C 21.839844 96.519531 24.78125 94.828125 25.929688 92.859375 C 26.710938 91.53125 28.320312 88.359375 28.320312 88.359375 L 25.570312 87.519531 C 25.570312 87.519531 24.230469 90.429688 23.179688 91.699219 C 22.121094 92.96875 18.820312 95.828125 17.828125 96.039062 C 16.839844 96.25 13.109375 94.589844 11.449219 91.609375 C 9.851562 88.75 9.601562 84.640625 11.21875 81.398438 C 12.839844 78.160156 16.921875 74.851562 18.191406 73.871094 C 19.441406 72.859375 21.121094 72 20.488281 70.800781 Z M 20.488281 70.800781 "/>
<path style=" stroke:none;fill-rule:nonzero;fill:rgb(56.470591%,56.470591%,60.784316%);fill-opacity:1;" d="M 28.519531 85.628906 C 27.761719 84.96875 26.5 85.441406 25.851562 86.328125 C 25.191406 87.21875 24.960938 88.25 26.269531 88.960938 C 27.578125 89.660156 28.429688 88.910156 29.039062 88.070312 C 29.640625 87.21875 29.21875 86.238281 28.519531 85.628906 Z M 28.519531 85.628906 "/>
</g>
</svg>
